<?xml version="1.0" encoding="UTF-8"?>
<svg id="stuffs" xmlns="http://www.w3.org/2000/svg" viewBox="0 0 1116 844.26">
  <path d="M363.85,409.19c0-2.64.56-9.72,10.04-9.72,8.52,0,9.84,5.72,10,8.8.04.56-.32,1-.88,1.12l-4.44,1c-.84.16-1.48-.4-1.6-1.24-.2-1.76-.92-2.8-3.08-2.8-2.96,0-3.16,1.88-3.16,4.96v5.76c0,3.08.2,4.96,3.16,4.96,2.2,0,2.8-1.04,3.04-2.88.12-.84.76-1.36,1.56-1.16l4.52,1c.56.12.92.56.88,1.16-.16,3.04-1.48,8.76-10,8.76-9.48,0-10.04-7.08-10.04-9.72v-10Z"/>
  <path d="M392.22,400.19c.8,0,1.2.4,1.2,1.2v18.72c0,.76.44,1.2,1.2,1.2h8.92c.8,0,1.2.4,1.2,1.2v4.48c0,.8-.4,1.2-1.2,1.2h-15.8c-.76,0-1.2-.44-1.2-1.2v-25.6c0-.8.44-1.2,1.2-1.2h4.48Z"/>
  <path d="M412.85,400.19c.8,0,1.2.4,1.2,1.2v25.6c0,.76-.4,1.2-1.2,1.2h-4.4c-.76,0-1.2-.44-1.2-1.2v-25.6c0-.8.44-1.2,1.2-1.2h4.4Z"/>
  <path d="M417.18,409.19c0-2.64.56-9.72,10.04-9.72,8.52,0,9.84,5.72,10,8.8.04.56-.32,1-.88,1.12l-4.44,1c-.84.16-1.48-.4-1.6-1.24-.2-1.76-.92-2.8-3.08-2.8-2.96,0-3.16,1.88-3.16,4.96v5.76c0,3.08.2,4.96,3.16,4.96,2.2,0,2.8-1.04,3.04-2.88.12-.84.76-1.36,1.56-1.16l4.52,1c.56.12.92.56.88,1.16-.16,3.04-1.48,8.76-10,8.76-9.48,0-10.04-7.08-10.04-9.72v-10Z"/>
  <path d="M462.35,426.75c.56.8.2,1.44-.76,1.44h-6c-.64,0-1.08-.24-1.44-.8l-4.96-7.6c-.16-.24-.4-.24-.56,0l-1.64,2.24c-.12.16-.16.32-.16.52v4.44c0,.76-.4,1.2-1.2,1.2h-4.56c-.76,0-1.2-.44-1.2-1.2v-25.6c0-.8.44-1.2,1.2-1.2h4.56c.8,0,1.2.4,1.2,1.2v8.04c0,.4.28.48.48.16l6.28-8.64c.36-.52.8-.76,1.44-.76h5.92c1,0,1.32.64.76,1.48l-8.08,11.12c-.12.2-.16.36,0,.56l8.72,13.4Z"/>
  <path d="M482.47,400.19c.76,0,1.2.44,1.2,1.2v10c0,.76.44,1.2,1.2,1.2h3.84c.8,0,1.2-.44,1.2-1.2v-10c0-.76.44-1.2,1.2-1.2h4.48c.8,0,1.2.4,1.2,1.2v25.6c0,.76-.4,1.2-1.2,1.2h-4.48c-.76,0-1.2-.44-1.2-1.2v-6.32c0-.8-.4-1.2-1.2-1.2h-3.84c-.76,0-1.2.4-1.2,1.2v6.32c0,.76-.4,1.2-1.2,1.2h-4.48c-.76,0-1.2-.44-1.2-1.2v-25.6c0-.8.4-1.2,1.2-1.2h4.48Z"/>
  <path d="M518.32,400.19c.8,0,1.2.4,1.2,1.2v4.48c0,.76-.4,1.2-1.2,1.2h-9.68c-.76,0-1.2.4-1.2,1.2v1.28c0,.76.44,1.2,1.2,1.2h6.2c.8,0,1.2.4,1.2,1.2v4.48c0,.76-.4,1.2-1.2,1.2h-6.2c-.76,0-1.2.4-1.2,1.2v1.28c0,.76.44,1.2,1.2,1.2h9.68c.8,0,1.2.4,1.2,1.2v4.48c0,.8-.4,1.2-1.2,1.2h-16.8c-.76,0-1.2-.44-1.2-1.2v-25.6c0-.8.44-1.2,1.2-1.2h16.8Z"/>
  <path d="M543.4,426.03c.56,1.04-.08,2.16-1.32,2.16h-4.56c-.4,0-.76-.2-.92-.56l-4.16-8.04c-.08-.12-.2-.2-.32-.2h-1.6c-.72,0-1.24.52-1.24,1.24v6.32c0,.72-.52,1.24-1.24,1.24h-4.48c-.72,0-1.24-.52-1.24-1.24v-25.52c0-.72.52-1.24,1.24-1.24h8.76c7.12,0,10,3.04,10,9.6,0,3.72-.92,6.32-3.04,7.84-.16.12-.2.32-.12.52l4.24,7.88ZM530.52,407.07c-.72,0-1.24.52-1.24,1.24v2.96c0,.72.52,1.24,1.24,1.24h2.04c1.92,0,2.88-.24,2.88-2.72s-.96-2.72-2.88-2.72h-2.04Z"/>
  <path d="M564.12,400.19c.8,0,1.2.4,1.2,1.2v4.48c0,.76-.4,1.2-1.2,1.2h-9.68c-.76,0-1.2.4-1.2,1.2v1.28c0,.76.44,1.2,1.2,1.2h6.2c.8,0,1.2.4,1.2,1.2v4.48c0,.76-.4,1.2-1.2,1.2h-6.2c-.76,0-1.2.4-1.2,1.2v1.28c0,.76.44,1.2,1.2,1.2h9.68c.8,0,1.2.4,1.2,1.2v4.48c0,.8-.4,1.2-1.2,1.2h-16.8c-.76,0-1.2-.44-1.2-1.2v-25.6c0-.8.44-1.2,1.2-1.2h16.8Z"/>
  <path d="M586.8,408.27c0-.8-.4-1.2-1.2-1.2h-5.6c-.76,0-1.2-.44-1.2-1.2v-4.48c0-.8.44-1.2,1.2-1.2h20.48c.8,0,1.2.4,1.2,1.2v4.48c0,.76-.4,1.2-1.2,1.2h-5.6c-.76,0-1.2.4-1.2,1.2v18.72c0,.76-.4,1.2-1.2,1.2h-4.48c-.76,0-1.2-.44-1.2-1.2v-18.72Z"/>
  <path d="M623.96,419.19c0,2.64-.56,9.72-10.04,9.72s-10.04-7.08-10.04-9.72v-10c0-2.64.56-9.72,10.04-9.72s10.04,7.08,10.04,9.72v10ZM617.08,411.31c0-3.08-.2-4.96-3.16-4.96s-3.16,1.88-3.16,4.96v5.76c0,3.08.2,4.96,3.16,4.96s3.16-1.88,3.16-4.96v-5.76Z"/>
  <path d="M649.16,400.19c7.52,0,10.4,3.04,10.4,9.6,0,1.36-.4,4-2.04,5.8,1.64.76,2.84,2.76,2.84,5.24,0,4.96-2.2,7.36-9.72,7.36h-9.88c-.76,0-1.2-.44-1.2-1.2v-25.56c0-.8.4-1.2,1.2-1.24h8.4ZM650.12,422.51c1.92,0,2.88-.2,2.88-2.08s-.88-2.16-2.8-2.16h-2.6c-.76,0-1.2.4-1.2,1.2v1.84c0,.8.44,1.2,1.2,1.2h2.52ZM649.8,412.51c1.92,0,2.88-.24,2.88-2.72s-.96-2.72-2.88-2.72h-2.16c-.76,0-1.2.4-1.2,1.2v3.04c0,.8.44,1.2,1.2,1.2h2.16Z"/>
  <path d="M680.97,400.19c.8,0,1.2.4,1.2,1.2v4.48c0,.76-.4,1.2-1.2,1.2h-9.68c-.76,0-1.2.4-1.2,1.2v1.28c0,.76.44,1.2,1.2,1.2h6.2c.8,0,1.2.4,1.2,1.2v4.48c0,.76-.4,1.2-1.2,1.2h-6.2c-.76,0-1.2.4-1.2,1.2v1.28c0,.76.44,1.2,1.2,1.2h9.68c.8,0,1.2.4,1.2,1.2v4.48c0,.8-.4,1.2-1.2,1.2h-16.8c-.76,0-1.2-.44-1.2-1.2v-25.6c0-.8.44-1.2,1.2-1.2h16.8Z"/>
  <path d="M684.69,409.19c0-2.64.56-9.72,10.04-9.72,8.4,0,9.8,5.52,10,8.64.04.72-.32,1.16-1.04,1.32l-4.52,1c-.8.16-1.24-.2-1.32-1.04-.16-1.92-.84-3.04-3.12-3.04-2.96,0-3.16,1.88-3.16,4.96v5.76c0,3.08.2,4.96,3.16,4.96s3.16-1.88,3.16-3.84h-2.32c-.76,0-1.2-.44-1.2-1.2v-3.2c0-.8.44-1.2,1.2-1.2h8c.8,0,1.2.4,1.2,1.2v5.4c0,2.64-.56,9.72-10.04,9.72s-10.04-7.08-10.04-9.72v-10Z"/>
  <path d="M713.43,400.19c.8,0,1.2.4,1.2,1.2v25.6c0,.76-.4,1.2-1.2,1.2h-4.4c-.76,0-1.2-.44-1.2-1.2v-25.6c0-.8.44-1.2,1.2-1.2h4.4Z"/>
  <path d="M725.2,400.19c.68,0,1.12.28,1.4.92l5.44,13.32c.16.36.48.28.48-.12v-12.92c0-.8.44-1.2,1.2-1.2h4.48c.8,0,1.2.4,1.2,1.2v25.6c0,.76-.4,1.2-1.2,1.2h-5.88c-.68,0-1.12-.28-1.4-.92l-5.44-13.32c-.16-.36-.48-.28-.48.12v12.92c0,.76-.4,1.2-1.2,1.2h-4.48c-.76,0-1.2-.44-1.2-1.2v-25.6c0-.8.44-1.2,1.2-1.2h5.88Z"/>
  <path d="M750.15,400.19c.8,0,1.24.4,1.2,1.2l-.8,16.8c-.04.76-.4,1.2-1.2,1.2h-4.48c-.76,0-1.16-.44-1.2-1.2l-.8-16.8c-.04-.8.44-1.2,1.2-1.2h6.08ZM749.35,421.31c.8,0,1.2.4,1.2,1.2v4.48c0,.76-.4,1.2-1.2,1.2h-4.48c-.76,0-1.2-.44-1.2-1.2v-4.48c0-.8.44-1.2,1.2-1.2h4.48Z"/>
</svg>