<?xml version="1.0" encoding="UTF-8"?>
<svg xmlns="http://www.w3.org/2000/svg" viewBox="0 0 1116 844.26">
  <g id="_01" data-name="01">
    <g>
      <rect x="85.31" y="75.74" width="932.07" height="112.63" rx="56.31" ry="56.31" fill="#fff" stroke="#000" stroke-miterlimit="10" stroke-width="4"/>
      <path d="M141.63,75.74c-30.97,0-56.31,25.34-56.31,56.31h0c0,30.97,25.34,56.32,56.31,56.32h126.08v-112.63h-126.08Z" fill="#ff6969" stroke="#000" stroke-miterlimit="10" stroke-width="4"/>
      <g>
        <path d="M117.05,115.32c-.21-1.1.31-1.73,1.41-1.73h6.23c.94,0,1.62.47,1.73,1.36l2.98,21.83c.11.52.52.52.63,0l3.51-21.83c.16-.89.78-1.36,1.73-1.36h4.5c.94,0,1.57.47,1.73,1.36l3.51,21.83c.11.52.52.52.63,0l2.98-21.83c.1-.89.78-1.36,1.73-1.36h6.23c1.1,0,1.62.63,1.41,1.73l-6.44,33.55c-.16.89-.78,1.36-1.73,1.36h-7.38c-.94,0-1.52-.47-1.73-1.36l-2.88-12.87c-.1-.52-.52-.52-.63,0l-2.88,12.87c-.21.89-.78,1.36-1.73,1.36h-7.38c-.94,0-1.57-.47-1.73-1.36l-6.44-33.55Z"/>
        <path d="M169,113.6c.99,0,1.57.58,1.57,1.57v13.08c0,.99.58,1.57,1.57,1.57h5.02c1.05,0,1.57-.58,1.57-1.57v-13.08c0-.99.58-1.57,1.57-1.57h5.86c1.05,0,1.57.52,1.57,1.57v33.5c0,.99-.52,1.57-1.57,1.57h-5.86c-.99,0-1.57-.58-1.57-1.57v-8.27c0-1.05-.52-1.57-1.57-1.57h-5.02c-.99,0-1.57.52-1.57,1.57v8.27c0,.99-.52,1.57-1.57,1.57h-5.86c-.99,0-1.57-.58-1.57-1.57v-33.5c0-1.05.52-1.57,1.57-1.57h5.86Z"/>
        <path d="M218.36,138.46c0,3.45-.73,12.72-13.14,12.72s-13.14-9.26-13.14-12.72v-13.08c0-3.45.73-12.72,13.14-12.72s13.14,9.26,13.14,12.72v13.08ZM209.36,128.15c0-4.03-.26-6.49-4.13-6.49s-4.13,2.46-4.13,6.49v7.54c0,4.03.26,6.49,4.13,6.49s4.13-2.46,4.13-6.49v-7.54Z"/>
        <path d="M232.44,138.56c-1.05,0-1.68-.63-1.47-1.73,1.26-7.12,6.49-6.39,7.59-11.72.31-1.57-.52-3.46-2.56-3.46-2.46,0-3.66,1.36-4.03,3.51-.16,1.05-.68,1.52-1.73,1.31l-5.97-1.31c-.94-.21-1.41-.78-1.36-1.73.31-3.77,2.3-10.78,13.08-10.78,11.72,0,12.14,9.26,12.09,10.83,0,8.69-6.07,9.42-7.96,13.77-.37.89-.84,1.31-1.78,1.31h-5.91ZM232.29,141.23c-.99,0-1.57.52-1.57,1.57v5.86c0,.99.58,1.57,1.57,1.57h5.86c1.05,0,1.57-.58,1.57-1.57v-5.86c0-1.05-.52-1.57-1.57-1.57h-5.86Z"/>
      </g>
      <g>
        <path d="M348.99,97.81c-.93,0-1.27-.67-1.27-1.35,0-.71.34-1.42,1.27-1.42h15.7c.93,0,1.27.71,1.27,1.42,0,.67-.34,1.35-1.27,1.35h-6.02c-.22,0-.34.07-.34.34v21.76c0,1.05-.78,1.31-1.5,1.31-.75,0-1.5-.26-1.5-1.31v-21.76c0-.26-.07-.34-.34-.34h-6.02Z"/>
        <path d="M372.54,104.06c0,.19.07.26.22.26.07,0,.22-.15.3-.19,1.38-1.16,2.95-1.53,4.6-1.53,5.01,0,6.51,3.22,6.51,7.74v9.65c0,.9-.67,1.23-1.35,1.23-.71,0-1.42-.34-1.42-1.23v-8.45c0-3.63-.15-6.32-4.45-6.32-3.14,0-4.41,1.68-4.41,4.97v9.8c0,.9-.71,1.23-1.38,1.23-.71,0-1.38-.34-1.38-1.23v-23.86c0-.9.67-1.23,1.38-1.23.67,0,1.38.34,1.38,1.23v7.93Z"/>
        <path d="M391.12,98.6c-1.12,0-1.87-.79-1.87-1.87s.75-1.83,1.87-1.83c1.05,0,1.83.75,1.83,1.83s-.78,1.87-1.83,1.87ZM392.5,119.99c0,.9-.71,1.23-1.38,1.23-.71,0-1.38-.34-1.38-1.23v-16.16c0-.9.67-1.23,1.38-1.23.67,0,1.38.34,1.38,1.23v16.16Z"/>
        <path d="M404.09,118.61c2.21,0,3.7-.93,3.7-2.62,0-1.27-.97-1.94-2.77-2.51l-2.73-.86c-2.95-.93-4.75-2.32-4.75-5.01,0-3.1,2.69-5.01,6.54-5.01,2.28,0,3.78.67,4.6,1.16.52.3.86.64.86,1.12,0,.64-.64,1.46-1.23,1.46-.34,0-.52-.11-.78-.22-.56-.34-2.02-.9-3.44-.9-2.21,0-3.7.82-3.7,2.28,0,1.31,1.05,1.94,2.77,2.5l2.69.86c3.11.97,4.79,2.39,4.79,5.12,0,3.22-2.69,5.24-6.54,5.24-2.99,0-4.9-1.05-6.17-2.28-.26-.3-.56-.56-.56-1.01,0-.67.64-1.42,1.42-1.42.26,0,.45.04.93.45.93.82,1.98,1.65,4.38,1.65Z"/>
        <path d="M429.74,118.61c2.21,0,3.7-.93,3.7-2.62,0-1.27-.97-1.94-2.77-2.51l-2.73-.86c-2.95-.93-4.75-2.32-4.75-5.01,0-3.1,2.69-5.01,6.54-5.01,2.28,0,3.78.67,4.6,1.16.52.3.86.64.86,1.12,0,.64-.64,1.46-1.23,1.46-.34,0-.52-.11-.78-.22-.56-.34-2.02-.9-3.44-.9-2.21,0-3.7.82-3.7,2.28,0,1.31,1.05,1.94,2.77,2.5l2.69.86c3.1.97,4.79,2.39,4.79,5.12,0,3.22-2.69,5.24-6.54,5.24-2.99,0-4.9-1.05-6.17-2.28-.26-.3-.56-.56-.56-1.01,0-.67.64-1.42,1.42-1.42.26,0,.45.04.93.45.94.82,1.98,1.65,4.38,1.65Z"/>
        <path d="M446.97,121.22c-3.55,0-5.12-2.02-5.12-5.39v-10.28c0-.19-.11-.26-.34-.26h-1.95c-.9,0-1.2-.6-1.2-1.27s.3-1.27,1.2-1.27h1.95c.22,0,.34-.07.34-.3v-4.26c0-.9.67-1.23,1.38-1.23.67,0,1.38.34,1.38,1.23v4.23c0,.26.07.34.34.34h2.36c.9,0,1.2.6,1.2,1.27s-.3,1.27-1.2,1.27h-2.36c-.26,0-.34.07-.34.34v10.47c0,1.57.9,2.51,2.65,2.51.78,0,1.23.56,1.23,1.27,0,.64-.37,1.35-1.53,1.35Z"/>
        <path d="M463.69,113.71v-9.87c0-.9.71-1.23,1.42-1.23.67,0,1.35.34,1.35,1.23v16.16c0,.9-.67,1.23-1.35,1.23-.64,0-1.42-.26-1.42-1.23v-.22c0-.15-.07-.26-.19-.26s-.26.15-.3.19c-1.38,1.16-2.99,1.53-4.6,1.53-5.08,0-6.51-3.22-6.51-7.78v-9.61c0-.9.71-1.23,1.38-1.23.71,0,1.38.34,1.38,1.23v8.6c0,3.63.19,6.17,4.41,6.17,3.18,0,4.41-1.68,4.41-4.9Z"/>
        <path d="M472.62,105.56c0-.19-.15-.26-.34-.26h-1.27c-.86,0-1.12-.64-1.12-1.27,0-.6.26-1.27,1.12-1.27h1.27c.22,0,.34-.07.34-.26v-3.18c0-2.92,1.57-4.26,4.34-4.26h1.23c.86,0,1.16.64,1.16,1.27s-.3,1.27-1.16,1.27h-1.05c-1.16,0-1.76.45-1.76,1.94v2.88c0,.26.11.34.34.34h2.47c.82,0,1.12.67,1.12,1.27,0,.64-.3,1.27-1.12,1.27h-2.47c-.22,0-.34.07-.34.34v14.36c0,.9-.71,1.23-1.38,1.23-.71,0-1.38-.34-1.38-1.23v-14.43Z"/>
        <path d="M483.38,105.56c0-.19-.15-.26-.34-.26h-1.27c-.86,0-1.12-.64-1.12-1.27,0-.6.26-1.27,1.12-1.27h1.27c.22,0,.34-.07.34-.26v-3.18c0-2.92,1.57-4.26,4.34-4.26h1.23c.86,0,1.16.64,1.16,1.27s-.3,1.27-1.16,1.27h-1.05c-1.16,0-1.76.45-1.76,1.94v2.88c0,.26.11.34.34.34h2.47c.82,0,1.12.67,1.12,1.27,0,.64-.3,1.27-1.12,1.27h-2.47c-.22,0-.34.07-.34.34v14.36c0,.9-.71,1.23-1.38,1.23-.71,0-1.38-.34-1.38-1.23v-14.43Z"/>
        <path d="M501.44,111.91c0-5.31,1.35-9.31,6.92-9.31,1.42,0,3.03.37,4.41,1.57,0,0,.19.19.3.19s.19-.07.19-.26v-7.96c0-.9.71-1.23,1.42-1.23.67,0,1.35.34,1.35,1.23v23.86c0,.9-.67,1.23-1.35,1.23s-1.42-.22-1.42-1.08v-.45c0-.19-.07-.22-.19-.22-.07,0-.26.15-.34.22-1.42,1.2-2.95,1.53-4.38,1.53-5.57,0-6.92-4-6.92-9.31ZM504.28,111.91c0,3.93.34,6.69,4.56,6.69s4.41-2.92,4.41-6.69c0-3.4-.07-6.69-4.41-6.69s-4.56,2.77-4.56,6.69Z"/>
        <path d="M528.51,102.6c6.28,0,7.44,4,7.44,9.31s-1.16,9.31-7.44,9.31-7.44-4-7.44-9.31,1.16-9.31,7.44-9.31ZM528.51,118.61c4.26,0,4.6-2.77,4.6-6.69s-.34-6.69-4.6-6.69-4.6,2.77-4.6,6.69.34,6.69,4.6,6.69Z"/>
        <path d="M543.42,113c-.22,0-.26.11-.26.26.11,3.48.82,5.35,4.97,5.35,1.16,0,2.65-.37,3.67-.93,1.08-.64,1.27-.82,1.57-.82.86,0,1.35.82,1.35,1.57,0,.37-.19.71-.6.97-1.64,1.12-3.78,1.83-6.24,1.83-6.28,0-7.59-3.63-7.59-9.31,0-5.31,1.16-9.31,7.44-9.31s7.29,4.67,7.29,8.04c0,.97-.15,2.35-1.79,2.35h-9.8ZM547.73,105.07c-3.29,0-4.56,2.02-4.56,5.2,0,.19,0,.34.26.34h8.56c.15,0,.26-.04.26-.22,0-2.99-1.08-5.31-4.52-5.31Z"/>
        <path d="M565.78,118.61c2.21,0,3.7-.93,3.7-2.62,0-1.27-.97-1.94-2.77-2.51l-2.73-.86c-2.96-.93-4.75-2.32-4.75-5.01,0-3.1,2.69-5.01,6.54-5.01,2.28,0,3.78.67,4.6,1.16.52.3.86.64.86,1.12,0,.64-.64,1.46-1.23,1.46-.34,0-.52-.11-.79-.22-.56-.34-2.02-.9-3.44-.9-2.21,0-3.7.82-3.7,2.28,0,1.31,1.05,1.94,2.77,2.5l2.69.86c3.1.97,4.79,2.39,4.79,5.12,0,3.22-2.69,5.24-6.54,5.24-2.99,0-4.9-1.05-6.17-2.28-.26-.3-.56-.56-.56-1.01,0-.67.64-1.42,1.42-1.42.26,0,.45.04.93.45.93.82,1.98,1.65,4.38,1.65Z"/>
        <path d="M579.95,110.12v9.87c0,.9-.71,1.23-1.38,1.23-.71,0-1.38-.34-1.38-1.23v-16.16c0-.9.67-1.23,1.38-1.23s1.42.34,1.42,1.16v.37c0,.11.07.19.19.19.07,0,.22-.15.3-.19,1.38-1.16,2.95-1.53,4.6-1.53,5.01,0,6.51,3.22,6.51,7.74v9.65c0,.9-.67,1.23-1.35,1.23-.71,0-1.42-.34-1.42-1.23v-8.45c0-3.63-.15-6.32-4.45-6.32-3.14,0-4.41,1.72-4.41,4.9Z"/>
        <path d="M597.56,103.65c-.26.45-.67.56-1.01.56-.6,0-1.53-.49-1.53-1.2,0-.19.04-.45.19-.71l.82-1.38c.19-.3.22-.52.22-1.12v-3.66c0-.9.71-1.23,1.35-1.23.75,0,1.38.34,1.38,1.23v3.96c0,.86-.15,1.42-.49,1.98l-.93,1.57Z"/>
        <path d="M610.04,121.22c-3.55,0-5.12-2.02-5.12-5.39v-10.28c0-.19-.11-.26-.34-.26h-1.94c-.9,0-1.2-.6-1.2-1.27s.3-1.27,1.2-1.27h1.94c.22,0,.34-.07.34-.3v-4.26c0-.9.67-1.23,1.38-1.23.67,0,1.38.34,1.38,1.23v4.23c0,.26.07.34.34.34h2.36c.9,0,1.2.6,1.2,1.27s-.3,1.27-1.2,1.27h-2.36c-.26,0-.34.07-.34.34v10.47c0,1.57.9,2.51,2.65,2.51.78,0,1.23.56,1.23,1.27,0,.64-.37,1.35-1.53,1.35Z"/>
        <path d="M634.04,119.06c-.11,0-.22.15-.37.26-1.23,1.01-2.84,1.91-5.53,1.91-4.34,0-5.68-2.69-5.68-5.09,0-4.56,3.78-5.68,7.4-5.68h3.63c.26,0,.34-.11.34-.34v-1.08c0-2.58-1.27-3.82-4.11-3.82-2.28,0-3.21.56-4.37,1.42-.19.15-.37.19-.52.19-.71,0-1.38-.78-1.38-1.46,0-.41.22-.75.6-1.08,1.68-1.35,3.81-1.68,5.76-1.68,5.8,0,6.95,2.99,6.95,7.44v7.59c0,.67.19,1.01.82,1.01h.34c.64,0,.97.52.97,1.23,0,.97-.41,1.35-1.94,1.35-1.42,0-2.28-.64-2.69-1.94-.07-.19-.11-.22-.19-.22ZM633.97,113.26c0-.22-.11-.34-.34-.34h-3.51c-2.54,0-4.82.37-4.82,2.8,0,1.91,1.23,3.07,3.33,3.07,3.7,0,5.35-2.35,5.35-4.6v-.93Z"/>
        <path d="M657.11,111.91c0,5.31-1.35,9.31-6.95,9.31-1.42,0-2.99-.34-4.38-1.53,0-.04-.19-.19-.3-.19-.15,0-.22.11-.22.26v7.93c0,.9-.71,1.23-1.38,1.23-.71,0-1.38-.34-1.38-1.23v-23.86c0-.9.67-1.23,1.38-1.23s1.38.34,1.38,1.23v.26c0,.15.07.22.22.22.07,0,.26-.11.34-.19,1.42-1.2,2.92-1.53,4.34-1.53,5.61,0,6.95,4,6.95,9.31ZM654.27,111.91c0-3.93-.34-6.69-4.6-6.69s-4.41,3.03-4.41,6.69c0,3.33.07,6.69,4.41,6.69s4.6-2.77,4.6-6.69Z"/>
        <path d="M676.77,111.91c0,5.31-1.35,9.31-6.95,9.31-1.42,0-2.99-.34-4.38-1.53,0-.04-.19-.19-.3-.19-.15,0-.22.11-.22.26v7.93c0,.9-.71,1.23-1.38,1.23-.71,0-1.38-.34-1.38-1.23v-23.86c0-.9.67-1.23,1.38-1.23s1.38.34,1.38,1.23v.26c0,.15.07.22.22.22.07,0,.26-.11.34-.19,1.42-1.2,2.92-1.53,4.34-1.53,5.61,0,6.95,4,6.95,9.31ZM673.93,111.91c0-3.93-.34-6.69-4.6-6.69s-4.41,3.03-4.41,6.69c0,3.33.07,6.69,4.41,6.69s4.6-2.77,4.6-6.69Z"/>
        <path d="M681.82,116.92v-20.79c0-.9.67-1.23,1.38-1.23.67,0,1.38.34,1.38,1.23v20.6c0,1.35.56,1.83,1.87,1.83.67,0,1.16.45,1.16,1.23,0,.82-.45,1.42-1.79,1.42-2.62,0-4-1.38-4-4.3Z"/>
        <path d="M696.4,124.03c-1.08,2.77-2.95,4.9-5.53,4.9-.97,0-1.35-.56-1.35-1.38,0-.6.37-1.01,1.05-1.16,1.76-.37,2.5-.94,3.44-3.33l.86-2.13c.07-.22.15-.41.15-.64,0-.15-.04-.3-.11-.49l-5.91-15.44c-.07-.19-.11-.37-.11-.52,0-.75.86-1.23,1.61-1.23.41,0,.86.19,1.08.79l4.56,12.49c.11.34.11.71.37.71.22,0,.26-.45.37-.71l4.67-12.49c.22-.6.67-.79,1.08-.79.75,0,1.61.49,1.61,1.23,0,.15-.04.34-.11.52l-7.74,19.67Z"/>
        <path d="M722.53,121.22c-3.55,0-5.12-2.02-5.12-5.39v-10.28c0-.19-.11-.26-.34-.26h-1.94c-.9,0-1.2-.6-1.2-1.27s.3-1.27,1.2-1.27h1.94c.22,0,.34-.07.34-.3v-4.26c0-.9.67-1.23,1.38-1.23.67,0,1.38.34,1.38,1.23v4.23c0,.26.07.34.34.34h2.36c.9,0,1.2.6,1.2,1.27s-.3,1.27-1.2,1.27h-2.36c-.26,0-.34.07-.34.34v10.47c0,1.57.9,2.51,2.65,2.51.78,0,1.23.56,1.23,1.27,0,.64-.37,1.35-1.53,1.35Z"/>
        <path d="M734.19,102.6c6.28,0,7.44,4,7.44,9.31s-1.16,9.31-7.44,9.31-7.44-4-7.44-9.31,1.16-9.31,7.44-9.31ZM734.19,118.61c4.26,0,4.6-2.77,4.6-6.69s-.34-6.69-4.6-6.69-4.6,2.77-4.6,6.69.34,6.69,4.6,6.69Z"/>
        <path d="M769.49,119.99c0,.9-.67,1.23-1.35,1.23-.71,0-1.42-.34-1.42-1.23v-8.08c0-2.39-.15-4.26-.75-5.12-.93-1.35-2.35-1.57-3.74-1.57-1.53,0-2.84.52-3.63,1.65-.64.86-.75,2.58-.75,4.11v9.01c0,.9-.71,1.23-1.38,1.23-.71,0-1.38-.34-1.38-1.23v-16.16c0-.9.67-1.23,1.38-1.23.6,0,1.42.22,1.42.97v.56c0,.11.07.19.19.19.07,0,.3-.19.3-.19,1.38-1.16,2.95-1.53,4.38-1.53,1.79,0,3.66.45,5.01,1.98.15.15.34.3.52.3s.26-.11.41-.22c1.91-1.68,3.81-2.06,5.61-2.06,5.42,0,6.81,3.37,6.81,7.7v9.69c0,.9-.71,1.23-1.38,1.23-.71,0-1.38-.34-1.38-1.23v-8.08c0-2.8-.19-4.26-.79-5.16-.82-1.27-2.17-1.53-3.7-1.53-1.16,0-2.62.26-3.51,1.42-.67.82-.9,2.39-.9,4.37l.04,8.98Z"/>
        <path d="M789.11,113c-.22,0-.26.11-.26.26.11,3.48.82,5.35,4.97,5.35,1.16,0,2.65-.37,3.66-.93,1.08-.64,1.27-.82,1.57-.82.86,0,1.35.82,1.35,1.57,0,.37-.19.71-.6.97-1.64,1.12-3.78,1.83-6.24,1.83-6.28,0-7.59-3.63-7.59-9.31,0-5.31,1.16-9.31,7.44-9.31s7.29,4.67,7.29,8.04c0,.97-.15,2.35-1.79,2.35h-9.8ZM793.41,105.07c-3.29,0-4.56,2.02-4.56,5.2,0,.19,0,.34.26.34h8.56c.15,0,.26-.04.26-.22,0-2.99-1.08-5.31-4.53-5.31Z"/>
        <path d="M806.12,125.41c-.15.45-.45.86-1.01.86-.67,0-1.57-.45-1.57-1.23,0-.11.04-.34.07-.41l2.24-6.69c.15-.45.49-.82,1.08-.82.64,0,1.53.34,1.53,1.12,0,.15-.07.41-.11.56l-2.24,6.62Z"/>
        <path d="M830.72,105.52c-.64,0-.56-.04-1.46-.04-2.84,0-4.08,1.53-4.08,5.65v8.86c0,.9-.67,1.23-1.38,1.23-.75,0-1.38-.34-1.38-1.23v-16.16c0-.9.67-1.23,1.38-1.23.78,0,1.42.34,1.42,1.23v.3c0,.07.04.15.15.15.07,0,.19-.11.3-.22,1.31-1.08,2.77-1.46,4-1.46,1.46,0,2.28.22,2.28,1.53,0,.93-.45,1.38-1.23,1.38Z"/>
        <path d="M836.59,98.6c-1.12,0-1.87-.79-1.87-1.87s.75-1.83,1.87-1.83c1.05,0,1.83.75,1.83,1.83s-.78,1.87-1.83,1.87ZM837.97,119.99c0,.9-.71,1.23-1.38,1.23-.71,0-1.38-.34-1.38-1.23v-16.16c0-.9.67-1.23,1.38-1.23.67,0,1.38.34,1.38,1.23v16.16Z"/>
        <path d="M843.02,111.91c0-5.31,1.35-9.31,6.92-9.31,1.42,0,3.03.37,4.41,1.57.04.04.19.19.3.19s.19-.07.19-.22v-.3c0-.9.56-1.23,1.42-1.23.67,0,1.35.34,1.35,1.23v18.47c0,4.86-4,6.99-8.04,6.99-2.39,0-3.93-.56-4.82-1.05-.45-.26-.64-.64-.64-1.01,0-.67.49-1.53,1.27-1.53.19,0,.41.07.67.19.86.41,1.91.78,3.52.78,2.88,0,5.27-1.53,5.27-4.22v-2.73c0-.15-.07-.26-.19-.26s-.26.15-.3.19c-1.35,1.23-2.99,1.57-4.41,1.57-5.57,0-6.92-4-6.92-9.31ZM845.86,111.91c0,3.93.34,6.69,4.56,6.69s4.41-2.84,4.41-6.69c0-3.33-.07-6.69-4.41-6.69s-4.56,2.77-4.56,6.69Z"/>
        <path d="M866.12,104.06c0,.19.07.26.22.26.07,0,.22-.15.3-.19,1.38-1.16,2.95-1.53,4.6-1.53,5.01,0,6.51,3.22,6.51,7.74v9.65c0,.9-.67,1.23-1.35,1.23-.71,0-1.42-.34-1.42-1.23v-8.45c0-3.63-.15-6.32-4.45-6.32-3.14,0-4.41,1.68-4.41,4.97v9.8c0,.9-.71,1.23-1.38,1.23-.71,0-1.38-.34-1.38-1.23v-23.86c0-.9.67-1.23,1.38-1.23.67,0,1.38.34,1.38,1.23v7.93Z"/>
        <path d="M889.64,121.22c-3.55,0-5.12-2.02-5.12-5.39v-10.28c0-.19-.11-.26-.34-.26h-1.94c-.9,0-1.2-.6-1.2-1.27s.3-1.27,1.2-1.27h1.94c.22,0,.34-.07.34-.3v-4.26c0-.9.67-1.23,1.38-1.23.67,0,1.38.34,1.38,1.23v4.23c0,.26.07.34.34.34h2.36c.9,0,1.2.6,1.2,1.27s-.3,1.27-1.2,1.27h-2.36c-.26,0-.34.07-.34.34v10.47c0,1.57.9,2.51,2.65,2.51.78,0,1.23.56,1.23,1.27,0,.64-.37,1.35-1.53,1.35Z"/>
        <path d="M900.78,94.9c4.52,0,7.52,2.99,7.52,7.14,0,3.07-2.09,5.35-4.26,6.62-1.46.86-1.5,2.06-1.5,3.51,0,.9-.71,1.2-1.42,1.2-.75,0-1.46-.3-1.46-1.2,0-2.13.26-4.34,2.73-5.76,1.68-.97,2.95-2.21,2.95-4.41s-1.5-4.23-4.56-4.23c-1.68,0-2.95.93-4.49,2.24-.22.19-.64.37-.97.37-.64,0-1.46-.71-1.46-1.5,0-.56.49-1.09.97-1.57,1.53-1.5,3.59-2.43,5.95-2.43ZM901.08,121.22c-1.12,0-1.91-.82-1.91-1.91s.78-1.91,1.91-1.91,1.91.82,1.91,1.91-.82,1.91-1.91,1.91Z"/>
        <path d="M349.53,155.8c-.26,0-.34.07-.34.34v8.64c0,1.05-.75,1.31-1.5,1.31s-1.5-.26-1.5-1.31v-23.67c0-.97.67-1.2,1.38-1.2h9.76c3.96,0,7.22,2.54,7.22,7.93s-3.25,7.96-7.22,7.96h-7.82ZM357.31,153.04c2.54,0,4.19-1.68,4.19-5.2s-1.64-5.16-4.19-5.16h-7.78c-.26,0-.34.07-.34.34v9.68c0,.26.07.34.34.34h7.78Z"/>
        <path d="M368.6,161.79v-20.79c0-.9.67-1.23,1.38-1.23.67,0,1.38.34,1.38,1.23v20.6c0,1.35.56,1.83,1.87,1.83.67,0,1.16.45,1.16,1.23,0,.82-.45,1.42-1.8,1.42-2.62,0-4-1.38-4-4.3Z"/>
        <path d="M380.22,157.86c-.22,0-.26.11-.26.26.11,3.48.82,5.35,4.97,5.35,1.16,0,2.65-.37,3.66-.93,1.08-.64,1.27-.82,1.57-.82.86,0,1.35.82,1.35,1.57,0,.37-.19.71-.6.97-1.64,1.12-3.78,1.83-6.24,1.83-6.28,0-7.59-3.63-7.59-9.31,0-5.31,1.16-9.31,7.44-9.31s7.29,4.67,7.29,8.04c0,.97-.15,2.35-1.8,2.35h-9.8ZM384.52,149.93c-3.29,0-4.56,2.02-4.56,5.2,0,.19,0,.34.26.34h8.56c.15,0,.26-.04.26-.22,0-2.99-1.08-5.31-4.53-5.31Z"/>
        <path d="M407.03,163.92c-.11,0-.22.15-.37.26-1.23,1.01-2.84,1.91-5.53,1.91-4.34,0-5.68-2.69-5.68-5.09,0-4.56,3.78-5.68,7.4-5.68h3.63c.26,0,.34-.11.34-.34v-1.08c0-2.58-1.27-3.82-4.11-3.82-2.28,0-3.22.56-4.38,1.42-.19.15-.37.19-.52.19-.71,0-1.38-.78-1.38-1.46,0-.41.22-.75.6-1.08,1.68-1.35,3.82-1.68,5.76-1.68,5.8,0,6.95,2.99,6.95,7.44v7.59c0,.67.19,1.01.82,1.01h.34c.64,0,.97.52.97,1.23,0,.97-.41,1.35-1.94,1.35-1.42,0-2.28-.64-2.69-1.94-.07-.19-.11-.22-.19-.22ZM406.95,158.12c0-.22-.11-.34-.34-.34h-3.52c-2.54,0-4.82.37-4.82,2.8,0,1.91,1.23,3.07,3.33,3.07,3.7,0,5.35-2.35,5.35-4.6v-.93Z"/>
        <path d="M421.31,163.47c2.21,0,3.7-.93,3.7-2.62,0-1.27-.97-1.94-2.77-2.51l-2.73-.86c-2.95-.93-4.75-2.32-4.75-5.01,0-3.1,2.69-5.01,6.54-5.01,2.28,0,3.78.67,4.6,1.16.52.3.86.64.86,1.12,0,.64-.64,1.46-1.23,1.46-.34,0-.52-.11-.78-.22-.56-.34-2.02-.9-3.44-.9-2.21,0-3.7.82-3.7,2.28,0,1.31,1.05,1.94,2.77,2.5l2.69.86c3.1.97,4.79,2.39,4.79,5.12,0,3.22-2.69,5.24-6.54,5.24-2.99,0-4.9-1.05-6.17-2.28-.26-.3-.56-.56-.56-1.01,0-.67.64-1.42,1.42-1.42.26,0,.45.04.93.45.94.82,1.98,1.65,4.38,1.65Z"/>
        <path d="M435.14,157.86c-.22,0-.26.11-.26.26.11,3.48.82,5.35,4.97,5.35,1.16,0,2.65-.37,3.66-.93,1.08-.64,1.27-.82,1.57-.82.86,0,1.35.82,1.35,1.57,0,.37-.19.71-.6.97-1.64,1.12-3.78,1.83-6.24,1.83-6.28,0-7.59-3.63-7.59-9.31,0-5.31,1.16-9.31,7.44-9.31s7.29,4.67,7.29,8.04c0,.97-.15,2.35-1.8,2.35h-9.8ZM439.44,149.93c-3.29,0-4.56,2.02-4.56,5.2,0,.19,0,.34.26.34h8.56c.15,0,.26-.04.26-.22,0-2.99-1.08-5.31-4.53-5.31Z"/>
        <path d="M466.4,166.09c-3.55,0-5.12-2.02-5.12-5.39v-10.28c0-.19-.11-.26-.34-.26h-1.94c-.9,0-1.2-.6-1.2-1.27s.3-1.27,1.2-1.27h1.94c.22,0,.34-.07.34-.3v-4.26c0-.9.67-1.23,1.38-1.23.67,0,1.38.34,1.38,1.23v4.23c0,.26.07.34.34.34h2.35c.9,0,1.2.6,1.2,1.27s-.3,1.27-1.2,1.27h-2.35c-.26,0-.34.07-.34.34v10.47c0,1.57.9,2.51,2.66,2.51.78,0,1.23.56,1.23,1.27,0,.64-.37,1.35-1.53,1.35Z"/>
        <path d="M473.76,157.86c-.22,0-.26.11-.26.26.11,3.48.82,5.35,4.97,5.35,1.16,0,2.65-.37,3.66-.93,1.08-.64,1.27-.82,1.57-.82.86,0,1.35.82,1.35,1.57,0,.37-.19.71-.6.97-1.64,1.12-3.78,1.83-6.24,1.83-6.28,0-7.59-3.63-7.59-9.31,0-5.31,1.16-9.31,7.44-9.31s7.29,4.67,7.29,8.04c0,.97-.15,2.35-1.8,2.35h-9.8ZM478.06,149.93c-3.29,0-4.56,2.02-4.56,5.2,0,.19,0,.34.26.34h8.56c.15,0,.26-.04.26-.22,0-2.99-1.08-5.31-4.53-5.31Z"/>
        <path d="M490.28,161.79v-20.79c0-.9.67-1.23,1.38-1.23.67,0,1.38.34,1.38,1.23v20.6c0,1.35.56,1.83,1.87,1.83.67,0,1.16.45,1.16,1.23,0,.82-.45,1.42-1.79,1.42-2.62,0-4-1.38-4-4.3Z"/>
        <path d="M499.56,161.79v-20.79c0-.9.67-1.23,1.38-1.23.67,0,1.38.34,1.38,1.23v20.6c0,1.35.56,1.83,1.87,1.83.67,0,1.16.45,1.16,1.23,0,.82-.45,1.42-1.8,1.42-2.62,0-4-1.38-4-4.3Z"/>
        <path d="M532.01,164.85c0,.9-.67,1.23-1.35,1.23-.71,0-1.42-.34-1.42-1.23v-8.08c0-2.39-.15-4.26-.75-5.12-.93-1.35-2.35-1.57-3.74-1.57-1.53,0-2.84.52-3.63,1.65-.64.86-.75,2.58-.75,4.11v9.01c0,.9-.71,1.23-1.38,1.23-.71,0-1.38-.34-1.38-1.23v-16.16c0-.9.67-1.23,1.38-1.23.6,0,1.42.22,1.42.97v.56c0,.11.07.19.19.19.07,0,.3-.19.3-.19,1.38-1.16,2.95-1.53,4.38-1.53,1.79,0,3.66.45,5.01,1.98.15.15.34.3.52.3s.26-.11.41-.22c1.91-1.68,3.81-2.06,5.61-2.06,5.42,0,6.81,3.37,6.81,7.7v9.69c0,.9-.71,1.23-1.38,1.23-.71,0-1.38-.34-1.38-1.23v-8.08c0-2.8-.19-4.26-.78-5.16-.82-1.27-2.17-1.53-3.7-1.53-1.16,0-2.62.26-3.52,1.42-.67.82-.9,2.39-.9,4.37l.04,8.98Z"/>
        <path d="M551.63,157.86c-.22,0-.26.11-.26.26.11,3.48.82,5.35,4.97,5.35,1.16,0,2.66-.37,3.67-.93,1.08-.64,1.27-.82,1.57-.82.86,0,1.35.82,1.35,1.57,0,.37-.19.71-.6.97-1.64,1.12-3.78,1.83-6.24,1.83-6.28,0-7.59-3.63-7.59-9.31,0-5.31,1.16-9.31,7.44-9.31s7.29,4.67,7.29,8.04c0,.97-.15,2.35-1.79,2.35h-9.8ZM555.93,149.93c-3.29,0-4.56,2.02-4.56,5.2,0,.19,0,.34.26.34h8.56c.15,0,.26-.04.26-.22,0-2.99-1.08-5.31-4.53-5.31Z"/>
        <path d="M577.95,143.46c-1.12,0-1.87-.79-1.87-1.87s.75-1.83,1.87-1.83c1.05,0,1.83.75,1.83,1.83s-.78,1.87-1.83,1.87ZM579.33,164.85c0,.9-.71,1.23-1.38,1.23-.71,0-1.38-.34-1.38-1.23v-16.16c0-.9.67-1.23,1.38-1.23.67,0,1.38.34,1.38,1.23v16.16Z"/>
        <path d="M591.41,166.09c-3.55,0-5.12-2.02-5.12-5.39v-10.28c0-.19-.11-.26-.34-.26h-1.94c-.9,0-1.2-.6-1.2-1.27s.3-1.27,1.2-1.27h1.94c.22,0,.34-.07.34-.3v-4.26c0-.9.67-1.23,1.38-1.23.67,0,1.38.34,1.38,1.23v4.23c0,.26.07.34.34.34h2.36c.9,0,1.2.6,1.2,1.27s-.3,1.27-1.2,1.27h-2.36c-.26,0-.34.07-.34.34v10.47c0,1.57.9,2.51,2.65,2.51.78,0,1.23.56,1.23,1.27,0,.64-.37,1.35-1.53,1.35Z"/>
        <path d="M604.42,156.77c0-5.31,1.35-9.31,6.92-9.31,1.42,0,3.03.37,4.41,1.57,0,0,.19.19.3.19s.19-.07.19-.26v-7.96c0-.9.71-1.23,1.42-1.23.67,0,1.35.34,1.35,1.23v23.86c0,.9-.67,1.23-1.35,1.23s-1.42-.22-1.42-1.08v-.45c0-.19-.07-.22-.19-.22-.07,0-.26.15-.34.22-1.42,1.2-2.95,1.53-4.37,1.53-5.57,0-6.92-4-6.92-9.31ZM607.26,156.77c0,3.93.34,6.69,4.56,6.69s4.41-2.92,4.41-6.69c0-3.4-.07-6.69-4.41-6.69s-4.56,2.77-4.56,6.69Z"/>
        <path d="M631.49,147.46c6.28,0,7.44,4,7.44,9.31s-1.16,9.31-7.44,9.31-7.44-4-7.44-9.31,1.16-9.31,7.44-9.31ZM631.49,163.47c4.26,0,4.6-2.77,4.6-6.69s-.34-6.69-4.6-6.69-4.6,2.77-4.6,6.69.34,6.69,4.6,6.69Z"/>
        <path d="M646.4,157.86c-.22,0-.26.11-.26.26.11,3.48.82,5.35,4.97,5.35,1.16,0,2.65-.37,3.66-.93,1.08-.64,1.27-.82,1.57-.82.86,0,1.35.82,1.35,1.57,0,.37-.19.71-.6.97-1.64,1.12-3.78,1.83-6.24,1.83-6.28,0-7.59-3.63-7.59-9.31,0-5.31,1.16-9.31,7.44-9.31s7.29,4.67,7.29,8.04c0,.97-.15,2.35-1.79,2.35h-9.8ZM650.7,149.93c-3.29,0-4.56,2.02-4.56,5.2,0,.19,0,.34.26.34h8.56c.15,0,.26-.04.26-.22,0-2.99-1.08-5.31-4.53-5.31Z"/>
        <path d="M668.76,163.47c2.21,0,3.7-.93,3.7-2.62,0-1.27-.97-1.94-2.77-2.51l-2.73-.86c-2.96-.93-4.75-2.32-4.75-5.01,0-3.1,2.69-5.01,6.54-5.01,2.28,0,3.78.67,4.6,1.16.52.3.86.64.86,1.12,0,.64-.64,1.46-1.23,1.46-.34,0-.52-.11-.79-.22-.56-.34-2.02-.9-3.44-.9-2.21,0-3.7.82-3.7,2.28,0,1.31,1.05,1.94,2.77,2.5l2.69.86c3.1.97,4.79,2.39,4.79,5.12,0,3.22-2.69,5.24-6.54,5.24-2.99,0-4.9-1.05-6.17-2.28-.26-.3-.56-.56-.56-1.01,0-.67.64-1.42,1.42-1.42.26,0,.45.04.93.45.93.82,1.98,1.65,4.38,1.65Z"/>
        <path d="M682.93,154.98v9.87c0,.9-.71,1.23-1.38,1.23-.71,0-1.38-.34-1.38-1.23v-16.16c0-.9.67-1.23,1.38-1.23s1.42.34,1.42,1.16v.37c0,.11.07.19.19.19.07,0,.22-.15.3-.19,1.38-1.16,2.95-1.53,4.6-1.53,5.01,0,6.51,3.22,6.51,7.74v9.65c0,.9-.67,1.23-1.35,1.23-.71,0-1.42-.34-1.42-1.23v-8.45c0-3.63-.15-6.32-4.45-6.32-3.14,0-4.41,1.72-4.41,4.9Z"/>
        <path d="M700.53,148.51c-.26.45-.67.56-1.01.56-.6,0-1.53-.49-1.53-1.2,0-.19.04-.45.19-.71l.82-1.38c.19-.3.22-.52.22-1.12v-3.66c0-.9.71-1.23,1.35-1.23.75,0,1.38.34,1.38,1.23v3.96c0,.86-.15,1.42-.49,1.98l-.93,1.57Z"/>
        <path d="M713.02,166.09c-3.55,0-5.12-2.02-5.12-5.39v-10.28c0-.19-.11-.26-.34-.26h-1.94c-.9,0-1.2-.6-1.2-1.27s.3-1.27,1.2-1.27h1.94c.22,0,.34-.07.34-.3v-4.26c0-.9.67-1.23,1.38-1.23.67,0,1.38.34,1.38,1.23v4.23c0,.26.07.34.34.34h2.36c.9,0,1.2.6,1.2,1.27s-.3,1.27-1.2,1.27h-2.36c-.26,0-.34.07-.34.34v10.47c0,1.57.9,2.51,2.65,2.51.78,0,1.23.56,1.23,1.27,0,.64-.37,1.35-1.53,1.35Z"/>
        <path d="M737.02,163.92c-.11,0-.22.15-.37.26-1.23,1.01-2.84,1.91-5.53,1.91-4.34,0-5.68-2.69-5.68-5.09,0-4.56,3.78-5.68,7.4-5.68h3.63c.26,0,.34-.11.34-.34v-1.08c0-2.58-1.27-3.82-4.11-3.82-2.28,0-3.21.56-4.37,1.42-.19.15-.37.19-.52.19-.71,0-1.38-.78-1.38-1.46,0-.41.22-.75.6-1.08,1.68-1.35,3.81-1.68,5.76-1.68,5.8,0,6.95,2.99,6.95,7.44v7.59c0,.67.19,1.01.82,1.01h.34c.64,0,.97.52.97,1.23,0,.97-.41,1.35-1.94,1.35-1.42,0-2.28-.64-2.69-1.94-.07-.19-.11-.22-.19-.22ZM736.95,158.12c0-.22-.11-.34-.34-.34h-3.51c-2.54,0-4.82.37-4.82,2.8,0,1.91,1.23,3.07,3.33,3.07,3.7,0,5.35-2.35,5.35-4.6v-.93Z"/>
        <path d="M760.09,156.77c0,5.31-1.35,9.31-6.95,9.31-1.42,0-2.99-.34-4.38-1.53,0-.04-.19-.19-.3-.19-.15,0-.22.11-.22.26v7.93c0,.9-.71,1.23-1.38,1.23-.71,0-1.38-.34-1.38-1.23v-23.86c0-.9.67-1.23,1.38-1.23s1.38.34,1.38,1.23v.26c0,.15.07.22.22.22.07,0,.26-.11.34-.19,1.42-1.2,2.92-1.53,4.34-1.53,5.61,0,6.95,4,6.95,9.31ZM757.25,156.77c0-3.93-.34-6.69-4.6-6.69s-4.41,3.03-4.41,6.69c0,3.33.07,6.69,4.41,6.69s4.6-2.77,4.6-6.69Z"/>
        <path d="M779.75,156.77c0,5.31-1.35,9.31-6.95,9.31-1.42,0-2.99-.34-4.38-1.53,0-.04-.19-.19-.3-.19-.15,0-.22.11-.22.26v7.93c0,.9-.71,1.23-1.38,1.23-.71,0-1.38-.34-1.38-1.23v-23.86c0-.9.67-1.23,1.38-1.23s1.38.34,1.38,1.23v.26c0,.15.07.22.22.22.07,0,.26-.11.34-.19,1.42-1.2,2.92-1.53,4.34-1.53,5.61,0,6.95,4,6.95,9.31ZM776.91,156.77c0-3.93-.34-6.69-4.6-6.69s-4.41,3.03-4.41,6.69c0,3.33.07,6.69,4.41,6.69s4.6-2.77,4.6-6.69Z"/>
        <path d="M784.8,161.79v-20.79c0-.9.67-1.23,1.38-1.23.67,0,1.38.34,1.38,1.23v20.6c0,1.35.56,1.83,1.87,1.83.67,0,1.16.45,1.16,1.23,0,.82-.45,1.42-1.79,1.42-2.62,0-4-1.38-4-4.3Z"/>
        <path d="M799.38,168.89c-1.08,2.77-2.95,4.9-5.53,4.9-.97,0-1.35-.56-1.35-1.38,0-.6.37-1.01,1.05-1.16,1.76-.37,2.5-.94,3.44-3.33l.86-2.13c.07-.22.15-.41.15-.64,0-.15-.04-.3-.11-.49l-5.91-15.44c-.07-.19-.11-.37-.11-.52,0-.75.86-1.23,1.61-1.23.41,0,.86.19,1.08.79l4.56,12.49c.11.34.11.71.37.71.22,0,.26-.45.37-.71l4.67-12.49c.22-.6.67-.79,1.08-.79.75,0,1.61.49,1.61,1.23,0,.15-.04.34-.11.52l-7.74,19.67Z"/>
        <path d="M825.51,166.09c-3.55,0-5.12-2.02-5.12-5.39v-10.28c0-.19-.11-.26-.34-.26h-1.94c-.9,0-1.2-.6-1.2-1.27s.3-1.27,1.2-1.27h1.94c.22,0,.34-.07.34-.3v-4.26c0-.9.67-1.23,1.38-1.23.67,0,1.38.34,1.38,1.23v4.23c0,.26.07.34.34.34h2.36c.9,0,1.2.6,1.2,1.27s-.3,1.27-1.2,1.27h-2.36c-.26,0-.34.07-.34.34v10.47c0,1.57.9,2.51,2.65,2.51.78,0,1.23.56,1.23,1.27,0,.64-.37,1.35-1.53,1.35Z"/>
        <path d="M837.17,147.46c6.28,0,7.44,4,7.44,9.31s-1.16,9.31-7.44,9.31-7.44-4-7.44-9.31,1.16-9.31,7.44-9.31ZM837.17,163.47c4.26,0,4.6-2.77,4.6-6.69s-.34-6.69-4.6-6.69-4.6,2.77-4.6,6.69.34,6.69,4.6,6.69Z"/>
        <path d="M872.47,164.85c0,.9-.67,1.23-1.35,1.23-.71,0-1.42-.34-1.42-1.23v-8.08c0-2.39-.15-4.26-.75-5.12-.93-1.35-2.35-1.57-3.74-1.57-1.53,0-2.84.52-3.63,1.65-.64.86-.75,2.58-.75,4.11v9.01c0,.9-.71,1.23-1.38,1.23-.71,0-1.38-.34-1.38-1.23v-16.16c0-.9.67-1.23,1.38-1.23.6,0,1.42.22,1.42.97v.56c0,.11.07.19.19.19.07,0,.3-.19.3-.19,1.38-1.16,2.95-1.53,4.38-1.53,1.79,0,3.66.45,5.01,1.98.15.15.34.3.52.3s.26-.11.41-.22c1.91-1.68,3.81-2.06,5.61-2.06,5.42,0,6.81,3.37,6.81,7.7v9.69c0,.9-.71,1.23-1.38,1.23-.71,0-1.38-.34-1.38-1.23v-8.08c0-2.8-.19-4.26-.79-5.16-.82-1.27-2.17-1.53-3.7-1.53-1.16,0-2.62.26-3.51,1.42-.67.82-.9,2.39-.9,4.37l.04,8.98Z"/>
        <path d="M892.09,157.86c-.22,0-.26.11-.26.26.11,3.48.82,5.35,4.97,5.35,1.16,0,2.65-.37,3.66-.93,1.08-.64,1.27-.82,1.57-.82.86,0,1.35.82,1.35,1.57,0,.37-.19.71-.6.97-1.64,1.12-3.78,1.83-6.24,1.83-6.28,0-7.59-3.63-7.59-9.31,0-5.31,1.16-9.31,7.44-9.31s7.29,4.67,7.29,8.04c0,.97-.15,2.35-1.79,2.35h-9.8ZM896.39,149.93c-3.29,0-4.56,2.02-4.56,5.2,0,.19,0,.34.26.34h8.56c.15,0,.26-.04.26-.22,0-2.99-1.08-5.31-4.53-5.31Z"/>
        <path d="M909.92,162.2c1.12,0,1.94.82,1.94,1.95s-.82,1.94-1.94,1.94-1.94-.82-1.94-1.94.82-1.95,1.94-1.95Z"/>
      </g>
    </g>
  </g>
  <g id="_02" data-name="02">
    <g>
      <path d="M108.2,266.2c2.89,0,4.86-1.39,4.86-3.94,0-1.97-1.33-3.06-3.54-3.91l-3.47-1.33c-3.2-1.22-5.34-2.69-5.34-6.12,0-3.64,3.06-6.12,7.48-6.12,2.75,0,4.76.75,6.05,1.8.34.31.54.61.54.95,0,.65-.61,1.36-1.26,1.36-.34,0-.51-.1-.82-.31-1.19-.78-2.38-1.29-4.52-1.29-2.79,0-4.69,1.46-4.69,3.6,0,1.9,1.39,2.79,3.43,3.57l3.47,1.33c3.43,1.33,5.44,3.26,5.44,6.46,0,3.98-3.43,6.46-7.65,6.46-3.23,0-5.68-1.16-7.31-2.75-.24-.2-.44-.58-.44-.92,0-.65.75-1.33,1.33-1.33.31,0,.54.07.85.37,1.16,1.12,3.13,2.11,5.58,2.11Z"/>
      <path d="M126.07,251.79c5.71,0,6.76,3.64,6.76,8.46s-1.05,8.46-6.76,8.46-6.77-3.64-6.77-8.46,1.05-8.46,6.77-8.46ZM126.07,266.34c3.88,0,4.18-2.52,4.18-6.08s-.31-6.08-4.18-6.08-4.18,2.52-4.18,6.08.31,6.08,4.18,6.08Z"/>
      <path d="M144.64,254.44c-.58,0-.51-.03-1.33-.03-2.58,0-3.71,1.39-3.71,5.13v8.06c0,.82-.61,1.12-1.26,1.12-.68,0-1.26-.31-1.26-1.12v-14.69c0-.82.61-1.12,1.26-1.12.71,0,1.29.31,1.29,1.12v.27c0,.07.03.14.14.14.07,0,.17-.1.27-.2,1.19-.99,2.52-1.33,3.64-1.33,1.33,0,2.07.2,2.07,1.39,0,.85-.41,1.26-1.12,1.26Z"/>
      <path d="M156.48,254.44c-.58,0-.51-.03-1.33-.03-2.58,0-3.71,1.39-3.71,5.13v8.06c0,.82-.61,1.12-1.26,1.12-.68,0-1.26-.31-1.26-1.12v-14.69c0-.82.61-1.12,1.26-1.12.71,0,1.29.31,1.29,1.12v.27c0,.07.03.14.14.14.07,0,.17-.1.27-.2,1.19-.99,2.52-1.33,3.64-1.33,1.33,0,2.07.2,2.07,1.39,0,.85-.41,1.26-1.12,1.26Z"/>
      <path d="M166.65,271.27c-.99,2.52-2.69,4.45-5.03,4.45-.88,0-1.22-.51-1.22-1.26,0-.54.34-.92.95-1.05,1.6-.34,2.28-.85,3.13-3.03l.78-1.94c.07-.2.14-.37.14-.58,0-.14-.03-.27-.1-.44l-5.37-14.04c-.07-.17-.1-.34-.1-.48,0-.68.78-1.12,1.46-1.12.37,0,.78.17.99.71l4.15,11.35c.1.31.1.65.34.65.2,0,.24-.41.34-.65l4.25-11.35c.2-.54.61-.71.99-.71.68,0,1.46.44,1.46,1.12,0,.14-.03.31-.1.48l-7.04,17.88Z"/>
      <path d="M175.48,272.52c-.14.41-.41.78-.92.78-.61,0-1.43-.41-1.43-1.12,0-.1.03-.31.07-.37l2.04-6.08c.14-.41.44-.75.99-.75.58,0,1.39.31,1.39,1.02,0,.14-.07.37-.1.51l-2.04,6.02Z"/>
      <path d="M203.59,260.25c0,4.83-1.22,8.46-6.36,8.46-1.29,0-2.55-.31-3.77-1.26-.17-.14-.31-.31-.44-.31s-.2.03-.2.2v.41c0,.61-.65.95-1.26.95-.65,0-1.26-.31-1.26-1.12v-21.69c0-.82.61-1.12,1.26-1.12.61,0,1.26.31,1.26,1.12v7.28c0,.1.07.2.2.2.07,0,.24-.14.27-.17,1.22-1.09,2.79-1.43,3.94-1.43,5.13,0,6.36,3.64,6.36,8.46ZM196.83,254.17c-3.74,0-4.01,2.75-4.01,6.08,0,3.03.1,6.08,4.01,6.08s4.18-2.52,4.18-6.08-.31-6.08-4.18-6.08Z"/>
      <path d="M218.21,261.88v-8.98c0-.82.65-1.12,1.29-1.12.61,0,1.22.31,1.22,1.12v14.69c0,.82-.61,1.12-1.22,1.12-.58,0-1.29-.24-1.29-1.12v-.2c0-.14-.07-.24-.17-.24s-.24.14-.27.17c-1.26,1.05-2.72,1.39-4.18,1.39-4.62,0-5.92-2.92-5.92-7.07v-8.74c0-.82.65-1.12,1.26-1.12.65,0,1.26.31,1.26,1.12v7.82c0,3.3.17,5.61,4.01,5.61,2.89,0,4.01-1.53,4.01-4.45Z"/>
      <path d="M231.84,268.72c-3.23,0-4.66-1.84-4.66-4.9v-9.35c0-.17-.1-.24-.31-.24h-1.77c-.82,0-1.09-.54-1.09-1.16s.27-1.16,1.09-1.16h1.77c.2,0,.31-.07.31-.27v-3.88c0-.82.61-1.12,1.26-1.12.61,0,1.26.31,1.26,1.12v3.84c0,.24.07.31.31.31h2.14c.82,0,1.09.54,1.09,1.16s-.27,1.16-1.09,1.16h-2.14c-.24,0-.31.07-.31.31v9.52c0,1.43.82,2.28,2.41,2.28.71,0,1.12.51,1.12,1.16,0,.58-.34,1.22-1.39,1.22Z"/>
      <path d="M245.57,248.15c-1.02,0-1.7-.71-1.7-1.7s.68-1.67,1.7-1.67c.95,0,1.67.68,1.67,1.67s-.71,1.7-1.67,1.7ZM246.83,267.59c0,.82-.65,1.12-1.26,1.12-.65,0-1.26-.31-1.26-1.12v-14.69c0-.82.61-1.12,1.26-1.12.61,0,1.26.31,1.26,1.12v14.69Z"/>
      <path d="M257.91,268.72c-3.23,0-4.66-1.84-4.66-4.9v-9.35c0-.17-.1-.24-.31-.24h-1.77c-.82,0-1.09-.54-1.09-1.16s.27-1.16,1.09-1.16h1.77c.2,0,.31-.07.31-.27v-3.88c0-.82.61-1.12,1.26-1.12.61,0,1.26.31,1.26,1.12v3.84c0,.24.07.31.31.31h2.14c.82,0,1.09.54,1.09,1.16s-.27,1.16-1.09,1.16h-2.14c-.24,0-.31.07-.31.31v9.52c0,1.43.82,2.28,2.41,2.28.71,0,1.12.51,1.12,1.16,0,.58-.34,1.22-1.39,1.22Z"/>
      <path d="M279.73,266.74c-.1,0-.2.14-.34.24-1.12.92-2.58,1.73-5.03,1.73-3.94,0-5.17-2.45-5.17-4.62,0-4.15,3.43-5.17,6.73-5.17h3.3c.24,0,.31-.1.31-.31v-.99c0-2.35-1.16-3.47-3.74-3.47-2.07,0-2.92.51-3.98,1.29-.17.14-.34.17-.48.17-.65,0-1.26-.71-1.26-1.33,0-.37.2-.68.54-.99,1.53-1.22,3.47-1.53,5.24-1.53,5.27,0,6.32,2.72,6.32,6.76v6.9c0,.61.17.92.75.92h.31c.58,0,.88.48.88,1.12,0,.88-.37,1.22-1.77,1.22-1.29,0-2.07-.58-2.45-1.77-.07-.17-.1-.2-.17-.2ZM279.66,261.48c0-.2-.1-.31-.31-.31h-3.2c-2.31,0-4.39.34-4.39,2.55,0,1.73,1.12,2.79,3.03,2.79,3.37,0,4.86-2.14,4.86-4.18v-.85Z"/>
      <path d="M300.77,260.25c0,4.83-1.22,8.46-6.32,8.46-1.29,0-2.72-.31-3.98-1.39,0-.03-.17-.17-.27-.17-.14,0-.2.1-.2.24v7.21c0,.82-.65,1.12-1.26,1.12-.65,0-1.26-.31-1.26-1.12v-21.69c0-.82.61-1.12,1.26-1.12s1.26.31,1.26,1.12v.24c0,.14.07.2.2.2.07,0,.24-.1.31-.17,1.29-1.09,2.65-1.39,3.94-1.39,5.1,0,6.32,3.64,6.32,8.46ZM298.19,260.25c0-3.57-.31-6.08-4.18-6.08s-4.01,2.75-4.01,6.08c0,3.03.07,6.08,4.01,6.08s4.18-2.52,4.18-6.08Z"/>
      <path d="M318.32,260.25c0,4.83-1.22,8.46-6.32,8.46-1.29,0-2.72-.31-3.98-1.39,0-.03-.17-.17-.27-.17-.14,0-.2.1-.2.24v7.21c0,.82-.65,1.12-1.26,1.12-.65,0-1.26-.31-1.26-1.12v-21.69c0-.82.61-1.12,1.26-1.12s1.26.31,1.26,1.12v.24c0,.14.07.2.2.2.07,0,.24-.1.31-.17,1.29-1.09,2.65-1.39,3.94-1.39,5.1,0,6.32,3.64,6.32,8.46ZM315.73,260.25c0-3.57-.31-6.08-4.18-6.08s-4.01,2.75-4.01,6.08c0,3.03.07,6.08,4.01,6.08s4.18-2.52,4.18-6.08Z"/>
      <path d="M322.57,264.81v-18.9c0-.82.61-1.12,1.26-1.12.61,0,1.26.31,1.26,1.12v18.73c0,1.22.51,1.67,1.7,1.67.61,0,1.05.41,1.05,1.12s-.41,1.29-1.63,1.29c-2.38,0-3.64-1.26-3.64-3.91Z"/>
      <path d="M332.52,248.15c-1.02,0-1.7-.71-1.7-1.7s.68-1.67,1.7-1.67c.95,0,1.67.68,1.67,1.67s-.71,1.7-1.67,1.7ZM333.78,267.59c0,.82-.65,1.12-1.26,1.12-.65,0-1.26-.31-1.26-1.12v-14.69c0-.82.61-1.12,1.26-1.12.61,0,1.26.31,1.26,1.12v14.69Z"/>
      <path d="M340.8,261.24c-.2,0-.24.1-.24.24.1,3.16.75,4.86,4.52,4.86,1.05,0,2.41-.34,3.33-.85.99-.58,1.16-.75,1.43-.75.78,0,1.22.75,1.22,1.43,0,.34-.17.65-.54.88-1.5,1.02-3.43,1.67-5.68,1.67-5.71,0-6.9-3.3-6.9-8.46,0-4.83,1.05-8.46,6.77-8.46s6.63,4.25,6.63,7.31c0,.88-.14,2.14-1.63,2.14h-8.91ZM344.71,254.03c-2.99,0-4.15,1.84-4.15,4.73,0,.17,0,.31.24.31h7.79c.14,0,.24-.03.24-.2,0-2.72-.99-4.83-4.11-4.83Z"/>
      <path d="M360.85,266.34c2.01,0,3.37-.85,3.37-2.38,0-1.16-.88-1.77-2.52-2.28l-2.48-.78c-2.69-.85-4.32-2.11-4.32-4.55,0-2.82,2.45-4.56,5.95-4.56,2.07,0,3.43.61,4.18,1.05.48.27.78.58.78,1.02,0,.58-.58,1.33-1.12,1.33-.31,0-.48-.1-.71-.2-.51-.31-1.84-.82-3.13-.82-2.01,0-3.37.75-3.37,2.07,0,1.19.95,1.77,2.52,2.28l2.45.78c2.82.88,4.35,2.18,4.35,4.66,0,2.92-2.45,4.76-5.95,4.76-2.72,0-4.45-.95-5.61-2.07-.24-.27-.51-.51-.51-.92,0-.61.58-1.29,1.29-1.29.24,0,.41.03.85.41.85.75,1.8,1.5,3.98,1.5Z"/>
      <path d="M384.62,268.72c-3.23,0-4.66-1.84-4.66-4.9v-9.35c0-.17-.1-.24-.31-.24h-1.77c-.82,0-1.09-.54-1.09-1.16s.27-1.16,1.09-1.16h1.77c.2,0,.31-.07.31-.27v-3.88c0-.82.61-1.12,1.26-1.12.61,0,1.26.31,1.26,1.12v3.84c0,.24.07.31.31.31h2.14c.82,0,1.09.54,1.09,1.16s-.27,1.16-1.09,1.16h-2.14c-.24,0-.31.07-.31.31v9.52c0,1.43.82,2.28,2.41,2.28.71,0,1.12.51,1.12,1.16,0,.58-.34,1.22-1.39,1.22Z"/>
      <path d="M395.2,251.79c5.71,0,6.77,3.64,6.77,8.46s-1.05,8.46-6.77,8.46-6.77-3.64-6.77-8.46,1.05-8.46,6.77-8.46ZM395.2,266.34c3.88,0,4.18-2.52,4.18-6.08s-.31-6.08-4.18-6.08-4.18,2.52-4.18,6.08.31,6.08,4.18,6.08Z"/>
      <path d="M416.42,261.24c-.2,0-.24.1-.24.24.1,3.16.75,4.86,4.52,4.86,1.05,0,2.41-.34,3.33-.85.99-.58,1.16-.75,1.43-.75.78,0,1.22.75,1.22,1.43,0,.34-.17.65-.54.88-1.5,1.02-3.43,1.67-5.68,1.67-5.71,0-6.9-3.3-6.9-8.46,0-4.83,1.05-8.46,6.77-8.46s6.63,4.25,6.63,7.31c0,.88-.14,2.14-1.63,2.14h-8.91ZM420.33,254.03c-2.99,0-4.15,1.84-4.15,4.73,0,.17,0,.31.24.31h7.79c.14,0,.24-.03.24-.2,0-2.72-.99-4.83-4.11-4.83Z"/>
      <path d="M438.13,267.29c-.44,1.16-1.09,1.43-1.77,1.43s-1.33-.27-1.77-1.43l-5.2-13.94c-.07-.17-.1-.31-.1-.44,0-.68.78-1.12,1.46-1.12.41,0,.78.17.95.68l4.32,11.76c.14.34.1.71.34.71s.2-.37.34-.71l4.32-11.76c.17-.51.54-.68.95-.68.68,0,1.46.44,1.46,1.12,0,.14-.03.27-.1.44l-5.2,13.94Z"/>
      <path d="M448.63,261.24c-.2,0-.24.1-.24.24.1,3.16.75,4.86,4.52,4.86,1.05,0,2.41-.34,3.33-.85.99-.58,1.16-.75,1.43-.75.78,0,1.22.75,1.22,1.43,0,.34-.17.65-.54.88-1.5,1.02-3.43,1.67-5.68,1.67-5.71,0-6.9-3.3-6.9-8.46,0-4.83,1.05-8.46,6.77-8.46s6.63,4.25,6.63,7.31c0,.88-.14,2.14-1.63,2.14h-8.91ZM452.54,254.03c-2.99,0-4.15,1.84-4.15,4.73,0,.17,0,.31.24.31h7.79c.14,0,.24-.03.24-.2,0-2.72-.99-4.83-4.11-4.83Z"/>
      <path d="M470.87,254.44c-.58,0-.51-.03-1.33-.03-2.58,0-3.71,1.39-3.71,5.13v8.06c0,.82-.61,1.12-1.26,1.12-.68,0-1.26-.31-1.26-1.12v-14.69c0-.82.61-1.12,1.26-1.12.71,0,1.29.31,1.29,1.12v.27c0,.07.03.14.14.14.07,0,.17-.1.27-.2,1.19-.99,2.52-1.33,3.64-1.33,1.33,0,2.07.2,2.07,1.39,0,.85-.41,1.26-1.12,1.26Z"/>
      <path d="M481.04,271.27c-.99,2.52-2.69,4.45-5.03,4.45-.88,0-1.22-.51-1.22-1.26,0-.54.34-.92.95-1.05,1.6-.34,2.28-.85,3.13-3.03l.78-1.94c.07-.2.14-.37.14-.58,0-.14-.03-.27-.1-.44l-5.37-14.04c-.07-.17-.1-.34-.1-.48,0-.68.78-1.12,1.46-1.12.37,0,.78.17.99.71l4.15,11.35c.1.31.1.65.34.65.2,0,.24-.41.34-.65l4.25-11.35c.2-.54.61-.71.99-.71.68,0,1.46.44,1.46,1.12,0,.14-.03.31-.1.48l-7.04,17.88Z"/>
      <path d="M497.29,251.79c5.71,0,6.76,3.64,6.76,8.46s-1.05,8.46-6.76,8.46-6.77-3.64-6.77-8.46,1.05-8.46,6.77-8.46ZM497.29,266.34c3.88,0,4.18-2.52,4.18-6.08s-.31-6.08-4.18-6.08-4.18,2.52-4.18,6.08.31,6.08,4.18,6.08Z"/>
      <path d="M510.83,258.62v8.97c0,.82-.65,1.12-1.26,1.12-.65,0-1.26-.31-1.26-1.12v-14.69c0-.82.61-1.12,1.26-1.12s1.29.31,1.29,1.05v.34c0,.1.07.17.17.17.07,0,.2-.14.27-.17,1.26-1.05,2.69-1.39,4.18-1.39,4.56,0,5.92,2.92,5.92,7.04v8.77c0,.82-.61,1.12-1.22,1.12-.65,0-1.29-.31-1.29-1.12v-7.68c0-3.3-.14-5.75-4.04-5.75-2.86,0-4.01,1.56-4.01,4.45Z"/>
      <path d="M528.38,261.24c-.2,0-.24.1-.24.24.1,3.16.75,4.86,4.52,4.86,1.05,0,2.41-.34,3.33-.85.99-.58,1.16-.75,1.43-.75.78,0,1.22.75,1.22,1.43,0,.34-.17.65-.54.88-1.5,1.02-3.43,1.67-5.68,1.67-5.71,0-6.9-3.3-6.9-8.46,0-4.83,1.05-8.46,6.77-8.46s6.63,4.25,6.63,7.31c0,.88-.14,2.14-1.63,2.14h-8.91ZM532.29,254.03c-2.99,0-4.15,1.84-4.15,4.73,0,.17,0,.31.24.31h7.79c.14,0,.24-.03.24-.2,0-2.72-.99-4.83-4.11-4.83Z"/>
      <path d="M560.41,266.74c-.1,0-.2.14-.34.24-1.12.92-2.58,1.73-5.03,1.73-3.94,0-5.17-2.45-5.17-4.62,0-4.15,3.43-5.17,6.73-5.17h3.3c.24,0,.31-.1.31-.31v-.99c0-2.35-1.16-3.47-3.74-3.47-2.07,0-2.92.51-3.98,1.29-.17.14-.34.17-.48.17-.65,0-1.26-.71-1.26-1.33,0-.37.2-.68.54-.99,1.53-1.22,3.47-1.53,5.24-1.53,5.27,0,6.32,2.72,6.32,6.76v6.9c0,.61.17.92.75.92h.31c.58,0,.88.48.88,1.12,0,.88-.37,1.22-1.77,1.22-1.29,0-2.07-.58-2.45-1.77-.07-.17-.1-.2-.17-.2ZM560.34,261.48c0-.2-.1-.31-.31-.31h-3.2c-2.31,0-4.39.34-4.39,2.55,0,1.73,1.12,2.79,3.03,2.79,3.37,0,4.86-2.14,4.86-4.18v-.85Z"/>
      <path d="M573.51,268.72c-3.23,0-4.66-1.84-4.66-4.9v-9.35c0-.17-.1-.24-.31-.24h-1.77c-.82,0-1.09-.54-1.09-1.16s.27-1.16,1.09-1.16h1.77c.2,0,.31-.07.31-.27v-3.88c0-.82.61-1.12,1.26-1.12.61,0,1.26.31,1.26,1.12v3.84c0,.24.07.31.31.31h2.14c.82,0,1.09.54,1.09,1.16s-.27,1.16-1.09,1.16h-2.14c-.24,0-.31.07-.31.31v9.52c0,1.43.82,2.28,2.41,2.28.71,0,1.12.51,1.12,1.16,0,.58-.34,1.22-1.39,1.22Z"/>
      <path d="M602.92,266.78c.14.24.2.44.2.65,0,.68-.88,1.29-1.56,1.29-.34,0-.68-.17-.92-.58l-5.44-9.18c-.17-.31-.27-.31-.54-.31h-5.2c-.24,0-.31.07-.31.31v8.57c0,.95-.68,1.19-1.36,1.19s-1.36-.24-1.36-1.19v-21.52c0-.82.61-1.09,1.26-1.09h8.87c3.6,0,6.56,2.21,6.56,6.87,0,3.64-1.73,5.95-4.83,6.66-.14.03-.17.14-.17.24,0,.07.03.14.03.14l4.76,7.96ZM596.36,256.14c2.52,0,3.98-1.43,3.98-4.35s-1.5-4.35-3.77-4.35h-7.11c-.24,0-.31.07-.31.31v8.09c0,.24.07.31.31.31h6.9Z"/>
      <path d="M608.99,261.24c-.2,0-.24.1-.24.24.1,3.16.75,4.86,4.52,4.86,1.05,0,2.41-.34,3.33-.85.99-.58,1.16-.75,1.43-.75.78,0,1.22.75,1.22,1.43,0,.34-.17.65-.54.88-1.5,1.02-3.43,1.67-5.68,1.67-5.71,0-6.9-3.3-6.9-8.46,0-4.83,1.05-8.46,6.77-8.46s6.63,4.25,6.63,7.31c0,.88-.14,2.14-1.63,2.14h-8.91ZM612.9,254.03c-2.99,0-4.15,1.84-4.15,4.73,0,.17,0,.31.24.31h7.79c.14,0,.24-.03.24-.2,0-2.72-.99-4.83-4.11-4.83Z"/>
      <path d="M623.15,260.25c0-4.83,1.22-8.46,6.29-8.46,1.29,0,2.75.34,4.01,1.43,0,0,.17.17.27.17s.17-.07.17-.24v-7.24c0-.82.65-1.12,1.29-1.12.61,0,1.22.31,1.22,1.12v21.69c0,.82-.61,1.12-1.22,1.12s-1.29-.2-1.29-.99v-.41c0-.17-.07-.2-.17-.2-.07,0-.24.14-.31.2-1.29,1.09-2.69,1.39-3.98,1.39-5.07,0-6.29-3.64-6.29-8.46ZM625.73,260.25c0,3.57.31,6.08,4.15,6.08s4.01-2.65,4.01-6.08c0-3.09-.07-6.08-4.01-6.08s-4.15,2.52-4.15,6.08Z"/>
      <path d="M656.6,268.72c-2.24,0-4.83-.65-6.53-3.2-1.22-1.8-1.56-4.59-1.56-8.77s.34-6.97,1.56-8.8c1.63-2.45,4.18-3.16,6.53-3.16s4.32.48,5.81,1.73c.48.41.92.78.92,1.26,0,.58-.68,1.33-1.29,1.33-.27,0-.58-.2-.82-.37-1.53-1.12-2.55-1.43-4.45-1.43-1.67,0-3.5.31-4.52,2.28-.85,1.63-.95,4.15-.95,7.17s.07,5.54.95,7.21c.99,1.87,2.69,2.24,4.45,2.24,1.53,0,3.37-.31,5.07-1.77.27-.27.48-.44.78-.44.65,0,1.39.75,1.39,1.33,0,.31-.17.58-.44.88-.75.82-2.72,2.52-6.9,2.52Z"/>
      <path d="M669.99,253.11c0,.17.07.24.2.24.07,0,.2-.14.27-.17,1.26-1.05,2.69-1.39,4.18-1.39,4.56,0,5.92,2.92,5.92,7.04v8.77c0,.82-.61,1.12-1.22,1.12-.65,0-1.29-.31-1.29-1.12v-7.68c0-3.3-.14-5.75-4.04-5.75-2.86,0-4.01,1.53-4.01,4.52v8.91c0,.82-.65,1.12-1.26,1.12-.65,0-1.26-.31-1.26-1.12v-21.69c0-.82.61-1.12,1.26-1.12.61,0,1.26.31,1.26,1.12v7.21Z"/>
      <path d="M686.48,248.15c-1.02,0-1.7-.71-1.7-1.7s.68-1.67,1.7-1.67c.95,0,1.67.68,1.67,1.67s-.71,1.7-1.67,1.7ZM687.74,267.59c0,.82-.65,1.12-1.26,1.12-.65,0-1.26-.31-1.26-1.12v-14.69c0-.82.61-1.12,1.26-1.12.61,0,1.26.31,1.26,1.12v14.69Z"/>
      <path d="M705.86,260.25c0,4.83-1.22,8.46-6.32,8.46-1.29,0-2.72-.31-3.98-1.39,0-.03-.17-.17-.27-.17-.14,0-.2.1-.2.24v7.21c0,.82-.65,1.12-1.26,1.12-.65,0-1.26-.31-1.26-1.12v-21.69c0-.82.61-1.12,1.26-1.12s1.26.31,1.26,1.12v.24c0,.14.07.2.2.2.07,0,.24-.1.31-.17,1.29-1.09,2.65-1.39,3.94-1.39,5.1,0,6.32,3.64,6.32,8.46ZM703.28,260.25c0-3.57-.31-6.08-4.18-6.08s-4.01,2.75-4.01,6.08c0,3.03.07,6.08,4.01,6.08s4.18-2.52,4.18-6.08Z"/>
      <path d="M710.82,265.18c1.02,0,1.77.75,1.77,1.77s-.75,1.77-1.77,1.77-1.77-.75-1.77-1.77.75-1.77,1.77-1.77Z"/>
      <path d="M725.34,245.97c0-.95.71-1.19,1.36-1.19.68,0,1.36.24,1.36,1.19v21.55c0,.95-.68,1.19-1.36,1.19s-1.36-.24-1.36-1.19v-21.55Z"/>
      <path d="M735.55,258.62v8.97c0,.82-.65,1.12-1.26,1.12-.65,0-1.26-.31-1.26-1.12v-14.69c0-.82.61-1.12,1.26-1.12s1.29.31,1.29,1.05v.34c0,.1.07.17.17.17.07,0,.2-.14.27-.17,1.26-1.05,2.69-1.39,4.18-1.39,4.56,0,5.92,2.92,5.92,7.04v8.77c0,.82-.61,1.12-1.22,1.12-.65,0-1.29-.31-1.29-1.12v-7.68c0-3.3-.14-5.75-4.04-5.75-2.86,0-4.01,1.56-4.01,4.45Z"/>
      <path d="M762.15,254c0,.65-.71,1.39-1.33,1.39-.31,0-.58-.2-.85-.41-1.05-.75-2.07-.82-2.96-.82-3.88,0-4.18,2.52-4.18,6.08s.31,6.08,4.22,6.08c.82,0,2.18-.24,3.09-.68.48-.24.78-.51,1.09-.51.65,0,1.26.68,1.26,1.36,0,.17-.03.61-.58.92-1.56.92-2.89,1.29-4.9,1.29-5.71,0-6.77-3.64-6.77-8.46s1.05-8.46,6.63-8.46c1.67,0,3.57.24,5,1.6.24.24.27.44.27.61Z"/>
      <path d="M765.99,264.81v-18.9c0-.82.61-1.12,1.26-1.12.61,0,1.26.31,1.26,1.12v18.73c0,1.22.51,1.67,1.7,1.67.61,0,1.05.41,1.05,1.12s-.41,1.29-1.63,1.29c-2.38,0-3.64-1.26-3.64-3.91Z"/>
      <path d="M784.61,261.88v-8.98c0-.82.65-1.12,1.29-1.12.61,0,1.22.31,1.22,1.12v14.69c0,.82-.61,1.12-1.22,1.12-.58,0-1.29-.24-1.29-1.12v-.2c0-.14-.07-.24-.17-.24s-.24.14-.27.17c-1.26,1.05-2.72,1.39-4.18,1.39-4.62,0-5.92-2.92-5.92-7.07v-8.74c0-.82.65-1.12,1.26-1.12.65,0,1.26.31,1.26,1.12v7.82c0,3.3.17,5.61,4.01,5.61,2.89,0,4.01-1.53,4.01-4.45Z"/>
      <path d="M791.42,260.25c0-4.83,1.22-8.46,6.29-8.46,1.29,0,2.75.34,4.01,1.43,0,0,.17.17.27.17s.17-.07.17-.24v-7.24c0-.82.65-1.12,1.29-1.12.61,0,1.22.31,1.22,1.12v21.69c0,.82-.61,1.12-1.22,1.12s-1.29-.2-1.29-.99v-.41c0-.17-.07-.2-.17-.2-.07,0-.24.14-.31.2-1.29,1.09-2.69,1.39-3.98,1.39-5.07,0-6.29-3.64-6.29-8.46ZM794.01,260.25c0,3.57.31,6.08,4.15,6.08s4.01-2.65,4.01-6.08c0-3.09-.07-6.08-4.01-6.08s-4.15,2.52-4.15,6.08Z"/>
      <path d="M810.82,248.15c-1.02,0-1.7-.71-1.7-1.7s.68-1.67,1.7-1.67c.95,0,1.67.68,1.67,1.67s-.71,1.7-1.67,1.7ZM812.08,267.59c0,.82-.65,1.12-1.26,1.12-.65,0-1.26-.31-1.26-1.12v-14.69c0-.82.61-1.12,1.26-1.12.61,0,1.26.31,1.26,1.12v14.69Z"/>
      <path d="M819.42,258.62v8.97c0,.82-.65,1.12-1.26,1.12-.65,0-1.26-.31-1.26-1.12v-14.69c0-.82.61-1.12,1.26-1.12s1.29.31,1.29,1.05v.34c0,.1.07.17.17.17.07,0,.2-.14.27-.17,1.26-1.05,2.69-1.39,4.18-1.39,4.56,0,5.92,2.92,5.92,7.04v8.77c0,.82-.61,1.12-1.22,1.12-.65,0-1.29-.31-1.29-1.12v-7.68c0-3.3-.14-5.75-4.04-5.75-2.86,0-4.01,1.56-4.01,4.45Z"/>
      <path d="M834.12,260.25c0-4.83,1.22-8.46,6.29-8.46,1.29,0,2.75.34,4.01,1.43.03.03.17.17.27.17s.17-.07.17-.2v-.27c0-.82.51-1.12,1.29-1.12.61,0,1.22.31,1.22,1.12v16.79c0,4.42-3.64,6.36-7.31,6.36-2.18,0-3.57-.51-4.39-.95-.41-.24-.58-.58-.58-.92,0-.61.44-1.39,1.16-1.39.17,0,.37.07.61.17.78.37,1.73.71,3.2.71,2.62,0,4.79-1.39,4.79-3.84v-2.48c0-.14-.07-.24-.17-.24s-.24.14-.27.17c-1.22,1.12-2.72,1.43-4.01,1.43-5.07,0-6.29-3.64-6.29-8.46ZM836.7,260.25c0,3.57.31,6.08,4.15,6.08s4.01-2.58,4.01-6.08c0-3.03-.07-6.08-4.01-6.08s-4.15,2.52-4.15,6.08Z"/>
      <path d="M865.09,271.27c-.99,2.52-2.69,4.45-5.03,4.45-.88,0-1.22-.51-1.22-1.26,0-.54.34-.92.95-1.05,1.6-.34,2.28-.85,3.13-3.03l.78-1.94c.07-.2.14-.37.14-.58,0-.14-.03-.27-.1-.44l-5.37-14.04c-.07-.17-.1-.34-.1-.48,0-.68.78-1.12,1.46-1.12.37,0,.78.17.99.71l4.15,11.35c.1.31.1.65.34.65.2,0,.24-.41.34-.65l4.25-11.35c.2-.54.61-.71.99-.71.68,0,1.46.44,1.46,1.12,0,.14-.03.31-.1.48l-7.04,17.88Z"/>
      <path d="M881.34,251.79c5.71,0,6.77,3.64,6.77,8.46s-1.05,8.46-6.77,8.46-6.77-3.64-6.77-8.46,1.05-8.46,6.77-8.46ZM881.34,266.34c3.88,0,4.18-2.52,4.18-6.08s-.31-6.08-4.18-6.08-4.18,2.52-4.18,6.08.31,6.08,4.18,6.08Z"/>
      <path d="M902.72,261.88v-8.98c0-.82.65-1.12,1.29-1.12.61,0,1.22.31,1.22,1.12v14.69c0,.82-.61,1.12-1.22,1.12-.58,0-1.29-.24-1.29-1.12v-.2c0-.14-.07-.24-.17-.24s-.24.14-.27.17c-1.26,1.05-2.72,1.39-4.18,1.39-4.62,0-5.92-2.92-5.92-7.07v-8.74c0-.82.65-1.12,1.26-1.12.65,0,1.26.31,1.26,1.12v7.82c0,3.3.17,5.61,4.01,5.61,2.89,0,4.01-1.53,4.01-4.45Z"/>
      <path d="M911.22,265.18c1.02,0,1.77.75,1.77,1.77s-.75,1.77-1.77,1.77-1.77-.75-1.77-1.77.75-1.77,1.77-1.77Z"/>
      <path d="M101.67,286.77c0-.95.71-1.19,1.36-1.19.68,0,1.36.24,1.36,1.19v21.55c0,.95-.68,1.19-1.36,1.19s-1.36-.24-1.36-1.19v-21.55Z"/>
      <path d="M111.88,299.42v8.97c0,.82-.65,1.12-1.26,1.12-.65,0-1.26-.31-1.26-1.12v-14.69c0-.82.61-1.12,1.26-1.12s1.29.31,1.29,1.05v.34c0,.1.07.17.17.17.07,0,.2-.14.27-.17,1.26-1.05,2.69-1.39,4.18-1.39,4.56,0,5.92,2.92,5.92,7.04v8.77c0,.82-.61,1.12-1.22,1.12-.65,0-1.29-.31-1.29-1.12v-7.68c0-3.3-.14-5.75-4.04-5.75-2.86,0-4.01,1.56-4.01,4.45Z"/>
      <path d="M138.47,294.8c0,.65-.71,1.39-1.33,1.39-.31,0-.58-.2-.85-.41-1.05-.75-2.07-.82-2.96-.82-3.88,0-4.18,2.52-4.18,6.09s.31,6.08,4.22,6.08c.82,0,2.18-.24,3.09-.68.48-.24.78-.51,1.09-.51.65,0,1.26.68,1.26,1.36,0,.17-.03.61-.58.92-1.56.92-2.89,1.29-4.9,1.29-5.71,0-6.77-3.64-6.77-8.46s1.05-8.46,6.63-8.46c1.67,0,3.57.24,5,1.6.24.24.27.44.27.61Z"/>
      <path d="M142.32,305.61v-18.9c0-.82.61-1.12,1.26-1.12.61,0,1.26.31,1.26,1.12v18.73c0,1.22.51,1.67,1.7,1.67.61,0,1.05.41,1.05,1.12s-.41,1.29-1.63,1.29c-2.38,0-3.64-1.26-3.64-3.91Z"/>
      <path d="M160.94,302.68v-8.98c0-.82.65-1.12,1.29-1.12.61,0,1.22.31,1.22,1.12v14.69c0,.82-.61,1.12-1.22,1.12-.58,0-1.29-.24-1.29-1.12v-.2c0-.14-.07-.24-.17-.24s-.24.14-.27.17c-1.26,1.05-2.72,1.39-4.18,1.39-4.62,0-5.92-2.92-5.92-7.07v-8.74c0-.82.65-1.12,1.26-1.12.65,0,1.26.31,1.26,1.12v7.82c0,3.3.17,5.61,4.01,5.61,2.89,0,4.01-1.53,4.01-4.45Z"/>
      <path d="M167.75,301.05c0-4.83,1.22-8.46,6.29-8.46,1.29,0,2.75.34,4.01,1.43,0,0,.17.17.27.17s.17-.07.17-.24v-7.24c0-.82.65-1.12,1.29-1.12.61,0,1.22.31,1.22,1.12v21.69c0,.82-.61,1.12-1.22,1.12s-1.29-.2-1.29-.99v-.41c0-.17-.07-.2-.17-.2-.07,0-.24.14-.31.2-1.29,1.09-2.69,1.39-3.98,1.39-5.07,0-6.29-3.64-6.29-8.46ZM170.34,301.05c0,3.57.31,6.08,4.15,6.08s4.01-2.65,4.01-6.08c0-3.09-.07-6.09-4.01-6.09s-4.15,2.52-4.15,6.09Z"/>
      <path d="M187.15,288.95c-1.02,0-1.7-.71-1.7-1.7s.68-1.67,1.7-1.67c.95,0,1.67.68,1.67,1.67s-.71,1.7-1.67,1.7ZM188.41,308.39c0,.82-.65,1.12-1.26,1.12-.65,0-1.26-.31-1.26-1.12v-14.69c0-.82.61-1.12,1.26-1.12.61,0,1.26.31,1.26,1.12v14.69Z"/>
      <path d="M195.75,299.42v8.97c0,.82-.65,1.12-1.26,1.12-.65,0-1.26-.31-1.26-1.12v-14.69c0-.82.61-1.12,1.26-1.12s1.29.31,1.29,1.05v.34c0,.1.07.17.17.17.07,0,.2-.14.27-.17,1.26-1.05,2.69-1.39,4.18-1.39,4.56,0,5.92,2.92,5.92,7.04v8.77c0,.82-.61,1.12-1.22,1.12-.65,0-1.29-.31-1.29-1.12v-7.68c0-3.3-.14-5.75-4.04-5.75-2.86,0-4.01,1.56-4.01,4.45Z"/>
      <path d="M210.45,301.05c0-4.83,1.22-8.46,6.29-8.46,1.29,0,2.75.34,4.01,1.43.03.03.17.17.27.17s.17-.07.17-.2v-.27c0-.82.51-1.12,1.29-1.12.61,0,1.22.31,1.22,1.12v16.79c0,4.42-3.64,6.36-7.31,6.36-2.18,0-3.57-.51-4.38-.95-.41-.24-.58-.58-.58-.92,0-.61.44-1.39,1.16-1.39.17,0,.37.07.61.17.78.37,1.73.71,3.2.71,2.62,0,4.79-1.39,4.79-3.84v-2.48c0-.14-.07-.24-.17-.24s-.24.14-.27.17c-1.22,1.12-2.72,1.43-4.01,1.43-5.07,0-6.29-3.64-6.29-8.46ZM213.03,301.05c0,3.57.31,6.08,4.15,6.08s4.01-2.58,4.01-6.08c0-3.03-.07-6.09-4.01-6.09s-4.15,2.52-4.15,6.09Z"/>
      <path d="M245.94,307.54c-.1,0-.2.14-.34.24-1.12.92-2.58,1.73-5.03,1.73-3.94,0-5.17-2.45-5.17-4.62,0-4.15,3.43-5.17,6.73-5.17h3.3c.24,0,.31-.1.31-.31v-.99c0-2.35-1.16-3.47-3.74-3.47-2.07,0-2.92.51-3.98,1.29-.17.14-.34.17-.48.17-.65,0-1.26-.71-1.26-1.33,0-.37.2-.68.54-.99,1.53-1.22,3.47-1.53,5.24-1.53,5.27,0,6.32,2.72,6.32,6.76v6.9c0,.61.17.92.75.92h.31c.58,0,.88.48.88,1.12,0,.88-.37,1.22-1.77,1.22-1.29,0-2.07-.58-2.45-1.77-.07-.17-.1-.2-.17-.2ZM245.87,302.27c0-.2-.1-.31-.31-.31h-3.2c-2.31,0-4.39.34-4.39,2.55,0,1.73,1.12,2.79,3.03,2.79,3.37,0,4.86-2.14,4.86-4.18v-.85Z"/>
      <path d="M256.2,299.42v8.97c0,.82-.65,1.12-1.26,1.12-.65,0-1.26-.31-1.26-1.12v-14.69c0-.82.61-1.12,1.26-1.12s1.29.31,1.29,1.05v.34c0,.1.07.17.17.17.07,0,.2-.14.27-.17,1.26-1.05,2.69-1.39,4.18-1.39,4.56,0,5.92,2.92,5.92,7.04v8.77c0,.82-.61,1.12-1.22,1.12-.65,0-1.29-.31-1.29-1.12v-7.68c0-3.3-.14-5.75-4.04-5.75-2.86,0-4.01,1.56-4.01,4.45Z"/>
      <path d="M276.31,312.07c-.99,2.52-2.69,4.45-5.03,4.45-.88,0-1.22-.51-1.22-1.26,0-.54.34-.92.95-1.05,1.6-.34,2.28-.85,3.13-3.03l.78-1.94c.07-.2.14-.37.14-.58,0-.14-.03-.27-.1-.44l-5.37-14.04c-.07-.17-.1-.34-.1-.48,0-.68.78-1.12,1.46-1.12.37,0,.78.17.99.71l4.15,11.35c.1.31.1.65.34.65.2,0,.24-.41.34-.65l4.25-11.35c.2-.54.61-.71.99-.71.68,0,1.46.44,1.46,1.12,0,.14-.03.31-.1.48l-7.04,17.88Z"/>
      <path d="M292.56,292.59c5.71,0,6.77,3.64,6.77,8.46s-1.05,8.46-6.77,8.46-6.77-3.64-6.77-8.46,1.05-8.46,6.77-8.46ZM292.56,307.14c3.88,0,4.18-2.52,4.18-6.08s-.31-6.09-4.18-6.09-4.18,2.52-4.18,6.09.31,6.08,4.18,6.08Z"/>
      <path d="M306.09,299.42v8.97c0,.82-.65,1.12-1.26,1.12-.65,0-1.26-.31-1.26-1.12v-14.69c0-.82.61-1.12,1.26-1.12s1.29.31,1.29,1.05v.34c0,.1.07.17.17.17.07,0,.2-.14.27-.17,1.26-1.05,2.69-1.39,4.18-1.39,4.56,0,5.92,2.92,5.92,7.04v8.77c0,.82-.61,1.12-1.22,1.12-.65,0-1.29-.31-1.29-1.12v-7.68c0-3.3-.14-5.75-4.04-5.75-2.86,0-4.01,1.56-4.01,4.45Z"/>
      <path d="M323.65,302.04c-.2,0-.24.1-.24.24.1,3.16.75,4.86,4.52,4.86,1.05,0,2.41-.34,3.33-.85.99-.58,1.16-.75,1.43-.75.78,0,1.22.75,1.22,1.43,0,.34-.17.65-.54.88-1.5,1.02-3.43,1.67-5.68,1.67-5.71,0-6.9-3.3-6.9-8.46,0-4.83,1.05-8.46,6.77-8.46s6.63,4.25,6.63,7.31c0,.88-.14,2.14-1.63,2.14h-8.91ZM327.56,294.83c-2.99,0-4.15,1.84-4.15,4.73,0,.17,0,.31.24.31h7.79c.14,0,.24-.03.24-.2,0-2.72-.99-4.83-4.11-4.83Z"/>
      <path d="M361.25,304.86c.1.34.14.71.37.71.2,0,.24-.37.34-.71l3.71-11.52c.17-.54.61-.75.99-.75.68,0,1.46.41,1.46,1.12,0,.1-.03.24-.07.37l-4.86,14.38c-.2.61-.68,1.05-1.56,1.05s-1.33-.44-1.53-1.09l-3.54-11.18c-.1-.31-.1-.85-.34-.85s-.24.54-.34.85l-3.3,10.84c-.37,1.19-1.09,1.43-1.77,1.43s-1.39-.24-1.77-1.43l-4.66-14.01c-.03-.14-.07-.27-.07-.37,0-.71.78-1.12,1.46-1.12.37,0,.82.2.99.75l3.71,11.66c.1.34.14.71.37.71s.24-.37.34-.71l3.26-10.98c.34-1.19,1.09-1.43,1.77-1.43s1.43.24,1.77,1.43l3.26,10.84Z"/>
      <path d="M373.99,293.91c0,.17.07.24.2.24.07,0,.2-.14.27-.17,1.26-1.05,2.69-1.39,4.18-1.39,4.56,0,5.92,2.92,5.92,7.04v8.77c0,.82-.61,1.12-1.22,1.12-.65,0-1.29-.31-1.29-1.12v-7.68c0-3.3-.14-5.75-4.04-5.75-2.86,0-4.01,1.53-4.01,4.52v8.91c0,.82-.65,1.12-1.26,1.12-.65,0-1.26-.31-1.26-1.12v-21.69c0-.82.61-1.12,1.26-1.12.61,0,1.26.31,1.26,1.12v7.21Z"/>
      <path d="M395.46,292.59c5.71,0,6.76,3.64,6.76,8.46s-1.05,8.46-6.76,8.46-6.77-3.64-6.77-8.46,1.05-8.46,6.77-8.46ZM395.46,307.14c3.88,0,4.18-2.52,4.18-6.08s-.31-6.09-4.18-6.09-4.18,2.52-4.18,6.09.31,6.08,4.18,6.08Z"/>
      <path d="M424.83,302.68v-8.98c0-.82.65-1.12,1.29-1.12.61,0,1.22.31,1.22,1.12v14.69c0,.82-.61,1.12-1.22,1.12-.58,0-1.29-.24-1.29-1.12v-.2c0-.14-.07-.24-.17-.24s-.24.14-.27.17c-1.26,1.05-2.72,1.39-4.18,1.39-4.62,0-5.92-2.92-5.92-7.07v-8.74c0-.82.65-1.12,1.26-1.12.65,0,1.26.31,1.26,1.12v7.82c0,3.3.17,5.61,4.01,5.61,2.89,0,4.01-1.53,4.01-4.45Z"/>
      <path d="M437.49,307.14c2.01,0,3.37-.85,3.37-2.38,0-1.16-.88-1.77-2.52-2.28l-2.48-.78c-2.69-.85-4.32-2.11-4.32-4.56,0-2.82,2.45-4.55,5.95-4.55,2.07,0,3.43.61,4.18,1.05.48.27.78.58.78,1.02,0,.58-.58,1.33-1.12,1.33-.31,0-.48-.1-.71-.2-.51-.31-1.84-.82-3.13-.82-2.01,0-3.37.75-3.37,2.07,0,1.19.95,1.77,2.52,2.28l2.45.78c2.82.88,4.35,2.18,4.35,4.66,0,2.92-2.45,4.76-5.95,4.76-2.72,0-4.45-.95-5.61-2.07-.24-.27-.51-.51-.51-.92,0-.61.58-1.29,1.29-1.29.24,0,.41.03.85.41.85.75,1.8,1.5,3.98,1.5Z"/>
      <path d="M449.79,302.04c-.2,0-.24.1-.24.24.1,3.16.75,4.86,4.52,4.86,1.05,0,2.41-.34,3.33-.85.99-.58,1.16-.75,1.43-.75.78,0,1.22.75,1.22,1.43,0,.34-.17.65-.54.88-1.5,1.02-3.43,1.67-5.68,1.67-5.71,0-6.9-3.3-6.9-8.46,0-4.83,1.05-8.46,6.77-8.46s6.63,4.25,6.63,7.31c0,.88-.14,2.14-1.63,2.14h-8.91ZM453.7,294.83c-2.99,0-4.15,1.84-4.15,4.73,0,.17,0,.31.24.31h7.79c.14,0,.24-.03.24-.2,0-2.72-.99-4.83-4.11-4.83Z"/>
      <path d="M469.85,307.14c2.01,0,3.37-.85,3.37-2.38,0-1.16-.88-1.77-2.52-2.28l-2.48-.78c-2.69-.85-4.32-2.11-4.32-4.56,0-2.82,2.45-4.55,5.95-4.55,2.07,0,3.43.61,4.18,1.05.48.27.78.58.78,1.02,0,.58-.58,1.33-1.12,1.33-.31,0-.48-.1-.71-.2-.51-.31-1.84-.82-3.13-.82-2.01,0-3.37.75-3.37,2.07,0,1.19.95,1.77,2.52,2.28l2.45.78c2.82.88,4.35,2.18,4.35,4.66,0,2.92-2.45,4.76-5.95,4.76-2.72,0-4.45-.95-5.61-2.07-.24-.27-.51-.51-.51-.92,0-.61.58-1.29,1.29-1.29.24,0,.41.03.85.41.85.75,1.8,1.5,3.98,1.5Z"/>
      <path d="M495.18,309.52c-2.24,0-4.83-.65-6.53-3.2-1.22-1.8-1.56-4.59-1.56-8.77s.34-6.97,1.56-8.8c1.63-2.45,4.18-3.16,6.53-3.16s4.32.48,5.81,1.73c.48.41.92.78.92,1.26,0,.58-.68,1.33-1.29,1.33-.27,0-.58-.2-.82-.37-1.53-1.12-2.55-1.43-4.45-1.43-1.67,0-3.5.31-4.52,2.28-.85,1.63-.95,4.15-.95,7.17s.07,5.54.95,7.21c.99,1.87,2.69,2.24,4.45,2.24,1.53,0,3.37-.31,5.07-1.77.27-.27.48-.44.78-.44.65,0,1.39.75,1.39,1.33,0,.31-.17.58-.44.88-.75.82-2.72,2.52-6.9,2.52Z"/>
      <path d="M509.22,300.17c-.24,0-.31.07-.31.31v7.85c0,.95-.68,1.19-1.36,1.19s-1.36-.24-1.36-1.19v-21.52c0-.88.61-1.09,1.26-1.09h8.87c3.6,0,6.56,2.31,6.56,7.21s-2.96,7.24-6.56,7.24h-7.11ZM516.29,297.65c2.31,0,3.81-1.53,3.81-4.73s-1.5-4.69-3.81-4.69h-7.07c-.24,0-.31.07-.31.31v8.8c0,.24.07.31.31.31h7.07Z"/>
      <path d="M543.01,307.58c.14.24.2.44.2.65,0,.68-.88,1.29-1.56,1.29-.34,0-.68-.17-.92-.58l-5.44-9.18c-.17-.31-.27-.31-.54-.31h-5.2c-.24,0-.31.07-.31.31v8.57c0,.95-.68,1.19-1.36,1.19s-1.36-.24-1.36-1.19v-21.52c0-.82.61-1.09,1.26-1.09h8.87c3.6,0,6.56,2.21,6.56,6.87,0,3.64-1.73,5.95-4.83,6.66-.14.03-.17.14-.17.24,0,.07.03.14.03.14l4.76,7.96ZM536.45,296.94c2.52,0,3.98-1.43,3.98-4.35s-1.5-4.35-3.77-4.35h-7.11c-.24,0-.31.07-.31.31v8.09c0,.24.07.31.31.31h6.9Z"/>
      <path d="M552.03,300.03c0-.2-.03-.24-.24-.24h-5.2c-.65,0-.88-.48-.88-.95,0-.54.24-.95.88-.95h5.2c.2,0,.24-.1.24-.27v-5.03c0-.68.51-.92,1.02-.92s1.02.24,1.02.92v5.03c0,.17.07.27.24.27h5.2c.65,0,.88.41.88.95,0,.48-.24.95-.88.95h-5.2c-.17,0-.24.03-.24.24v5.2c0,.65-.51.88-1.02.88s-1.02-.24-1.02-.88v-5.2Z"/>
      <path d="M580.05,295.24c-.58,0-.51-.03-1.33-.03-2.58,0-3.71,1.39-3.71,5.13v8.06c0,.82-.61,1.12-1.26,1.12-.68,0-1.26-.31-1.26-1.12v-14.69c0-.82.61-1.12,1.26-1.12.71,0,1.29.31,1.29,1.12v.27c0,.07.03.14.14.14.07,0,.17-.1.27-.2,1.19-.99,2.52-1.33,3.64-1.33,1.33,0,2.07.2,2.07,1.39,0,.85-.41,1.26-1.12,1.26Z"/>
      <path d="M585.61,288.95c-1.02,0-1.7-.71-1.7-1.7s.68-1.67,1.7-1.67c.95,0,1.67.68,1.67,1.67s-.71,1.7-1.67,1.7ZM586.86,308.39c0,.82-.65,1.12-1.26,1.12-.65,0-1.26-.31-1.26-1.12v-14.69c0-.82.61-1.12,1.26-1.12.61,0,1.26.31,1.26,1.12v14.69Z"/>
      <path d="M591.02,301.05c0-4.83,1.22-8.46,6.29-8.46,1.29,0,2.75.34,4.01,1.43.03.03.17.17.27.17s.17-.07.17-.2v-.27c0-.82.51-1.12,1.29-1.12.61,0,1.22.31,1.22,1.12v16.79c0,4.42-3.64,6.36-7.31,6.36-2.18,0-3.57-.51-4.39-.95-.41-.24-.58-.58-.58-.92,0-.61.44-1.39,1.16-1.39.17,0,.37.07.61.17.78.37,1.73.71,3.2.71,2.62,0,4.79-1.39,4.79-3.84v-2.48c0-.14-.07-.24-.17-.24s-.24.14-.27.17c-1.22,1.12-2.72,1.43-4.01,1.43-5.07,0-6.29-3.64-6.29-8.46ZM593.61,301.05c0,3.57.31,6.08,4.15,6.08s4.01-2.58,4.01-6.08c0-3.03-.07-6.09-4.01-6.09s-4.15,2.52-4.15,6.09Z"/>
      <path d="M611.66,293.91c0,.17.07.24.2.24.07,0,.2-.14.27-.17,1.26-1.05,2.69-1.39,4.18-1.39,4.56,0,5.92,2.92,5.92,7.04v8.77c0,.82-.61,1.12-1.22,1.12-.65,0-1.29-.31-1.29-1.12v-7.68c0-3.3-.14-5.75-4.04-5.75-2.86,0-4.01,1.53-4.01,4.52v8.91c0,.82-.65,1.12-1.26,1.12-.65,0-1.26-.31-1.26-1.12v-21.69c0-.82.61-1.12,1.26-1.12.61,0,1.26.31,1.26,1.12v7.21Z"/>
      <path d="M632.74,309.52c-3.23,0-4.66-1.84-4.66-4.9v-9.35c0-.17-.1-.24-.31-.24h-1.77c-.82,0-1.09-.54-1.09-1.16s.27-1.16,1.09-1.16h1.77c.2,0,.31-.07.31-.27v-3.88c0-.82.61-1.12,1.26-1.12.61,0,1.26.31,1.26,1.12v3.84c0,.24.07.31.31.31h2.14c.82,0,1.09.54,1.09,1.16s-.27,1.16-1.09,1.16h-2.14c-.24,0-.31.07-.31.31v9.52c0,1.43.82,2.28,2.41,2.28.71,0,1.12.51,1.12,1.16,0,.58-.34,1.22-1.39,1.22Z"/>
      <path d="M647.73,299.42v8.97c0,.82-.65,1.12-1.26,1.12-.65,0-1.26-.31-1.26-1.12v-14.69c0-.82.61-1.12,1.26-1.12s1.29.31,1.29,1.05v.34c0,.1.07.17.17.17.07,0,.2-.14.27-.17,1.26-1.05,2.69-1.39,4.18-1.39,4.56,0,5.92,2.92,5.92,7.04v8.77c0,.82-.61,1.12-1.22,1.12-.65,0-1.29-.31-1.29-1.12v-7.68c0-3.3-.14-5.75-4.04-5.75-2.86,0-4.01,1.56-4.01,4.45Z"/>
      <path d="M669.19,292.59c5.71,0,6.77,3.64,6.77,8.46s-1.05,8.46-6.77,8.46-6.77-3.64-6.77-8.46,1.05-8.46,6.77-8.46ZM669.19,307.14c3.88,0,4.18-2.52,4.18-6.08s-.31-6.09-4.18-6.09-4.18,2.52-4.18,6.09.31,6.08,4.18,6.08Z"/>
      <path d="M695.29,304.86c.1.34.14.71.37.71.2,0,.24-.37.34-.71l3.71-11.52c.17-.54.61-.75.99-.75.68,0,1.46.41,1.46,1.12,0,.1-.03.24-.07.37l-4.86,14.38c-.2.61-.68,1.05-1.56,1.05s-1.33-.44-1.53-1.09l-3.54-11.18c-.1-.31-.1-.85-.34-.85s-.24.54-.34.85l-3.3,10.84c-.37,1.19-1.09,1.43-1.77,1.43s-1.39-.24-1.77-1.43l-4.66-14.01c-.03-.14-.07-.27-.07-.37,0-.71.78-1.12,1.46-1.12.37,0,.82.2.99.75l3.71,11.66c.1.34.14.71.37.71s.24-.37.34-.71l3.26-10.98c.34-1.19,1.09-1.43,1.77-1.43s1.43.24,1.77,1.43l3.26,10.84Z"/>
      <path d="M704.97,305.98c1.02,0,1.77.75,1.77,1.77s-.75,1.77-1.77,1.77-1.77-.75-1.77-1.77.75-1.77,1.77-1.77Z"/>
    </g>
  </g>
</svg>