<?xml version="1.0" encoding="UTF-8"?>
<svg xmlns="http://www.w3.org/2000/svg" viewBox="0 0 1116 844.26">
  <g id="bg">
    <rect y="-.05" width="1114.94" height="844.31" fill="#fff"/>
  </g>
  <g id="_03" data-name="03">
    <g>
      <rect x="85.31" y="75.74" width="932.07" height="112.63" rx="56.31" ry="56.31" fill="#fff" stroke="#000" stroke-miterlimit="10" stroke-width="3"/>
      <path d="M141.63,75.74c-30.97,0-56.31,25.34-56.31,56.31h0c0,30.97,25.34,56.32,56.31,56.32h126.08v-112.63h-126.08Z" fill="#8ef" stroke="#000" stroke-miterlimit="10" stroke-width="3"/>
      <g>
        <path d="M117.16,115.32c-.21-1.1.31-1.73,1.41-1.73h6.23c.94,0,1.62.47,1.73,1.36l2.98,21.82c.11.52.52.52.63,0l3.51-21.82c.16-.89.79-1.36,1.73-1.36h4.5c.94,0,1.57.47,1.73,1.36l3.51,21.82c.11.52.52.52.63,0l2.98-21.82c.11-.89.79-1.36,1.73-1.36h6.23c1.1,0,1.62.63,1.41,1.73l-6.44,33.55c-.16.89-.79,1.36-1.73,1.36h-7.38c-.94,0-1.52-.47-1.73-1.36l-2.88-12.88c-.1-.52-.52-.52-.63,0l-2.88,12.88c-.21.89-.79,1.36-1.73,1.36h-7.38c-.94,0-1.57-.47-1.73-1.36l-6.44-33.55Z"/>
        <path d="M168.76,113.6c.99,0,1.57.58,1.57,1.57v13.08c0,.99.58,1.57,1.57,1.57h5.02c1.05,0,1.57-.58,1.57-1.57v-13.08c0-.99.58-1.57,1.57-1.57h5.86c1.05,0,1.57.52,1.57,1.57v33.5c0,.99-.52,1.57-1.57,1.57h-5.86c-.99,0-1.57-.58-1.57-1.57v-8.27c0-1.05-.52-1.57-1.57-1.57h-5.02c-1,0-1.57.52-1.57,1.57v8.27c0,.99-.52,1.57-1.57,1.57h-5.86c-.99,0-1.57-.58-1.57-1.57v-33.5c0-1.05.52-1.57,1.57-1.57h5.86Z"/>
        <path d="M199.63,113.6c.89,0,1.47.37,1.78,1.2l3.87,9.73c.21.47.52.47.73,0l3.87-9.73c.31-.84.89-1.2,1.78-1.2h7.48c1.2,0,1.73.73,1.2,1.83l-9.37,20.94c-.1.21-.1.42-.1.63v11.67c0,.99-.52,1.57-1.57,1.57h-7.33c-.99,0-1.57-.58-1.57-1.57v-11.67c0-.21,0-.42-.1-.63l-9.42-20.94c-.52-1.1,0-1.83,1.2-1.83h7.54Z"/>
        <path d="M232.33,138.56c-1.05,0-1.67-.63-1.47-1.73,1.26-7.12,6.49-6.38,7.59-11.72.31-1.57-.52-3.45-2.56-3.45-2.46,0-3.66,1.36-4.03,3.51-.16,1.05-.68,1.52-1.73,1.31l-5.97-1.31c-.94-.21-1.41-.79-1.36-1.73.31-3.77,2.3-10.78,13.08-10.78,11.72,0,12.14,9.26,12.09,10.83,0,8.69-6.07,9.42-7.96,13.76-.37.89-.84,1.31-1.78,1.31h-5.91ZM232.18,141.23c-.99,0-1.57.52-1.57,1.57v5.86c0,.99.58,1.57,1.57,1.57h5.86c1.05,0,1.57-.58,1.57-1.57v-5.86c0-1.05-.52-1.57-1.57-1.57h-5.86Z"/>
      </g>
      <g>
        <path d="M332.05,96.62l5.23,19.22c.11.34.15.97.37.97.19,0,.22-.56.34-.97l5.27-20c.19-.71.64-.93,1.12-.93.82,0,1.76.41,1.76,1.27,0,.11-.04.26-.08.41l-6.24,22.92c-.37,1.42-1.31,1.72-2.13,1.72s-1.72-.3-2.13-1.72l-5.35-19.66c-.08-.26-.11-.6-.3-.6s-.22.34-.3.6l-5.35,19.66c-.41,1.42-1.31,1.72-2.13,1.72s-1.76-.3-2.13-1.72l-6.24-22.92c-.04-.15-.07-.3-.07-.41,0-.86.93-1.27,1.76-1.27.49,0,.93.22,1.12.93l5.27,20c.11.41.15.97.34.97.22,0,.26-.64.37-.97l5.23-19.22c.37-1.42,1.31-1.72,2.13-1.72s1.76.3,2.13,1.72Z"/>
        <path d="M352.69,104.06c0,.19.08.26.22.26.08,0,.22-.15.3-.19,1.38-1.16,2.95-1.53,4.6-1.53,5.01,0,6.5,3.21,6.5,7.74v9.65c0,.9-.67,1.23-1.35,1.23-.71,0-1.42-.34-1.42-1.23v-8.45c0-3.63-.15-6.32-4.45-6.32-3.14,0-4.41,1.68-4.41,4.97v9.79c0,.9-.71,1.23-1.38,1.23-.71,0-1.38-.34-1.38-1.23v-23.85c0-.9.67-1.23,1.38-1.23.67,0,1.38.34,1.38,1.23v7.93Z"/>
        <path d="M375.19,124.03c-1.08,2.77-2.95,4.9-5.53,4.9-.97,0-1.35-.56-1.35-1.38,0-.6.37-1.01,1.05-1.16,1.76-.37,2.5-.93,3.44-3.33l.86-2.13c.08-.22.15-.41.15-.64,0-.15-.04-.3-.11-.49l-5.91-15.44c-.08-.19-.11-.37-.11-.52,0-.75.86-1.23,1.61-1.23.41,0,.86.19,1.08.79l4.56,12.49c.11.34.11.71.37.71.22,0,.26-.45.37-.71l4.67-12.49c.22-.6.67-.79,1.08-.79.75,0,1.61.49,1.61,1.23,0,.15-.04.34-.11.52l-7.74,19.66Z"/>
        <path d="M405.29,119.06c-.11,0-.22.15-.37.26-1.23,1.01-2.84,1.91-5.53,1.91-4.34,0-5.68-2.69-5.68-5.08,0-4.56,3.78-5.68,7.4-5.68h3.63c.26,0,.34-.11.34-.34v-1.08c0-2.58-1.27-3.81-4.11-3.81-2.28,0-3.21.56-4.37,1.42-.19.15-.37.19-.52.19-.71,0-1.38-.79-1.38-1.46,0-.41.22-.75.6-1.08,1.68-1.35,3.81-1.68,5.76-1.68,5.79,0,6.95,2.99,6.95,7.44v7.59c0,.67.19,1.01.82,1.01h.34c.64,0,.97.52.97,1.23,0,.97-.41,1.35-1.94,1.35-1.42,0-2.28-.64-2.69-1.94-.07-.19-.11-.22-.19-.22ZM405.21,113.26c0-.22-.11-.34-.34-.34h-3.51c-2.54,0-4.82.37-4.82,2.8,0,1.91,1.23,3.07,3.33,3.07,3.7,0,5.35-2.36,5.35-4.6v-.93Z"/>
        <path d="M422.03,105.52c-.64,0-.56-.04-1.46-.04-2.84,0-4.08,1.53-4.08,5.64v8.86c0,.9-.67,1.23-1.38,1.23-.75,0-1.38-.34-1.38-1.23v-16.15c0-.9.67-1.23,1.38-1.23.79,0,1.42.34,1.42,1.23v.3c0,.07.04.15.15.15.07,0,.19-.11.3-.22,1.31-1.08,2.77-1.46,4-1.46,1.46,0,2.28.22,2.28,1.53,0,.93-.45,1.38-1.23,1.38Z"/>
        <path d="M428.02,113c-.22,0-.26.11-.26.26.11,3.48.82,5.35,4.97,5.35,1.16,0,2.65-.37,3.66-.93,1.08-.63,1.27-.82,1.57-.82.86,0,1.35.82,1.35,1.57,0,.37-.19.71-.6.97-1.64,1.12-3.78,1.83-6.24,1.83-6.28,0-7.59-3.63-7.59-9.31,0-5.31,1.16-9.31,7.44-9.31s7.29,4.67,7.29,8.04c0,.97-.15,2.35-1.79,2.35h-9.79ZM432.31,105.07c-3.29,0-4.56,2.02-4.56,5.2,0,.19,0,.34.26.34h8.56c.15,0,.26-.04.26-.22,0-2.99-1.08-5.31-4.52-5.31Z"/>
        <path d="M458.26,124.03c-1.08,2.77-2.95,4.9-5.53,4.9-.97,0-1.35-.56-1.35-1.38,0-.6.37-1.01,1.05-1.16,1.76-.37,2.5-.93,3.44-3.33l.86-2.13c.08-.22.15-.41.15-.64,0-.15-.04-.3-.11-.49l-5.91-15.44c-.08-.19-.11-.37-.11-.52,0-.75.86-1.23,1.61-1.23.41,0,.86.19,1.08.79l4.56,12.49c.11.34.11.71.37.71.22,0,.26-.45.37-.71l4.67-12.49c.22-.6.67-.79,1.08-.79.75,0,1.61.49,1.61,1.23,0,.15-.04.34-.11.52l-7.74,19.66Z"/>
        <path d="M476.09,102.61c6.28,0,7.44,4,7.44,9.31s-1.16,9.31-7.44,9.31-7.44-4-7.44-9.31,1.16-9.31,7.44-9.31ZM476.09,118.61c4.26,0,4.6-2.77,4.6-6.69s-.34-6.69-4.6-6.69-4.6,2.77-4.6,6.69.34,6.69,4.6,6.69Z"/>
        <path d="M499.98,113.71v-9.87c0-.9.71-1.23,1.42-1.23.67,0,1.35.34,1.35,1.23v16.15c0,.9-.67,1.23-1.35,1.23-.64,0-1.42-.26-1.42-1.23v-.22c0-.15-.07-.26-.19-.26s-.26.15-.3.19c-1.38,1.16-2.99,1.53-4.6,1.53-5.08,0-6.5-3.21-6.5-7.78v-9.61c0-.9.71-1.23,1.38-1.23.71,0,1.38.34,1.38,1.23v8.6c0,3.63.19,6.17,4.41,6.17,3.18,0,4.41-1.68,4.41-4.9Z"/>
        <path d="M516.21,111.91c0-5.31,1.35-9.31,6.92-9.31,1.42,0,3.03.37,4.41,1.57,0,0,.19.19.3.19s.19-.07.19-.26v-7.96c0-.9.71-1.23,1.42-1.23.67,0,1.35.34,1.35,1.23v23.85c0,.9-.67,1.23-1.35,1.23s-1.42-.22-1.42-1.08v-.45c0-.19-.07-.22-.19-.22-.08,0-.26.15-.34.22-1.42,1.2-2.95,1.53-4.37,1.53-5.57,0-6.92-4-6.92-9.31ZM519.05,111.91c0,3.93.34,6.69,4.56,6.69s4.41-2.92,4.41-6.69c0-3.4-.07-6.69-4.41-6.69s-4.56,2.77-4.56,6.69Z"/>
        <path d="M543.27,102.61c6.28,0,7.44,4,7.44,9.31s-1.16,9.31-7.44,9.31-7.44-4-7.44-9.31,1.16-9.31,7.44-9.31ZM543.27,118.61c4.26,0,4.6-2.77,4.6-6.69s-.34-6.69-4.6-6.69-4.6,2.77-4.6,6.69.34,6.69,4.6,6.69Z"/>
        <path d="M557.14,98.61c-1.12,0-1.87-.79-1.87-1.87s.75-1.83,1.87-1.83c1.05,0,1.83.75,1.83,1.83s-.79,1.87-1.83,1.87ZM558.52,119.99c0,.9-.71,1.23-1.38,1.23-.71,0-1.38-.34-1.38-1.23v-16.15c0-.9.67-1.23,1.38-1.23.67,0,1.38.34,1.38,1.23v16.15Z"/>
        <path d="M567.05,110.12v9.87c0,.9-.71,1.23-1.38,1.23-.71,0-1.38-.34-1.38-1.23v-16.15c0-.9.67-1.23,1.38-1.23s1.42.34,1.42,1.16v.37c0,.11.07.19.19.19.08,0,.22-.15.3-.19,1.38-1.16,2.95-1.53,4.6-1.53,5.01,0,6.5,3.21,6.5,7.74v9.65c0,.9-.67,1.23-1.35,1.23-.71,0-1.42-.34-1.42-1.23v-8.45c0-3.63-.15-6.32-4.45-6.32-3.14,0-4.41,1.72-4.41,4.9Z"/>
        <path d="M583.54,111.91c0-5.31,1.35-9.31,6.92-9.31,1.42,0,3.03.37,4.41,1.57.04.04.19.19.3.19s.19-.07.19-.22v-.3c0-.9.56-1.23,1.42-1.23.67,0,1.35.34,1.35,1.23v18.47c0,4.86-4,6.99-8.04,6.99-2.39,0-3.93-.56-4.82-1.05-.45-.26-.64-.64-.64-1.01,0-.67.49-1.53,1.27-1.53.19,0,.41.07.67.19.86.41,1.91.79,3.51.79,2.88,0,5.27-1.53,5.27-4.22v-2.73c0-.15-.07-.26-.19-.26s-.26.15-.3.19c-1.35,1.23-2.99,1.57-4.41,1.57-5.57,0-6.92-4-6.92-9.31ZM586.38,111.91c0,3.93.34,6.69,4.56,6.69s4.41-2.84,4.41-6.69c0-3.33-.07-6.69-4.41-6.69s-4.56,2.77-4.56,6.69Z"/>
        <path d="M618.6,121.22c-3.55,0-5.12-2.02-5.12-5.38v-10.28c0-.19-.11-.26-.34-.26h-1.94c-.9,0-1.2-.6-1.2-1.27s.3-1.27,1.2-1.27h1.94c.22,0,.34-.07.34-.3v-4.26c0-.9.67-1.23,1.38-1.23.67,0,1.38.34,1.38,1.23v4.22c0,.26.08.34.34.34h2.36c.9,0,1.2.6,1.2,1.27s-.3,1.27-1.2,1.27h-2.36c-.26,0-.34.08-.34.34v10.47c0,1.57.9,2.5,2.65,2.5.79,0,1.23.56,1.23,1.27,0,.64-.37,1.35-1.53,1.35Z"/>
        <path d="M626.68,104.06c0,.19.08.26.22.26.08,0,.22-.15.3-.19,1.38-1.16,2.95-1.53,4.6-1.53,5.01,0,6.5,3.21,6.5,7.74v9.65c0,.9-.67,1.23-1.35,1.23-.71,0-1.42-.34-1.42-1.23v-8.45c0-3.63-.15-6.32-4.45-6.32-3.14,0-4.41,1.68-4.41,4.97v9.79c0,.9-.71,1.23-1.38,1.23-.71,0-1.38-.34-1.38-1.23v-23.85c0-.9.67-1.23,1.38-1.23.67,0,1.38.34,1.38,1.23v7.93Z"/>
        <path d="M645.26,98.61c-1.12,0-1.87-.79-1.87-1.87s.75-1.83,1.87-1.83c1.05,0,1.83.75,1.83,1.83s-.79,1.87-1.83,1.87ZM646.64,119.99c0,.9-.71,1.23-1.38,1.23-.71,0-1.38-.34-1.38-1.23v-16.15c0-.9.67-1.23,1.38-1.23.67,0,1.38.34,1.38,1.23v16.15Z"/>
        <path d="M658.23,118.61c2.21,0,3.7-.93,3.7-2.62,0-1.27-.97-1.94-2.77-2.5l-2.73-.86c-2.95-.93-4.75-2.32-4.75-5.01,0-3.1,2.69-5.01,6.54-5.01,2.28,0,3.78.67,4.6,1.16.52.3.86.64.86,1.12,0,.64-.64,1.46-1.23,1.46-.34,0-.52-.11-.79-.22-.56-.34-2.02-.9-3.44-.9-2.21,0-3.7.82-3.7,2.28,0,1.31,1.05,1.94,2.77,2.5l2.69.86c3.1.97,4.79,2.39,4.79,5.12,0,3.21-2.69,5.23-6.54,5.23-2.99,0-4.9-1.05-6.17-2.28-.26-.3-.56-.56-.56-1.01,0-.67.64-1.42,1.42-1.42.26,0,.45.04.93.45.93.82,1.98,1.64,4.37,1.64Z"/>
        <path d="M684.36,121.22c-3.55,0-5.12-2.02-5.12-5.38v-10.28c0-.19-.11-.26-.34-.26h-1.94c-.9,0-1.2-.6-1.2-1.27s.3-1.27,1.2-1.27h1.94c.22,0,.34-.07.34-.3v-4.26c0-.9.67-1.23,1.38-1.23.67,0,1.38.34,1.38,1.23v4.22c0,.26.08.34.34.34h2.36c.9,0,1.2.6,1.2,1.27s-.3,1.27-1.2,1.27h-2.36c-.26,0-.34.08-.34.34v10.47c0,1.57.9,2.5,2.65,2.5.79,0,1.23.56,1.23,1.27,0,.64-.37,1.35-1.53,1.35Z"/>
        <path d="M696.02,102.61c6.28,0,7.44,4,7.44,9.31s-1.16,9.31-7.44,9.31-7.44-4-7.44-9.31,1.16-9.31,7.44-9.31ZM696.02,118.61c4.26,0,4.6-2.77,4.6-6.69s-.34-6.69-4.6-6.69-4.6,2.77-4.6,6.69.34,6.69,4.6,6.69Z"/>
        <path d="M728.32,113.71v-9.87c0-.9.71-1.23,1.42-1.23.67,0,1.35.34,1.35,1.23v16.15c0,.9-.67,1.23-1.35,1.23-.64,0-1.42-.26-1.42-1.23v-.22c0-.15-.07-.26-.19-.26s-.26.15-.3.19c-1.38,1.16-2.99,1.53-4.6,1.53-5.08,0-6.5-3.21-6.5-7.78v-9.61c0-.9.71-1.23,1.38-1.23.71,0,1.38.34,1.38,1.23v8.6c0,3.63.19,6.17,4.41,6.17,3.18,0,4.41-1.68,4.41-4.9Z"/>
        <path d="M742.68,118.61c2.21,0,3.7-.93,3.7-2.62,0-1.27-.97-1.94-2.77-2.5l-2.73-.86c-2.95-.93-4.75-2.32-4.75-5.01,0-3.1,2.69-5.01,6.54-5.01,2.28,0,3.78.67,4.6,1.16.52.3.86.64.86,1.12,0,.64-.64,1.46-1.23,1.46-.34,0-.52-.11-.79-.22-.56-.34-2.02-.9-3.44-.9-2.21,0-3.7.82-3.7,2.28,0,1.31,1.05,1.94,2.77,2.5l2.69.86c3.1.97,4.79,2.39,4.79,5.12,0,3.21-2.69,5.23-6.54,5.23-2.99,0-4.9-1.05-6.17-2.28-.26-.3-.56-.56-.56-1.01,0-.67.64-1.42,1.42-1.42.26,0,.45.04.93.45.93.82,1.98,1.64,4.37,1.64Z"/>
        <path d="M759.91,94.9c4.52,0,7.51,2.99,7.51,7.14,0,3.07-2.09,5.35-4.26,6.62-1.46.86-1.5,2.06-1.5,3.51,0,.9-.71,1.2-1.42,1.2-.75,0-1.46-.3-1.46-1.2,0-2.13.26-4.34,2.73-5.76,1.68-.97,2.95-2.21,2.95-4.41s-1.5-4.22-4.56-4.22c-1.68,0-2.95.93-4.49,2.24-.22.19-.64.37-.97.37-.63,0-1.46-.71-1.46-1.5,0-.56.49-1.08.97-1.57,1.53-1.5,3.59-2.43,5.94-2.43ZM760.21,121.22c-1.12,0-1.91-.82-1.91-1.91s.79-1.91,1.91-1.91,1.91.82,1.91,1.91-.82,1.91-1.91,1.91Z"/>
        <path d="M784.06,117.97c0,.26.07.34.34.34h11.89c.9,0,1.23.67,1.23,1.38s-.34,1.38-1.23,1.38h-13.83c-.71,0-1.38-.3-1.38-1.2v-23.63c0-.9.67-1.2,1.38-1.2h13.46c.9,0,1.23.71,1.23,1.38,0,.71-.34,1.38-1.23,1.38h-11.51c-.26,0-.34.08-.34.34v7.7c0,.26.07.34.34.34h9.94c.9,0,1.23.71,1.23,1.38,0,.71-.34,1.38-1.23,1.38h-9.94c-.26,0-.34.07-.34.34v8.67Z"/>
        <path d="M809.78,119.65c-.49,1.27-1.2,1.57-1.94,1.57s-1.46-.3-1.94-1.57l-5.72-15.33c-.08-.19-.11-.34-.11-.49,0-.75.86-1.23,1.61-1.23.45,0,.86.19,1.05.75l4.75,12.93c.15.37.11.79.37.79s.22-.41.37-.79l4.75-12.93c.19-.56.6-.75,1.05-.75.75,0,1.61.49,1.61,1.23,0,.15-.04.3-.11.49l-5.72,15.33Z"/>
        <path d="M821.3,113c-.22,0-.26.11-.26.26.11,3.48.82,5.35,4.97,5.35,1.16,0,2.65-.37,3.66-.93,1.08-.63,1.27-.82,1.57-.82.86,0,1.35.82,1.35,1.57,0,.37-.19.71-.6.97-1.64,1.12-3.78,1.83-6.24,1.83-6.28,0-7.59-3.63-7.59-9.31,0-5.31,1.16-9.31,7.44-9.31s7.29,4.67,7.29,8.04c0,.97-.15,2.35-1.79,2.35h-9.79ZM825.6,105.07c-3.29,0-4.56,2.02-4.56,5.2,0,.19,0,.34.26.34h8.56c.15,0,.26-.04.26-.22,0-2.99-1.08-5.31-4.52-5.31Z"/>
        <path d="M846.12,105.52c-.64,0-.56-.04-1.46-.04-2.84,0-4.08,1.53-4.08,5.64v8.86c0,.9-.67,1.23-1.38,1.23-.75,0-1.38-.34-1.38-1.23v-16.15c0-.9.67-1.23,1.38-1.23.79,0,1.42.34,1.42,1.23v.3c0,.07.04.15.15.15.07,0,.19-.11.3-.22,1.31-1.08,2.77-1.46,4-1.46,1.46,0,2.28.22,2.28,1.53,0,.93-.45,1.38-1.23,1.38Z"/>
        <path d="M855.92,124.03c-1.08,2.77-2.95,4.9-5.53,4.9-.97,0-1.35-.56-1.35-1.38,0-.6.37-1.01,1.05-1.16,1.76-.37,2.5-.93,3.44-3.33l.86-2.13c.08-.22.15-.41.15-.64,0-.15-.04-.3-.11-.49l-5.91-15.44c-.08-.19-.11-.37-.11-.52,0-.75.86-1.23,1.61-1.23.41,0,.86.19,1.08.79l4.56,12.49c.11.34.11.71.37.71.22,0,.26-.45.37-.71l4.67-12.49c.22-.6.67-.79,1.08-.79.75,0,1.61.49,1.61,1.23,0,.15-.04.34-.11.52l-7.74,19.66Z"/>
        <path d="M873.64,121.22c-3.55,0-5.12-2.02-5.12-5.38v-10.28c0-.19-.11-.26-.34-.26h-1.94c-.9,0-1.2-.6-1.2-1.27s.3-1.27,1.2-1.27h1.94c.22,0,.34-.07.34-.3v-4.26c0-.9.67-1.23,1.38-1.23.67,0,1.38.34,1.38,1.23v4.22c0,.26.08.34.34.34h2.36c.9,0,1.2.6,1.2,1.27s-.3,1.27-1.2,1.27h-2.36c-.26,0-.34.08-.34.34v10.47c0,1.57.9,2.5,2.65,2.5.79,0,1.23.56,1.23,1.27,0,.64-.37,1.35-1.53,1.35Z"/>
        <path d="M881.71,104.06c0,.19.08.26.22.26.08,0,.22-.15.3-.19,1.38-1.16,2.95-1.53,4.6-1.53,5.01,0,6.5,3.21,6.5,7.74v9.65c0,.9-.67,1.23-1.35,1.23-.71,0-1.42-.34-1.42-1.23v-8.45c0-3.63-.15-6.32-4.45-6.32-3.14,0-4.41,1.68-4.41,4.97v9.79c0,.9-.71,1.23-1.38,1.23-.71,0-1.38-.34-1.38-1.23v-23.85c0-.9.67-1.23,1.38-1.23.67,0,1.38.34,1.38,1.23v7.93Z"/>
        <path d="M900.29,98.61c-1.12,0-1.87-.79-1.87-1.87s.75-1.83,1.87-1.83c1.05,0,1.83.75,1.83,1.83s-.79,1.87-1.83,1.87ZM901.67,119.99c0,.9-.71,1.23-1.38,1.23-.71,0-1.38-.34-1.38-1.23v-16.15c0-.9.67-1.23,1.38-1.23.67,0,1.38.34,1.38,1.23v16.15Z"/>
        <path d="M910.2,110.12v9.87c0,.9-.71,1.23-1.38,1.23-.71,0-1.38-.34-1.38-1.23v-16.15c0-.9.67-1.23,1.38-1.23s1.42.34,1.42,1.16v.37c0,.11.07.19.19.19.08,0,.22-.15.3-.19,1.38-1.16,2.95-1.53,4.6-1.53,5.01,0,6.5,3.21,6.5,7.74v9.65c0,.9-.67,1.23-1.35,1.23-.71,0-1.42-.34-1.42-1.23v-8.45c0-3.63-.15-6.32-4.45-6.32-3.14,0-4.41,1.72-4.41,4.9Z"/>
        <path d="M926.68,111.91c0-5.31,1.35-9.31,6.92-9.31,1.42,0,3.03.37,4.41,1.57.04.04.19.19.3.19s.19-.07.19-.22v-.3c0-.9.56-1.23,1.42-1.23.67,0,1.35.34,1.35,1.23v18.47c0,4.86-4,6.99-8.04,6.99-2.39,0-3.93-.56-4.82-1.05-.45-.26-.64-.64-.64-1.01,0-.67.49-1.53,1.27-1.53.19,0,.41.07.67.19.86.41,1.91.79,3.51.79,2.88,0,5.27-1.53,5.27-4.22v-2.73c0-.15-.07-.26-.19-.26s-.26.15-.3.19c-1.35,1.23-2.99,1.57-4.41,1.57-5.57,0-6.92-4-6.92-9.31ZM929.53,111.91c0,3.93.34,6.69,4.56,6.69s4.41-2.84,4.41-6.69c0-3.33-.07-6.69-4.41-6.69s-4.56,2.77-4.56,6.69Z"/>
        <path d="M334.85,160.96c.11.37.15.79.41.79.22,0,.26-.41.37-.79l4.08-12.67c.19-.6.67-.82,1.08-.82.75,0,1.61.45,1.61,1.23,0,.11-.04.26-.08.41l-5.35,15.81c-.22.67-.75,1.16-1.72,1.16s-1.46-.49-1.68-1.2l-3.89-12.3c-.11-.34-.11-.93-.37-.93s-.26.6-.37.93l-3.63,11.92c-.41,1.31-1.2,1.57-1.94,1.57s-1.53-.26-1.94-1.57l-5.12-15.4c-.04-.15-.08-.3-.08-.41,0-.79.86-1.23,1.61-1.23.41,0,.9.22,1.08.82l4.08,12.82c.11.37.15.79.41.79s.26-.41.37-.79l3.59-12.08c.37-1.31,1.2-1.57,1.94-1.57s1.57.26,1.94,1.57l3.59,11.93Z"/>
        <path d="M356.05,163.92c-.11,0-.22.15-.37.26-1.23,1.01-2.84,1.91-5.53,1.91-4.34,0-5.68-2.69-5.68-5.08,0-4.56,3.78-5.68,7.4-5.68h3.63c.26,0,.34-.11.34-.34v-1.08c0-2.58-1.27-3.81-4.11-3.81-2.28,0-3.21.56-4.37,1.42-.19.15-.37.19-.52.19-.71,0-1.38-.79-1.38-1.46,0-.41.22-.75.6-1.08,1.68-1.35,3.81-1.68,5.76-1.68,5.79,0,6.95,2.99,6.95,7.44v7.59c0,.67.19,1.01.82,1.01h.34c.64,0,.97.52.97,1.23,0,.97-.41,1.35-1.94,1.35-1.42,0-2.28-.64-2.69-1.94-.07-.19-.11-.22-.19-.22ZM355.98,158.12c0-.22-.11-.34-.34-.34h-3.51c-2.54,0-4.82.37-4.82,2.8,0,1.91,1.23,3.07,3.33,3.07,3.7,0,5.35-2.36,5.35-4.6v-.93Z"/>
        <path d="M370.33,163.47c2.21,0,3.7-.93,3.7-2.62,0-1.27-.97-1.94-2.77-2.5l-2.73-.86c-2.95-.93-4.75-2.32-4.75-5.01,0-3.1,2.69-5.01,6.54-5.01,2.28,0,3.78.67,4.6,1.16.52.3.86.64.86,1.12,0,.64-.64,1.46-1.23,1.46-.34,0-.52-.11-.79-.22-.56-.34-2.02-.9-3.44-.9-2.21,0-3.7.82-3.7,2.28,0,1.31,1.05,1.94,2.77,2.5l2.69.86c3.1.97,4.79,2.39,4.79,5.12,0,3.21-2.69,5.23-6.54,5.23-2.99,0-4.9-1.05-6.17-2.28-.26-.3-.56-.56-.56-1.01,0-.67.64-1.42,1.42-1.42.26,0,.45.04.93.45.93.82,1.98,1.64,4.37,1.64Z"/>
        <path d="M406.56,160.96c.11.37.15.79.41.79.22,0,.26-.41.37-.79l4.08-12.67c.19-.6.67-.82,1.08-.82.75,0,1.61.45,1.61,1.23,0,.11-.04.26-.08.41l-5.35,15.81c-.22.67-.75,1.16-1.72,1.16s-1.46-.49-1.68-1.2l-3.89-12.3c-.11-.34-.11-.93-.37-.93s-.26.6-.37.93l-3.63,11.92c-.41,1.31-1.2,1.57-1.94,1.57s-1.53-.26-1.94-1.57l-5.12-15.4c-.04-.15-.08-.3-.08-.41,0-.79.86-1.23,1.61-1.23.41,0,.9.22,1.08.82l4.08,12.82c.11.37.15.79.41.79s.26-.41.37-.79l3.59-12.08c.37-1.31,1.2-1.57,1.94-1.57s1.57.26,1.94,1.57l3.59,11.93Z"/>
        <path d="M424.09,147.47c6.28,0,7.44,4,7.44,9.31s-1.16,9.31-7.44,9.31-7.44-4-7.44-9.31,1.16-9.31,7.44-9.31ZM424.09,163.47c4.26,0,4.6-2.77,4.6-6.69s-.34-6.69-4.6-6.69-4.6,2.77-4.6,6.69.34,6.69,4.6,6.69Z"/>
        <path d="M444.88,150.38c-.64,0-.56-.04-1.46-.04-2.84,0-4.08,1.53-4.08,5.64v8.86c0,.9-.67,1.23-1.38,1.23-.75,0-1.38-.34-1.38-1.23v-16.15c0-.9.67-1.23,1.38-1.23.79,0,1.42.34,1.42,1.23v.3c0,.07.04.15.15.15.07,0,.19-.11.3-.22,1.31-1.08,2.77-1.46,4-1.46,1.46,0,2.28.22,2.28,1.53,0,.93-.45,1.38-1.23,1.38Z"/>
        <path d="M463.79,164.1c.15.22.19.45.19.64,0,.71-.82,1.35-1.53,1.35-.37,0-.71-.15-.97-.56l-5.05-8.26c-.08-.11-.15-.19-.26-.19-.08,0-.22.11-.26.15l-3.4,3.51c-.19.19-.37.49-.37.82v3.29c0,.9-.67,1.23-1.38,1.23s-1.38-.34-1.38-1.23v-23.85c0-.9.67-1.23,1.38-1.23s1.38.34,1.38,1.23v15.74s0,.22.19.22c.11,0,.15-.04.19-.08l8.75-9.05c.26-.26.52-.37.82-.37.67,0,1.5.71,1.5,1.5,0,.26-.11.56-.37.82l-4.86,4.97s-.07.07-.07.19c0,.15.04.26.07.3l5.46,8.86Z"/>
        <path d="M469.36,143.47c-1.12,0-1.87-.79-1.87-1.87s.75-1.83,1.87-1.83c1.05,0,1.83.75,1.83,1.83s-.79,1.87-1.83,1.87ZM470.75,164.85c0,.9-.71,1.23-1.38,1.23-.71,0-1.38-.34-1.38-1.23v-16.15c0-.9.67-1.23,1.38-1.23.67,0,1.38.34,1.38,1.23v16.15Z"/>
        <path d="M479.27,154.98v9.87c0,.9-.71,1.23-1.38,1.23-.71,0-1.38-.34-1.38-1.23v-16.15c0-.9.67-1.23,1.38-1.23s1.42.34,1.42,1.16v.37c0,.11.07.19.19.19.08,0,.22-.15.3-.19,1.38-1.16,2.95-1.53,4.6-1.53,5.01,0,6.5,3.21,6.5,7.74v9.65c0,.9-.67,1.23-1.35,1.23-.71,0-1.42-.34-1.42-1.23v-8.45c0-3.63-.15-6.32-4.45-6.32-3.14,0-4.41,1.72-4.41,4.9Z"/>
        <path d="M495.76,156.78c0-5.31,1.35-9.31,6.92-9.31,1.42,0,3.03.37,4.41,1.57.04.04.19.19.3.19s.19-.07.19-.22v-.3c0-.9.56-1.23,1.42-1.23.67,0,1.35.34,1.35,1.23v18.47c0,4.86-4,6.99-8.04,6.99-2.39,0-3.93-.56-4.82-1.05-.45-.26-.64-.64-.64-1.01,0-.67.49-1.53,1.27-1.53.19,0,.41.07.67.19.86.41,1.91.79,3.51.79,2.88,0,5.27-1.53,5.27-4.22v-2.73c0-.15-.07-.26-.19-.26s-.26.15-.3.19c-1.35,1.23-2.99,1.57-4.41,1.57-5.57,0-6.92-4-6.92-9.31ZM498.6,156.78c0,3.93.34,6.69,4.56,6.69s4.41-2.84,4.41-6.69c0-3.33-.07-6.69-4.41-6.69s-4.56,2.77-4.56,6.69Z"/>
        <path d="M524.92,150.42c0-.19-.15-.26-.34-.26h-1.27c-.86,0-1.12-.63-1.12-1.27,0-.6.26-1.27,1.12-1.27h1.27c.22,0,.34-.07.34-.26v-3.18c0-2.92,1.57-4.26,4.34-4.26h1.23c.86,0,1.16.64,1.16,1.27s-.3,1.27-1.16,1.27h-1.05c-1.16,0-1.76.45-1.76,1.94v2.88c0,.26.11.34.34.34h2.47c.82,0,1.12.67,1.12,1.27,0,.64-.3,1.27-1.12,1.27h-2.47c-.22,0-.34.08-.34.34v14.36c0,.9-.71,1.23-1.38,1.23-.71,0-1.38-.34-1.38-1.23v-14.43ZM536.73,143.47c-1.12,0-1.87-.79-1.87-1.87s.75-1.83,1.87-1.83c1.05,0,1.83.75,1.83,1.83s-.79,1.87-1.83,1.87ZM538.11,164.85c0,.9-.71,1.23-1.38,1.23-.71,0-1.38-.34-1.38-1.23v-16.15c0-.9.67-1.23,1.38-1.23.67,0,1.38.34,1.38,1.23v16.15Z"/>
        <path d="M546.71,154.98v9.87c0,.9-.71,1.23-1.38,1.23-.71,0-1.38-.34-1.38-1.23v-16.15c0-.9.67-1.23,1.38-1.23s1.42.34,1.42,1.16v.37c0,.11.07.19.19.19.08,0,.22-.15.3-.19,1.38-1.16,2.95-1.53,4.6-1.53,5.01,0,6.5,3.21,6.5,7.74v9.65c0,.9-.67,1.23-1.35,1.23-.71,0-1.42-.34-1.42-1.23v-8.45c0-3.63-.15-6.32-4.45-6.32-3.14,0-4.41,1.72-4.41,4.9Z"/>
        <path d="M566.34,157.86c-.22,0-.26.11-.26.26.11,3.48.82,5.35,4.97,5.35,1.16,0,2.65-.37,3.66-.93,1.08-.63,1.27-.82,1.57-.82.86,0,1.35.82,1.35,1.57,0,.37-.19.71-.6.97-1.64,1.12-3.78,1.83-6.24,1.83-6.28,0-7.59-3.63-7.59-9.31,0-5.31,1.16-9.31,7.44-9.31s7.29,4.67,7.29,8.04c0,.97-.15,2.35-1.79,2.35h-9.79ZM570.64,149.93c-3.29,0-4.56,2.02-4.56,5.2,0,.19,0,.34.26.34h8.56c.15,0,.26-.04.26-.22,0-2.99-1.08-5.31-4.52-5.31Z"/>
        <path d="M605.89,156.78c0,5.31-1.35,9.31-6.99,9.31-1.42,0-2.8-.34-4.15-1.38-.19-.15-.34-.34-.49-.34s-.22.04-.22.22v.45c0,.67-.71,1.05-1.38,1.05-.71,0-1.38-.34-1.38-1.23v-23.85c0-.9.67-1.23,1.38-1.23.67,0,1.38.34,1.38,1.23v8c0,.11.08.22.22.22.08,0,.26-.15.3-.19,1.35-1.2,3.07-1.57,4.34-1.57,5.65,0,6.99,4,6.99,9.31ZM598.45,150.08c-4.11,0-4.41,3.03-4.41,6.69,0,3.33.11,6.69,4.41,6.69s4.6-2.77,4.6-6.69-.34-6.69-4.6-6.69Z"/>
        <path d="M613.37,157.86c-.22,0-.26.11-.26.26.11,3.48.82,5.35,4.97,5.35,1.16,0,2.65-.37,3.66-.93,1.08-.63,1.27-.82,1.57-.82.86,0,1.35.82,1.35,1.57,0,.37-.19.71-.6.97-1.64,1.12-3.78,1.83-6.24,1.83-6.28,0-7.59-3.63-7.59-9.31,0-5.31,1.16-9.31,7.44-9.31s7.29,4.67,7.29,8.04c0,.97-.15,2.35-1.79,2.35h-9.79ZM617.67,149.93c-3.29,0-4.56,2.02-4.56,5.2,0,.19,0,.34.26.34h8.56c.15,0,.26-.04.26-.22,0-2.99-1.08-5.31-4.52-5.31Z"/>
        <path d="M630.3,150.42c0-.19-.15-.26-.34-.26h-1.27c-.86,0-1.12-.63-1.12-1.27,0-.6.26-1.27,1.12-1.27h1.27c.22,0,.34-.07.34-.26v-3.18c0-2.92,1.57-4.26,4.34-4.26h1.23c.86,0,1.16.64,1.16,1.27s-.3,1.27-1.16,1.27h-1.05c-1.16,0-1.76.45-1.76,1.94v2.88c0,.26.11.34.34.34h2.47c.82,0,1.12.67,1.12,1.27,0,.64-.3,1.27-1.12,1.27h-2.47c-.22,0-.34.08-.34.34v14.36c0,.9-.71,1.23-1.38,1.23-.71,0-1.38-.34-1.38-1.23v-14.43Z"/>
        <path d="M647.01,147.47c6.28,0,7.44,4,7.44,9.31s-1.16,9.31-7.44,9.31-7.44-4-7.44-9.31,1.16-9.31,7.44-9.31ZM647.01,163.47c4.26,0,4.6-2.77,4.6-6.69s-.34-6.69-4.6-6.69-4.6,2.77-4.6,6.69.34,6.69,4.6,6.69Z"/>
        <path d="M667.8,150.38c-.64,0-.56-.04-1.46-.04-2.84,0-4.08,1.53-4.08,5.64v8.86c0,.9-.67,1.23-1.38,1.23-.75,0-1.38-.34-1.38-1.23v-16.15c0-.9.67-1.23,1.38-1.23.79,0,1.42.34,1.42,1.23v.3c0,.07.04.15.15.15.07,0,.19-.11.3-.22,1.31-1.08,2.77-1.46,4-1.46,1.46,0,2.28.22,2.28,1.53,0,.93-.45,1.38-1.23,1.38Z"/>
        <path d="M673.78,157.86c-.22,0-.26.11-.26.26.11,3.48.82,5.35,4.97,5.35,1.16,0,2.65-.37,3.66-.93,1.08-.63,1.27-.82,1.57-.82.86,0,1.35.82,1.35,1.57,0,.37-.19.71-.6.97-1.64,1.12-3.78,1.83-6.24,1.83-6.28,0-7.59-3.63-7.59-9.31,0-5.31,1.16-9.31,7.44-9.31s7.29,4.67,7.29,8.04c0,.97-.15,2.35-1.79,2.35h-9.79ZM678.08,149.93c-3.29,0-4.56,2.02-4.56,5.2,0,.19,0,.34.26.34h8.56c.15,0,.26-.04.26-.22,0-2.99-1.08-5.31-4.52-5.31Z"/>
        <path d="M691.95,166.08c-1.12,0-1.91-.82-1.91-1.91s.79-1.91,1.91-1.91,1.91.82,1.91,1.91-.82,1.91-1.91,1.91ZM690.57,141c0-.9.67-1.23,1.38-1.23.67,0,1.38.34,1.38,1.23v16c0,.9-.71,1.23-1.38,1.23-.71,0-1.38-.34-1.38-1.23v-16Z"/>
        <path d="M723.39,141.49l5.23,19.22c.11.34.15.97.37.97.19,0,.22-.56.34-.97l5.27-20c.19-.71.64-.93,1.12-.93.82,0,1.76.41,1.76,1.27,0,.11-.04.26-.08.41l-6.24,22.92c-.37,1.42-1.31,1.72-2.13,1.72s-1.72-.3-2.13-1.72l-5.35-19.66c-.08-.26-.11-.6-.3-.6s-.22.34-.3.6l-5.35,19.66c-.41,1.42-1.31,1.72-2.13,1.72s-1.76-.3-2.13-1.72l-6.24-22.92c-.04-.15-.07-.3-.07-.41,0-.86.93-1.27,1.76-1.27.49,0,.93.22,1.12.93l5.27,20c.11.41.15.97.34.97.22,0,.26-.64.37-.97l5.23-19.22c.37-1.42,1.31-1.72,2.13-1.72s1.76.3,2.13,1.72Z"/>
        <path d="M744.03,148.93c0,.19.08.26.22.26.08,0,.22-.15.3-.19,1.38-1.16,2.95-1.53,4.6-1.53,5.01,0,6.5,3.21,6.5,7.74v9.65c0,.9-.67,1.23-1.35,1.23-.71,0-1.42-.34-1.42-1.23v-8.45c0-3.63-.15-6.32-4.45-6.32-3.14,0-4.41,1.68-4.41,4.97v9.79c0,.9-.71,1.23-1.38,1.23-.71,0-1.38-.34-1.38-1.23v-23.85c0-.9.67-1.23,1.38-1.23.67,0,1.38.34,1.38,1.23v7.93Z"/>
        <path d="M767.95,147.47c6.28,0,7.44,4,7.44,9.31s-1.16,9.31-7.44,9.31-7.44-4-7.44-9.31,1.16-9.31,7.44-9.31ZM767.95,163.47c4.26,0,4.6-2.77,4.6-6.69s-.34-6.69-4.6-6.69-4.6,2.77-4.6,6.69.34,6.69,4.6,6.69Z"/>
        <path d="M791.62,148.93c0,.19.08.26.22.26.08,0,.22-.15.3-.19,1.38-1.16,2.95-1.53,4.6-1.53,5.01,0,6.5,3.21,6.5,7.74v9.65c0,.9-.67,1.23-1.35,1.23-.71,0-1.42-.34-1.42-1.23v-8.45c0-3.63-.15-6.32-4.45-6.32-3.14,0-4.41,1.68-4.41,4.97v9.79c0,.9-.71,1.23-1.38,1.23-.71,0-1.38-.34-1.38-1.23v-23.85c0-.9.67-1.23,1.38-1.23.67,0,1.38.34,1.38,1.23v7.93Z"/>
        <path d="M820.22,158.57v-9.87c0-.9.71-1.23,1.42-1.23.67,0,1.35.34,1.35,1.23v16.15c0,.9-.67,1.23-1.35,1.23-.64,0-1.42-.26-1.42-1.23v-.22c0-.15-.07-.26-.19-.26s-.26.15-.3.19c-1.38,1.16-2.99,1.53-4.6,1.53-5.08,0-6.5-3.21-6.5-7.78v-9.61c0-.9.71-1.23,1.38-1.23.71,0,1.38.34,1.38,1.23v8.6c0,3.63.19,6.17,4.41,6.17,3.18,0,4.41-1.68,4.41-4.9Z"/>
        <path d="M837.04,150.38c-.64,0-.56-.04-1.46-.04-2.84,0-4.08,1.53-4.08,5.64v8.86c0,.9-.67,1.23-1.38,1.23-.75,0-1.38-.34-1.38-1.23v-16.15c0-.9.67-1.23,1.38-1.23.79,0,1.42.34,1.42,1.23v.3c0,.07.04.15.15.15.07,0,.19-.11.3-.22,1.31-1.08,2.77-1.46,4-1.46,1.46,0,2.28.22,2.28,1.53,0,.93-.45,1.38-1.23,1.38Z"/>
        <path d="M847.84,166.08c-3.55,0-5.12-2.02-5.12-5.38v-10.28c0-.19-.11-.26-.34-.26h-1.94c-.9,0-1.2-.6-1.2-1.27s.3-1.27,1.2-1.27h1.94c.22,0,.34-.07.34-.3v-4.26c0-.9.67-1.23,1.38-1.23.67,0,1.38.34,1.38,1.23v4.22c0,.26.08.34.34.34h2.36c.9,0,1.2.6,1.2,1.27s-.3,1.27-1.2,1.27h-2.36c-.26,0-.34.08-.34.34v10.47c0,1.57.9,2.5,2.65,2.5.79,0,1.23.56,1.23,1.27,0,.64-.37,1.35-1.53,1.35Z"/>
        <path d="M866.87,168.89c-1.08,2.77-2.95,4.9-5.53,4.9-.97,0-1.35-.56-1.35-1.38,0-.6.37-1.01,1.05-1.16,1.76-.37,2.5-.93,3.44-3.33l.86-2.13c.08-.22.15-.41.15-.64,0-.15-.04-.3-.11-.49l-5.91-15.44c-.08-.19-.11-.37-.11-.52,0-.75.86-1.23,1.61-1.23.41,0,.86.19,1.08.79l4.56,12.49c.11.34.11.71.37.71.22,0,.26-.45.37-.71l4.67-12.49c.22-.6.67-.79,1.08-.79.75,0,1.61.49,1.61,1.23,0,.15-.04.34-.11.52l-7.74,19.66Z"/>
        <path d="M884.71,147.47c6.28,0,7.44,4,7.44,9.31s-1.16,9.31-7.44,9.31-7.44-4-7.44-9.31,1.16-9.31,7.44-9.31ZM884.71,163.47c4.26,0,4.6-2.77,4.6-6.69s-.34-6.69-4.6-6.69-4.6,2.77-4.6,6.69.34,6.69,4.6,6.69Z"/>
        <path d="M908.59,158.57v-9.87c0-.9.71-1.23,1.42-1.23.67,0,1.35.34,1.35,1.23v16.15c0,.9-.67,1.23-1.35,1.23-.64,0-1.42-.26-1.42-1.23v-.22c0-.15-.07-.26-.19-.26s-.26.15-.3.19c-1.38,1.16-2.99,1.53-4.6,1.53-5.08,0-6.5-3.21-6.5-7.78v-9.61c0-.9.71-1.23,1.38-1.23.71,0,1.38.34,1.38,1.23v8.6c0,3.63.19,6.17,4.41,6.17,3.18,0,4.41-1.68,4.41-4.9Z"/>
        <path d="M922.95,139.77c4.52,0,7.51,2.99,7.51,7.14,0,3.07-2.09,5.35-4.26,6.62-1.46.86-1.5,2.06-1.5,3.51,0,.9-.71,1.2-1.42,1.2-.75,0-1.46-.3-1.46-1.2,0-2.13.26-4.34,2.73-5.76,1.68-.97,2.95-2.21,2.95-4.41s-1.5-4.22-4.56-4.22c-1.68,0-2.95.93-4.49,2.24-.22.19-.64.37-.97.37-.63,0-1.46-.71-1.46-1.5,0-.56.49-1.08.97-1.57,1.53-1.5,3.59-2.43,5.94-2.43ZM923.25,166.08c-1.12,0-1.91-.82-1.91-1.91s.79-1.91,1.91-1.91,1.91.82,1.91,1.91-.82,1.91-1.91,1.91Z"/>
        <path d="M936.86,166.08c-1.12,0-1.91-.82-1.91-1.91s.79-1.91,1.91-1.91,1.91.82,1.91,1.91-.82,1.91-1.91,1.91ZM935.47,141c0-.9.67-1.23,1.38-1.23.67,0,1.38.34,1.38,1.23v16c0,.9-.71,1.23-1.38,1.23-.71,0-1.38-.34-1.38-1.23v-16Z"/>
      </g>
    </g>
  </g>
  <g id="_04" data-name="04">
    <g>
      <path d="M115.78,256.44c0,.1.03.2.17.31,1.67,1.12,2.75,2.79,2.75,5.24,0,4.39-3.26,6.6-6.9,6.6h-8.87c-.65,0-1.26-.27-1.26-1.09v-21.49c0-.82.61-1.09,1.26-1.09h8.33c3.6,0,6.83,2.07,6.83,6.49,0,2.35-.92,3.71-2.14,4.76-.1.1-.17.2-.17.27ZM111.26,255.42c2.38,0,4.05-1.39,4.05-4.01s-1.84-3.98-4.05-3.98h-6.56c-.24,0-.31.07-.31.31v7.38c0,.24.07.31.31.31h6.56ZM104.69,257.94c-.24,0-.31.07-.31.31v7.51c0,.24.07.31.31.31h7.11c2.28,0,4.11-1.39,4.11-4.08s-1.67-4.04-4.18-4.04h-7.04Z"/>
      <path d="M125.11,261.24c-.2,0-.24.1-.24.24.1,3.16.75,4.86,4.52,4.86,1.05,0,2.41-.34,3.33-.85.99-.58,1.16-.75,1.43-.75.78,0,1.22.75,1.22,1.43,0,.34-.17.65-.54.88-1.5,1.02-3.43,1.67-5.68,1.67-5.71,0-6.9-3.3-6.9-8.46,0-4.83,1.05-8.46,6.77-8.46s6.63,4.25,6.63,7.31c0,.88-.14,2.14-1.63,2.14h-8.91ZM129.02,254.03c-2.99,0-4.15,1.84-4.15,4.73,0,.17,0,.31.24.31h7.79c.14,0,.24-.03.24-.2,0-2.72-.99-4.83-4.11-4.83Z"/>
      <path d="M151.17,254c0,.65-.71,1.39-1.33,1.39-.31,0-.58-.2-.85-.41-1.05-.75-2.07-.82-2.96-.82-3.88,0-4.18,2.52-4.18,6.08s.31,6.08,4.22,6.08c.82,0,2.18-.24,3.09-.68.48-.24.78-.51,1.09-.51.65,0,1.26.68,1.26,1.36,0,.17-.03.61-.58.92-1.56.92-2.89,1.29-4.9,1.29-5.71,0-6.77-3.64-6.77-8.46s1.05-8.46,6.63-8.46c1.67,0,3.57.24,5,1.6.24.24.27.44.27.61Z"/>
      <path d="M164.9,266.74c-.1,0-.2.14-.34.24-1.12.92-2.58,1.73-5.03,1.73-3.94,0-5.17-2.45-5.17-4.62,0-4.15,3.43-5.17,6.73-5.17h3.3c.24,0,.31-.1.31-.31v-.99c0-2.35-1.16-3.47-3.74-3.47-2.07,0-2.92.51-3.98,1.29-.17.14-.34.17-.48.17-.65,0-1.26-.71-1.26-1.33,0-.37.2-.68.54-.99,1.53-1.22,3.47-1.53,5.24-1.53,5.27,0,6.32,2.72,6.32,6.76v6.9c0,.61.17.92.75.92h.31c.58,0,.88.48.88,1.12,0,.88-.37,1.22-1.77,1.22-1.29,0-2.07-.58-2.45-1.77-.07-.17-.1-.2-.17-.2ZM164.83,261.48c0-.2-.1-.31-.31-.31h-3.2c-2.31,0-4.39.34-4.39,2.55,0,1.73,1.12,2.79,3.03,2.79,3.37,0,4.86-2.14,4.86-4.18v-.85Z"/>
      <path d="M182.57,261.88v-8.98c0-.82.65-1.12,1.29-1.12.61,0,1.22.31,1.22,1.12v14.69c0,.82-.61,1.12-1.22,1.12-.58,0-1.29-.24-1.29-1.12v-.2c0-.14-.07-.24-.17-.24s-.24.14-.27.17c-1.26,1.05-2.72,1.39-4.18,1.39-4.62,0-5.92-2.92-5.92-7.07v-8.74c0-.82.65-1.12,1.26-1.12.65,0,1.26.31,1.26,1.12v7.82c0,3.3.17,5.61,4.01,5.61,2.89,0,4.01-1.53,4.01-4.45Z"/>
      <path d="M195.23,266.34c2.01,0,3.37-.85,3.37-2.38,0-1.16-.88-1.77-2.52-2.28l-2.48-.78c-2.69-.85-4.32-2.11-4.32-4.55,0-2.82,2.45-4.56,5.95-4.56,2.07,0,3.43.61,4.18,1.05.48.27.78.58.78,1.02,0,.58-.58,1.33-1.12,1.33-.31,0-.48-.1-.71-.2-.51-.31-1.84-.82-3.13-.82-2.01,0-3.37.75-3.37,2.07,0,1.19.95,1.77,2.52,2.28l2.45.78c2.82.88,4.35,2.18,4.35,4.66,0,2.92-2.45,4.76-5.95,4.76-2.72,0-4.45-.95-5.61-2.07-.24-.27-.51-.51-.51-.92,0-.61.58-1.29,1.29-1.29.24,0,.41.03.85.41.85.75,1.8,1.5,3.98,1.5Z"/>
      <path d="M207.53,261.24c-.2,0-.24.1-.24.24.1,3.16.75,4.86,4.52,4.86,1.05,0,2.41-.34,3.33-.85.99-.58,1.16-.75,1.43-.75.78,0,1.22.75,1.22,1.43,0,.34-.17.65-.54.88-1.5,1.02-3.43,1.67-5.68,1.67-5.71,0-6.9-3.3-6.9-8.46,0-4.83,1.05-8.46,6.77-8.46s6.63,4.25,6.63,7.31c0,.88-.14,2.14-1.63,2.14h-8.91ZM211.44,254.03c-2.99,0-4.15,1.84-4.15,4.73,0,.17,0,.31.24.31h7.79c.14,0,.24-.03.24-.2,0-2.72-.99-4.83-4.11-4.83Z"/>
      <path d="M231.47,248.15c-1.02,0-1.7-.71-1.7-1.7s.68-1.67,1.7-1.67c.95,0,1.67.68,1.67,1.67s-.71,1.7-1.67,1.7ZM232.73,267.59c0,.82-.65,1.12-1.26,1.12-.65,0-1.26-.31-1.26-1.12v-14.69c0-.82.61-1.12,1.26-1.12.61,0,1.26.31,1.26,1.12v14.69Z"/>
      <path d="M243.8,268.72c-3.23,0-4.66-1.84-4.66-4.9v-9.35c0-.17-.1-.24-.31-.24h-1.77c-.82,0-1.09-.54-1.09-1.16s.27-1.16,1.09-1.16h1.77c.2,0,.31-.07.31-.27v-3.88c0-.82.61-1.12,1.26-1.12.61,0,1.26.31,1.26,1.12v3.84c0,.24.07.31.31.31h2.14c.82,0,1.09.54,1.09,1.16s-.27,1.16-1.09,1.16h-2.14c-.24,0-.31.07-.31.31v9.52c0,1.43.82,2.28,2.41,2.28.71,0,1.12.51,1.12,1.16,0,.58-.34,1.22-1.39,1.22Z"/>
      <path d="M250.27,252.74c-.24.41-.61.51-.92.51-.54,0-1.39-.44-1.39-1.09,0-.17.03-.41.17-.65l.75-1.26c.17-.27.2-.48.2-1.02v-3.33c0-.82.65-1.12,1.22-1.12.68,0,1.26.31,1.26,1.12v3.6c0,.78-.14,1.29-.44,1.8l-.85,1.43Z"/>
      <path d="M260.01,266.34c2.01,0,3.37-.85,3.37-2.38,0-1.16-.88-1.77-2.52-2.28l-2.48-.78c-2.69-.85-4.32-2.11-4.32-4.55,0-2.82,2.45-4.56,5.95-4.56,2.07,0,3.43.61,4.18,1.05.48.27.78.58.78,1.02,0,.58-.58,1.33-1.12,1.33-.31,0-.48-.1-.71-.2-.51-.31-1.84-.82-3.13-.82-2.01,0-3.37.75-3.37,2.07,0,1.19.95,1.77,2.52,2.28l2.45.78c2.82.88,4.35,2.18,4.35,4.66,0,2.92-2.45,4.76-5.95,4.76-2.72,0-4.45-.95-5.61-2.07-.24-.27-.51-.51-.51-.92,0-.61.58-1.29,1.29-1.29.24,0,.41.03.85.41.85.75,1.8,1.5,3.98,1.5Z"/>
      <path d="M277.38,260.25c0-4.83,1.22-8.46,6.29-8.46,1.29,0,2.75.34,4.01,1.43.03.03.17.17.27.17s.17-.07.17-.2v-.27c0-.82.51-1.12,1.29-1.12.61,0,1.22.31,1.22,1.12v16.79c0,4.42-3.64,6.36-7.31,6.36-2.18,0-3.57-.51-4.38-.95-.41-.24-.58-.58-.58-.92,0-.61.44-1.39,1.16-1.39.17,0,.37.07.61.17.78.37,1.73.71,3.2.71,2.62,0,4.79-1.39,4.79-3.84v-2.48c0-.14-.07-.24-.17-.24s-.24.14-.27.17c-1.22,1.12-2.72,1.43-4.01,1.43-5.07,0-6.29-3.64-6.29-8.46ZM279.96,260.25c0,3.57.31,6.08,4.15,6.08s4.01-2.58,4.01-6.08c0-3.03-.07-6.08-4.01-6.08s-4.15,2.52-4.15,6.08Z"/>
      <path d="M301.7,251.79c5.71,0,6.76,3.64,6.76,8.46s-1.05,8.46-6.76,8.46-6.77-3.64-6.77-8.46,1.05-8.46,6.77-8.46ZM301.7,266.34c3.88,0,4.18-2.52,4.18-6.08s-.31-6.08-4.18-6.08-4.18,2.52-4.18,6.08.31,6.08,4.18,6.08Z"/>
      <path d="M313.94,248.15c-1.02,0-1.7-.71-1.7-1.7s.68-1.67,1.7-1.67c.95,0,1.67.68,1.67,1.67s-.71,1.7-1.67,1.7ZM315.19,267.59c0,.82-.65,1.12-1.26,1.12-.65,0-1.26-.31-1.26-1.12v-14.69c0-.82.61-1.12,1.26-1.12.61,0,1.26.31,1.26,1.12v14.69Z"/>
      <path d="M322.53,258.62v8.97c0,.82-.65,1.12-1.26,1.12-.65,0-1.26-.31-1.26-1.12v-14.69c0-.82.61-1.12,1.26-1.12s1.29.31,1.29,1.05v.34c0,.1.07.17.17.17.07,0,.2-.14.27-.17,1.26-1.05,2.69-1.39,4.18-1.39,4.56,0,5.92,2.92,5.92,7.04v8.77c0,.82-.61,1.12-1.22,1.12-.65,0-1.29-.31-1.29-1.12v-7.68c0-3.3-.14-5.75-4.04-5.75-2.86,0-4.01,1.56-4.01,4.45Z"/>
      <path d="M337.23,260.25c0-4.83,1.22-8.46,6.29-8.46,1.29,0,2.75.34,4.01,1.43.03.03.17.17.27.17s.17-.07.17-.2v-.27c0-.82.51-1.12,1.29-1.12.61,0,1.22.31,1.22,1.12v16.79c0,4.42-3.64,6.36-7.31,6.36-2.18,0-3.57-.51-4.39-.95-.41-.24-.58-.58-.58-.92,0-.61.44-1.39,1.16-1.39.17,0,.37.07.61.17.78.37,1.73.71,3.2.71,2.62,0,4.79-1.39,4.79-3.84v-2.48c0-.14-.07-.24-.17-.24s-.24.14-.27.17c-1.22,1.12-2.72,1.43-4.01,1.43-5.07,0-6.29-3.64-6.29-8.46ZM339.82,260.25c0,3.57.31,6.08,4.15,6.08s4.01-2.58,4.01-6.08c0-3.03-.07-6.08-4.01-6.08s-4.15,2.52-4.15,6.08Z"/>
      <path d="M369.12,268.72c-3.23,0-4.66-1.84-4.66-4.9v-9.35c0-.17-.1-.24-.31-.24h-1.77c-.82,0-1.09-.54-1.09-1.16s.27-1.16,1.09-1.16h1.77c.2,0,.31-.07.31-.27v-3.88c0-.82.61-1.12,1.26-1.12.61,0,1.26.31,1.26,1.12v3.84c0,.24.07.31.31.31h2.14c.82,0,1.09.54,1.09,1.16s-.27,1.16-1.09,1.16h-2.14c-.24,0-.31.07-.31.31v9.52c0,1.43.82,2.28,2.41,2.28.71,0,1.12.51,1.12,1.16,0,.58-.34,1.22-1.39,1.22Z"/>
      <path d="M379.71,251.79c5.71,0,6.76,3.64,6.76,8.46s-1.05,8.46-6.76,8.46-6.77-3.64-6.77-8.46,1.05-8.46,6.77-8.46ZM379.71,266.34c3.88,0,4.18-2.52,4.18-6.08s-.31-6.08-4.18-6.08-4.18,2.52-4.18,6.08.31,6.08,4.18,6.08Z"/>
      <path d="M411.8,267.59c0,.82-.61,1.12-1.22,1.12-.65,0-1.29-.31-1.29-1.12v-7.34c0-2.18-.14-3.88-.68-4.66-.85-1.22-2.14-1.43-3.4-1.43-1.39,0-2.58.48-3.3,1.5-.58.78-.68,2.35-.68,3.74v8.19c0,.82-.65,1.12-1.26,1.12-.65,0-1.26-.31-1.26-1.12v-14.69c0-.82.61-1.12,1.26-1.12.54,0,1.29.2,1.29.88v.51c0,.1.07.17.17.17.07,0,.27-.17.27-.17,1.26-1.05,2.69-1.39,3.98-1.39,1.63,0,3.33.41,4.56,1.8.14.14.31.27.48.27s.24-.1.37-.2c1.73-1.53,3.47-1.87,5.1-1.87,4.93,0,6.19,3.06,6.19,7v8.8c0,.82-.65,1.12-1.26,1.12-.65,0-1.26-.31-1.26-1.12v-7.34c0-2.55-.17-3.88-.71-4.69-.75-1.16-1.97-1.39-3.37-1.39-1.05,0-2.38.24-3.2,1.29-.61.75-.82,2.18-.82,3.98l.03,8.16Z"/>
      <path d="M436.59,266.74c-.1,0-.2.14-.34.24-1.12.92-2.58,1.73-5.03,1.73-3.94,0-5.17-2.45-5.17-4.62,0-4.15,3.43-5.17,6.73-5.17h3.3c.24,0,.31-.1.31-.31v-.99c0-2.35-1.16-3.47-3.74-3.47-2.07,0-2.92.51-3.98,1.29-.17.14-.34.17-.48.17-.65,0-1.26-.71-1.26-1.33,0-.37.2-.68.54-.99,1.53-1.22,3.47-1.53,5.24-1.53,5.27,0,6.32,2.72,6.32,6.76v6.9c0,.61.17.92.75.92h.31c.58,0,.88.48.88,1.12,0,.88-.37,1.22-1.77,1.22-1.29,0-2.07-.58-2.45-1.77-.07-.17-.1-.2-.17-.2ZM436.52,261.48c0-.2-.1-.31-.31-.31h-3.2c-2.31,0-4.39.34-4.39,2.55,0,1.73,1.12,2.79,3.03,2.79,3.37,0,4.86-2.14,4.86-4.18v-.85Z"/>
      <path d="M457.46,266.91c.14.2.17.41.17.58,0,.65-.75,1.22-1.39,1.22-.34,0-.65-.14-.88-.51l-4.59-7.51c-.07-.1-.14-.17-.24-.17-.07,0-.2.1-.24.14l-3.09,3.2c-.17.17-.34.44-.34.75v2.99c0,.82-.61,1.12-1.26,1.12s-1.26-.31-1.26-1.12v-21.69c0-.82.61-1.12,1.26-1.12s1.26.31,1.26,1.12v14.31s0,.2.17.2c.1,0,.14-.03.17-.07l7.96-8.23c.24-.24.48-.34.75-.34.61,0,1.36.65,1.36,1.36,0,.24-.1.51-.34.75l-4.42,4.52s-.07.07-.07.17c0,.14.03.24.07.27l4.96,8.06Z"/>
      <path d="M462.97,261.24c-.2,0-.24.1-.24.24.1,3.16.75,4.86,4.52,4.86,1.05,0,2.41-.34,3.33-.85.99-.58,1.16-.75,1.43-.75.78,0,1.22.75,1.22,1.43,0,.34-.17.65-.54.88-1.5,1.02-3.43,1.67-5.68,1.67-5.71,0-6.9-3.3-6.9-8.46,0-4.83,1.05-8.46,6.77-8.46s6.63,4.25,6.63,7.31c0,.88-.14,2.14-1.63,2.14h-8.91ZM466.88,254.03c-2.99,0-4.15,1.84-4.15,4.73,0,.17,0,.31.24.31h7.79c.14,0,.24-.03.24-.2,0-2.72-.99-4.83-4.11-4.83Z"/>
      <path d="M487.85,261.24c-.2,0-.24.1-.24.24.1,3.16.75,4.86,4.52,4.86,1.05,0,2.41-.34,3.33-.85.99-.58,1.16-.75,1.43-.75.78,0,1.22.75,1.22,1.43,0,.34-.17.65-.54.88-1.5,1.02-3.43,1.67-5.68,1.67-5.71,0-6.9-3.3-6.9-8.46,0-4.83,1.05-8.46,6.77-8.46s6.63,4.25,6.63,7.31c0,.88-.14,2.14-1.63,2.14h-8.91ZM491.76,254.03c-2.99,0-4.15,1.84-4.15,4.73,0,.17,0,.31.24.31h7.79c.14,0,.24-.03.24-.2,0-2.72-.99-4.83-4.11-4.83Z"/>
      <path d="M509.56,267.29c-.44,1.16-1.09,1.43-1.77,1.43s-1.33-.27-1.77-1.43l-5.2-13.94c-.07-.17-.1-.31-.1-.44,0-.68.78-1.12,1.46-1.12.41,0,.78.17.95.68l4.32,11.76c.14.34.1.71.34.71s.2-.37.34-.71l4.32-11.76c.17-.51.54-.68.95-.68.68,0,1.46.44,1.46,1.12,0,.14-.03.27-.1.44l-5.2,13.94Z"/>
      <path d="M520.07,261.24c-.2,0-.24.1-.24.24.1,3.16.75,4.86,4.52,4.86,1.05,0,2.41-.34,3.33-.85.99-.58,1.16-.75,1.43-.75.78,0,1.22.75,1.22,1.43,0,.34-.17.65-.54.88-1.5,1.02-3.43,1.67-5.68,1.67-5.71,0-6.9-3.3-6.9-8.46,0-4.83,1.05-8.46,6.77-8.46s6.63,4.25,6.63,7.31c0,.88-.14,2.14-1.63,2.14h-8.91ZM523.98,254.03c-2.99,0-4.15,1.84-4.15,4.73,0,.17,0,.31.24.31h7.79c.14,0,.24-.03.24-.2,0-2.72-.99-4.83-4.11-4.83Z"/>
      <path d="M542.31,254.44c-.58,0-.51-.03-1.33-.03-2.58,0-3.71,1.39-3.71,5.13v8.06c0,.82-.61,1.12-1.26,1.12-.68,0-1.26-.31-1.26-1.12v-14.69c0-.82.61-1.12,1.26-1.12.71,0,1.29.31,1.29,1.12v.27c0,.07.03.14.14.14.07,0,.17-.1.27-.2,1.19-.99,2.52-1.33,3.64-1.33,1.33,0,2.07.2,2.07,1.39,0,.85-.41,1.26-1.12,1.26Z"/>
      <path d="M552.48,271.27c-.99,2.52-2.69,4.45-5.03,4.45-.88,0-1.22-.51-1.22-1.26,0-.54.34-.92.95-1.05,1.6-.34,2.28-.85,3.13-3.03l.78-1.94c.07-.2.14-.37.14-.58,0-.14-.03-.27-.1-.44l-5.37-14.04c-.07-.17-.1-.34-.1-.48,0-.68.78-1.12,1.46-1.12.37,0,.78.17.99.71l4.15,11.35c.1.31.1.65.34.65.2,0,.24-.41.34-.65l4.25-11.35c.2-.54.61-.71.99-.71.68,0,1.46.44,1.46,1.12,0,.14-.03.31-.1.48l-7.04,17.88Z"/>
      <path d="M569.76,268.72c-3.23,0-4.66-1.84-4.66-4.9v-9.35c0-.17-.1-.24-.31-.24h-1.77c-.82,0-1.09-.54-1.09-1.16s.27-1.16,1.09-1.16h1.77c.2,0,.31-.07.31-.27v-3.88c0-.82.61-1.12,1.26-1.12.61,0,1.26.31,1.26,1.12v3.84c0,.24.07.31.31.31h2.14c.82,0,1.09.54,1.09,1.16s-.27,1.16-1.09,1.16h-2.14c-.24,0-.31.07-.31.31v9.52c0,1.43.82,2.28,2.41,2.28.71,0,1.12.51,1.12,1.16,0,.58-.34,1.22-1.39,1.22Z"/>
      <path d="M577.08,253.11c0,.17.07.24.2.24.07,0,.2-.14.27-.17,1.26-1.05,2.69-1.39,4.18-1.39,4.56,0,5.92,2.92,5.92,7.04v8.77c0,.82-.61,1.12-1.22,1.12-.65,0-1.29-.31-1.29-1.12v-7.68c0-3.3-.14-5.75-4.04-5.75-2.86,0-4.01,1.53-4.01,4.52v8.91c0,.82-.65,1.12-1.26,1.12-.65,0-1.26-.31-1.26-1.12v-21.69c0-.82.61-1.12,1.26-1.12.61,0,1.26.31,1.26,1.12v7.21Z"/>
      <path d="M593.58,248.15c-1.02,0-1.7-.71-1.7-1.7s.68-1.67,1.7-1.67c.95,0,1.67.68,1.67,1.67s-.71,1.7-1.67,1.7ZM594.83,267.59c0,.82-.65,1.12-1.26,1.12-.65,0-1.26-.31-1.26-1.12v-14.69c0-.82.61-1.12,1.26-1.12.61,0,1.26.31,1.26,1.12v14.69Z"/>
      <path d="M602.17,258.62v8.97c0,.82-.65,1.12-1.26,1.12-.65,0-1.26-.31-1.26-1.12v-14.69c0-.82.61-1.12,1.26-1.12s1.29.31,1.29,1.05v.34c0,.1.07.17.17.17.07,0,.2-.14.27-.17,1.26-1.05,2.69-1.39,4.18-1.39,4.56,0,5.92,2.92,5.92,7.04v8.77c0,.82-.61,1.12-1.22,1.12-.65,0-1.29-.31-1.29-1.12v-7.68c0-3.3-.14-5.75-4.04-5.75-2.86,0-4.01,1.56-4.01,4.45Z"/>
      <path d="M616.87,260.25c0-4.83,1.22-8.46,6.29-8.46,1.29,0,2.75.34,4.01,1.43.03.03.17.17.27.17s.17-.07.17-.2v-.27c0-.82.51-1.12,1.29-1.12.61,0,1.22.31,1.22,1.12v16.79c0,4.42-3.64,6.36-7.31,6.36-2.18,0-3.57-.51-4.38-.95-.41-.24-.58-.58-.58-.92,0-.61.44-1.39,1.16-1.39.17,0,.37.07.61.17.78.37,1.73.71,3.2.71,2.62,0,4.79-1.39,4.79-3.84v-2.48c0-.14-.07-.24-.17-.24s-.24.14-.27.17c-1.22,1.12-2.72,1.43-4.01,1.43-5.07,0-6.29-3.64-6.29-8.46ZM619.46,260.25c0,3.57.31,6.08,4.15,6.08s4.01-2.58,4.01-6.08c0-3.03-.07-6.08-4.01-6.08s-4.15,2.52-4.15,6.08Z"/>
      <path d="M656.1,267.59c0,.82-.61,1.12-1.22,1.12-.65,0-1.29-.31-1.29-1.12v-7.34c0-2.18-.14-3.88-.68-4.66-.85-1.22-2.14-1.43-3.4-1.43-1.39,0-2.58.48-3.3,1.5-.58.78-.68,2.35-.68,3.74v8.19c0,.82-.65,1.12-1.26,1.12-.65,0-1.26-.31-1.26-1.12v-14.69c0-.82.61-1.12,1.26-1.12.54,0,1.29.2,1.29.88v.51c0,.1.07.17.17.17.07,0,.27-.17.27-.17,1.26-1.05,2.69-1.39,3.98-1.39,1.63,0,3.33.41,4.56,1.8.14.14.31.27.48.27s.24-.1.37-.2c1.73-1.53,3.47-1.87,5.1-1.87,4.93,0,6.19,3.06,6.19,7v8.8c0,.82-.65,1.12-1.26,1.12-.65,0-1.26-.31-1.26-1.12v-7.34c0-2.55-.17-3.88-.71-4.69-.75-1.16-1.97-1.39-3.37-1.39-1.05,0-2.38.24-3.2,1.29-.61.75-.82,2.18-.82,3.98l.03,8.16Z"/>
      <path d="M681.77,261.88v-8.98c0-.82.65-1.12,1.29-1.12.61,0,1.22.31,1.22,1.12v14.69c0,.82-.61,1.12-1.22,1.12-.58,0-1.29-.24-1.29-1.12v-.2c0-.14-.07-.24-.17-.24s-.24.14-.27.17c-1.26,1.05-2.72,1.39-4.18,1.39-4.62,0-5.92-2.92-5.92-7.07v-8.74c0-.82.65-1.12,1.26-1.12.65,0,1.26.31,1.26,1.12v7.82c0,3.3.17,5.61,4.01,5.61,2.89,0,4.01-1.53,4.01-4.45Z"/>
      <path d="M700.49,254c0,.65-.71,1.39-1.33,1.39-.31,0-.58-.2-.85-.41-1.05-.75-2.07-.82-2.96-.82-3.88,0-4.18,2.52-4.18,6.08s.31,6.08,4.22,6.08c.82,0,2.18-.24,3.09-.68.48-.24.78-.51,1.09-.51.65,0,1.26.68,1.26,1.36,0,.17-.03.61-.58.92-1.56.92-2.89,1.29-4.9,1.29-5.71,0-6.77-3.64-6.77-8.46s1.05-8.46,6.63-8.46c1.67,0,3.57.24,5,1.6.24.24.27.44.27.61Z"/>
      <path d="M706.88,253.11c0,.17.07.24.2.24.07,0,.2-.14.27-.17,1.26-1.05,2.69-1.39,4.18-1.39,4.56,0,5.92,2.92,5.92,7.04v8.77c0,.82-.61,1.12-1.22,1.12-.65,0-1.29-.31-1.29-1.12v-7.68c0-3.3-.14-5.75-4.04-5.75-2.86,0-4.01,1.53-4.01,4.52v8.91c0,.82-.65,1.12-1.26,1.12-.65,0-1.26-.31-1.26-1.12v-21.69c0-.82.61-1.12,1.26-1.12.61,0,1.26.31,1.26,1.12v7.21Z"/>
      <path d="M732.38,261.24c-.2,0-.24.1-.24.24.1,3.16.75,4.86,4.52,4.86,1.05,0,2.41-.34,3.33-.85.99-.58,1.16-.75,1.43-.75.78,0,1.22.75,1.22,1.43,0,.34-.17.65-.54.88-1.5,1.02-3.43,1.67-5.68,1.67-5.71,0-6.9-3.3-6.9-8.46,0-4.83,1.05-8.46,6.77-8.46s6.63,4.25,6.63,7.31c0,.88-.14,2.14-1.63,2.14h-8.91ZM736.29,254.03c-2.99,0-4.15,1.84-4.15,4.73,0,.17,0,.31.24.31h7.79c.14,0,.24-.03.24-.2,0-2.72-.99-4.83-4.11-4.83Z"/>
      <path d="M756.61,266.74c-.1,0-.2.14-.34.24-1.12.92-2.58,1.73-5.03,1.73-3.94,0-5.17-2.45-5.17-4.62,0-4.15,3.43-5.17,6.73-5.17h3.3c.24,0,.31-.1.31-.31v-.99c0-2.35-1.16-3.47-3.74-3.47-2.07,0-2.92.51-3.98,1.29-.17.14-.34.17-.48.17-.65,0-1.26-.71-1.26-1.33,0-.37.2-.68.54-.99,1.53-1.22,3.47-1.53,5.24-1.53,5.27,0,6.32,2.72,6.32,6.76v6.9c0,.61.17.92.75.92h.31c.58,0,.88.48.88,1.12,0,.88-.37,1.22-1.77,1.22-1.29,0-2.07-.58-2.45-1.77-.07-.17-.1-.2-.17-.2ZM756.54,261.48c0-.2-.1-.31-.31-.31h-3.2c-2.31,0-4.39.34-4.39,2.55,0,1.73,1.12,2.79,3.03,2.79,3.37,0,4.86-2.14,4.86-4.18v-.85Z"/>
      <path d="M769.96,266.34c2.01,0,3.37-.85,3.37-2.38,0-1.16-.88-1.77-2.52-2.28l-2.48-.78c-2.69-.85-4.32-2.11-4.32-4.55,0-2.82,2.45-4.56,5.95-4.56,2.07,0,3.43.61,4.18,1.05.48.27.78.58.78,1.02,0,.58-.58,1.33-1.12,1.33-.31,0-.48-.1-.71-.2-.51-.31-1.84-.82-3.13-.82-2.01,0-3.37.75-3.37,2.07,0,1.19.95,1.77,2.52,2.28l2.45.78c2.82.88,4.35,2.18,4.35,4.66,0,2.92-2.45,4.76-5.95,4.76-2.72,0-4.45-.95-5.61-2.07-.24-.27-.51-.51-.51-.92,0-.61.58-1.29,1.29-1.29.24,0,.41.03.85.41.85.75,1.8,1.5,3.98,1.5Z"/>
      <path d="M781.05,248.15c-1.02,0-1.7-.71-1.7-1.7s.68-1.67,1.7-1.67c.95,0,1.67.68,1.67,1.67s-.71,1.7-1.67,1.7ZM782.31,267.59c0,.82-.65,1.12-1.26,1.12-.65,0-1.26-.31-1.26-1.12v-14.69c0-.82.61-1.12,1.26-1.12.61,0,1.26.31,1.26,1.12v14.69Z"/>
      <path d="M789.32,261.24c-.2,0-.24.1-.24.24.1,3.16.75,4.86,4.52,4.86,1.05,0,2.41-.34,3.33-.85.99-.58,1.16-.75,1.43-.75.78,0,1.22.75,1.22,1.43,0,.34-.17.65-.54.88-1.5,1.02-3.43,1.67-5.68,1.67-5.71,0-6.9-3.3-6.9-8.46,0-4.83,1.05-8.46,6.77-8.46s6.63,4.25,6.63,7.31c0,.88-.14,2.14-1.63,2.14h-8.91ZM793.23,254.03c-2.99,0-4.15,1.84-4.15,4.73,0,.17,0,.31.24.31h7.79c.14,0,.24-.03.24-.2,0-2.72-.99-4.83-4.11-4.83Z"/>
      <path d="M811.56,254.44c-.58,0-.51-.03-1.33-.03-2.58,0-3.71,1.39-3.71,5.13v8.06c0,.82-.61,1.12-1.26,1.12-.68,0-1.26-.31-1.26-1.12v-14.69c0-.82.61-1.12,1.26-1.12.71,0,1.29.31,1.29,1.12v.27c0,.07.03.14.14.14.07,0,.17-.1.27-.2,1.19-.99,2.52-1.33,3.64-1.33,1.33,0,2.07.2,2.07,1.39,0,.85-.41,1.26-1.12,1.26Z"/>
      <path d="M824.55,248.15c-1.02,0-1.7-.71-1.7-1.7s.68-1.67,1.7-1.67c.95,0,1.67.68,1.67,1.67s-.71,1.7-1.67,1.7ZM825.81,267.59c0,.82-.65,1.12-1.26,1.12-.65,0-1.26-.31-1.26-1.12v-14.69c0-.82.61-1.12,1.26-1.12.61,0,1.26.31,1.26,1.12v14.69Z"/>
      <path d="M833.15,258.62v8.97c0,.82-.65,1.12-1.26,1.12-.65,0-1.26-.31-1.26-1.12v-14.69c0-.82.61-1.12,1.26-1.12s1.29.31,1.29,1.05v.34c0,.1.07.17.17.17.07,0,.2-.14.27-.17,1.26-1.05,2.69-1.39,4.18-1.39,4.56,0,5.92,2.92,5.92,7.04v8.77c0,.82-.61,1.12-1.22,1.12-.65,0-1.29-.31-1.29-1.12v-7.68c0-3.3-.14-5.75-4.04-5.75-2.86,0-4.01,1.56-4.01,4.45Z"/>
      <path d="M856.81,254.47c0-.17-.14-.24-.31-.24h-1.16c-.78,0-1.02-.58-1.02-1.16,0-.54.24-1.16,1.02-1.16h1.16c.2,0,.31-.07.31-.24v-2.89c0-2.65,1.43-3.88,3.94-3.88h1.12c.78,0,1.05.58,1.05,1.16s-.27,1.16-1.05,1.16h-.95c-1.05,0-1.6.41-1.6,1.77v2.62c0,.24.1.31.31.31h2.24c.75,0,1.02.61,1.02,1.16,0,.58-.27,1.16-1.02,1.16h-2.24c-.2,0-.31.07-.31.31v13.05c0,.82-.65,1.12-1.26,1.12-.65,0-1.26-.31-1.26-1.12v-13.12Z"/>
      <path d="M876.69,261.88v-8.98c0-.82.65-1.12,1.29-1.12.61,0,1.22.31,1.22,1.12v14.69c0,.82-.61,1.12-1.22,1.12-.58,0-1.29-.24-1.29-1.12v-.2c0-.14-.07-.24-.17-.24s-.24.14-.27.17c-1.26,1.05-2.72,1.39-4.18,1.39-4.62,0-5.92-2.92-5.92-7.07v-8.74c0-.82.65-1.12,1.26-1.12.65,0,1.26.31,1.26,1.12v7.82c0,3.3.17,5.61,4.01,5.61,2.89,0,4.01-1.53,4.01-4.45Z"/>
      <path d="M890.32,268.72c-3.23,0-4.66-1.84-4.66-4.9v-9.35c0-.17-.1-.24-.31-.24h-1.77c-.82,0-1.09-.54-1.09-1.16s.27-1.16,1.09-1.16h1.77c.2,0,.31-.07.31-.27v-3.88c0-.82.61-1.12,1.26-1.12.61,0,1.26.31,1.26,1.12v3.84c0,.24.07.31.31.31h2.14c.82,0,1.09.54,1.09,1.16s-.27,1.16-1.09,1.16h-2.14c-.24,0-.31.07-.31.31v9.52c0,1.43.82,2.28,2.41,2.28.71,0,1.12.51,1.12,1.16,0,.58-.34,1.22-1.39,1.22Z"/>
      <path d="M905.58,261.88v-8.98c0-.82.65-1.12,1.29-1.12.61,0,1.22.31,1.22,1.12v14.69c0,.82-.61,1.12-1.22,1.12-.58,0-1.29-.24-1.29-1.12v-.2c0-.14-.07-.24-.17-.24s-.24.14-.27.17c-1.26,1.05-2.72,1.39-4.18,1.39-4.62,0-5.92-2.92-5.92-7.07v-8.74c0-.82.65-1.12,1.26-1.12.65,0,1.26.31,1.26,1.12v7.82c0,3.3.17,5.61,4.01,5.61,2.89,0,4.01-1.53,4.01-4.45Z"/>
      <path d="M920.5,254.44c-.58,0-.51-.03-1.33-.03-2.58,0-3.71,1.39-3.71,5.13v8.06c0,.82-.61,1.12-1.26,1.12-.68,0-1.26-.31-1.26-1.12v-14.69c0-.82.61-1.12,1.26-1.12.71,0,1.29.31,1.29,1.12v.27c0,.07.03.14.14.14.07,0,.17-.1.27-.2,1.19-.99,2.52-1.33,3.64-1.33,1.33,0,2.07.2,2.07,1.39,0,.85-.41,1.26-1.12,1.26Z"/>
      <path d="M926.73,261.24c-.2,0-.24.1-.24.24.1,3.16.75,4.86,4.52,4.86,1.05,0,2.41-.34,3.33-.85.99-.58,1.16-.75,1.43-.75.78,0,1.22.75,1.22,1.43,0,.34-.17.65-.54.88-1.5,1.02-3.43,1.67-5.68,1.67-5.71,0-6.9-3.3-6.9-8.46,0-4.83,1.05-8.46,6.77-8.46s6.63,4.25,6.63,7.31c0,.88-.14,2.14-1.63,2.14h-8.91ZM930.64,254.03c-2.99,0-4.15,1.84-4.15,4.73,0,.17,0,.31.24.31h7.79c.14,0,.24-.03.24-.2,0-2.72-.99-4.83-4.11-4.83Z"/>
      <path d="M942.49,265.18c1.02,0,1.77.75,1.77,1.77s-.75,1.77-1.77,1.77-1.77-.75-1.77-1.77.75-1.77,1.77-1.77Z"/>
      <path d="M101.67,286.77c0-.95.71-1.19,1.36-1.19.68,0,1.36.24,1.36,1.19v21.55c0,.95-.68,1.19-1.36,1.19s-1.36-.24-1.36-1.19v-21.55Z"/>
      <path d="M122.45,308.39c0,.82-.61,1.12-1.22,1.12-.65,0-1.29-.31-1.29-1.12v-7.34c0-2.18-.14-3.88-.68-4.66-.85-1.22-2.14-1.43-3.4-1.43-1.39,0-2.58.48-3.3,1.5-.58.78-.68,2.35-.68,3.74v8.19c0,.82-.65,1.12-1.26,1.12-.65,0-1.26-.31-1.26-1.12v-14.69c0-.82.61-1.12,1.26-1.12.54,0,1.29.2,1.29.88v.51c0,.1.07.17.17.17.07,0,.27-.17.27-.17,1.26-1.05,2.69-1.39,3.98-1.39,1.63,0,3.33.41,4.56,1.8.14.14.31.27.48.27s.24-.1.37-.2c1.73-1.53,3.47-1.87,5.1-1.87,4.93,0,6.19,3.06,6.19,7v8.8c0,.82-.65,1.12-1.26,1.12-.65,0-1.26-.31-1.26-1.12v-7.34c0-2.55-.17-3.88-.71-4.69-.75-1.16-1.97-1.39-3.37-1.39-1.05,0-2.38.24-3.2,1.29-.61.75-.82,2.18-.82,3.98l.03,8.16Z"/>
      <path d="M147.24,307.54c-.1,0-.2.14-.34.24-1.12.92-2.58,1.73-5.03,1.73-3.94,0-5.17-2.45-5.17-4.62,0-4.15,3.43-5.17,6.73-5.17h3.3c.24,0,.31-.1.31-.31v-.99c0-2.35-1.16-3.47-3.74-3.47-2.07,0-2.92.51-3.98,1.29-.17.14-.34.17-.48.17-.65,0-1.26-.71-1.26-1.33,0-.37.2-.68.54-.99,1.53-1.22,3.47-1.53,5.24-1.53,5.27,0,6.32,2.72,6.32,6.76v6.9c0,.61.17.92.75.92h.31c.58,0,.88.48.88,1.12,0,.88-.37,1.22-1.77,1.22-1.29,0-2.07-.58-2.45-1.77-.07-.17-.1-.2-.17-.2ZM147.17,302.27c0-.2-.1-.31-.31-.31h-3.2c-2.31,0-4.39.34-4.39,2.55,0,1.73,1.12,2.79,3.03,2.79,3.37,0,4.86-2.14,4.86-4.18v-.85Z"/>
      <path d="M154,301.05c0-4.83,1.22-8.46,6.29-8.46,1.29,0,2.75.34,4.01,1.43.03.03.17.17.27.17s.17-.07.17-.2v-.27c0-.82.51-1.12,1.29-1.12.61,0,1.22.31,1.22,1.12v16.79c0,4.42-3.64,6.36-7.31,6.36-2.18,0-3.57-.51-4.38-.95-.41-.24-.58-.58-.58-.92,0-.61.44-1.39,1.16-1.39.17,0,.37.07.61.17.78.37,1.73.71,3.2.71,2.62,0,4.79-1.39,4.79-3.84v-2.48c0-.14-.07-.24-.17-.24s-.24.14-.27.17c-1.22,1.12-2.72,1.43-4.01,1.43-5.07,0-6.29-3.64-6.29-8.46ZM156.58,301.05c0,3.57.31,6.08,4.15,6.08s4.01-2.58,4.01-6.08c0-3.03-.07-6.09-4.01-6.09s-4.15,2.52-4.15,6.09Z"/>
      <path d="M173.4,288.95c-1.02,0-1.7-.71-1.7-1.7s.68-1.67,1.7-1.67c.95,0,1.67.68,1.67,1.67s-.71,1.7-1.67,1.7ZM174.66,308.39c0,.82-.65,1.12-1.26,1.12-.65,0-1.26-.31-1.26-1.12v-14.69c0-.82.61-1.12,1.26-1.12.61,0,1.26.31,1.26,1.12v14.69Z"/>
      <path d="M182,299.42v8.97c0,.82-.65,1.12-1.26,1.12-.65,0-1.26-.31-1.26-1.12v-14.69c0-.82.61-1.12,1.26-1.12s1.29.31,1.29,1.05v.34c0,.1.07.17.17.17.07,0,.2-.14.27-.17,1.26-1.05,2.69-1.39,4.18-1.39,4.56,0,5.92,2.92,5.92,7.04v8.77c0,.82-.61,1.12-1.22,1.12-.65,0-1.29-.31-1.29-1.12v-7.68c0-3.3-.14-5.75-4.04-5.75-2.86,0-4.01,1.56-4.01,4.45Z"/>
      <path d="M199.55,302.04c-.2,0-.24.1-.24.24.1,3.16.75,4.86,4.52,4.86,1.05,0,2.41-.34,3.33-.85.99-.58,1.16-.75,1.43-.75.78,0,1.22.75,1.22,1.43,0,.34-.17.65-.54.88-1.5,1.02-3.43,1.67-5.68,1.67-5.71,0-6.9-3.3-6.9-8.46,0-4.83,1.05-8.46,6.77-8.46s6.63,4.25,6.63,7.31c0,.88-.14,2.14-1.63,2.14h-8.91ZM203.46,294.83c-2.99,0-4.15,1.84-4.15,4.73,0,.17,0,.31.24.31h7.79c.14,0,.24-.03.24-.2,0-2.72-.99-4.83-4.11-4.83Z"/>
      <path d="M227.97,309.52c-3.23,0-4.66-1.84-4.66-4.9v-9.35c0-.17-.1-.24-.31-.24h-1.77c-.82,0-1.09-.54-1.09-1.16s.27-1.16,1.09-1.16h1.77c.2,0,.31-.07.31-.27v-3.88c0-.82.61-1.12,1.26-1.12.61,0,1.26.31,1.26,1.12v3.84c0,.24.07.31.31.31h2.14c.82,0,1.09.54,1.09,1.16s-.27,1.16-1.09,1.16h-2.14c-.24,0-.31.07-.31.31v9.52c0,1.43.82,2.28,2.41,2.28.71,0,1.12.51,1.12,1.16,0,.58-.34,1.22-1.39,1.22Z"/>
      <path d="M235.29,293.91c0,.17.07.24.2.24.07,0,.2-.14.27-.17,1.26-1.05,2.69-1.39,4.18-1.39,4.56,0,5.92,2.92,5.92,7.04v8.77c0,.82-.61,1.12-1.22,1.12-.65,0-1.29-.31-1.29-1.12v-7.68c0-3.3-.14-5.75-4.04-5.75-2.86,0-4.01,1.53-4.01,4.52v8.91c0,.82-.65,1.12-1.26,1.12-.65,0-1.26-.31-1.26-1.12v-21.69c0-.82.61-1.12,1.26-1.12.61,0,1.26.31,1.26,1.12v7.21Z"/>
      <path d="M251.79,288.95c-1.02,0-1.7-.71-1.7-1.7s.68-1.67,1.7-1.67c.95,0,1.67.68,1.67,1.67s-.71,1.7-1.67,1.7ZM253.04,308.39c0,.82-.65,1.12-1.26,1.12-.65,0-1.26-.31-1.26-1.12v-14.69c0-.82.61-1.12,1.26-1.12.61,0,1.26.31,1.26,1.12v14.69Z"/>
      <path d="M263.1,307.14c2.01,0,3.37-.85,3.37-2.38,0-1.16-.88-1.77-2.52-2.28l-2.48-.78c-2.69-.85-4.32-2.11-4.32-4.56,0-2.82,2.45-4.55,5.95-4.55,2.07,0,3.43.61,4.18,1.05.48.27.78.58.78,1.02,0,.58-.58,1.33-1.12,1.33-.31,0-.48-.1-.71-.2-.51-.31-1.84-.82-3.13-.82-2.01,0-3.37.75-3.37,2.07,0,1.19.95,1.77,2.52,2.28l2.45.78c2.82.88,4.35,2.18,4.35,4.66,0,2.92-2.45,4.76-5.95,4.76-2.72,0-4.45-.95-5.61-2.07-.24-.27-.51-.51-.51-.92,0-.61.58-1.29,1.29-1.29.24,0,.41.03.85.41.85.75,1.8,1.5,3.98,1.5Z"/>
      <path d="M274.15,293.61c1.02,0,1.77.75,1.77,1.77s-.75,1.77-1.77,1.77-1.77-.75-1.77-1.77.75-1.77,1.77-1.77ZM274.15,305.98c1.02,0,1.77.75,1.77,1.77s-.75,1.77-1.77,1.77-1.77-.75-1.77-1.77.75-1.77,1.77-1.77Z"/>
    </g>
  </g>
</svg>