<?xml version="1.0" encoding="UTF-8"?>
<svg xmlns="http://www.w3.org/2000/svg" viewBox="0 0 1116 844.26">
  <g id="bg">
    <rect y="-.05" width="1114.94" height="844.31" fill="#fff"/>
  </g>
  <g id="_03" data-name="03">
    <g>
      <rect x="85.31" y="75.74" width="932.07" height="112.63" rx="56.31" ry="56.31" fill="none" stroke="#000" stroke-miterlimit="10" stroke-width="3"/>
      <path d="M141.63,75.74c-30.97,0-56.31,25.34-56.31,56.31h0c0,30.97,25.34,56.32,56.31,56.32h126.08v-112.63h-126.08Z" fill="#8ef" stroke="#000" stroke-miterlimit="10" stroke-width="3"/>
      <text transform="translate(116.42 150.23)" font-family="Cubano-Regular, Cubano" font-size="52.34"><tspan x="0" y="0" letter-spacing="0em">W</tspan><tspan x="42.29" y="0" letter-spacing="0em">h</tspan><tspan x="73.47" y="0" letter-spacing="-.04em">y</tspan><tspan x="102.98" y="0">?</tspan></text>
      <text transform="translate(312.8 121.07)" font-family="DINosaur-Book, DINosaur" font-size="37.39"><tspan x="0" y="0">Why a</tspan><tspan x="98.06" y="0" letter-spacing="-.02em">r</tspan><tspan x="109.91" y="0">e </tspan><tspan x="137.28" y="0" letter-spacing="0em">y</tspan><tspan x="153.69" y="0">ou doing this </tspan><tspan x="362.37" y="0" letter-spacing="-.01em">t</tspan><tspan x="373.62" y="0" letter-spacing="0em">o us? E</tspan><tspan x="486.59" y="0" letter-spacing="0em">v</tspan><tspan x="503.19" y="0">erything </tspan><tspan x="2.77" y="44.86" letter-spacing="0em">w</tspan><tspan x="30.1" y="44.86">as </tspan><tspan x="74.47" y="44.86" letter-spacing="0em">w</tspan><tspan x="101.69" y="44.86">orking fine be</tspan><tspan x="314.22" y="44.86" letter-spacing="-.01em">f</tspan><tspan x="324.61" y="44.86">o</tspan><tspan x="343.83" y="44.86" letter-spacing="-.02em">r</tspan><tspan x="355.68" y="44.86" letter-spacing="0em">e!</tspan><tspan x="383.68" y="44.86" letter-spacing="-.02em"> </tspan><tspan x="391.34" y="44.86">Who hurt </tspan><tspan x="545.89" y="44.86" letter-spacing="0em">y</tspan><tspan x="562.3" y="44.86">ou?!</tspan></text>
    </g>
  </g>
  <g id="_04" data-name="04">
    <text transform="translate(98.61 268.58)" font-family="DINosaur-Book, DINosaur" font-size="34"><tspan x="0" y="0" letter-spacing="0em">B</tspan><tspan x="21.68" y="0" letter-spacing="0em">e</tspan><tspan x="38.69" y="0" letter-spacing="0em">c</tspan><tspan x="54.32" y="0" letter-spacing="-.01em">a</tspan><tspan x="70.98" y="0" letter-spacing="-.01em">u</tspan><tspan x="88.7" y="0" letter-spacing="0em">s</tspan><tspan x="104.1" y="0">e </tspan><tspan x="128.98" y="0" letter-spacing="0em">i</tspan><tspan x="136.83" y="0" letter-spacing=".04em">t</tspan><tspan x="148.67" y="0" letter-spacing="-.03em">’</tspan><tspan x="153.48" y="0">s </tspan><tspan x="176.8" y="0" letter-spacing="0em">g</tspan><tspan x="194.36" y="0" letter-spacing="-.01em">o</tspan><tspan x="211.45" y="0" letter-spacing="-.01em">i</tspan><tspan x="218.79" y="0" letter-spacing="0em">n</tspan><tspan x="236.65" y="0">g </tspan><tspan x="262.15" y="0" letter-spacing="-.01em">t</tspan><tspan x="272.36" y="0">o </tspan><tspan x="297.49" y="0" letter-spacing="0em">m</tspan><tspan x="326.01" y="0" letter-spacing="0em">a</tspan><tspan x="343.11" y="0" letter-spacing="-.01em">k</tspan><tspan x="359.53" y="0">e </tspan><tspan x="384.42" y="0" letter-spacing="0em">e</tspan><tspan x="401.5" y="0" letter-spacing="0em">v</tspan><tspan x="416.63" y="0" letter-spacing="0em">e</tspan><tspan x="433.54" y="0" letter-spacing=".04em">r</tspan><tspan x="446.42" y="0" letter-spacing=".03em">y</tspan><tspan x="462.79" y="0" letter-spacing="0em">t</tspan><tspan x="473.33" y="0" letter-spacing="-.01em">h</tspan><tspan x="491.09" y="0" letter-spacing="-.01em">i</tspan><tspan x="498.43" y="0" letter-spacing="0em">n</tspan><tspan x="516.29" y="0">g </tspan><tspan x="541.79" y="0" letter-spacing="0em">m</tspan><tspan x="570.18" y="0" letter-spacing="0em">u</tspan><tspan x="588.01" y="0" letter-spacing="0em">c</tspan><tspan x="603.14" y="0">h </tspan><tspan x="628.95" y="0" letter-spacing="0em">e</tspan><tspan x="646.03" y="0" letter-spacing=".01em">a</tspan><tspan x="663.43" y="0" letter-spacing="-.02em">s</tspan><tspan x="678.56" y="0" letter-spacing="-.01em">i</tspan><tspan x="685.88" y="0" letter-spacing="0em">e</tspan><tspan x="702.79" y="0">r </tspan><tspan x="722.07" y="0" letter-spacing="-.01em">i</tspan><tspan x="729.41" y="0">n </tspan><tspan x="755.21" y="0" letter-spacing="0em">f</tspan><tspan x="765.1" y="0" letter-spacing="0em">u</tspan><tspan x="783.35" y="0" letter-spacing="0em">t</tspan><tspan x="793.98" y="0" letter-spacing="-.01em">u</tspan><tspan x="811.73" y="0" letter-spacing="0em">r</tspan><tspan x="823.3" y="0" letter-spacing="-.01em">e</tspan><tspan x="840.07" y="0">. </tspan><tspan x="0" y="40.8" letter-spacing="-.02em">I</tspan><tspan x="8.14" y="40.8" letter-spacing="0em">m</tspan><tspan x="36.66" y="40.8" letter-spacing="0em">a</tspan><tspan x="53.42" y="40.8" letter-spacing="-.01em">g</tspan><tspan x="70.91" y="40.8" letter-spacing="-.01em">i</tspan><tspan x="78.25" y="40.8" letter-spacing="0em">n</tspan><tspan x="96.11" y="40.8">e </tspan><tspan x="121" y="40.8" letter-spacing="0em">t</tspan><tspan x="131.55" y="40.8" letter-spacing="-.01em">h</tspan><tspan x="149.3" y="40.8" letter-spacing="-.01em">i</tspan><tspan x="156.57" y="40.8" letter-spacing="-.02em">s</tspan><tspan x="171.73" y="40.8">:</tspan></text>
  </g>
</svg>