<?xml version="1.0" encoding="UTF-8"?>
<svg xmlns="http://www.w3.org/2000/svg" viewBox="0 0 1116 844.26">
  <g id="bg">
    <rect y="-.05" width="1114.94" height="844.31" fill="#fff"/>
  </g>
  <g id="_03" data-name="03">
    <g>
      <rect x="85.31" y="75.74" width="932.07" height="112.63" rx="56.31" ry="56.31" fill="none" stroke="#000" stroke-miterlimit="10" stroke-width="3"/>
      <path d="M141.63,75.74c-30.97,0-56.31,25.34-56.31,56.31h0c0,30.97,25.34,56.32,56.31,56.32h126.08v-112.63h-126.08Z" fill="#8ef" stroke="#000" stroke-miterlimit="10" stroke-width="3"/>
      <text transform="translate(116.42 150.23)" font-family="Cubano-Regular, Cubano" font-size="52.34"><tspan x="0" y="0" letter-spacing="0em">W</tspan><tspan x="42.29" y="0" letter-spacing="0em">h</tspan><tspan x="73.47" y="0" letter-spacing="-.04em">y</tspan><tspan x="102.98" y="0">?</tspan></text>
      <text transform="translate(312.8 121.07)" font-family="DINosaur-Book, DINosaur" font-size="37.39"><tspan x="0" y="0">Why a</tspan><tspan x="98.06" y="0" letter-spacing="-.02em">r</tspan><tspan x="109.91" y="0">e </tspan><tspan x="137.28" y="0" letter-spacing="0em">y</tspan><tspan x="153.69" y="0">ou doing this </tspan><tspan x="362.37" y="0" letter-spacing="-.01em">t</tspan><tspan x="373.62" y="0" letter-spacing="0em">o us? E</tspan><tspan x="486.59" y="0" letter-spacing="0em">v</tspan><tspan x="503.19" y="0">erything </tspan><tspan x="2.77" y="44.86" letter-spacing="0em">w</tspan><tspan x="30.1" y="44.86">as </tspan><tspan x="74.47" y="44.86" letter-spacing="0em">w</tspan><tspan x="101.69" y="44.86">orking fine be</tspan><tspan x="314.22" y="44.86" letter-spacing="-.01em">f</tspan><tspan x="324.61" y="44.86">o</tspan><tspan x="343.83" y="44.86" letter-spacing="-.02em">r</tspan><tspan x="355.68" y="44.86" letter-spacing="0em">e!</tspan><tspan x="383.68" y="44.86" letter-spacing="-.02em"> </tspan><tspan x="391.34" y="44.86">Who hurt </tspan><tspan x="545.89" y="44.86" letter-spacing="0em">y</tspan><tspan x="562.3" y="44.86">ou?!</tspan></text>
    </g>
  </g>
  <g id="_04" data-name="04">
    <text transform="translate(98.61 268.58)" font-family="DINosaur-Book, DINosaur" font-size="34"><tspan x="0" y="0" letter-spacing="0em">B</tspan><tspan x="21.68" y="0" letter-spacing="0em">e</tspan><tspan x="38.69" y="0" letter-spacing="0em">c</tspan><tspan x="54.32" y="0" letter-spacing="-.01em">a</tspan><tspan x="70.98" y="0" letter-spacing="-.01em">u</tspan><tspan x="88.7" y="0" letter-spacing="0em">s</tspan><tspan x="104.1" y="0">e </tspan><tspan x="128.98" y="0" letter-spacing="0em">i</tspan><tspan x="136.83" y="0" letter-spacing=".04em">t</tspan><tspan x="148.67" y="0" letter-spacing="-.03em">’</tspan><tspan x="153.48" y="0">s </tspan><tspan x="176.8" y="0" letter-spacing="0em">g</tspan><tspan x="194.36" y="0" letter-spacing="-.01em">o</tspan><tspan x="211.45" y="0" letter-spacing="-.01em">i</tspan><tspan x="218.79" y="0" letter-spacing="0em">n</tspan><tspan x="236.65" y="0">g </tspan><tspan x="262.15" y="0" letter-spacing="-.01em">t</tspan><tspan x="272.36" y="0">o </tspan><tspan x="297.49" y="0" letter-spacing="0em">m</tspan><tspan x="326.01" y="0" letter-spacing="0em">a</tspan><tspan x="343.11" y="0" letter-spacing="-.01em">k</tspan><tspan x="359.53" y="0">e </tspan><tspan x="384.42" y="0" letter-spacing="0em">e</tspan><tspan x="401.5" y="0" letter-spacing="0em">v</tspan><tspan x="416.63" y="0" letter-spacing="0em">e</tspan><tspan x="433.54" y="0" letter-spacing=".04em">r</tspan><tspan x="446.42" y="0" letter-spacing=".03em">y</tspan><tspan x="462.79" y="0" letter-spacing="0em">t</tspan><tspan x="473.33" y="0" letter-spacing="-.01em">h</tspan><tspan x="491.09" y="0" letter-spacing="-.01em">i</tspan><tspan x="498.43" y="0" letter-spacing="0em">n</tspan><tspan x="516.29" y="0">g </tspan><tspan x="541.79" y="0" letter-spacing="0em">m</tspan><tspan x="570.18" y="0" letter-spacing="0em">u</tspan><tspan x="588.01" y="0" letter-spacing="0em">c</tspan><tspan x="603.14" y="0">h </tspan><tspan x="628.95" y="0" letter-spacing="0em">e</tspan><tspan x="646.03" y="0" letter-spacing=".01em">a</tspan><tspan x="663.43" y="0" letter-spacing="-.02em">s</tspan><tspan x="678.56" y="0" letter-spacing="-.01em">i</tspan><tspan x="685.88" y="0" letter-spacing="0em">e</tspan><tspan x="702.79" y="0">r </tspan><tspan x="722.07" y="0" letter-spacing="-.01em">i</tspan><tspan x="729.41" y="0">n </tspan><tspan x="755.21" y="0" letter-spacing="0em">f</tspan><tspan x="765.1" y="0" letter-spacing="0em">u</tspan><tspan x="783.35" y="0" letter-spacing="0em">t</tspan><tspan x="793.98" y="0" letter-spacing="-.01em">u</tspan><tspan x="811.73" y="0" letter-spacing="0em">r</tspan><tspan x="823.3" y="0" letter-spacing="-.01em">e</tspan><tspan x="840.07" y="0">. </tspan><tspan x="0" y="40.8" letter-spacing="-.02em">I</tspan><tspan x="8.14" y="40.8" letter-spacing="0em">m</tspan><tspan x="36.66" y="40.8" letter-spacing="0em">a</tspan><tspan x="53.42" y="40.8" letter-spacing="-.01em">g</tspan><tspan x="70.91" y="40.8" letter-spacing="-.01em">i</tspan><tspan x="78.25" y="40.8" letter-spacing="0em">n</tspan><tspan x="96.11" y="40.8">e </tspan><tspan x="121" y="40.8" letter-spacing="0em">t</tspan><tspan x="131.55" y="40.8" letter-spacing="-.01em">h</tspan><tspan x="149.3" y="40.8" letter-spacing="-.01em">i</tspan><tspan x="156.57" y="40.8" letter-spacing="-.02em">s</tspan><tspan x="171.73" y="40.8">:</tspan></text>
  </g>
  <g id="_05" data-name="05">
    <path d="M142.75,357.76l3.4,6.88,7.6,1.1c2.27.33,3.18,3.12,1.53,4.72l-5.5,5.36,1.3,7.57c.39,2.26-1.98,3.98-4.01,2.92l-6.79-3.57-6.79,3.57c-2.03,1.07-4.4-.66-4.01-2.92l1.3-7.57-5.5-5.36c-1.64-1.6-.74-4.39,1.53-4.72l7.6-1.1,3.4-6.88c1.01-2.06,3.95-2.06,4.96,0Z"/>
    <text transform="translate(167.31 383.49)" font-family="DINosaur-Book, DINosaur" font-size="34"><tspan x="0" y="0" letter-spacing="-.02em">N</tspan><tspan x="22.24" y="0">o </tspan><tspan x="47.37" y="0" letter-spacing="0em">m</tspan><tspan x="75.83" y="0" letter-spacing="0em">o</tspan><tspan x="92.97" y="0" letter-spacing="0em">r</tspan><tspan x="104.54" y="0">e </tspan><tspan x="129.43" y="0" letter-spacing="-.02em">fi</tspan><tspan x="146.59" y="0" letter-spacing="0em">l</tspan><tspan x="155.16" y="0" letter-spacing="0em">l</tspan><tspan x="163.85" y="0" letter-spacing="-.01em">i</tspan><tspan x="171.19" y="0" letter-spacing="0em">n</tspan><tspan x="189.05" y="0">g </tspan><tspan x="214.55" y="0" letter-spacing="-.01em">o</tspan><tspan x="231.68" y="0" letter-spacing="0em">u</tspan><tspan x="249.93" y="0">t </tspan><tspan x="268.15" y="0" letter-spacing="-.03em">H</tspan><tspan x="289.86" y="0" letter-spacing="0em">P</tspan><tspan x="310.77" y="0" letter-spacing="0em">O</tspan><tspan x="331.21" y="0">s </tspan><tspan x="354.53" y="0" letter-spacing="0em">a</tspan><tspan x="371.62" y="0" letter-spacing="0em">n</tspan><tspan x="389.49" y="0">d </tspan><tspan x="414.98" y="0" letter-spacing="0em">e</tspan><tspan x="431.89" y="0" letter-spacing="0em">m</tspan><tspan x="460.41" y="0" letter-spacing="0em">a</tspan><tspan x="477.51" y="0" letter-spacing="-.01em">i</tspan><tspan x="484.81" y="0" letter-spacing="0em">l</tspan><tspan x="493.5" y="0" letter-spacing="-.01em">i</tspan><tspan x="500.84" y="0" letter-spacing="0em">n</tspan><tspan x="518.7" y="0">g </tspan><tspan x="544.2" y="0" letter-spacing="0em">t</tspan><tspan x="554.75" y="0" letter-spacing="0em">h</tspan><tspan x="572.61" y="0" letter-spacing="0em">e</tspan><tspan x="589.51" y="0">m </tspan><tspan x="625.89" y="0" letter-spacing="0em">a</tspan><tspan x="642.99" y="0" letter-spacing="0em">r</tspan><tspan x="654.55" y="0" letter-spacing="-.01em">o</tspan><tspan x="671.68" y="0" letter-spacing="-.01em">u</tspan><tspan x="689.43" y="0" letter-spacing="0em">n</tspan><tspan x="707.29" y="0">d </tspan><tspan x="732.79" y="0" letter-spacing="0em">t</tspan><tspan x="743.33" y="0" letter-spacing="0em">h</tspan><tspan x="761.19" y="0">e </tspan><tspan x="0" y="40.8" letter-spacing="0em">o</tspan><tspan x="17.32" y="40.8" letter-spacing=".03em">f</tspan><tspan x="28.15" y="40.8" letter-spacing="-.01em">fi</tspan><tspan x="45.33" y="40.8" letter-spacing="0em">c</tspan><tspan x="60.38" y="40.8" letter-spacing="-.02em">e</tspan><tspan x="76.97" y="40.8">, </tspan><tspan x="92.23" y="40.8" letter-spacing="0em">e</tspan><tspan x="109.32" y="40.8" letter-spacing="0em">v</tspan><tspan x="124.45" y="40.8" letter-spacing="0em">e</tspan><tspan x="141.35" y="40.8" letter-spacing=".04em">r</tspan><tspan x="154.24" y="40.8" letter-spacing=".03em">y</tspan><tspan x="170.6" y="40.8" letter-spacing="0em">t</tspan><tspan x="181.15" y="40.8" letter-spacing="-.01em">h</tspan><tspan x="198.91" y="40.8" letter-spacing="-.01em">i</tspan><tspan x="206.25" y="40.8" letter-spacing="0em">n</tspan><tspan x="224.11" y="40.8">g </tspan><tspan x="249.61" y="40.8" letter-spacing="0em">w</tspan><tspan x="274.76" y="40.8" letter-spacing="-.01em">i</tspan><tspan x="282.06" y="40.8" letter-spacing="0em">l</tspan><tspan x="290.63" y="40.8">l </tspan><tspan x="307.05" y="40.8" letter-spacing="0em">b</tspan><tspan x="324.66" y="40.8">e </tspan><tspan x="349.54" y="40.8" letter-spacing="0em">o</tspan><tspan x="366.68" y="40.8">n </tspan><tspan x="392.49" y="40.8" letter-spacing="0em">t</tspan><tspan x="403.04" y="40.8" letter-spacing="0em">h</tspan><tspan x="420.9" y="40.8">e </tspan><tspan x="445.78" y="40.8" letter-spacing="0em">D</tspan><tspan x="467.05" y="40.8" letter-spacing="-.01em">e</tspan><tspan x="483.91" y="40.8" letter-spacing="0em">l</tspan><tspan x="492.6" y="40.8" letter-spacing="0em">i</tspan><tspan x="500.41" y="40.8" letter-spacing="0em">v</tspan><tspan x="515.54" y="40.8" letter-spacing="0em">e</tspan><tspan x="532.45" y="40.8" letter-spacing=".04em">r</tspan><tspan x="545.33" y="40.8">y </tspan><tspan x="568.18" y="40.8" letter-spacing="0em">T</tspan><tspan x="586.61" y="40.8" letter-spacing="-.01em">i</tspan><tspan x="593.93" y="40.8" letter-spacing="0em">c</tspan><tspan x="609.06" y="40.8" letter-spacing="-.01em">k</tspan><tspan x="625.48" y="40.8" letter-spacing="0em">e</tspan><tspan x="642.6" y="40.8" letter-spacing="0em">t</tspan><tspan x="653.38" y="40.8">.</tspan></text>
  </g>
  <g id="_06" data-name="06">
    <path d="M142.75,477.76l3.4,6.88,7.6,1.1c2.27.33,3.18,3.12,1.53,4.72l-5.5,5.36,1.3,7.57c.39,2.26-1.98,3.98-4.01,2.92l-6.79-3.57-6.79,3.57c-2.03,1.07-4.4-.66-4.01-2.92l1.3-7.57-5.5-5.36c-1.64-1.6-.74-4.39,1.53-4.72l7.6-1.1,3.4-6.88c1.01-2.06,3.95-2.06,4.96,0Z"/>
    <text transform="translate(167.31 503.49)" font-family="DINosaur-Book, DINosaur" font-size="34"><tspan x="0" y="0" letter-spacing="-.02em">E</tspan><tspan x="18.87" y="0" letter-spacing="0em">v</tspan><tspan x="34" y="0" letter-spacing="0em">e</tspan><tspan x="50.9" y="0" letter-spacing="0em">n</tspan><tspan x="68.75" y="0" letter-spacing="0em">t</tspan><tspan x="79.39" y="0" letter-spacing="0em">u</tspan><tspan x="97.18" y="0" letter-spacing="0em">a</tspan><tspan x="114.15" y="0" letter-spacing="0em">l</tspan><tspan x="122.72" y="0" letter-spacing="-.01em">l</tspan><tspan x="131.02" y="0" letter-spacing="-.06em">y</tspan><tspan x="144.24" y="0">, </tspan><tspan x="159.5" y="0" letter-spacing="0em">n</tspan><tspan x="177.37" y="0">o </tspan><tspan x="202.49" y="0" letter-spacing="0em">m</tspan><tspan x="230.96" y="0" letter-spacing="0em">o</tspan><tspan x="248.1" y="0" letter-spacing="0em">r</tspan><tspan x="259.66" y="0">e </tspan><tspan x="284.55" y="0" letter-spacing="-.02em">s</tspan><tspan x="299.68" y="0" letter-spacing="0em">p</tspan><tspan x="317.23" y="0" letter-spacing="0em">r</tspan><tspan x="328.8" y="0" letter-spacing="0em">e</tspan><tspan x="345.88" y="0" letter-spacing="0em">a</tspan><tspan x="362.64" y="0" letter-spacing="-.01em">d</tspan><tspan x="380.09" y="0" letter-spacing="-.02em">s</tspan><tspan x="395.23" y="0" letter-spacing="0em">h</tspan><tspan x="413.09" y="0" letter-spacing="0em">e</tspan><tspan x="430.1" y="0" letter-spacing="0em">e</tspan><tspan x="447.22" y="0" letter-spacing="0em">t</tspan><tspan x="458.03" y="0">s </tspan><tspan x="481.35" y="0" letter-spacing="-.01em">t</tspan><tspan x="491.56" y="0">o </tspan><tspan x="516.69" y="0" letter-spacing="-.01em">u</tspan><tspan x="534.43" y="0" letter-spacing="0em">p</tspan><tspan x="552.04" y="0" letter-spacing="0em">da</tspan><tspan x="586.27" y="0" letter-spacing="-.01em">t</tspan><tspan x="596.48" y="0" letter-spacing="-.02em">e</tspan><tspan x="613.08" y="0">! </tspan><tspan x="628.96" y="0" letter-spacing="-.02em">E</tspan><tspan x="647.83" y="0" letter-spacing="0em">v</tspan><tspan x="662.96" y="0" letter-spacing="0em">e</tspan><tspan x="679.87" y="0" letter-spacing=".04em">r</tspan><tspan x="692.75" y="0" letter-spacing=".03em">y</tspan><tspan x="709.12" y="0" letter-spacing="0em">t</tspan><tspan x="719.66" y="0" letter-spacing="-.01em">h</tspan><tspan x="737.42" y="0" letter-spacing="-.01em">i</tspan><tspan x="744.76" y="0" letter-spacing="0em">n</tspan><tspan x="762.62" y="0">g </tspan><tspan x="788.12" y="0" letter-spacing="0em">w</tspan><tspan x="813.28" y="0" letter-spacing="-.01em">i</tspan><tspan x="820.58" y="0" letter-spacing="0em">l</tspan><tspan x="829.14" y="0">l </tspan><tspan x="0" y="40.8" letter-spacing="0em">b</tspan><tspan x="17.61" y="40.8">e </tspan><tspan x="42.5" y="40.8" letter-spacing="0em">d</tspan><tspan x="60.05" y="40.8" letter-spacing="0em">o</tspan><tspan x="77.19" y="40.8" letter-spacing="0em">n</tspan><tspan x="95.05" y="40.8">e </tspan><tspan x="119.94" y="40.8" letter-spacing="-.01em">i</tspan><tspan x="127.28" y="40.8">n </tspan><tspan x="153.08" y="40.8" letter-spacing=".01em">C</tspan><tspan x="171.88" y="40.8" letter-spacing="0em">a</tspan><tspan x="188.97" y="40.8" letter-spacing="0em">r</tspan><tspan x="200.54" y="40.8" letter-spacing="-.09em">e</tspan><tspan x="214.58" y="40.8" letter-spacing="-.09em">T</tspan><tspan x="229.79" y="40.8" letter-spacing="0em">e</tspan><tspan x="246.7" y="40.8" letter-spacing="0em">n</tspan><tspan x="264.56" y="40.8" letter-spacing="-.01em">d</tspan><tspan x="281.97" y="40.8">.</tspan></text>
  </g>
</svg>