<?xml version="1.0" encoding="UTF-8"?>
<svg xmlns="http://www.w3.org/2000/svg" viewBox="0 0 1116 844.26">
  <g id="bg">
    <rect y="-.05" width="1114.94" height="844.31" fill="#fff"/>
  </g>
  <g id="_09" data-name="09">
    <g>
      <rect x="84.16" y="75.6" width="932.07" height="112.63" rx="56.31" ry="56.31" fill="#fff" stroke="#000" stroke-miterlimit="10" stroke-width="3"/>
      <path d="M140.48,75.6c-30.97,0-56.31,25.34-56.31,56.31h0c0,30.97,25.34,56.32,56.31,56.32h126.08v-112.63h-126.08Z" fill="#ffe783" stroke="#000" stroke-miterlimit="10" stroke-width="3"/>
      <g>
        <path d="M125.95,113.46c.99,0,1.57.58,1.57,1.57v13.08c0,.99.58,1.57,1.57,1.57h5.02c1.05,0,1.57-.58,1.57-1.57v-13.08c0-.99.58-1.57,1.57-1.57h5.86c1.05,0,1.57.52,1.57,1.57v33.49c0,.99-.52,1.57-1.57,1.57h-5.86c-.99,0-1.57-.58-1.57-1.57v-8.27c0-1.05-.52-1.57-1.57-1.57h-5.02c-.99,0-1.57.52-1.57,1.57v8.27c0,.99-.52,1.57-1.57,1.57h-5.86c-.99,0-1.57-.58-1.57-1.57v-33.49c0-1.05.52-1.57,1.57-1.57h5.86Z"/>
        <path d="M174.96,138.32c0,3.45-.73,12.72-13.14,12.72s-13.14-9.26-13.14-12.72v-13.08c0-3.45.73-12.72,13.14-12.72s13.14,9.26,13.14,12.72v13.08ZM165.95,128.01c0-4.03-.26-6.49-4.13-6.49s-4.13,2.46-4.13,6.49v7.54c0,4.03.26,6.49,4.13,6.49s4.13-2.46,4.13-6.49v-7.54Z"/>
        <path d="M177.17,115.19c-.21-1.1.31-1.73,1.41-1.73h6.23c.94,0,1.62.47,1.73,1.36l2.98,21.82c.11.52.52.52.63,0l3.51-21.82c.16-.89.78-1.36,1.73-1.36h4.5c.94,0,1.57.47,1.73,1.36l3.51,21.82c.11.52.52.52.63,0l2.98-21.82c.1-.89.78-1.36,1.73-1.36h6.23c1.1,0,1.62.63,1.41,1.73l-6.44,33.55c-.16.89-.78,1.36-1.73,1.36h-7.38c-.94,0-1.52-.47-1.73-1.36l-2.88-12.87c-.11-.52-.52-.52-.63,0l-2.88,12.87c-.21.89-.78,1.36-1.73,1.36h-7.38c-.94,0-1.57-.47-1.73-1.36l-6.44-33.55Z"/>
        <path d="M230.56,138.42c-1.05,0-1.67-.63-1.47-1.73,1.26-7.12,6.49-6.39,7.59-11.72.31-1.57-.52-3.46-2.56-3.46-2.46,0-3.66,1.36-4.03,3.51-.16,1.05-.68,1.52-1.73,1.31l-5.97-1.31c-.94-.21-1.41-.78-1.36-1.73.31-3.77,2.3-10.78,13.08-10.78,11.72,0,12.14,9.26,12.09,10.83,0,8.69-6.07,9.42-7.95,13.76-.37.89-.84,1.31-1.78,1.31h-5.91ZM230.4,141.09c-.99,0-1.57.52-1.57,1.57v5.86c0,.99.58,1.57,1.57,1.57h5.86c1.05,0,1.57-.58,1.57-1.57v-5.86c0-1.05-.52-1.57-1.57-1.57h-5.86Z"/>
      </g>
      <g>
        <path d="M324.43,119.78c0,1.05-.75,1.31-1.49,1.31s-1.49-.26-1.49-1.31v-23.7c0-1.05.78-1.31,1.49-1.31.75,0,1.49.26,1.49,1.31v10.06c0,.26.07.34.34.34h11.51c.22,0,.34-.07.34-.34v-10.06c0-1.05.79-1.31,1.5-1.31s1.49.26,1.49,1.31v23.7c0,1.05-.78,1.31-1.49,1.31s-1.5-.26-1.5-1.31v-10.21c0-.26-.11-.34-.34-.34h-11.51c-.26,0-.34.07-.34.34v10.21Z"/>
        <path d="M352.58,102.47c6.28,0,7.44,4,7.44,9.31s-1.16,9.31-7.44,9.31-7.44-4-7.44-9.31,1.16-9.31,7.44-9.31ZM352.58,118.47c4.26,0,4.6-2.77,4.6-6.69s-.34-6.69-4.6-6.69-4.6,2.77-4.6,6.69.34,6.69,4.6,6.69Z"/>
        <path d="M381.18,115.96c.11.37.15.78.41.78.22,0,.26-.41.37-.78l4.07-12.67c.19-.6.67-.82,1.08-.82.75,0,1.61.45,1.61,1.23,0,.11-.04.26-.07.41l-5.35,15.81c-.22.67-.75,1.16-1.72,1.16s-1.46-.49-1.68-1.2l-3.89-12.3c-.11-.34-.11-.93-.37-.93s-.26.6-.37.93l-3.63,11.92c-.41,1.31-1.2,1.57-1.94,1.57s-1.53-.26-1.94-1.57l-5.12-15.4c-.04-.15-.07-.3-.07-.41,0-.78.86-1.23,1.61-1.23.41,0,.9.22,1.08.82l4.07,12.82c.11.37.15.79.41.79s.26-.41.37-.79l3.59-12.07c.37-1.31,1.2-1.57,1.94-1.57s1.57.26,1.94,1.57l3.59,11.92Z"/>
        <path d="M413.07,104.9c0,.71-.78,1.53-1.46,1.53-.34,0-.64-.22-.93-.45-1.16-.82-2.28-.9-3.25-.9-4.26,0-4.6,2.77-4.6,6.69s.34,6.69,4.64,6.69c.9,0,2.39-.26,3.4-.75.52-.26.86-.56,1.2-.56.71,0,1.38.75,1.38,1.5,0,.19-.04.67-.64,1.01-1.72,1.01-3.18,1.42-5.38,1.42-6.28,0-7.44-4-7.44-9.31s1.16-9.31,7.29-9.31c1.83,0,3.93.26,5.5,1.76.26.26.3.49.3.67Z"/>
        <path d="M427.43,118.91c-.11,0-.22.15-.37.26-1.23,1.01-2.84,1.91-5.53,1.91-4.34,0-5.68-2.69-5.68-5.08,0-4.56,3.78-5.68,7.4-5.68h3.63c.26,0,.34-.11.34-.34v-1.08c0-2.58-1.27-3.81-4.11-3.81-2.28,0-3.21.56-4.37,1.42-.19.15-.37.19-.52.19-.71,0-1.38-.79-1.38-1.46,0-.41.22-.75.6-1.08,1.68-1.35,3.81-1.68,5.76-1.68,5.79,0,6.95,2.99,6.95,7.44v7.59c0,.67.19,1.01.82,1.01h.34c.64,0,.97.52.97,1.23,0,.97-.41,1.35-1.94,1.35-1.42,0-2.28-.64-2.69-1.94-.07-.19-.11-.22-.19-.22ZM427.35,113.12c0-.22-.11-.34-.34-.34h-3.51c-2.54,0-4.82.37-4.82,2.8,0,1.91,1.23,3.07,3.33,3.07,3.7,0,5.35-2.36,5.35-4.6v-.93Z"/>
        <path d="M438.64,109.98v9.87c0,.9-.71,1.23-1.38,1.23-.71,0-1.38-.34-1.38-1.23v-16.15c0-.9.67-1.23,1.38-1.23s1.42.34,1.42,1.16v.37c0,.11.07.19.19.19.07,0,.23-.15.3-.19,1.38-1.16,2.95-1.53,4.6-1.53,5.01,0,6.5,3.21,6.5,7.74v9.64c0,.9-.67,1.23-1.35,1.23-.71,0-1.42-.34-1.42-1.23v-8.45c0-3.63-.15-6.32-4.45-6.32-3.14,0-4.41,1.72-4.41,4.9Z"/>
        <path d="M465.63,98.47c-1.12,0-1.87-.78-1.87-1.87s.75-1.83,1.87-1.83c1.05,0,1.83.75,1.83,1.83s-.79,1.87-1.83,1.87ZM467.02,119.85c0,.9-.71,1.23-1.38,1.23-.71,0-1.38-.34-1.38-1.23v-16.15c0-.9.67-1.23,1.38-1.23.67,0,1.38.34,1.38,1.23v16.15Z"/>
        <path d="M479.09,121.08c-3.55,0-5.12-2.02-5.12-5.38v-10.28c0-.19-.11-.26-.34-.26h-1.94c-.9,0-1.2-.6-1.2-1.27s.3-1.27,1.2-1.27h1.94c.22,0,.34-.07.34-.3v-4.26c0-.9.67-1.23,1.38-1.23.67,0,1.38.34,1.38,1.23v4.22c0,.26.07.34.34.34h2.35c.9,0,1.2.6,1.2,1.27s-.3,1.27-1.2,1.27h-2.35c-.26,0-.34.07-.34.34v10.47c0,1.57.9,2.5,2.65,2.5.78,0,1.23.56,1.23,1.27,0,.64-.37,1.35-1.53,1.35Z"/>
        <path d="M507.43,111.78c0,5.31-1.35,9.31-6.99,9.31-1.42,0-2.8-.34-4.15-1.38-.19-.15-.34-.34-.49-.34s-.22.04-.22.22v.45c0,.67-.71,1.05-1.38,1.05-.71,0-1.38-.34-1.38-1.23v-23.85c0-.9.67-1.23,1.38-1.23.67,0,1.38.34,1.38,1.23v8c0,.11.07.23.22.23.07,0,.26-.15.3-.19,1.35-1.2,3.06-1.57,4.34-1.57,5.64,0,6.99,4,6.99,9.31ZM499.99,105.08c-4.11,0-4.41,3.03-4.41,6.69,0,3.33.11,6.69,4.41,6.69s4.6-2.77,4.6-6.69-.34-6.69-4.6-6.69Z"/>
        <path d="M514.9,112.86c-.22,0-.26.11-.26.26.11,3.48.82,5.35,4.97,5.35,1.16,0,2.65-.37,3.66-.93,1.08-.64,1.27-.82,1.57-.82.86,0,1.35.82,1.35,1.57,0,.37-.19.71-.6.97-1.64,1.12-3.77,1.83-6.24,1.83-6.28,0-7.59-3.63-7.59-9.31,0-5.31,1.16-9.31,7.44-9.31s7.29,4.67,7.29,8.04c0,.97-.15,2.35-1.79,2.35h-9.79ZM519.2,104.94c-3.29,0-4.56,2.02-4.56,5.19,0,.19,0,.34.26.34h8.56c.15,0,.26-.04.26-.22,0-2.99-1.08-5.31-4.52-5.31Z"/>
        <path d="M554.23,119.85c0,.9-.67,1.23-1.35,1.23-.71,0-1.42-.34-1.42-1.23v-8.07c0-2.39-.15-4.26-.75-5.12-.93-1.35-2.35-1.57-3.74-1.57-1.53,0-2.84.52-3.63,1.64-.64.86-.75,2.58-.75,4.11v9.01c0,.9-.71,1.23-1.38,1.23-.71,0-1.38-.34-1.38-1.23v-16.15c0-.9.67-1.23,1.38-1.23.6,0,1.42.22,1.42.97v.56c0,.11.07.19.19.19.07,0,.3-.19.3-.19,1.38-1.16,2.95-1.53,4.37-1.53,1.79,0,3.66.45,5.01,1.98.15.15.34.3.52.3s.26-.11.41-.22c1.91-1.68,3.81-2.06,5.61-2.06,5.42,0,6.8,3.36,6.8,7.7v9.68c0,.9-.71,1.23-1.38,1.23-.71,0-1.38-.34-1.38-1.23v-8.07c0-2.8-.19-4.26-.78-5.16-.82-1.27-2.17-1.53-3.7-1.53-1.16,0-2.62.26-3.51,1.42-.67.82-.9,2.39-.9,4.37l.04,8.97Z"/>
        <path d="M578.16,102.47c6.28,0,7.44,4,7.44,9.31s-1.16,9.31-7.44,9.31-7.44-4-7.44-9.31,1.16-9.31,7.44-9.31ZM578.16,118.47c4.26,0,4.6-2.77,4.6-6.69s-.34-6.69-4.6-6.69-4.6,2.77-4.6,6.69.34,6.69,4.6,6.69Z"/>
        <path d="M598.94,105.38c-.64,0-.56-.04-1.46-.04-2.84,0-4.07,1.53-4.07,5.65v8.86c0,.9-.67,1.23-1.38,1.23-.75,0-1.38-.34-1.38-1.23v-16.15c0-.9.67-1.23,1.38-1.23.78,0,1.42.34,1.42,1.23v.3c0,.07.04.15.15.15.07,0,.19-.11.3-.22,1.31-1.08,2.77-1.46,4-1.46,1.46,0,2.28.22,2.28,1.53,0,.94-.45,1.38-1.23,1.38Z"/>
        <path d="M604.93,112.86c-.22,0-.26.11-.26.26.11,3.48.82,5.35,4.97,5.35,1.16,0,2.65-.37,3.66-.93,1.08-.64,1.27-.82,1.57-.82.86,0,1.35.82,1.35,1.57,0,.37-.19.71-.6.97-1.64,1.12-3.77,1.83-6.24,1.83-6.28,0-7.59-3.63-7.59-9.31,0-5.31,1.16-9.31,7.44-9.31s7.29,4.67,7.29,8.04c0,.97-.15,2.35-1.79,2.35h-9.79ZM609.23,104.94c-3.29,0-4.56,2.02-4.56,5.19,0,.19,0,.34.26.34h8.56c.15,0,.26-.04.26-.22,0-2.99-1.08-5.31-4.52-5.31Z"/>
        <path d="M635.69,118.47c2.21,0,3.7-.93,3.7-2.62,0-1.27-.97-1.94-2.77-2.5l-2.73-.86c-2.95-.93-4.75-2.32-4.75-5.01,0-3.1,2.69-5.01,6.54-5.01,2.28,0,3.77.67,4.6,1.16.52.3.86.64.86,1.12,0,.64-.64,1.46-1.23,1.46-.34,0-.52-.11-.78-.22-.56-.34-2.02-.9-3.44-.9-2.21,0-3.7.82-3.7,2.28,0,1.31,1.05,1.94,2.77,2.5l2.69.86c3.1.97,4.78,2.39,4.78,5.12,0,3.21-2.69,5.23-6.54,5.23-2.99,0-4.9-1.05-6.17-2.28-.26-.3-.56-.56-.56-1.01,0-.67.64-1.42,1.42-1.42.26,0,.45.04.94.45.93.82,1.98,1.64,4.37,1.64Z"/>
        <path d="M652.93,121.08c-3.55,0-5.12-2.02-5.12-5.38v-10.28c0-.19-.11-.26-.34-.26h-1.94c-.9,0-1.2-.6-1.2-1.27s.3-1.27,1.2-1.27h1.94c.22,0,.34-.07.34-.3v-4.26c0-.9.67-1.23,1.38-1.23.67,0,1.38.34,1.38,1.23v4.22c0,.26.07.34.34.34h2.35c.9,0,1.2.6,1.2,1.27s-.3,1.27-1.2,1.27h-2.35c-.26,0-.34.07-.34.34v10.47c0,1.57.9,2.5,2.65,2.5.78,0,1.23.56,1.23,1.27,0,.64-.37,1.35-1.53,1.35Z"/>
        <path d="M666.53,105.38c-.64,0-.56-.04-1.46-.04-2.84,0-4.07,1.53-4.07,5.65v8.86c0,.9-.67,1.23-1.38,1.23-.75,0-1.38-.34-1.38-1.23v-16.15c0-.9.67-1.23,1.38-1.23.78,0,1.42.34,1.42,1.23v.3c0,.07.04.15.15.15.07,0,.19-.11.3-.22,1.31-1.08,2.77-1.46,4-1.46,1.46,0,2.28.22,2.28,1.53,0,.94-.45,1.38-1.23,1.38Z"/>
        <path d="M672.52,112.86c-.22,0-.26.11-.26.26.11,3.48.82,5.35,4.97,5.35,1.16,0,2.65-.37,3.66-.93,1.08-.64,1.27-.82,1.57-.82.86,0,1.35.82,1.35,1.57,0,.37-.19.71-.6.97-1.64,1.12-3.77,1.83-6.24,1.83-6.28,0-7.59-3.63-7.59-9.31,0-5.31,1.16-9.31,7.44-9.31s7.29,4.67,7.29,8.04c0,.97-.15,2.35-1.79,2.35h-9.79ZM676.82,104.94c-3.29,0-4.56,2.02-4.56,5.19,0,.19,0,.34.26.34h8.56c.15,0,.26-.04.26-.22,0-2.99-1.08-5.31-4.52-5.31Z"/>
        <path d="M699.32,118.91c-.11,0-.22.15-.37.26-1.23,1.01-2.84,1.91-5.53,1.91-4.34,0-5.68-2.69-5.68-5.08,0-4.56,3.78-5.68,7.4-5.68h3.63c.26,0,.34-.11.34-.34v-1.08c0-2.58-1.27-3.81-4.11-3.81-2.28,0-3.21.56-4.37,1.42-.19.15-.37.19-.52.19-.71,0-1.38-.79-1.38-1.46,0-.41.22-.75.6-1.08,1.68-1.35,3.81-1.68,5.76-1.68,5.79,0,6.95,2.99,6.95,7.44v7.59c0,.67.19,1.01.82,1.01h.34c.64,0,.97.52.97,1.23,0,.97-.41,1.35-1.94,1.35-1.42,0-2.28-.64-2.69-1.94-.07-.19-.11-.22-.19-.22ZM699.25,113.12c0-.22-.11-.34-.34-.34h-3.51c-2.54,0-4.82.37-4.82,2.8,0,1.91,1.23,3.07,3.33,3.07,3.7,0,5.35-2.36,5.35-4.6v-.93Z"/>
        <path d="M722.16,119.85c0,.9-.67,1.23-1.35,1.23-.71,0-1.42-.34-1.42-1.23v-8.07c0-2.39-.15-4.26-.75-5.12-.93-1.35-2.35-1.57-3.74-1.57-1.53,0-2.84.52-3.63,1.64-.64.86-.75,2.58-.75,4.11v9.01c0,.9-.71,1.23-1.38,1.23-.71,0-1.38-.34-1.38-1.23v-16.15c0-.9.67-1.23,1.38-1.23.6,0,1.42.22,1.42.97v.56c0,.11.07.19.19.19.07,0,.3-.19.3-.19,1.38-1.16,2.95-1.53,4.37-1.53,1.79,0,3.66.45,5.01,1.98.15.15.34.3.52.3s.26-.11.41-.22c1.91-1.68,3.81-2.06,5.61-2.06,5.42,0,6.8,3.36,6.8,7.7v9.68c0,.9-.71,1.23-1.38,1.23-.71,0-1.38-.34-1.38-1.23v-8.07c0-2.8-.19-4.26-.78-5.16-.82-1.27-2.17-1.53-3.7-1.53-1.16,0-2.62.26-3.51,1.42-.67.82-.9,2.39-.9,4.37l.04,8.97Z"/>
        <path d="M739.36,116.78v-20.78c0-.9.67-1.23,1.38-1.23.67,0,1.38.34,1.38,1.23v20.6c0,1.35.56,1.83,1.87,1.83.67,0,1.16.45,1.16,1.23s-.45,1.42-1.79,1.42c-2.62,0-4-1.38-4-4.3Z"/>
        <path d="M750.39,98.47c-1.12,0-1.87-.78-1.87-1.87s.75-1.83,1.87-1.83c1.05,0,1.83.75,1.83,1.83s-.79,1.87-1.83,1.87ZM751.77,119.85c0,.9-.71,1.23-1.38,1.23-.71,0-1.38-.34-1.38-1.23v-16.15c0-.9.67-1.23,1.38-1.23.67,0,1.38.34,1.38,1.23v16.15Z"/>
        <path d="M760.3,109.98v9.87c0,.9-.71,1.23-1.38,1.23-.71,0-1.38-.34-1.38-1.23v-16.15c0-.9.67-1.23,1.38-1.23s1.42.34,1.42,1.16v.37c0,.11.07.19.19.19.07,0,.23-.15.3-.19,1.38-1.16,2.95-1.53,4.6-1.53,5.01,0,6.5,3.21,6.5,7.74v9.64c0,.9-.67,1.23-1.35,1.23-.71,0-1.42-.34-1.42-1.23v-8.45c0-3.63-.15-6.32-4.45-6.32-3.14,0-4.41,1.72-4.41,4.9Z"/>
        <path d="M779.92,112.86c-.22,0-.26.11-.26.26.11,3.48.82,5.35,4.97,5.35,1.16,0,2.65-.37,3.66-.93,1.08-.64,1.27-.82,1.57-.82.86,0,1.35.82,1.35,1.57,0,.37-.19.71-.6.97-1.64,1.12-3.77,1.83-6.24,1.83-6.28,0-7.59-3.63-7.59-9.31,0-5.31,1.16-9.31,7.44-9.31s7.29,4.67,7.29,8.04c0,.97-.15,2.35-1.79,2.35h-9.79ZM784.22,104.94c-3.29,0-4.56,2.02-4.56,5.19,0,.19,0,.34.26.34h8.56c.15,0,.26-.04.26-.22,0-2.99-1.08-5.31-4.52-5.31Z"/>
        <path d="M795.74,111.78c0-5.31,1.35-9.31,6.92-9.31,1.42,0,3.03.37,4.41,1.57,0,0,.19.19.3.19s.19-.08.19-.26v-7.96c0-.9.71-1.23,1.42-1.23.67,0,1.35.34,1.35,1.23v23.85c0,.9-.67,1.23-1.35,1.23s-1.42-.22-1.42-1.08v-.45c0-.19-.07-.22-.19-.22-.07,0-.26.15-.34.22-1.42,1.2-2.95,1.53-4.37,1.53-5.57,0-6.92-4-6.92-9.31ZM798.58,111.78c0,3.93.34,6.69,4.56,6.69s4.41-2.92,4.41-6.69c0-3.4-.07-6.69-4.41-6.69s-4.56,2.77-4.56,6.69Z"/>
        <path d="M840.89,115.96c.11.37.15.78.41.78.22,0,.26-.41.37-.78l4.07-12.67c.19-.6.67-.82,1.08-.82.75,0,1.61.45,1.61,1.23,0,.11-.04.26-.07.41l-5.35,15.81c-.22.67-.75,1.16-1.72,1.16s-1.46-.49-1.68-1.2l-3.89-12.3c-.11-.34-.11-.93-.37-.93s-.26.6-.37.93l-3.63,11.92c-.41,1.31-1.2,1.57-1.94,1.57s-1.53-.26-1.94-1.57l-5.12-15.4c-.04-.15-.07-.3-.07-.41,0-.78.86-1.23,1.61-1.23.41,0,.9.22,1.08.82l4.07,12.82c.11.37.15.79.41.79s.26-.41.37-.79l3.59-12.07c.37-1.31,1.2-1.57,1.94-1.57s1.57.26,1.94,1.57l3.59,11.92Z"/>
        <path d="M854.77,103.93c0,.19.07.26.22.26.07,0,.23-.15.3-.19,1.38-1.16,2.95-1.53,4.6-1.53,5.01,0,6.5,3.21,6.5,7.74v9.64c0,.9-.67,1.23-1.35,1.23-.71,0-1.42-.34-1.42-1.23v-8.45c0-3.63-.15-6.32-4.45-6.32-3.14,0-4.41,1.68-4.41,4.97v9.79c0,.9-.71,1.23-1.38,1.23-.71,0-1.38-.34-1.38-1.23v-23.85c0-.9.67-1.23,1.38-1.23.67,0,1.38.34,1.38,1.23v7.92Z"/>
        <path d="M874.39,112.86c-.22,0-.26.11-.26.26.11,3.48.82,5.35,4.97,5.35,1.16,0,2.65-.37,3.66-.93,1.08-.64,1.27-.82,1.57-.82.86,0,1.35.82,1.35,1.57,0,.37-.19.71-.6.97-1.64,1.12-3.77,1.83-6.24,1.83-6.28,0-7.59-3.63-7.59-9.31,0-5.31,1.16-9.31,7.44-9.31s7.29,4.67,7.29,8.04c0,.97-.15,2.35-1.79,2.35h-9.79ZM878.69,104.94c-3.29,0-4.56,2.02-4.56,5.19,0,.19,0,.34.26.34h8.56c.15,0,.26-.04.26-.22,0-2.99-1.08-5.31-4.52-5.31Z"/>
        <path d="M893.68,109.98v9.87c0,.9-.71,1.23-1.38,1.23-.71,0-1.38-.34-1.38-1.23v-16.15c0-.9.67-1.23,1.38-1.23s1.42.34,1.42,1.16v.37c0,.11.07.19.19.19.07,0,.23-.15.3-.19,1.38-1.16,2.95-1.53,4.6-1.53,5.01,0,6.5,3.21,6.5,7.74v9.64c0,.9-.67,1.23-1.35,1.23-.71,0-1.42-.34-1.42-1.23v-8.45c0-3.63-.15-6.32-4.45-6.32-3.14,0-4.41,1.72-4.41,4.9Z"/>
        <path d="M920.67,98.47c-1.12,0-1.87-.78-1.87-1.87s.75-1.83,1.87-1.83c1.05,0,1.83.75,1.83,1.83s-.79,1.87-1.83,1.87ZM922.06,119.85c0,.9-.71,1.23-1.38,1.23-.71,0-1.38-.34-1.38-1.23v-16.15c0-.9.67-1.23,1.38-1.23.67,0,1.38.34,1.38,1.23v16.15Z"/>
        <path d="M934.13,121.08c-3.55,0-5.12-2.02-5.12-5.38v-10.28c0-.19-.11-.26-.34-.26h-1.94c-.9,0-1.2-.6-1.2-1.27s.3-1.27,1.2-1.27h1.94c.22,0,.34-.07.34-.3v-4.26c0-.9.67-1.23,1.38-1.23.67,0,1.38.34,1.38,1.23v4.22c0,.26.07.34.34.34h2.35c.9,0,1.2.6,1.2,1.27s-.3,1.27-1.2,1.27h-2.35c-.26,0-.34.07-.34.34v10.47c0,1.57.9,2.5,2.65,2.5.78,0,1.23.56,1.23,1.27,0,.64-.37,1.35-1.53,1.35Z"/>
        <path d="M422.87,150.25c-.64,0-.56-.04-1.46-.04-2.84,0-4.07,1.53-4.07,5.65v8.86c0,.9-.67,1.23-1.38,1.23-.75,0-1.38-.34-1.38-1.23v-16.15c0-.9.67-1.23,1.38-1.23.78,0,1.42.34,1.42,1.23v.3c0,.07.04.15.15.15.07,0,.19-.11.3-.22,1.31-1.08,2.77-1.46,4-1.46,1.46,0,2.28.22,2.28,1.53,0,.94-.45,1.38-1.23,1.38Z"/>
        <path d="M428.85,157.72c-.22,0-.26.11-.26.26.11,3.48.82,5.35,4.97,5.35,1.16,0,2.65-.37,3.66-.93,1.08-.64,1.27-.82,1.57-.82.86,0,1.35.82,1.35,1.57,0,.37-.19.71-.6.97-1.64,1.12-3.77,1.83-6.24,1.83-6.28,0-7.59-3.63-7.59-9.31,0-5.31,1.16-9.31,7.44-9.31s7.29,4.67,7.29,8.04c0,.97-.15,2.35-1.79,2.35h-9.79ZM433.15,149.8c-3.29,0-4.56,2.02-4.56,5.19,0,.19,0,.34.26.34h8.56c.15,0,.26-.04.26-.22,0-2.99-1.08-5.31-4.52-5.31Z"/>
        <path d="M455.65,163.78c-.11,0-.22.15-.37.26-1.23,1.01-2.84,1.91-5.53,1.91-4.34,0-5.68-2.69-5.68-5.08,0-4.56,3.78-5.68,7.4-5.68h3.63c.26,0,.34-.11.34-.34v-1.08c0-2.58-1.27-3.81-4.11-3.81-2.28,0-3.21.56-4.37,1.42-.19.15-.37.19-.52.19-.71,0-1.38-.79-1.38-1.46,0-.41.22-.75.6-1.08,1.68-1.35,3.81-1.68,5.76-1.68,5.79,0,6.95,2.99,6.95,7.44v7.59c0,.67.19,1.01.82,1.01h.34c.64,0,.97.52.97,1.23,0,.97-.41,1.35-1.94,1.35-1.42,0-2.28-.64-2.69-1.94-.07-.19-.11-.22-.19-.22ZM455.58,157.98c0-.22-.11-.34-.34-.34h-3.51c-2.54,0-4.82.37-4.82,2.8,0,1.91,1.23,3.07,3.33,3.07,3.7,0,5.35-2.36,5.35-4.6v-.93Z"/>
        <path d="M464.1,161.65v-20.78c0-.9.67-1.23,1.38-1.23.67,0,1.38.34,1.38,1.23v20.6c0,1.35.56,1.83,1.87,1.83.67,0,1.16.45,1.16,1.23s-.45,1.42-1.79,1.42c-2.62,0-4-1.38-4-4.3Z"/>
        <path d="M473.37,161.65v-20.78c0-.9.67-1.23,1.38-1.23.67,0,1.38.34,1.38,1.23v20.6c0,1.35.56,1.83,1.87,1.83.67,0,1.16.45,1.16,1.23s-.45,1.42-1.79,1.42c-2.62,0-4-1.38-4-4.3Z"/>
        <path d="M487.95,168.75c-1.08,2.77-2.95,4.9-5.53,4.9-.97,0-1.35-.56-1.35-1.38,0-.6.37-1.01,1.05-1.16,1.76-.37,2.5-.93,3.44-3.33l.86-2.13c.07-.22.15-.41.15-.64,0-.15-.04-.3-.11-.49l-5.91-15.44c-.07-.19-.11-.37-.11-.52,0-.75.86-1.23,1.61-1.23.41,0,.86.19,1.08.78l4.56,12.48c.11.34.11.71.37.71.22,0,.26-.45.37-.71l4.67-12.48c.22-.6.67-.78,1.08-.78.75,0,1.61.49,1.61,1.23,0,.15-.04.34-.11.52l-7.74,19.66Z"/>
        <path d="M507.06,156.64c0-5.31,1.35-9.31,6.92-9.31,1.42,0,3.03.37,4.41,1.57,0,0,.19.19.3.19s.19-.08.19-.26v-7.96c0-.9.71-1.23,1.42-1.23.67,0,1.35.34,1.35,1.23v23.85c0,.9-.67,1.23-1.35,1.23s-1.42-.22-1.42-1.08v-.45c0-.19-.07-.22-.19-.22-.07,0-.26.15-.34.22-1.42,1.2-2.95,1.53-4.37,1.53-5.57,0-6.92-4-6.92-9.31ZM509.9,156.64c0,3.93.34,6.69,4.56,6.69s4.41-2.92,4.41-6.69c0-3.4-.07-6.69-4.41-6.69s-4.56,2.77-4.56,6.69Z"/>
        <path d="M534.12,147.33c6.28,0,7.44,4,7.44,9.31s-1.16,9.31-7.44,9.31-7.44-4-7.44-9.31,1.16-9.31,7.44-9.31ZM534.12,163.33c4.26,0,4.6-2.77,4.6-6.69s-.34-6.69-4.6-6.69-4.6,2.77-4.6,6.69.34,6.69,4.6,6.69Z"/>
        <path d="M549.04,157.72c-.22,0-.26.11-.26.26.11,3.48.82,5.35,4.97,5.35,1.16,0,2.65-.37,3.66-.93,1.08-.64,1.27-.82,1.57-.82.86,0,1.35.82,1.35,1.57,0,.37-.19.71-.6.97-1.64,1.12-3.77,1.83-6.24,1.83-6.28,0-7.59-3.63-7.59-9.31,0-5.31,1.16-9.31,7.44-9.31s7.29,4.67,7.29,8.04c0,.97-.15,2.35-1.79,2.35h-9.79ZM553.34,149.8c-3.29,0-4.56,2.02-4.56,5.19,0,.19,0,.34.26.34h8.56c.15,0,.26-.04.26-.22,0-2.99-1.08-5.31-4.52-5.31Z"/>
        <path d="M571.39,163.33c2.21,0,3.7-.93,3.7-2.62,0-1.27-.97-1.94-2.77-2.5l-2.73-.86c-2.95-.93-4.75-2.32-4.75-5.01,0-3.1,2.69-5.01,6.54-5.01,2.28,0,3.77.67,4.6,1.16.52.3.86.64.86,1.12,0,.64-.64,1.46-1.23,1.46-.34,0-.52-.11-.78-.22-.56-.34-2.02-.9-3.44-.9-2.21,0-3.7.82-3.7,2.28,0,1.31,1.05,1.94,2.77,2.5l2.69.86c3.1.97,4.78,2.39,4.78,5.12,0,3.21-2.69,5.23-6.54,5.23-2.99,0-4.9-1.05-6.17-2.28-.26-.3-.56-.56-.56-1.01,0-.67.64-1.42,1.42-1.42.26,0,.45.04.94.45.93.82,1.98,1.64,4.37,1.64Z"/>
        <path d="M585.56,154.84v9.87c0,.9-.71,1.23-1.38,1.23-.71,0-1.38-.34-1.38-1.23v-16.15c0-.9.67-1.23,1.38-1.23s1.42.34,1.42,1.16v.37c0,.11.07.19.19.19.07,0,.23-.15.3-.19,1.38-1.16,2.95-1.53,4.6-1.53,5.01,0,6.5,3.21,6.5,7.74v9.64c0,.9-.67,1.23-1.35,1.23-.71,0-1.42-.34-1.42-1.23v-8.45c0-3.63-.15-6.32-4.45-6.32-3.14,0-4.41,1.72-4.41,4.9Z"/>
        <path d="M603.17,148.38c-.26.45-.67.56-1.01.56-.6,0-1.53-.49-1.53-1.2,0-.19.04-.45.19-.71l.82-1.38c.19-.3.22-.52.22-1.12v-3.66c0-.9.71-1.23,1.35-1.23.75,0,1.38.34,1.38,1.23v3.96c0,.86-.15,1.42-.49,1.98l-.93,1.57Z"/>
        <path d="M615.66,165.95c-3.55,0-5.12-2.02-5.12-5.38v-10.28c0-.19-.11-.26-.34-.26h-1.94c-.9,0-1.2-.6-1.2-1.27s.3-1.27,1.2-1.27h1.94c.22,0,.34-.07.34-.3v-4.26c0-.9.67-1.23,1.38-1.23.67,0,1.38.34,1.38,1.23v4.22c0,.26.07.34.34.34h2.35c.9,0,1.2.6,1.2,1.27s-.3,1.27-1.2,1.27h-2.35c-.26,0-.34.07-.34.34v10.47c0,1.57.9,2.5,2.65,2.5.78,0,1.23.56,1.23,1.27,0,.64-.37,1.35-1.53,1.35Z"/>
        <path d="M629.79,150.28c0-.19-.15-.26-.34-.26h-1.27c-.86,0-1.12-.64-1.12-1.27,0-.6.26-1.27,1.12-1.27h1.27c.22,0,.34-.07.34-.26v-3.18c0-2.92,1.57-4.26,4.34-4.26h1.23c.86,0,1.16.64,1.16,1.27s-.3,1.27-1.16,1.27h-1.05c-1.16,0-1.76.45-1.76,1.94v2.88c0,.26.11.34.34.34h2.47c.82,0,1.12.67,1.12,1.27,0,.64-.3,1.27-1.12,1.27h-2.47c-.22,0-.34.07-.34.34v14.35c0,.9-.71,1.23-1.38,1.23-.71,0-1.38-.34-1.38-1.23v-14.43Z"/>
        <path d="M642.2,157.72c-.22,0-.26.11-.26.26.11,3.48.82,5.35,4.97,5.35,1.16,0,2.65-.37,3.66-.93,1.08-.64,1.27-.82,1.57-.82.86,0,1.35.82,1.35,1.57,0,.37-.19.71-.6.97-1.64,1.12-3.77,1.83-6.24,1.83-6.28,0-7.59-3.63-7.59-9.31,0-5.31,1.16-9.31,7.44-9.31s7.29,4.67,7.29,8.04c0,.97-.15,2.35-1.79,2.35h-9.79ZM646.5,149.8c-3.29,0-4.56,2.02-4.56,5.19,0,.19,0,.34.26.34h8.56c.15,0,.26-.04.26-.22,0-2.99-1.08-5.31-4.52-5.31Z"/>
        <path d="M661.15,157.72c-.22,0-.26.11-.26.26.11,3.48.82,5.35,4.97,5.35,1.16,0,2.65-.37,3.66-.93,1.08-.64,1.27-.82,1.57-.82.86,0,1.35.82,1.35,1.57,0,.37-.19.71-.6.97-1.64,1.12-3.77,1.83-6.24,1.83-6.28,0-7.59-3.63-7.59-9.31,0-5.31,1.16-9.31,7.44-9.31s7.29,4.67,7.29,8.04c0,.97-.15,2.35-1.79,2.35h-9.79ZM665.45,149.8c-3.29,0-4.56,2.02-4.56,5.19,0,.19,0,.34.26.34h8.56c.15,0,.26-.04.26-.22,0-2.99-1.08-5.31-4.52-5.31Z"/>
        <path d="M677.68,161.65v-20.78c0-.9.67-1.23,1.38-1.23.67,0,1.38.34,1.38,1.23v20.6c0,1.35.56,1.83,1.87,1.83.67,0,1.16.45,1.16,1.23s-.45,1.42-1.79,1.42c-2.62,0-4-1.38-4-4.3Z"/>
        <path d="M702.05,165.95c-3.55,0-5.12-2.02-5.12-5.38v-10.28c0-.19-.11-.26-.34-.26h-1.94c-.9,0-1.2-.6-1.2-1.27s.3-1.27,1.2-1.27h1.94c.22,0,.34-.07.34-.3v-4.26c0-.9.67-1.23,1.38-1.23.67,0,1.38.34,1.38,1.23v4.22c0,.26.07.34.34.34h2.35c.9,0,1.2.6,1.2,1.27s-.3,1.27-1.2,1.27h-2.35c-.26,0-.34.07-.34.34v10.47c0,1.57.9,2.5,2.65,2.5.78,0,1.23.56,1.23,1.27,0,.64-.37,1.35-1.53,1.35Z"/>
        <path d="M710.12,148.79c0,.19.07.26.22.26.07,0,.23-.15.3-.19,1.38-1.16,2.95-1.53,4.6-1.53,5.01,0,6.5,3.21,6.5,7.74v9.64c0,.9-.67,1.23-1.35,1.23-.71,0-1.42-.34-1.42-1.23v-8.45c0-3.63-.15-6.32-4.45-6.32-3.14,0-4.41,1.68-4.41,4.97v9.79c0,.9-.71,1.23-1.38,1.23-.71,0-1.38-.34-1.38-1.23v-23.85c0-.9.67-1.23,1.38-1.23.67,0,1.38.34,1.38,1.23v7.92Z"/>
        <path d="M737.6,163.78c-.11,0-.22.15-.37.26-1.23,1.01-2.84,1.91-5.53,1.91-4.34,0-5.68-2.69-5.68-5.08,0-4.56,3.78-5.68,7.4-5.68h3.63c.26,0,.34-.11.34-.34v-1.08c0-2.58-1.27-3.81-4.11-3.81-2.28,0-3.21.56-4.37,1.42-.19.15-.37.19-.52.19-.71,0-1.38-.79-1.38-1.46,0-.41.22-.75.6-1.08,1.68-1.35,3.81-1.68,5.76-1.68,5.79,0,6.95,2.99,6.95,7.44v7.59c0,.67.19,1.01.82,1.01h.34c.64,0,.97.52.97,1.23,0,.97-.41,1.35-1.94,1.35-1.42,0-2.28-.64-2.69-1.94-.07-.19-.11-.22-.19-.22ZM737.53,157.98c0-.22-.11-.34-.34-.34h-3.51c-2.54,0-4.82.37-4.82,2.8,0,1.91,1.23,3.07,3.33,3.07,3.7,0,5.35-2.36,5.35-4.6v-.93Z"/>
        <path d="M751.62,165.95c-3.55,0-5.12-2.02-5.12-5.38v-10.28c0-.19-.11-.26-.34-.26h-1.94c-.9,0-1.2-.6-1.2-1.27s.3-1.27,1.2-1.27h1.94c.22,0,.34-.07.34-.3v-4.26c0-.9.67-1.23,1.38-1.23.67,0,1.38.34,1.38,1.23v4.22c0,.26.07.34.34.34h2.35c.9,0,1.2.6,1.2,1.27s-.3,1.27-1.2,1.27h-2.35c-.26,0-.34.07-.34.34v10.47c0,1.57.9,2.5,2.65,2.5.78,0,1.23.56,1.23,1.27,0,.64-.37,1.35-1.53,1.35Z"/>
        <path d="M781.75,160.82c.11.37.15.78.41.78.22,0,.26-.41.37-.78l4.07-12.67c.19-.6.67-.82,1.08-.82.75,0,1.61.45,1.61,1.23,0,.11-.04.26-.07.41l-5.35,15.81c-.22.67-.75,1.16-1.72,1.16s-1.46-.49-1.68-1.2l-3.89-12.3c-.11-.34-.11-.93-.37-.93s-.26.6-.37.93l-3.63,11.92c-.41,1.31-1.2,1.57-1.94,1.57s-1.53-.26-1.94-1.57l-5.12-15.4c-.04-.15-.07-.3-.07-.41,0-.78.86-1.23,1.61-1.23.41,0,.9.22,1.08.82l4.07,12.82c.11.37.15.79.41.79s.26-.41.37-.79l3.59-12.07c.37-1.31,1.2-1.57,1.94-1.57s1.57.26,1.94,1.57l3.59,11.92Z"/>
        <path d="M802.95,163.78c-.11,0-.22.15-.37.26-1.23,1.01-2.84,1.91-5.53,1.91-4.34,0-5.68-2.69-5.68-5.08,0-4.56,3.78-5.68,7.4-5.68h3.63c.26,0,.34-.11.34-.34v-1.08c0-2.58-1.27-3.81-4.11-3.81-2.28,0-3.21.56-4.37,1.42-.19.15-.37.19-.52.19-.71,0-1.38-.79-1.38-1.46,0-.41.22-.75.6-1.08,1.68-1.35,3.81-1.68,5.76-1.68,5.79,0,6.95,2.99,6.95,7.44v7.59c0,.67.19,1.01.82,1.01h.34c.64,0,.97.52.97,1.23,0,.97-.41,1.35-1.94,1.35-1.42,0-2.28-.64-2.69-1.94-.07-.19-.11-.22-.19-.22ZM802.87,157.98c0-.22-.11-.34-.34-.34h-3.51c-2.54,0-4.82.37-4.82,2.8,0,1.91,1.23,3.07,3.33,3.07,3.7,0,5.35-2.36,5.35-4.6v-.93Z"/>
        <path d="M816.33,168.75c-1.08,2.77-2.95,4.9-5.53,4.9-.97,0-1.35-.56-1.35-1.38,0-.6.37-1.01,1.05-1.16,1.76-.37,2.5-.93,3.44-3.33l.86-2.13c.07-.22.15-.41.15-.64,0-.15-.04-.3-.11-.49l-5.91-15.44c-.07-.19-.11-.37-.11-.52,0-.75.86-1.23,1.61-1.23.41,0,.86.19,1.08.78l4.56,12.48c.11.34.11.71.37.71.22,0,.26-.45.37-.71l4.67-12.48c.22-.6.67-.78,1.08-.78.75,0,1.61.49,1.61,1.23,0,.15-.04.34-.11.52l-7.74,19.66Z"/>
        <path d="M833.57,139.63c4.52,0,7.51,2.99,7.51,7.14,0,3.06-2.09,5.35-4.26,6.62-1.46.86-1.49,2.06-1.49,3.51,0,.9-.71,1.2-1.42,1.2-.75,0-1.46-.3-1.46-1.2,0-2.13.26-4.34,2.73-5.76,1.68-.97,2.95-2.21,2.95-4.41s-1.5-4.22-4.56-4.22c-1.68,0-2.95.93-4.49,2.24-.22.19-.64.37-.97.37-.64,0-1.46-.71-1.46-1.49,0-.56.49-1.08.97-1.57,1.53-1.5,3.59-2.43,5.94-2.43ZM833.87,165.95c-1.12,0-1.91-.82-1.91-1.91s.78-1.91,1.91-1.91,1.91.82,1.91,1.91-.82,1.91-1.91,1.91Z"/>
      </g>
    </g>
  </g>
</svg>