<?xml version="1.0" encoding="UTF-8"?>
<svg xmlns="http://www.w3.org/2000/svg" viewBox="0 0 1116 844.26">
  <g id="bg">
    <rect y="-.05" width="1114.94" height="844.31" fill="#fff"/>
  </g>
  <g id="_03" data-name="03">
    <g>
      <rect x="85.31" y="75.74" width="932.07" height="112.63" rx="56.31" ry="56.31" fill="none" stroke="#000" stroke-miterlimit="10" stroke-width="3"/>
      <path d="M141.63,75.74c-30.97,0-56.31,25.34-56.31,56.31h0c0,30.97,25.34,56.32,56.31,56.32h126.08v-112.63h-126.08Z" fill="#8ef" stroke="#000" stroke-miterlimit="10" stroke-width="3"/>
      <text transform="translate(116.42 150.23)" font-family="Cubano-Regular, Cubano" font-size="52.34"><tspan x="0" y="0" letter-spacing="0em">W</tspan><tspan x="42.29" y="0" letter-spacing="0em">h</tspan><tspan x="73.47" y="0" letter-spacing="-.04em">y</tspan><tspan x="102.98" y="0">?</tspan></text>
      <text transform="translate(312.8 121.07)" font-family="DINosaur-Book, DINosaur" font-size="37.39"><tspan x="0" y="0">Why a</tspan><tspan x="98.06" y="0" letter-spacing="-.02em">r</tspan><tspan x="109.91" y="0">e </tspan><tspan x="137.28" y="0" letter-spacing="0em">y</tspan><tspan x="153.69" y="0">ou doing this </tspan><tspan x="362.37" y="0" letter-spacing="-.01em">t</tspan><tspan x="373.62" y="0" letter-spacing="0em">o us? E</tspan><tspan x="486.59" y="0" letter-spacing="0em">v</tspan><tspan x="503.19" y="0">erything </tspan><tspan x="2.77" y="44.86" letter-spacing="0em">w</tspan><tspan x="30.1" y="44.86">as </tspan><tspan x="74.47" y="44.86" letter-spacing="0em">w</tspan><tspan x="101.69" y="44.86">orking fine be</tspan><tspan x="314.22" y="44.86" letter-spacing="-.01em">f</tspan><tspan x="324.61" y="44.86">o</tspan><tspan x="343.83" y="44.86" letter-spacing="-.02em">r</tspan><tspan x="355.68" y="44.86" letter-spacing="0em">e!</tspan><tspan x="383.68" y="44.86" letter-spacing="-.02em"> </tspan><tspan x="391.34" y="44.86">Who hurt </tspan><tspan x="545.89" y="44.86" letter-spacing="0em">y</tspan><tspan x="562.3" y="44.86">ou?!</tspan></text>
    </g>
  </g>
</svg>