<?xml version="1.0" encoding="UTF-8"?>
<svg xmlns="http://www.w3.org/2000/svg" viewBox="0 0 1116 844.26">
  <g id="bg">
    <rect y="-.05" width="1114.94" height="844.31" fill="#fff"/>
  </g>
  <g id="_01" data-name="01">
    <g>
      <rect x="85.31" y="75.74" width="932.07" height="112.63" rx="56.31" ry="56.31" fill="none" stroke="#000" stroke-miterlimit="10" stroke-width="4"/>
      <path d="M141.63,75.74c-30.97,0-56.31,25.34-56.31,56.31h0c0,30.97,25.34,56.32,56.31,56.32h126.08v-112.63h-126.08Z" fill="#ff6969" stroke="#000" stroke-miterlimit="10" stroke-width="4"/>
      <g>
        <path d="M117.05,115.32c-.21-1.1.31-1.73,1.41-1.73h6.23c.94,0,1.62.47,1.73,1.36l2.98,21.83c.11.52.52.52.63,0l3.51-21.83c.16-.89.78-1.36,1.73-1.36h4.5c.94,0,1.57.47,1.73,1.36l3.51,21.83c.11.52.52.52.63,0l2.98-21.83c.1-.89.78-1.36,1.73-1.36h6.23c1.1,0,1.62.63,1.41,1.73l-6.44,33.55c-.16.89-.78,1.36-1.73,1.36h-7.38c-.94,0-1.52-.47-1.73-1.36l-2.88-12.87c-.1-.52-.52-.52-.63,0l-2.88,12.87c-.21.89-.78,1.36-1.73,1.36h-7.38c-.94,0-1.57-.47-1.73-1.36l-6.44-33.55Z"/>
        <path d="M169,113.6c.99,0,1.57.58,1.57,1.57v13.08c0,.99.58,1.57,1.57,1.57h5.02c1.05,0,1.57-.58,1.57-1.57v-13.08c0-.99.58-1.57,1.57-1.57h5.86c1.05,0,1.57.52,1.57,1.57v33.5c0,.99-.52,1.57-1.57,1.57h-5.86c-.99,0-1.57-.58-1.57-1.57v-8.27c0-1.05-.52-1.57-1.57-1.57h-5.02c-.99,0-1.57.52-1.57,1.57v8.27c0,.99-.52,1.57-1.57,1.57h-5.86c-.99,0-1.57-.58-1.57-1.57v-33.5c0-1.05.52-1.57,1.57-1.57h5.86Z"/>
        <path d="M218.36,138.46c0,3.45-.73,12.72-13.14,12.72s-13.14-9.26-13.14-12.72v-13.08c0-3.45.73-12.72,13.14-12.72s13.14,9.26,13.14,12.72v13.08ZM209.36,128.15c0-4.03-.26-6.49-4.13-6.49s-4.13,2.46-4.13,6.49v7.54c0,4.03.26,6.49,4.13,6.49s4.13-2.46,4.13-6.49v-7.54Z"/>
        <path d="M232.44,138.56c-1.05,0-1.68-.63-1.47-1.73,1.26-7.12,6.49-6.39,7.59-11.72.31-1.57-.52-3.46-2.56-3.46-2.46,0-3.66,1.36-4.03,3.51-.16,1.05-.68,1.52-1.73,1.31l-5.97-1.31c-.94-.21-1.41-.78-1.36-1.73.31-3.77,2.3-10.78,13.08-10.78,11.72,0,12.14,9.26,12.09,10.83,0,8.69-6.07,9.42-7.96,13.77-.37.89-.84,1.31-1.78,1.31h-5.91ZM232.29,141.23c-.99,0-1.57.52-1.57,1.57v5.86c0,.99.58,1.57,1.57,1.57h5.86c1.05,0,1.57-.58,1.57-1.57v-5.86c0-1.05-.52-1.57-1.57-1.57h-5.86Z"/>
      </g>
      <g>
        <path d="M348.99,97.81c-.93,0-1.27-.67-1.27-1.35,0-.71.34-1.42,1.27-1.42h15.7c.93,0,1.27.71,1.27,1.42,0,.67-.34,1.35-1.27,1.35h-6.02c-.22,0-.34.07-.34.34v21.76c0,1.05-.78,1.31-1.5,1.31-.75,0-1.5-.26-1.5-1.31v-21.76c0-.26-.07-.34-.34-.34h-6.02Z"/>
        <path d="M372.54,104.06c0,.19.07.26.22.26.07,0,.22-.15.3-.19,1.38-1.16,2.95-1.53,4.6-1.53,5.01,0,6.51,3.22,6.51,7.74v9.65c0,.9-.67,1.23-1.35,1.23-.71,0-1.42-.34-1.42-1.23v-8.45c0-3.63-.15-6.32-4.45-6.32-3.14,0-4.41,1.68-4.41,4.97v9.8c0,.9-.71,1.23-1.38,1.23-.71,0-1.38-.34-1.38-1.23v-23.86c0-.9.67-1.23,1.38-1.23.67,0,1.38.34,1.38,1.23v7.93Z"/>
        <path d="M391.12,98.6c-1.12,0-1.87-.79-1.87-1.87s.75-1.83,1.87-1.83c1.05,0,1.83.75,1.83,1.83s-.78,1.87-1.83,1.87ZM392.5,119.99c0,.9-.71,1.23-1.38,1.23-.71,0-1.38-.34-1.38-1.23v-16.16c0-.9.67-1.23,1.38-1.23.67,0,1.38.34,1.38,1.23v16.16Z"/>
        <path d="M404.09,118.61c2.21,0,3.7-.93,3.7-2.62,0-1.27-.97-1.94-2.77-2.51l-2.73-.86c-2.95-.93-4.75-2.32-4.75-5.01,0-3.1,2.69-5.01,6.54-5.01,2.28,0,3.78.67,4.6,1.16.52.3.86.64.86,1.12,0,.64-.64,1.46-1.23,1.46-.34,0-.52-.11-.78-.22-.56-.34-2.02-.9-3.44-.9-2.21,0-3.7.82-3.7,2.28,0,1.31,1.05,1.94,2.77,2.5l2.69.86c3.11.97,4.79,2.39,4.79,5.12,0,3.22-2.69,5.24-6.54,5.24-2.99,0-4.9-1.05-6.17-2.28-.26-.3-.56-.56-.56-1.01,0-.67.64-1.42,1.42-1.42.26,0,.45.04.93.45.93.82,1.98,1.65,4.38,1.65Z"/>
        <path d="M429.74,118.61c2.21,0,3.7-.93,3.7-2.62,0-1.27-.97-1.94-2.77-2.51l-2.73-.86c-2.95-.93-4.75-2.32-4.75-5.01,0-3.1,2.69-5.01,6.54-5.01,2.28,0,3.78.67,4.6,1.16.52.3.86.64.86,1.12,0,.64-.64,1.46-1.23,1.46-.34,0-.52-.11-.78-.22-.56-.34-2.02-.9-3.44-.9-2.21,0-3.7.82-3.7,2.28,0,1.31,1.05,1.94,2.77,2.5l2.69.86c3.1.97,4.79,2.39,4.79,5.12,0,3.22-2.69,5.24-6.54,5.24-2.99,0-4.9-1.05-6.17-2.28-.26-.3-.56-.56-.56-1.01,0-.67.64-1.42,1.42-1.42.26,0,.45.04.93.45.94.82,1.98,1.65,4.38,1.65Z"/>
        <path d="M446.97,121.22c-3.55,0-5.12-2.02-5.12-5.39v-10.28c0-.19-.11-.26-.34-.26h-1.95c-.9,0-1.2-.6-1.2-1.27s.3-1.27,1.2-1.27h1.95c.22,0,.34-.07.34-.3v-4.26c0-.9.67-1.23,1.38-1.23.67,0,1.38.34,1.38,1.23v4.23c0,.26.07.34.34.34h2.36c.9,0,1.2.6,1.2,1.27s-.3,1.27-1.2,1.27h-2.36c-.26,0-.34.07-.34.34v10.47c0,1.57.9,2.51,2.65,2.51.78,0,1.23.56,1.23,1.27,0,.64-.37,1.35-1.53,1.35Z"/>
        <path d="M463.69,113.71v-9.87c0-.9.71-1.23,1.42-1.23.67,0,1.35.34,1.35,1.23v16.16c0,.9-.67,1.23-1.35,1.23-.64,0-1.42-.26-1.42-1.23v-.22c0-.15-.07-.26-.19-.26s-.26.15-.3.19c-1.38,1.16-2.99,1.53-4.6,1.53-5.08,0-6.51-3.22-6.51-7.78v-9.61c0-.9.71-1.23,1.38-1.23.71,0,1.38.34,1.38,1.23v8.6c0,3.63.19,6.17,4.41,6.17,3.18,0,4.41-1.68,4.41-4.9Z"/>
        <path d="M472.62,105.56c0-.19-.15-.26-.34-.26h-1.27c-.86,0-1.12-.64-1.12-1.27,0-.6.26-1.27,1.12-1.27h1.27c.22,0,.34-.07.34-.26v-3.18c0-2.92,1.57-4.26,4.34-4.26h1.23c.86,0,1.16.64,1.16,1.27s-.3,1.27-1.16,1.27h-1.05c-1.16,0-1.76.45-1.76,1.94v2.88c0,.26.11.34.34.34h2.47c.82,0,1.12.67,1.12,1.27,0,.64-.3,1.27-1.12,1.27h-2.47c-.22,0-.34.07-.34.34v14.36c0,.9-.71,1.23-1.38,1.23-.71,0-1.38-.34-1.38-1.23v-14.43Z"/>
        <path d="M483.38,105.56c0-.19-.15-.26-.34-.26h-1.27c-.86,0-1.12-.64-1.12-1.27,0-.6.26-1.27,1.12-1.27h1.27c.22,0,.34-.07.34-.26v-3.18c0-2.92,1.57-4.26,4.34-4.26h1.23c.86,0,1.16.64,1.16,1.27s-.3,1.27-1.16,1.27h-1.05c-1.16,0-1.76.45-1.76,1.94v2.88c0,.26.11.34.34.34h2.47c.82,0,1.12.67,1.12,1.27,0,.64-.3,1.27-1.12,1.27h-2.47c-.22,0-.34.07-.34.34v14.36c0,.9-.71,1.23-1.38,1.23-.71,0-1.38-.34-1.38-1.23v-14.43Z"/>
        <path d="M501.44,111.91c0-5.31,1.35-9.31,6.92-9.31,1.42,0,3.03.37,4.41,1.57,0,0,.19.19.3.19s.19-.07.19-.26v-7.96c0-.9.71-1.23,1.42-1.23.67,0,1.35.34,1.35,1.23v23.86c0,.9-.67,1.23-1.35,1.23s-1.42-.22-1.42-1.08v-.45c0-.19-.07-.22-.19-.22-.07,0-.26.15-.34.22-1.42,1.2-2.95,1.53-4.38,1.53-5.57,0-6.92-4-6.92-9.31ZM504.28,111.91c0,3.93.34,6.69,4.56,6.69s4.41-2.92,4.41-6.69c0-3.4-.07-6.69-4.41-6.69s-4.56,2.77-4.56,6.69Z"/>
        <path d="M528.51,102.6c6.28,0,7.44,4,7.44,9.31s-1.16,9.31-7.44,9.31-7.44-4-7.44-9.31,1.16-9.31,7.44-9.31ZM528.51,118.61c4.26,0,4.6-2.77,4.6-6.69s-.34-6.69-4.6-6.69-4.6,2.77-4.6,6.69.34,6.69,4.6,6.69Z"/>
        <path d="M543.42,113c-.22,0-.26.11-.26.26.11,3.48.82,5.35,4.97,5.35,1.16,0,2.65-.37,3.67-.93,1.08-.64,1.27-.82,1.57-.82.86,0,1.35.82,1.35,1.57,0,.37-.19.71-.6.97-1.64,1.12-3.78,1.83-6.24,1.83-6.28,0-7.59-3.63-7.59-9.31,0-5.31,1.16-9.31,7.44-9.31s7.29,4.67,7.29,8.04c0,.97-.15,2.35-1.79,2.35h-9.8ZM547.73,105.07c-3.29,0-4.56,2.02-4.56,5.2,0,.19,0,.34.26.34h8.56c.15,0,.26-.04.26-.22,0-2.99-1.08-5.31-4.52-5.31Z"/>
        <path d="M565.78,118.61c2.21,0,3.7-.93,3.7-2.62,0-1.27-.97-1.94-2.77-2.51l-2.73-.86c-2.96-.93-4.75-2.32-4.75-5.01,0-3.1,2.69-5.01,6.54-5.01,2.28,0,3.78.67,4.6,1.16.52.3.86.64.86,1.12,0,.64-.64,1.46-1.23,1.46-.34,0-.52-.11-.79-.22-.56-.34-2.02-.9-3.44-.9-2.21,0-3.7.82-3.7,2.28,0,1.31,1.05,1.94,2.77,2.5l2.69.86c3.1.97,4.79,2.39,4.79,5.12,0,3.22-2.69,5.24-6.54,5.24-2.99,0-4.9-1.05-6.17-2.28-.26-.3-.56-.56-.56-1.01,0-.67.64-1.42,1.42-1.42.26,0,.45.04.93.45.93.82,1.98,1.65,4.38,1.65Z"/>
        <path d="M579.95,110.12v9.87c0,.9-.71,1.23-1.38,1.23-.71,0-1.38-.34-1.38-1.23v-16.16c0-.9.67-1.23,1.38-1.23s1.42.34,1.42,1.16v.37c0,.11.07.19.19.19.07,0,.22-.15.3-.19,1.38-1.16,2.95-1.53,4.6-1.53,5.01,0,6.51,3.22,6.51,7.74v9.65c0,.9-.67,1.23-1.35,1.23-.71,0-1.42-.34-1.42-1.23v-8.45c0-3.63-.15-6.32-4.45-6.32-3.14,0-4.41,1.72-4.41,4.9Z"/>
        <path d="M597.56,103.65c-.26.45-.67.56-1.01.56-.6,0-1.53-.49-1.53-1.2,0-.19.04-.45.19-.71l.82-1.38c.19-.3.22-.52.22-1.12v-3.66c0-.9.71-1.23,1.35-1.23.75,0,1.38.34,1.38,1.23v3.96c0,.86-.15,1.42-.49,1.98l-.93,1.57Z"/>
        <path d="M610.04,121.22c-3.55,0-5.12-2.02-5.12-5.39v-10.28c0-.19-.11-.26-.34-.26h-1.94c-.9,0-1.2-.6-1.2-1.27s.3-1.27,1.2-1.27h1.94c.22,0,.34-.07.34-.3v-4.26c0-.9.67-1.23,1.38-1.23.67,0,1.38.34,1.38,1.23v4.23c0,.26.07.34.34.34h2.36c.9,0,1.2.6,1.2,1.27s-.3,1.27-1.2,1.27h-2.36c-.26,0-.34.07-.34.34v10.47c0,1.57.9,2.51,2.65,2.51.78,0,1.23.56,1.23,1.27,0,.64-.37,1.35-1.53,1.35Z"/>
        <path d="M634.04,119.06c-.11,0-.22.15-.37.26-1.23,1.01-2.84,1.91-5.53,1.91-4.34,0-5.68-2.69-5.68-5.09,0-4.56,3.78-5.68,7.4-5.68h3.63c.26,0,.34-.11.34-.34v-1.08c0-2.58-1.27-3.82-4.11-3.82-2.28,0-3.21.56-4.37,1.42-.19.15-.37.19-.52.19-.71,0-1.38-.78-1.38-1.46,0-.41.22-.75.6-1.08,1.68-1.35,3.81-1.68,5.76-1.68,5.8,0,6.95,2.99,6.95,7.44v7.59c0,.67.19,1.01.82,1.01h.34c.64,0,.97.52.97,1.23,0,.97-.41,1.35-1.94,1.35-1.42,0-2.28-.64-2.69-1.94-.07-.19-.11-.22-.19-.22ZM633.97,113.26c0-.22-.11-.34-.34-.34h-3.51c-2.54,0-4.82.37-4.82,2.8,0,1.91,1.23,3.07,3.33,3.07,3.7,0,5.35-2.35,5.35-4.6v-.93Z"/>
        <path d="M657.11,111.91c0,5.31-1.35,9.31-6.95,9.31-1.42,0-2.99-.34-4.38-1.53,0-.04-.19-.19-.3-.19-.15,0-.22.11-.22.26v7.93c0,.9-.71,1.23-1.38,1.23-.71,0-1.38-.34-1.38-1.23v-23.86c0-.9.67-1.23,1.38-1.23s1.38.34,1.38,1.23v.26c0,.15.07.22.22.22.07,0,.26-.11.34-.19,1.42-1.2,2.92-1.53,4.34-1.53,5.61,0,6.95,4,6.95,9.31ZM654.27,111.91c0-3.93-.34-6.69-4.6-6.69s-4.41,3.03-4.41,6.69c0,3.33.07,6.69,4.41,6.69s4.6-2.77,4.6-6.69Z"/>
        <path d="M676.77,111.91c0,5.31-1.35,9.31-6.95,9.31-1.42,0-2.99-.34-4.38-1.53,0-.04-.19-.19-.3-.19-.15,0-.22.11-.22.26v7.93c0,.9-.71,1.23-1.38,1.23-.71,0-1.38-.34-1.38-1.23v-23.86c0-.9.67-1.23,1.38-1.23s1.38.34,1.38,1.23v.26c0,.15.07.22.22.22.07,0,.26-.11.34-.19,1.42-1.2,2.92-1.53,4.34-1.53,5.61,0,6.95,4,6.95,9.31ZM673.93,111.91c0-3.93-.34-6.69-4.6-6.69s-4.41,3.03-4.41,6.69c0,3.33.07,6.69,4.41,6.69s4.6-2.77,4.6-6.69Z"/>
        <path d="M681.82,116.92v-20.79c0-.9.67-1.23,1.38-1.23.67,0,1.38.34,1.38,1.23v20.6c0,1.35.56,1.83,1.87,1.83.67,0,1.16.45,1.16,1.23,0,.82-.45,1.42-1.79,1.42-2.62,0-4-1.38-4-4.3Z"/>
        <path d="M696.4,124.03c-1.08,2.77-2.95,4.9-5.53,4.9-.97,0-1.35-.56-1.35-1.38,0-.6.37-1.01,1.05-1.16,1.76-.37,2.5-.94,3.44-3.33l.86-2.13c.07-.22.15-.41.15-.64,0-.15-.04-.3-.11-.49l-5.91-15.44c-.07-.19-.11-.37-.11-.52,0-.75.86-1.23,1.61-1.23.41,0,.86.19,1.08.79l4.56,12.49c.11.34.11.71.37.71.22,0,.26-.45.37-.71l4.67-12.49c.22-.6.67-.79,1.08-.79.75,0,1.61.49,1.61,1.23,0,.15-.04.34-.11.52l-7.74,19.67Z"/>
        <path d="M722.53,121.22c-3.55,0-5.12-2.02-5.12-5.39v-10.28c0-.19-.11-.26-.34-.26h-1.94c-.9,0-1.2-.6-1.2-1.27s.3-1.27,1.2-1.27h1.94c.22,0,.34-.07.34-.3v-4.26c0-.9.67-1.23,1.38-1.23.67,0,1.38.34,1.38,1.23v4.23c0,.26.07.34.34.34h2.36c.9,0,1.2.6,1.2,1.27s-.3,1.27-1.2,1.27h-2.36c-.26,0-.34.07-.34.34v10.47c0,1.57.9,2.51,2.65,2.51.78,0,1.23.56,1.23,1.27,0,.64-.37,1.35-1.53,1.35Z"/>
        <path d="M734.19,102.6c6.28,0,7.44,4,7.44,9.31s-1.16,9.31-7.44,9.31-7.44-4-7.44-9.31,1.16-9.31,7.44-9.31ZM734.19,118.61c4.26,0,4.6-2.77,4.6-6.69s-.34-6.69-4.6-6.69-4.6,2.77-4.6,6.69.34,6.69,4.6,6.69Z"/>
        <path d="M769.49,119.99c0,.9-.67,1.23-1.35,1.23-.71,0-1.42-.34-1.42-1.23v-8.08c0-2.39-.15-4.26-.75-5.12-.93-1.35-2.35-1.57-3.74-1.57-1.53,0-2.84.52-3.63,1.65-.64.86-.75,2.58-.75,4.11v9.01c0,.9-.71,1.23-1.38,1.23-.71,0-1.38-.34-1.38-1.23v-16.16c0-.9.67-1.23,1.38-1.23.6,0,1.42.22,1.42.97v.56c0,.11.07.19.19.19.07,0,.3-.19.3-.19,1.38-1.16,2.95-1.53,4.38-1.53,1.79,0,3.66.45,5.01,1.98.15.15.34.3.52.3s.26-.11.41-.22c1.91-1.68,3.81-2.06,5.61-2.06,5.42,0,6.81,3.37,6.81,7.7v9.69c0,.9-.71,1.23-1.38,1.23-.71,0-1.38-.34-1.38-1.23v-8.08c0-2.8-.19-4.26-.79-5.16-.82-1.27-2.17-1.53-3.7-1.53-1.16,0-2.62.26-3.51,1.42-.67.82-.9,2.39-.9,4.37l.04,8.98Z"/>
        <path d="M789.11,113c-.22,0-.26.11-.26.26.11,3.48.82,5.35,4.97,5.35,1.16,0,2.65-.37,3.66-.93,1.08-.64,1.27-.82,1.57-.82.86,0,1.35.82,1.35,1.57,0,.37-.19.71-.6.97-1.64,1.12-3.78,1.83-6.24,1.83-6.28,0-7.59-3.63-7.59-9.31,0-5.31,1.16-9.31,7.44-9.31s7.29,4.67,7.29,8.04c0,.97-.15,2.35-1.79,2.35h-9.8ZM793.41,105.07c-3.29,0-4.56,2.02-4.56,5.2,0,.19,0,.34.26.34h8.56c.15,0,.26-.04.26-.22,0-2.99-1.08-5.31-4.53-5.31Z"/>
        <path d="M806.12,125.41c-.15.45-.45.86-1.01.86-.67,0-1.57-.45-1.57-1.23,0-.11.04-.34.07-.41l2.24-6.69c.15-.45.49-.82,1.08-.82.64,0,1.53.34,1.53,1.12,0,.15-.07.41-.11.56l-2.24,6.62Z"/>
        <path d="M830.72,105.52c-.64,0-.56-.04-1.46-.04-2.84,0-4.08,1.53-4.08,5.65v8.86c0,.9-.67,1.23-1.38,1.23-.75,0-1.38-.34-1.38-1.23v-16.16c0-.9.67-1.23,1.38-1.23.78,0,1.42.34,1.42,1.23v.3c0,.07.04.15.15.15.07,0,.19-.11.3-.22,1.31-1.08,2.77-1.46,4-1.46,1.46,0,2.28.22,2.28,1.53,0,.93-.45,1.38-1.23,1.38Z"/>
        <path d="M836.59,98.6c-1.12,0-1.87-.79-1.87-1.87s.75-1.83,1.87-1.83c1.05,0,1.83.75,1.83,1.83s-.78,1.87-1.83,1.87ZM837.97,119.99c0,.9-.71,1.23-1.38,1.23-.71,0-1.38-.34-1.38-1.23v-16.16c0-.9.67-1.23,1.38-1.23.67,0,1.38.34,1.38,1.23v16.16Z"/>
        <path d="M843.02,111.91c0-5.31,1.35-9.31,6.92-9.31,1.42,0,3.03.37,4.41,1.57.04.04.19.19.3.19s.19-.07.19-.22v-.3c0-.9.56-1.23,1.42-1.23.67,0,1.35.34,1.35,1.23v18.47c0,4.86-4,6.99-8.04,6.99-2.39,0-3.93-.56-4.82-1.05-.45-.26-.64-.64-.64-1.01,0-.67.49-1.53,1.27-1.53.19,0,.41.07.67.19.86.41,1.91.78,3.52.78,2.88,0,5.27-1.53,5.27-4.22v-2.73c0-.15-.07-.26-.19-.26s-.26.15-.3.19c-1.35,1.23-2.99,1.57-4.41,1.57-5.57,0-6.92-4-6.92-9.31ZM845.86,111.91c0,3.93.34,6.69,4.56,6.69s4.41-2.84,4.41-6.69c0-3.33-.07-6.69-4.41-6.69s-4.56,2.77-4.56,6.69Z"/>
        <path d="M866.12,104.06c0,.19.07.26.22.26.07,0,.22-.15.3-.19,1.38-1.16,2.95-1.53,4.6-1.53,5.01,0,6.51,3.22,6.51,7.74v9.65c0,.9-.67,1.23-1.35,1.23-.71,0-1.42-.34-1.42-1.23v-8.45c0-3.63-.15-6.32-4.45-6.32-3.14,0-4.41,1.68-4.41,4.97v9.8c0,.9-.71,1.23-1.38,1.23-.71,0-1.38-.34-1.38-1.23v-23.86c0-.9.67-1.23,1.38-1.23.67,0,1.38.34,1.38,1.23v7.93Z"/>
        <path d="M889.64,121.22c-3.55,0-5.12-2.02-5.12-5.39v-10.28c0-.19-.11-.26-.34-.26h-1.94c-.9,0-1.2-.6-1.2-1.27s.3-1.27,1.2-1.27h1.94c.22,0,.34-.07.34-.3v-4.26c0-.9.67-1.23,1.38-1.23.67,0,1.38.34,1.38,1.23v4.23c0,.26.07.34.34.34h2.36c.9,0,1.2.6,1.2,1.27s-.3,1.27-1.2,1.27h-2.36c-.26,0-.34.07-.34.34v10.47c0,1.57.9,2.51,2.65,2.51.78,0,1.23.56,1.23,1.27,0,.64-.37,1.35-1.53,1.35Z"/>
        <path d="M900.78,94.9c4.52,0,7.52,2.99,7.52,7.14,0,3.07-2.09,5.35-4.26,6.62-1.46.86-1.5,2.06-1.5,3.51,0,.9-.71,1.2-1.42,1.2-.75,0-1.46-.3-1.46-1.2,0-2.13.26-4.34,2.73-5.76,1.68-.97,2.95-2.21,2.95-4.41s-1.5-4.23-4.56-4.23c-1.68,0-2.95.93-4.49,2.24-.22.19-.64.37-.97.37-.64,0-1.46-.71-1.46-1.5,0-.56.49-1.09.97-1.57,1.53-1.5,3.59-2.43,5.95-2.43ZM901.08,121.22c-1.12,0-1.91-.82-1.91-1.91s.78-1.91,1.91-1.91,1.91.82,1.91,1.91-.82,1.91-1.91,1.91Z"/>
        <path d="M349.53,155.8c-.26,0-.34.07-.34.34v8.64c0,1.05-.75,1.31-1.5,1.31s-1.5-.26-1.5-1.31v-23.67c0-.97.67-1.2,1.38-1.2h9.76c3.96,0,7.22,2.54,7.22,7.93s-3.25,7.96-7.22,7.96h-7.82ZM357.31,153.04c2.54,0,4.19-1.68,4.19-5.2s-1.64-5.16-4.19-5.16h-7.78c-.26,0-.34.07-.34.34v9.68c0,.26.07.34.34.34h7.78Z"/>
        <path d="M368.6,161.79v-20.79c0-.9.67-1.23,1.38-1.23.67,0,1.38.34,1.38,1.23v20.6c0,1.35.56,1.83,1.87,1.83.67,0,1.16.45,1.16,1.23,0,.82-.45,1.42-1.8,1.42-2.62,0-4-1.38-4-4.3Z"/>
        <path d="M380.22,157.86c-.22,0-.26.11-.26.26.11,3.48.82,5.35,4.97,5.35,1.16,0,2.65-.37,3.66-.93,1.08-.64,1.27-.82,1.57-.82.86,0,1.35.82,1.35,1.57,0,.37-.19.71-.6.97-1.64,1.12-3.78,1.83-6.24,1.83-6.28,0-7.59-3.63-7.59-9.31,0-5.31,1.16-9.31,7.44-9.31s7.29,4.67,7.29,8.04c0,.97-.15,2.35-1.8,2.35h-9.8ZM384.52,149.93c-3.29,0-4.56,2.02-4.56,5.2,0,.19,0,.34.26.34h8.56c.15,0,.26-.04.26-.22,0-2.99-1.08-5.31-4.53-5.31Z"/>
        <path d="M407.03,163.92c-.11,0-.22.15-.37.26-1.23,1.01-2.84,1.91-5.53,1.91-4.34,0-5.68-2.69-5.68-5.09,0-4.56,3.78-5.68,7.4-5.68h3.63c.26,0,.34-.11.34-.34v-1.08c0-2.58-1.27-3.82-4.11-3.82-2.28,0-3.22.56-4.38,1.42-.19.15-.37.19-.52.19-.71,0-1.38-.78-1.38-1.46,0-.41.22-.75.6-1.08,1.68-1.35,3.82-1.68,5.76-1.68,5.8,0,6.95,2.99,6.95,7.44v7.59c0,.67.19,1.01.82,1.01h.34c.64,0,.97.52.97,1.23,0,.97-.41,1.35-1.94,1.35-1.42,0-2.28-.64-2.69-1.94-.07-.19-.11-.22-.19-.22ZM406.95,158.12c0-.22-.11-.34-.34-.34h-3.52c-2.54,0-4.82.37-4.82,2.8,0,1.91,1.23,3.07,3.33,3.07,3.7,0,5.35-2.35,5.35-4.6v-.93Z"/>
        <path d="M421.31,163.47c2.21,0,3.7-.93,3.7-2.62,0-1.27-.97-1.94-2.77-2.51l-2.73-.86c-2.95-.93-4.75-2.32-4.75-5.01,0-3.1,2.69-5.01,6.54-5.01,2.28,0,3.78.67,4.6,1.16.52.3.86.64.86,1.12,0,.64-.64,1.46-1.23,1.46-.34,0-.52-.11-.78-.22-.56-.34-2.02-.9-3.44-.9-2.21,0-3.7.82-3.7,2.28,0,1.31,1.05,1.94,2.77,2.5l2.69.86c3.1.97,4.79,2.39,4.79,5.12,0,3.22-2.69,5.24-6.54,5.24-2.99,0-4.9-1.05-6.17-2.28-.26-.3-.56-.56-.56-1.01,0-.67.64-1.42,1.42-1.42.26,0,.45.04.93.45.94.82,1.98,1.65,4.38,1.65Z"/>
        <path d="M435.14,157.86c-.22,0-.26.11-.26.26.11,3.48.82,5.35,4.97,5.35,1.16,0,2.65-.37,3.66-.93,1.08-.64,1.27-.82,1.57-.82.86,0,1.35.82,1.35,1.57,0,.37-.19.71-.6.97-1.64,1.12-3.78,1.83-6.24,1.83-6.28,0-7.59-3.63-7.59-9.31,0-5.31,1.16-9.31,7.44-9.31s7.29,4.67,7.29,8.04c0,.97-.15,2.35-1.8,2.35h-9.8ZM439.44,149.93c-3.29,0-4.56,2.02-4.56,5.2,0,.19,0,.34.26.34h8.56c.15,0,.26-.04.26-.22,0-2.99-1.08-5.31-4.53-5.31Z"/>
        <path d="M466.4,166.09c-3.55,0-5.12-2.02-5.12-5.39v-10.28c0-.19-.11-.26-.34-.26h-1.94c-.9,0-1.2-.6-1.2-1.27s.3-1.27,1.2-1.27h1.94c.22,0,.34-.07.34-.3v-4.26c0-.9.67-1.23,1.38-1.23.67,0,1.38.34,1.38,1.23v4.23c0,.26.07.34.34.34h2.35c.9,0,1.2.6,1.2,1.27s-.3,1.27-1.2,1.27h-2.35c-.26,0-.34.07-.34.34v10.47c0,1.57.9,2.51,2.66,2.51.78,0,1.23.56,1.23,1.27,0,.64-.37,1.35-1.53,1.35Z"/>
        <path d="M473.76,157.86c-.22,0-.26.11-.26.26.11,3.48.82,5.35,4.97,5.35,1.16,0,2.65-.37,3.66-.93,1.08-.64,1.27-.82,1.57-.82.86,0,1.35.82,1.35,1.57,0,.37-.19.71-.6.97-1.64,1.12-3.78,1.83-6.24,1.83-6.28,0-7.59-3.63-7.59-9.31,0-5.31,1.16-9.31,7.44-9.31s7.29,4.67,7.29,8.04c0,.97-.15,2.35-1.8,2.35h-9.8ZM478.06,149.93c-3.29,0-4.56,2.02-4.56,5.2,0,.19,0,.34.26.34h8.56c.15,0,.26-.04.26-.22,0-2.99-1.08-5.31-4.53-5.31Z"/>
        <path d="M490.28,161.79v-20.79c0-.9.67-1.23,1.38-1.23.67,0,1.38.34,1.38,1.23v20.6c0,1.35.56,1.83,1.87,1.83.67,0,1.16.45,1.16,1.23,0,.82-.45,1.42-1.79,1.42-2.62,0-4-1.38-4-4.3Z"/>
        <path d="M499.56,161.79v-20.79c0-.9.67-1.23,1.38-1.23.67,0,1.38.34,1.38,1.23v20.6c0,1.35.56,1.83,1.87,1.83.67,0,1.16.45,1.16,1.23,0,.82-.45,1.42-1.8,1.42-2.62,0-4-1.38-4-4.3Z"/>
        <path d="M532.01,164.85c0,.9-.67,1.23-1.35,1.23-.71,0-1.42-.34-1.42-1.23v-8.08c0-2.39-.15-4.26-.75-5.12-.93-1.35-2.35-1.57-3.74-1.57-1.53,0-2.84.52-3.63,1.65-.64.86-.75,2.58-.75,4.11v9.01c0,.9-.71,1.23-1.38,1.23-.71,0-1.38-.34-1.38-1.23v-16.16c0-.9.67-1.23,1.38-1.23.6,0,1.42.22,1.42.97v.56c0,.11.07.19.19.19.07,0,.3-.19.3-.19,1.38-1.16,2.95-1.53,4.38-1.53,1.79,0,3.66.45,5.01,1.98.15.15.34.3.52.3s.26-.11.41-.22c1.91-1.68,3.81-2.06,5.61-2.06,5.42,0,6.81,3.37,6.81,7.7v9.69c0,.9-.71,1.23-1.38,1.23-.71,0-1.38-.34-1.38-1.23v-8.08c0-2.8-.19-4.26-.78-5.16-.82-1.27-2.17-1.53-3.7-1.53-1.16,0-2.62.26-3.52,1.42-.67.82-.9,2.39-.9,4.37l.04,8.98Z"/>
        <path d="M551.63,157.86c-.22,0-.26.11-.26.26.11,3.48.82,5.35,4.97,5.35,1.16,0,2.66-.37,3.67-.93,1.08-.64,1.27-.82,1.57-.82.86,0,1.35.82,1.35,1.57,0,.37-.19.71-.6.97-1.64,1.12-3.78,1.83-6.24,1.83-6.28,0-7.59-3.63-7.59-9.31,0-5.31,1.16-9.31,7.44-9.31s7.29,4.67,7.29,8.04c0,.97-.15,2.35-1.79,2.35h-9.8ZM555.93,149.93c-3.29,0-4.56,2.02-4.56,5.2,0,.19,0,.34.26.34h8.56c.15,0,.26-.04.26-.22,0-2.99-1.08-5.31-4.53-5.31Z"/>
        <path d="M577.95,143.46c-1.12,0-1.87-.79-1.87-1.87s.75-1.83,1.87-1.83c1.05,0,1.83.75,1.83,1.83s-.78,1.87-1.83,1.87ZM579.33,164.85c0,.9-.71,1.23-1.38,1.23-.71,0-1.38-.34-1.38-1.23v-16.16c0-.9.67-1.23,1.38-1.23.67,0,1.38.34,1.38,1.23v16.16Z"/>
        <path d="M591.41,166.09c-3.55,0-5.12-2.02-5.12-5.39v-10.28c0-.19-.11-.26-.34-.26h-1.94c-.9,0-1.2-.6-1.2-1.27s.3-1.27,1.2-1.27h1.94c.22,0,.34-.07.34-.3v-4.26c0-.9.67-1.23,1.38-1.23.67,0,1.38.34,1.38,1.23v4.23c0,.26.07.34.34.34h2.36c.9,0,1.2.6,1.2,1.27s-.3,1.27-1.2,1.27h-2.36c-.26,0-.34.07-.34.34v10.47c0,1.57.9,2.51,2.65,2.51.78,0,1.23.56,1.23,1.27,0,.64-.37,1.35-1.53,1.35Z"/>
        <path d="M604.42,156.77c0-5.31,1.35-9.31,6.92-9.31,1.42,0,3.03.37,4.41,1.57,0,0,.19.19.3.19s.19-.07.19-.26v-7.96c0-.9.71-1.23,1.42-1.23.67,0,1.35.34,1.35,1.23v23.86c0,.9-.67,1.23-1.35,1.23s-1.42-.22-1.42-1.08v-.45c0-.19-.07-.22-.19-.22-.07,0-.26.15-.34.22-1.42,1.2-2.95,1.53-4.37,1.53-5.57,0-6.92-4-6.92-9.31ZM607.26,156.77c0,3.93.34,6.69,4.56,6.69s4.41-2.92,4.41-6.69c0-3.4-.07-6.69-4.41-6.69s-4.56,2.77-4.56,6.69Z"/>
        <path d="M631.49,147.46c6.28,0,7.44,4,7.44,9.31s-1.16,9.31-7.44,9.31-7.44-4-7.44-9.31,1.16-9.31,7.44-9.31ZM631.49,163.47c4.26,0,4.6-2.77,4.6-6.69s-.34-6.69-4.6-6.69-4.6,2.77-4.6,6.69.34,6.69,4.6,6.69Z"/>
        <path d="M646.4,157.86c-.22,0-.26.11-.26.26.11,3.48.82,5.35,4.97,5.35,1.16,0,2.65-.37,3.66-.93,1.08-.64,1.27-.82,1.57-.82.86,0,1.35.82,1.35,1.57,0,.37-.19.71-.6.97-1.64,1.12-3.78,1.83-6.24,1.83-6.28,0-7.59-3.63-7.59-9.31,0-5.31,1.16-9.31,7.44-9.31s7.29,4.67,7.29,8.04c0,.97-.15,2.35-1.79,2.35h-9.8ZM650.7,149.93c-3.29,0-4.56,2.02-4.56,5.2,0,.19,0,.34.26.34h8.56c.15,0,.26-.04.26-.22,0-2.99-1.08-5.31-4.53-5.31Z"/>
        <path d="M668.76,163.47c2.21,0,3.7-.93,3.7-2.62,0-1.27-.97-1.94-2.77-2.51l-2.73-.86c-2.96-.93-4.75-2.32-4.75-5.01,0-3.1,2.69-5.01,6.54-5.01,2.28,0,3.78.67,4.6,1.16.52.3.86.64.86,1.12,0,.64-.64,1.46-1.23,1.46-.34,0-.52-.11-.79-.22-.56-.34-2.02-.9-3.44-.9-2.21,0-3.7.82-3.7,2.28,0,1.31,1.05,1.94,2.77,2.5l2.69.86c3.1.97,4.79,2.39,4.79,5.12,0,3.22-2.69,5.24-6.54,5.24-2.99,0-4.9-1.05-6.17-2.28-.26-.3-.56-.56-.56-1.01,0-.67.64-1.42,1.42-1.42.26,0,.45.04.93.45.93.82,1.98,1.65,4.38,1.65Z"/>
        <path d="M682.93,154.98v9.87c0,.9-.71,1.23-1.38,1.23-.71,0-1.38-.34-1.38-1.23v-16.16c0-.9.67-1.23,1.38-1.23s1.42.34,1.42,1.16v.37c0,.11.07.19.19.19.07,0,.22-.15.3-.19,1.38-1.16,2.95-1.53,4.6-1.53,5.01,0,6.51,3.22,6.51,7.74v9.65c0,.9-.67,1.23-1.35,1.23-.71,0-1.42-.34-1.42-1.23v-8.45c0-3.63-.15-6.32-4.45-6.32-3.14,0-4.41,1.72-4.41,4.9Z"/>
        <path d="M700.53,148.51c-.26.45-.67.56-1.01.56-.6,0-1.53-.49-1.53-1.2,0-.19.04-.45.19-.71l.82-1.38c.19-.3.22-.52.22-1.12v-3.66c0-.9.71-1.23,1.35-1.23.75,0,1.38.34,1.38,1.23v3.96c0,.86-.15,1.42-.49,1.98l-.93,1.57Z"/>
        <path d="M713.02,166.09c-3.55,0-5.12-2.02-5.12-5.39v-10.28c0-.19-.11-.26-.34-.26h-1.94c-.9,0-1.2-.6-1.2-1.27s.3-1.27,1.2-1.27h1.94c.22,0,.34-.07.34-.3v-4.26c0-.9.67-1.23,1.38-1.23.67,0,1.38.34,1.38,1.23v4.23c0,.26.07.34.34.34h2.36c.9,0,1.2.6,1.2,1.27s-.3,1.27-1.2,1.27h-2.36c-.26,0-.34.07-.34.34v10.47c0,1.57.9,2.51,2.65,2.51.78,0,1.23.56,1.23,1.27,0,.64-.37,1.35-1.53,1.35Z"/>
        <path d="M737.02,163.92c-.11,0-.22.15-.37.26-1.23,1.01-2.84,1.91-5.53,1.91-4.34,0-5.68-2.69-5.68-5.09,0-4.56,3.78-5.68,7.4-5.68h3.63c.26,0,.34-.11.34-.34v-1.08c0-2.58-1.27-3.82-4.11-3.82-2.28,0-3.21.56-4.37,1.42-.19.15-.37.19-.52.19-.71,0-1.38-.78-1.38-1.46,0-.41.22-.75.6-1.08,1.68-1.35,3.81-1.68,5.76-1.68,5.8,0,6.95,2.99,6.95,7.44v7.59c0,.67.19,1.01.82,1.01h.34c.64,0,.97.52.97,1.23,0,.97-.41,1.35-1.94,1.35-1.42,0-2.28-.64-2.69-1.94-.07-.19-.11-.22-.19-.22ZM736.95,158.12c0-.22-.11-.34-.34-.34h-3.51c-2.54,0-4.82.37-4.82,2.8,0,1.91,1.23,3.07,3.33,3.07,3.7,0,5.35-2.35,5.35-4.6v-.93Z"/>
        <path d="M760.09,156.77c0,5.31-1.35,9.31-6.95,9.31-1.42,0-2.99-.34-4.38-1.53,0-.04-.19-.19-.3-.19-.15,0-.22.11-.22.26v7.93c0,.9-.71,1.23-1.38,1.23-.71,0-1.38-.34-1.38-1.23v-23.86c0-.9.67-1.23,1.38-1.23s1.38.34,1.38,1.23v.26c0,.15.07.22.22.22.07,0,.26-.11.34-.19,1.42-1.2,2.92-1.53,4.34-1.53,5.61,0,6.95,4,6.95,9.31ZM757.25,156.77c0-3.93-.34-6.69-4.6-6.69s-4.41,3.03-4.41,6.69c0,3.33.07,6.69,4.41,6.69s4.6-2.77,4.6-6.69Z"/>
        <path d="M779.75,156.77c0,5.31-1.35,9.31-6.95,9.31-1.42,0-2.99-.34-4.38-1.53,0-.04-.19-.19-.3-.19-.15,0-.22.11-.22.26v7.93c0,.9-.71,1.23-1.38,1.23-.71,0-1.38-.34-1.38-1.23v-23.86c0-.9.67-1.23,1.38-1.23s1.38.34,1.38,1.23v.26c0,.15.07.22.22.22.07,0,.26-.11.34-.19,1.42-1.2,2.92-1.53,4.34-1.53,5.61,0,6.95,4,6.95,9.31ZM776.91,156.77c0-3.93-.34-6.69-4.6-6.69s-4.41,3.03-4.41,6.69c0,3.33.07,6.69,4.41,6.69s4.6-2.77,4.6-6.69Z"/>
        <path d="M784.8,161.79v-20.79c0-.9.67-1.23,1.38-1.23.67,0,1.38.34,1.38,1.23v20.6c0,1.35.56,1.83,1.87,1.83.67,0,1.16.45,1.16,1.23,0,.82-.45,1.42-1.79,1.42-2.62,0-4-1.38-4-4.3Z"/>
        <path d="M799.38,168.89c-1.08,2.77-2.95,4.9-5.53,4.9-.97,0-1.35-.56-1.35-1.38,0-.6.37-1.01,1.05-1.16,1.76-.37,2.5-.94,3.44-3.33l.86-2.13c.07-.22.15-.41.15-.64,0-.15-.04-.3-.11-.49l-5.91-15.44c-.07-.19-.11-.37-.11-.52,0-.75.86-1.23,1.61-1.23.41,0,.86.19,1.08.79l4.56,12.49c.11.34.11.71.37.71.22,0,.26-.45.37-.71l4.67-12.49c.22-.6.67-.79,1.08-.79.75,0,1.61.49,1.61,1.23,0,.15-.04.34-.11.52l-7.74,19.67Z"/>
        <path d="M825.51,166.09c-3.55,0-5.12-2.02-5.12-5.39v-10.28c0-.19-.11-.26-.34-.26h-1.94c-.9,0-1.2-.6-1.2-1.27s.3-1.27,1.2-1.27h1.94c.22,0,.34-.07.34-.3v-4.26c0-.9.67-1.23,1.38-1.23.67,0,1.38.34,1.38,1.23v4.23c0,.26.07.34.34.34h2.36c.9,0,1.2.6,1.2,1.27s-.3,1.27-1.2,1.27h-2.36c-.26,0-.34.07-.34.34v10.47c0,1.57.9,2.51,2.65,2.51.78,0,1.23.56,1.23,1.27,0,.64-.37,1.35-1.53,1.35Z"/>
        <path d="M837.17,147.46c6.28,0,7.44,4,7.44,9.31s-1.16,9.31-7.44,9.31-7.44-4-7.44-9.31,1.16-9.31,7.44-9.31ZM837.17,163.47c4.26,0,4.6-2.77,4.6-6.69s-.34-6.69-4.6-6.69-4.6,2.77-4.6,6.69.34,6.69,4.6,6.69Z"/>
        <path d="M872.47,164.85c0,.9-.67,1.23-1.35,1.23-.71,0-1.42-.34-1.42-1.23v-8.08c0-2.39-.15-4.26-.75-5.12-.93-1.35-2.35-1.57-3.74-1.57-1.53,0-2.84.52-3.63,1.65-.64.86-.75,2.58-.75,4.11v9.01c0,.9-.71,1.23-1.38,1.23-.71,0-1.38-.34-1.38-1.23v-16.16c0-.9.67-1.23,1.38-1.23.6,0,1.42.22,1.42.97v.56c0,.11.07.19.19.19.07,0,.3-.19.3-.19,1.38-1.16,2.95-1.53,4.38-1.53,1.79,0,3.66.45,5.01,1.98.15.15.34.3.52.3s.26-.11.41-.22c1.91-1.68,3.81-2.06,5.61-2.06,5.42,0,6.81,3.37,6.81,7.7v9.69c0,.9-.71,1.23-1.38,1.23-.71,0-1.38-.34-1.38-1.23v-8.08c0-2.8-.19-4.26-.79-5.16-.82-1.27-2.17-1.53-3.7-1.53-1.16,0-2.62.26-3.51,1.42-.67.82-.9,2.39-.9,4.37l.04,8.98Z"/>
        <path d="M892.09,157.86c-.22,0-.26.11-.26.26.11,3.48.82,5.35,4.97,5.35,1.16,0,2.65-.37,3.66-.93,1.08-.64,1.27-.82,1.57-.82.86,0,1.35.82,1.35,1.57,0,.37-.19.71-.6.97-1.64,1.12-3.78,1.83-6.24,1.83-6.28,0-7.59-3.63-7.59-9.31,0-5.31,1.16-9.31,7.44-9.31s7.29,4.67,7.29,8.04c0,.97-.15,2.35-1.79,2.35h-9.8ZM896.39,149.93c-3.29,0-4.56,2.02-4.56,5.2,0,.19,0,.34.26.34h8.56c.15,0,.26-.04.26-.22,0-2.99-1.08-5.31-4.53-5.31Z"/>
        <path d="M909.92,162.2c1.12,0,1.94.82,1.94,1.95s-.82,1.94-1.94,1.94-1.94-.82-1.94-1.94.82-1.95,1.94-1.95Z"/>
      </g>
    </g>
  </g>
</svg>