<?xml version="1.0" encoding="UTF-8"?>
<svg xmlns="http://www.w3.org/2000/svg" viewBox="0 0 1116 844.26">
  <g id="bg">
    <rect y="-.05" width="1114.94" height="844.31" fill="#fff"/>
  </g>
  <g id="_03" data-name="03">
    <g>
      <rect x="85.31" y="75.74" width="932.07" height="112.63" rx="56.31" ry="56.31" fill="#fff" stroke="#000" stroke-miterlimit="10" stroke-width="3"/>
      <path d="M141.63,75.74c-30.97,0-56.31,25.34-56.31,56.31h0c0,30.97,25.34,56.32,56.31,56.32h126.08v-112.63h-126.08Z" fill="#8ef" stroke="#000" stroke-miterlimit="10" stroke-width="3"/>
      <g>
        <path d="M117.16,115.32c-.21-1.1.31-1.73,1.41-1.73h6.23c.94,0,1.62.47,1.73,1.36l2.98,21.82c.11.52.52.52.63,0l3.51-21.82c.16-.89.79-1.36,1.73-1.36h4.5c.94,0,1.57.47,1.73,1.36l3.51,21.82c.11.52.52.52.63,0l2.98-21.82c.11-.89.79-1.36,1.73-1.36h6.23c1.1,0,1.62.63,1.41,1.73l-6.44,33.55c-.16.89-.79,1.36-1.73,1.36h-7.38c-.94,0-1.52-.47-1.73-1.36l-2.88-12.88c-.1-.52-.52-.52-.63,0l-2.88,12.88c-.21.89-.79,1.36-1.73,1.36h-7.38c-.94,0-1.57-.47-1.73-1.36l-6.44-33.55Z"/>
        <path d="M168.76,113.6c.99,0,1.57.58,1.57,1.57v13.08c0,.99.58,1.57,1.57,1.57h5.02c1.05,0,1.57-.58,1.57-1.57v-13.08c0-.99.58-1.57,1.57-1.57h5.86c1.05,0,1.57.52,1.57,1.57v33.5c0,.99-.52,1.57-1.57,1.57h-5.86c-.99,0-1.57-.58-1.57-1.57v-8.27c0-1.05-.52-1.57-1.57-1.57h-5.02c-1,0-1.57.52-1.57,1.57v8.27c0,.99-.52,1.57-1.57,1.57h-5.86c-.99,0-1.57-.58-1.57-1.57v-33.5c0-1.05.52-1.57,1.57-1.57h5.86Z"/>
        <path d="M199.63,113.6c.89,0,1.47.37,1.78,1.2l3.87,9.73c.21.47.52.47.73,0l3.87-9.73c.31-.84.89-1.2,1.78-1.2h7.48c1.2,0,1.73.73,1.2,1.83l-9.37,20.94c-.1.21-.1.42-.1.63v11.67c0,.99-.52,1.57-1.57,1.57h-7.33c-.99,0-1.57-.58-1.57-1.57v-11.67c0-.21,0-.42-.1-.63l-9.42-20.94c-.52-1.1,0-1.83,1.2-1.83h7.54Z"/>
        <path d="M232.33,138.56c-1.05,0-1.67-.63-1.47-1.73,1.26-7.12,6.49-6.38,7.59-11.72.31-1.57-.52-3.45-2.56-3.45-2.46,0-3.66,1.36-4.03,3.51-.16,1.05-.68,1.52-1.73,1.31l-5.97-1.31c-.94-.21-1.41-.79-1.36-1.73.31-3.77,2.3-10.78,13.08-10.78,11.72,0,12.14,9.26,12.09,10.83,0,8.69-6.07,9.42-7.96,13.76-.37.89-.84,1.31-1.78,1.31h-5.91ZM232.18,141.23c-.99,0-1.57.52-1.57,1.57v5.86c0,.99.58,1.57,1.57,1.57h5.86c1.05,0,1.57-.58,1.57-1.57v-5.86c0-1.05-.52-1.57-1.57-1.57h-5.86Z"/>
      </g>
      <g>
        <path d="M332.05,96.62l5.23,19.22c.11.34.15.97.37.97.19,0,.22-.56.34-.97l5.27-20c.19-.71.64-.93,1.12-.93.82,0,1.76.41,1.76,1.27,0,.11-.04.26-.08.41l-6.24,22.92c-.37,1.42-1.31,1.72-2.13,1.72s-1.72-.3-2.13-1.72l-5.35-19.66c-.08-.26-.11-.6-.3-.6s-.22.34-.3.6l-5.35,19.66c-.41,1.42-1.31,1.72-2.13,1.72s-1.76-.3-2.13-1.72l-6.24-22.92c-.04-.15-.07-.3-.07-.41,0-.86.93-1.27,1.76-1.27.49,0,.93.22,1.12.93l5.27,20c.11.41.15.97.34.97.22,0,.26-.64.37-.97l5.23-19.22c.37-1.42,1.31-1.72,2.13-1.72s1.76.3,2.13,1.72Z"/>
        <path d="M352.69,104.06c0,.19.08.26.22.26.08,0,.22-.15.3-.19,1.38-1.16,2.95-1.53,4.6-1.53,5.01,0,6.5,3.21,6.5,7.74v9.65c0,.9-.67,1.23-1.35,1.23-.71,0-1.42-.34-1.42-1.23v-8.45c0-3.63-.15-6.32-4.45-6.32-3.14,0-4.41,1.68-4.41,4.97v9.79c0,.9-.71,1.23-1.38,1.23-.71,0-1.38-.34-1.38-1.23v-23.85c0-.9.67-1.23,1.38-1.23.67,0,1.38.34,1.38,1.23v7.93Z"/>
        <path d="M375.19,124.03c-1.08,2.77-2.95,4.9-5.53,4.9-.97,0-1.35-.56-1.35-1.38,0-.6.37-1.01,1.05-1.16,1.76-.37,2.5-.93,3.44-3.33l.86-2.13c.08-.22.15-.41.15-.64,0-.15-.04-.3-.11-.49l-5.91-15.44c-.08-.19-.11-.37-.11-.52,0-.75.86-1.23,1.61-1.23.41,0,.86.19,1.08.79l4.56,12.49c.11.34.11.71.37.71.22,0,.26-.45.37-.71l4.67-12.49c.22-.6.67-.79,1.08-.79.75,0,1.61.49,1.61,1.23,0,.15-.04.34-.11.52l-7.74,19.66Z"/>
        <path d="M405.29,119.06c-.11,0-.22.15-.37.26-1.23,1.01-2.84,1.91-5.53,1.91-4.34,0-5.68-2.69-5.68-5.08,0-4.56,3.78-5.68,7.4-5.68h3.63c.26,0,.34-.11.34-.34v-1.08c0-2.58-1.27-3.81-4.11-3.81-2.28,0-3.21.56-4.37,1.42-.19.15-.37.19-.52.19-.71,0-1.38-.79-1.38-1.46,0-.41.22-.75.6-1.08,1.68-1.35,3.81-1.68,5.76-1.68,5.79,0,6.95,2.99,6.95,7.44v7.59c0,.67.19,1.01.82,1.01h.34c.64,0,.97.52.97,1.23,0,.97-.41,1.35-1.94,1.35-1.42,0-2.28-.64-2.69-1.94-.07-.19-.11-.22-.19-.22ZM405.21,113.26c0-.22-.11-.34-.34-.34h-3.51c-2.54,0-4.82.37-4.82,2.8,0,1.91,1.23,3.07,3.33,3.07,3.7,0,5.35-2.36,5.35-4.6v-.93Z"/>
        <path d="M422.03,105.52c-.64,0-.56-.04-1.46-.04-2.84,0-4.08,1.53-4.08,5.64v8.86c0,.9-.67,1.23-1.38,1.23-.75,0-1.38-.34-1.38-1.23v-16.15c0-.9.67-1.23,1.38-1.23.79,0,1.42.34,1.42,1.23v.3c0,.07.04.15.15.15.07,0,.19-.11.3-.22,1.31-1.08,2.77-1.46,4-1.46,1.46,0,2.28.22,2.28,1.53,0,.93-.45,1.38-1.23,1.38Z"/>
        <path d="M428.02,113c-.22,0-.26.11-.26.26.11,3.48.82,5.35,4.97,5.35,1.16,0,2.65-.37,3.66-.93,1.08-.63,1.27-.82,1.57-.82.86,0,1.35.82,1.35,1.57,0,.37-.19.71-.6.97-1.64,1.12-3.78,1.83-6.24,1.83-6.28,0-7.59-3.63-7.59-9.31,0-5.31,1.16-9.31,7.44-9.31s7.29,4.67,7.29,8.04c0,.97-.15,2.35-1.79,2.35h-9.79ZM432.31,105.07c-3.29,0-4.56,2.02-4.56,5.2,0,.19,0,.34.26.34h8.56c.15,0,.26-.04.26-.22,0-2.99-1.08-5.31-4.52-5.31Z"/>
        <path d="M458.26,124.03c-1.08,2.77-2.95,4.9-5.53,4.9-.97,0-1.35-.56-1.35-1.38,0-.6.37-1.01,1.05-1.16,1.76-.37,2.5-.93,3.44-3.33l.86-2.13c.08-.22.15-.41.15-.64,0-.15-.04-.3-.11-.49l-5.91-15.44c-.08-.19-.11-.37-.11-.52,0-.75.86-1.23,1.61-1.23.41,0,.86.19,1.08.79l4.56,12.49c.11.34.11.71.37.71.22,0,.26-.45.37-.71l4.67-12.49c.22-.6.67-.79,1.08-.79.75,0,1.61.49,1.61,1.23,0,.15-.04.34-.11.52l-7.74,19.66Z"/>
        <path d="M476.09,102.61c6.28,0,7.44,4,7.44,9.31s-1.16,9.31-7.44,9.31-7.44-4-7.44-9.31,1.16-9.31,7.44-9.31ZM476.09,118.61c4.26,0,4.6-2.77,4.6-6.69s-.34-6.69-4.6-6.69-4.6,2.77-4.6,6.69.34,6.69,4.6,6.69Z"/>
        <path d="M499.98,113.71v-9.87c0-.9.71-1.23,1.42-1.23.67,0,1.35.34,1.35,1.23v16.15c0,.9-.67,1.23-1.35,1.23-.64,0-1.42-.26-1.42-1.23v-.22c0-.15-.07-.26-.19-.26s-.26.15-.3.19c-1.38,1.16-2.99,1.53-4.6,1.53-5.08,0-6.5-3.21-6.5-7.78v-9.61c0-.9.71-1.23,1.38-1.23.71,0,1.38.34,1.38,1.23v8.6c0,3.63.19,6.17,4.41,6.17,3.18,0,4.41-1.68,4.41-4.9Z"/>
        <path d="M516.21,111.91c0-5.31,1.35-9.31,6.92-9.31,1.42,0,3.03.37,4.41,1.57,0,0,.19.19.3.19s.19-.07.19-.26v-7.96c0-.9.71-1.23,1.42-1.23.67,0,1.35.34,1.35,1.23v23.85c0,.9-.67,1.23-1.35,1.23s-1.42-.22-1.42-1.08v-.45c0-.19-.07-.22-.19-.22-.08,0-.26.15-.34.22-1.42,1.2-2.95,1.53-4.37,1.53-5.57,0-6.92-4-6.92-9.31ZM519.05,111.91c0,3.93.34,6.69,4.56,6.69s4.41-2.92,4.41-6.69c0-3.4-.07-6.69-4.41-6.69s-4.56,2.77-4.56,6.69Z"/>
        <path d="M543.27,102.61c6.28,0,7.44,4,7.44,9.31s-1.16,9.31-7.44,9.31-7.44-4-7.44-9.31,1.16-9.31,7.44-9.31ZM543.27,118.61c4.26,0,4.6-2.77,4.6-6.69s-.34-6.69-4.6-6.69-4.6,2.77-4.6,6.69.34,6.69,4.6,6.69Z"/>
        <path d="M557.14,98.61c-1.12,0-1.87-.79-1.87-1.87s.75-1.83,1.87-1.83c1.05,0,1.83.75,1.83,1.83s-.79,1.87-1.83,1.87ZM558.52,119.99c0,.9-.71,1.23-1.38,1.23-.71,0-1.38-.34-1.38-1.23v-16.15c0-.9.67-1.23,1.38-1.23.67,0,1.38.34,1.38,1.23v16.15Z"/>
        <path d="M567.05,110.12v9.87c0,.9-.71,1.23-1.38,1.23-.71,0-1.38-.34-1.38-1.23v-16.15c0-.9.67-1.23,1.38-1.23s1.42.34,1.42,1.16v.37c0,.11.07.19.19.19.08,0,.22-.15.3-.19,1.38-1.16,2.95-1.53,4.6-1.53,5.01,0,6.5,3.21,6.5,7.74v9.65c0,.9-.67,1.23-1.35,1.23-.71,0-1.42-.34-1.42-1.23v-8.45c0-3.63-.15-6.32-4.45-6.32-3.14,0-4.41,1.72-4.41,4.9Z"/>
        <path d="M583.54,111.91c0-5.31,1.35-9.31,6.92-9.31,1.42,0,3.03.37,4.41,1.57.04.04.19.19.3.19s.19-.07.19-.22v-.3c0-.9.56-1.23,1.42-1.23.67,0,1.35.34,1.35,1.23v18.47c0,4.86-4,6.99-8.04,6.99-2.39,0-3.93-.56-4.82-1.05-.45-.26-.64-.64-.64-1.01,0-.67.49-1.53,1.27-1.53.19,0,.41.07.67.19.86.41,1.91.79,3.51.79,2.88,0,5.27-1.53,5.27-4.22v-2.73c0-.15-.07-.26-.19-.26s-.26.15-.3.19c-1.35,1.23-2.99,1.57-4.41,1.57-5.57,0-6.92-4-6.92-9.31ZM586.38,111.91c0,3.93.34,6.69,4.56,6.69s4.41-2.84,4.41-6.69c0-3.33-.07-6.69-4.41-6.69s-4.56,2.77-4.56,6.69Z"/>
        <path d="M618.6,121.22c-3.55,0-5.12-2.02-5.12-5.38v-10.28c0-.19-.11-.26-.34-.26h-1.94c-.9,0-1.2-.6-1.2-1.27s.3-1.27,1.2-1.27h1.94c.22,0,.34-.07.34-.3v-4.26c0-.9.67-1.23,1.38-1.23.67,0,1.38.34,1.38,1.23v4.22c0,.26.08.34.34.34h2.36c.9,0,1.2.6,1.2,1.27s-.3,1.27-1.2,1.27h-2.36c-.26,0-.34.08-.34.34v10.47c0,1.57.9,2.5,2.65,2.5.79,0,1.23.56,1.23,1.27,0,.64-.37,1.35-1.53,1.35Z"/>
        <path d="M626.68,104.06c0,.19.08.26.22.26.08,0,.22-.15.3-.19,1.38-1.16,2.95-1.53,4.6-1.53,5.01,0,6.5,3.21,6.5,7.74v9.65c0,.9-.67,1.23-1.35,1.23-.71,0-1.42-.34-1.42-1.23v-8.45c0-3.63-.15-6.32-4.45-6.32-3.14,0-4.41,1.68-4.41,4.97v9.79c0,.9-.71,1.23-1.38,1.23-.71,0-1.38-.34-1.38-1.23v-23.85c0-.9.67-1.23,1.38-1.23.67,0,1.38.34,1.38,1.23v7.93Z"/>
        <path d="M645.26,98.61c-1.12,0-1.87-.79-1.87-1.87s.75-1.83,1.87-1.83c1.05,0,1.83.75,1.83,1.83s-.79,1.87-1.83,1.87ZM646.64,119.99c0,.9-.71,1.23-1.38,1.23-.71,0-1.38-.34-1.38-1.23v-16.15c0-.9.67-1.23,1.38-1.23.67,0,1.38.34,1.38,1.23v16.15Z"/>
        <path d="M658.23,118.61c2.21,0,3.7-.93,3.7-2.62,0-1.27-.97-1.94-2.77-2.5l-2.73-.86c-2.95-.93-4.75-2.32-4.75-5.01,0-3.1,2.69-5.01,6.54-5.01,2.28,0,3.78.67,4.6,1.16.52.3.86.64.86,1.12,0,.64-.64,1.46-1.23,1.46-.34,0-.52-.11-.79-.22-.56-.34-2.02-.9-3.44-.9-2.21,0-3.7.82-3.7,2.28,0,1.31,1.05,1.94,2.77,2.5l2.69.86c3.1.97,4.79,2.39,4.79,5.12,0,3.21-2.69,5.23-6.54,5.23-2.99,0-4.9-1.05-6.17-2.28-.26-.3-.56-.56-.56-1.01,0-.67.64-1.42,1.42-1.42.26,0,.45.04.93.45.93.82,1.98,1.64,4.37,1.64Z"/>
        <path d="M684.36,121.22c-3.55,0-5.12-2.02-5.12-5.38v-10.28c0-.19-.11-.26-.34-.26h-1.94c-.9,0-1.2-.6-1.2-1.27s.3-1.27,1.2-1.27h1.94c.22,0,.34-.07.34-.3v-4.26c0-.9.67-1.23,1.38-1.23.67,0,1.38.34,1.38,1.23v4.22c0,.26.08.34.34.34h2.36c.9,0,1.2.6,1.2,1.27s-.3,1.27-1.2,1.27h-2.36c-.26,0-.34.08-.34.34v10.47c0,1.57.9,2.5,2.65,2.5.79,0,1.23.56,1.23,1.27,0,.64-.37,1.35-1.53,1.35Z"/>
        <path d="M696.02,102.61c6.28,0,7.44,4,7.44,9.31s-1.16,9.31-7.44,9.31-7.44-4-7.44-9.31,1.16-9.31,7.44-9.31ZM696.02,118.61c4.26,0,4.6-2.77,4.6-6.69s-.34-6.69-4.6-6.69-4.6,2.77-4.6,6.69.34,6.69,4.6,6.69Z"/>
        <path d="M728.32,113.71v-9.87c0-.9.71-1.23,1.42-1.23.67,0,1.35.34,1.35,1.23v16.15c0,.9-.67,1.23-1.35,1.23-.64,0-1.42-.26-1.42-1.23v-.22c0-.15-.07-.26-.19-.26s-.26.15-.3.19c-1.38,1.16-2.99,1.53-4.6,1.53-5.08,0-6.5-3.21-6.5-7.78v-9.61c0-.9.71-1.23,1.38-1.23.71,0,1.38.34,1.38,1.23v8.6c0,3.63.19,6.17,4.41,6.17,3.18,0,4.41-1.68,4.41-4.9Z"/>
        <path d="M742.68,118.61c2.21,0,3.7-.93,3.7-2.62,0-1.27-.97-1.94-2.77-2.5l-2.73-.86c-2.95-.93-4.75-2.32-4.75-5.01,0-3.1,2.69-5.01,6.54-5.01,2.28,0,3.78.67,4.6,1.16.52.3.86.64.86,1.12,0,.64-.64,1.46-1.23,1.46-.34,0-.52-.11-.79-.22-.56-.34-2.02-.9-3.44-.9-2.21,0-3.7.82-3.7,2.28,0,1.31,1.05,1.94,2.77,2.5l2.69.86c3.1.97,4.79,2.39,4.79,5.12,0,3.21-2.69,5.23-6.54,5.23-2.99,0-4.9-1.05-6.17-2.28-.26-.3-.56-.56-.56-1.01,0-.67.64-1.42,1.42-1.42.26,0,.45.04.93.45.93.82,1.98,1.64,4.37,1.64Z"/>
        <path d="M759.91,94.9c4.52,0,7.51,2.99,7.51,7.14,0,3.07-2.09,5.35-4.26,6.62-1.46.86-1.5,2.06-1.5,3.51,0,.9-.71,1.2-1.42,1.2-.75,0-1.46-.3-1.46-1.2,0-2.13.26-4.34,2.73-5.76,1.68-.97,2.95-2.21,2.95-4.41s-1.5-4.22-4.56-4.22c-1.68,0-2.95.93-4.49,2.24-.22.19-.64.37-.97.37-.63,0-1.46-.71-1.46-1.5,0-.56.49-1.08.97-1.57,1.53-1.5,3.59-2.43,5.94-2.43ZM760.21,121.22c-1.12,0-1.91-.82-1.91-1.91s.79-1.91,1.91-1.91,1.91.82,1.91,1.91-.82,1.91-1.91,1.91Z"/>
        <path d="M784.06,117.97c0,.26.07.34.34.34h11.89c.9,0,1.23.67,1.23,1.38s-.34,1.38-1.23,1.38h-13.83c-.71,0-1.38-.3-1.38-1.2v-23.63c0-.9.67-1.2,1.38-1.2h13.46c.9,0,1.23.71,1.23,1.38,0,.71-.34,1.38-1.23,1.38h-11.51c-.26,0-.34.08-.34.34v7.7c0,.26.07.34.34.34h9.94c.9,0,1.23.71,1.23,1.38,0,.71-.34,1.38-1.23,1.38h-9.94c-.26,0-.34.07-.34.34v8.67Z"/>
        <path d="M809.78,119.65c-.49,1.27-1.2,1.57-1.94,1.57s-1.46-.3-1.94-1.57l-5.72-15.33c-.08-.19-.11-.34-.11-.49,0-.75.86-1.23,1.61-1.23.45,0,.86.19,1.05.75l4.75,12.93c.15.37.11.79.37.79s.22-.41.37-.79l4.75-12.93c.19-.56.6-.75,1.05-.75.75,0,1.61.49,1.61,1.23,0,.15-.04.3-.11.49l-5.72,15.33Z"/>
        <path d="M821.3,113c-.22,0-.26.11-.26.26.11,3.48.82,5.35,4.97,5.35,1.16,0,2.65-.37,3.66-.93,1.08-.63,1.27-.82,1.57-.82.86,0,1.35.82,1.35,1.57,0,.37-.19.71-.6.97-1.64,1.12-3.78,1.83-6.24,1.83-6.28,0-7.59-3.63-7.59-9.31,0-5.31,1.16-9.31,7.44-9.31s7.29,4.67,7.29,8.04c0,.97-.15,2.35-1.79,2.35h-9.79ZM825.6,105.07c-3.29,0-4.56,2.02-4.56,5.2,0,.19,0,.34.26.34h8.56c.15,0,.26-.04.26-.22,0-2.99-1.08-5.31-4.52-5.31Z"/>
        <path d="M846.12,105.52c-.64,0-.56-.04-1.46-.04-2.84,0-4.08,1.53-4.08,5.64v8.86c0,.9-.67,1.23-1.38,1.23-.75,0-1.38-.34-1.38-1.23v-16.15c0-.9.67-1.23,1.38-1.23.79,0,1.42.34,1.42,1.23v.3c0,.07.04.15.15.15.07,0,.19-.11.3-.22,1.31-1.08,2.77-1.46,4-1.46,1.46,0,2.28.22,2.28,1.53,0,.93-.45,1.38-1.23,1.38Z"/>
        <path d="M855.92,124.03c-1.08,2.77-2.95,4.9-5.53,4.9-.97,0-1.35-.56-1.35-1.38,0-.6.37-1.01,1.05-1.16,1.76-.37,2.5-.93,3.44-3.33l.86-2.13c.08-.22.15-.41.15-.64,0-.15-.04-.3-.11-.49l-5.91-15.44c-.08-.19-.11-.37-.11-.52,0-.75.86-1.23,1.61-1.23.41,0,.86.19,1.08.79l4.56,12.49c.11.34.11.71.37.71.22,0,.26-.45.37-.71l4.67-12.49c.22-.6.67-.79,1.08-.79.75,0,1.61.49,1.61,1.23,0,.15-.04.34-.11.52l-7.74,19.66Z"/>
        <path d="M873.64,121.22c-3.55,0-5.12-2.02-5.12-5.38v-10.28c0-.19-.11-.26-.34-.26h-1.94c-.9,0-1.2-.6-1.2-1.27s.3-1.27,1.2-1.27h1.94c.22,0,.34-.07.34-.3v-4.26c0-.9.67-1.23,1.38-1.23.67,0,1.38.34,1.38,1.23v4.22c0,.26.08.34.34.34h2.36c.9,0,1.2.6,1.2,1.27s-.3,1.27-1.2,1.27h-2.36c-.26,0-.34.08-.34.34v10.47c0,1.57.9,2.5,2.65,2.5.79,0,1.23.56,1.23,1.27,0,.64-.37,1.35-1.53,1.35Z"/>
        <path d="M881.71,104.06c0,.19.08.26.22.26.08,0,.22-.15.3-.19,1.38-1.16,2.95-1.53,4.6-1.53,5.01,0,6.5,3.21,6.5,7.74v9.65c0,.9-.67,1.23-1.35,1.23-.71,0-1.42-.34-1.42-1.23v-8.45c0-3.63-.15-6.32-4.45-6.32-3.14,0-4.41,1.68-4.41,4.97v9.79c0,.9-.71,1.23-1.38,1.23-.71,0-1.38-.34-1.38-1.23v-23.85c0-.9.67-1.23,1.38-1.23.67,0,1.38.34,1.38,1.23v7.93Z"/>
        <path d="M900.29,98.61c-1.12,0-1.87-.79-1.87-1.87s.75-1.83,1.87-1.83c1.05,0,1.83.75,1.83,1.83s-.79,1.87-1.83,1.87ZM901.67,119.99c0,.9-.71,1.23-1.38,1.23-.71,0-1.38-.34-1.38-1.23v-16.15c0-.9.67-1.23,1.38-1.23.67,0,1.38.34,1.38,1.23v16.15Z"/>
        <path d="M910.2,110.12v9.87c0,.9-.71,1.23-1.38,1.23-.71,0-1.38-.34-1.38-1.23v-16.15c0-.9.67-1.23,1.38-1.23s1.42.34,1.42,1.16v.37c0,.11.07.19.19.19.08,0,.22-.15.3-.19,1.38-1.16,2.95-1.53,4.6-1.53,5.01,0,6.5,3.21,6.5,7.74v9.65c0,.9-.67,1.23-1.35,1.23-.71,0-1.42-.34-1.42-1.23v-8.45c0-3.63-.15-6.32-4.45-6.32-3.14,0-4.41,1.72-4.41,4.9Z"/>
        <path d="M926.68,111.91c0-5.31,1.35-9.31,6.92-9.31,1.42,0,3.03.37,4.41,1.57.04.04.19.19.3.19s.19-.07.19-.22v-.3c0-.9.56-1.23,1.42-1.23.67,0,1.35.34,1.35,1.23v18.47c0,4.86-4,6.99-8.04,6.99-2.39,0-3.93-.56-4.82-1.05-.45-.26-.64-.64-.64-1.01,0-.67.49-1.53,1.27-1.53.19,0,.41.07.67.19.86.41,1.91.79,3.51.79,2.88,0,5.27-1.53,5.27-4.22v-2.73c0-.15-.07-.26-.19-.26s-.26.15-.3.19c-1.35,1.23-2.99,1.57-4.41,1.57-5.57,0-6.92-4-6.92-9.31ZM929.53,111.91c0,3.93.34,6.69,4.56,6.69s4.41-2.84,4.41-6.69c0-3.33-.07-6.69-4.41-6.69s-4.56,2.77-4.56,6.69Z"/>
        <path d="M334.85,160.96c.11.37.15.79.41.79.22,0,.26-.41.37-.79l4.08-12.67c.19-.6.67-.82,1.08-.82.75,0,1.61.45,1.61,1.23,0,.11-.04.26-.08.41l-5.35,15.81c-.22.67-.75,1.16-1.72,1.16s-1.46-.49-1.68-1.2l-3.89-12.3c-.11-.34-.11-.93-.37-.93s-.26.6-.37.93l-3.63,11.92c-.41,1.31-1.2,1.57-1.94,1.57s-1.53-.26-1.94-1.57l-5.12-15.4c-.04-.15-.08-.3-.08-.41,0-.79.86-1.23,1.61-1.23.41,0,.9.22,1.08.82l4.08,12.82c.11.37.15.79.41.79s.26-.41.37-.79l3.59-12.08c.37-1.31,1.2-1.57,1.94-1.57s1.57.26,1.94,1.57l3.59,11.93Z"/>
        <path d="M356.05,163.92c-.11,0-.22.15-.37.26-1.23,1.01-2.84,1.91-5.53,1.91-4.34,0-5.68-2.69-5.68-5.08,0-4.56,3.78-5.68,7.4-5.68h3.63c.26,0,.34-.11.34-.34v-1.08c0-2.58-1.27-3.81-4.11-3.81-2.28,0-3.21.56-4.37,1.42-.19.15-.37.19-.52.19-.71,0-1.38-.79-1.38-1.46,0-.41.22-.75.6-1.08,1.68-1.35,3.81-1.68,5.76-1.68,5.79,0,6.95,2.99,6.95,7.44v7.59c0,.67.19,1.01.82,1.01h.34c.64,0,.97.52.97,1.23,0,.97-.41,1.35-1.94,1.35-1.42,0-2.28-.64-2.69-1.94-.07-.19-.11-.22-.19-.22ZM355.98,158.12c0-.22-.11-.34-.34-.34h-3.51c-2.54,0-4.82.37-4.82,2.8,0,1.91,1.23,3.07,3.33,3.07,3.7,0,5.35-2.36,5.35-4.6v-.93Z"/>
        <path d="M370.33,163.47c2.21,0,3.7-.93,3.7-2.62,0-1.27-.97-1.94-2.77-2.5l-2.73-.86c-2.95-.93-4.75-2.32-4.75-5.01,0-3.1,2.69-5.01,6.54-5.01,2.28,0,3.78.67,4.6,1.16.52.3.86.64.86,1.12,0,.64-.64,1.46-1.23,1.46-.34,0-.52-.11-.79-.22-.56-.34-2.02-.9-3.44-.9-2.21,0-3.7.82-3.7,2.28,0,1.31,1.05,1.94,2.77,2.5l2.69.86c3.1.97,4.79,2.39,4.79,5.12,0,3.21-2.69,5.23-6.54,5.23-2.99,0-4.9-1.05-6.17-2.28-.26-.3-.56-.56-.56-1.01,0-.67.64-1.42,1.42-1.42.26,0,.45.04.93.45.93.82,1.98,1.64,4.37,1.64Z"/>
        <path d="M406.56,160.96c.11.37.15.79.41.79.22,0,.26-.41.37-.79l4.08-12.67c.19-.6.67-.82,1.08-.82.75,0,1.61.45,1.61,1.23,0,.11-.04.26-.08.41l-5.35,15.81c-.22.67-.75,1.16-1.72,1.16s-1.46-.49-1.68-1.2l-3.89-12.3c-.11-.34-.11-.93-.37-.93s-.26.6-.37.93l-3.63,11.92c-.41,1.31-1.2,1.57-1.94,1.57s-1.53-.26-1.94-1.57l-5.12-15.4c-.04-.15-.08-.3-.08-.41,0-.79.86-1.23,1.61-1.23.41,0,.9.22,1.08.82l4.08,12.82c.11.37.15.79.41.79s.26-.41.37-.79l3.59-12.08c.37-1.31,1.2-1.57,1.94-1.57s1.57.26,1.94,1.57l3.59,11.93Z"/>
        <path d="M424.09,147.47c6.28,0,7.44,4,7.44,9.31s-1.16,9.31-7.44,9.31-7.44-4-7.44-9.31,1.16-9.31,7.44-9.31ZM424.09,163.47c4.26,0,4.6-2.77,4.6-6.69s-.34-6.69-4.6-6.69-4.6,2.77-4.6,6.69.34,6.69,4.6,6.69Z"/>
        <path d="M444.88,150.38c-.64,0-.56-.04-1.46-.04-2.84,0-4.08,1.53-4.08,5.64v8.86c0,.9-.67,1.23-1.38,1.23-.75,0-1.38-.34-1.38-1.23v-16.15c0-.9.67-1.23,1.38-1.23.79,0,1.42.34,1.42,1.23v.3c0,.07.04.15.15.15.07,0,.19-.11.3-.22,1.31-1.08,2.77-1.46,4-1.46,1.46,0,2.28.22,2.28,1.53,0,.93-.45,1.38-1.23,1.38Z"/>
        <path d="M463.79,164.1c.15.22.19.45.19.64,0,.71-.82,1.35-1.53,1.35-.37,0-.71-.15-.97-.56l-5.05-8.26c-.08-.11-.15-.19-.26-.19-.08,0-.22.11-.26.15l-3.4,3.51c-.19.19-.37.49-.37.82v3.29c0,.9-.67,1.23-1.38,1.23s-1.38-.34-1.38-1.23v-23.85c0-.9.67-1.23,1.38-1.23s1.38.34,1.38,1.23v15.74s0,.22.19.22c.11,0,.15-.04.19-.08l8.75-9.05c.26-.26.52-.37.82-.37.67,0,1.5.71,1.5,1.5,0,.26-.11.56-.37.82l-4.86,4.97s-.07.07-.07.19c0,.15.04.26.07.3l5.46,8.86Z"/>
        <path d="M469.36,143.47c-1.12,0-1.87-.79-1.87-1.87s.75-1.83,1.87-1.83c1.05,0,1.83.75,1.83,1.83s-.79,1.87-1.83,1.87ZM470.75,164.85c0,.9-.71,1.23-1.38,1.23-.71,0-1.38-.34-1.38-1.23v-16.15c0-.9.67-1.23,1.38-1.23.67,0,1.38.34,1.38,1.23v16.15Z"/>
        <path d="M479.27,154.98v9.87c0,.9-.71,1.23-1.38,1.23-.71,0-1.38-.34-1.38-1.23v-16.15c0-.9.67-1.23,1.38-1.23s1.42.34,1.42,1.16v.37c0,.11.07.19.19.19.08,0,.22-.15.3-.19,1.38-1.16,2.95-1.53,4.6-1.53,5.01,0,6.5,3.21,6.5,7.74v9.65c0,.9-.67,1.23-1.35,1.23-.71,0-1.42-.34-1.42-1.23v-8.45c0-3.63-.15-6.32-4.45-6.32-3.14,0-4.41,1.72-4.41,4.9Z"/>
        <path d="M495.76,156.78c0-5.31,1.35-9.31,6.92-9.31,1.42,0,3.03.37,4.41,1.57.04.04.19.19.3.19s.19-.07.19-.22v-.3c0-.9.56-1.23,1.42-1.23.67,0,1.35.34,1.35,1.23v18.47c0,4.86-4,6.99-8.04,6.99-2.39,0-3.93-.56-4.82-1.05-.45-.26-.64-.64-.64-1.01,0-.67.49-1.53,1.27-1.53.19,0,.41.07.67.19.86.41,1.91.79,3.51.79,2.88,0,5.27-1.53,5.27-4.22v-2.73c0-.15-.07-.26-.19-.26s-.26.15-.3.19c-1.35,1.23-2.99,1.57-4.41,1.57-5.57,0-6.92-4-6.92-9.31ZM498.6,156.78c0,3.93.34,6.69,4.56,6.69s4.41-2.84,4.41-6.69c0-3.33-.07-6.69-4.41-6.69s-4.56,2.77-4.56,6.69Z"/>
        <path d="M524.92,150.42c0-.19-.15-.26-.34-.26h-1.27c-.86,0-1.12-.63-1.12-1.27,0-.6.26-1.27,1.12-1.27h1.27c.22,0,.34-.07.34-.26v-3.18c0-2.92,1.57-4.26,4.34-4.26h1.23c.86,0,1.16.64,1.16,1.27s-.3,1.27-1.16,1.27h-1.05c-1.16,0-1.76.45-1.76,1.94v2.88c0,.26.11.34.34.34h2.47c.82,0,1.12.67,1.12,1.27,0,.64-.3,1.27-1.12,1.27h-2.47c-.22,0-.34.08-.34.34v14.36c0,.9-.71,1.23-1.38,1.23-.71,0-1.38-.34-1.38-1.23v-14.43ZM536.73,143.47c-1.12,0-1.87-.79-1.87-1.87s.75-1.83,1.87-1.83c1.05,0,1.83.75,1.83,1.83s-.79,1.87-1.83,1.87ZM538.11,164.85c0,.9-.71,1.23-1.38,1.23-.71,0-1.38-.34-1.38-1.23v-16.15c0-.9.67-1.23,1.38-1.23.67,0,1.38.34,1.38,1.23v16.15Z"/>
        <path d="M546.71,154.98v9.87c0,.9-.71,1.23-1.38,1.23-.71,0-1.38-.34-1.38-1.23v-16.15c0-.9.67-1.23,1.38-1.23s1.42.34,1.42,1.16v.37c0,.11.07.19.19.19.08,0,.22-.15.3-.19,1.38-1.16,2.95-1.53,4.6-1.53,5.01,0,6.5,3.21,6.5,7.74v9.65c0,.9-.67,1.23-1.35,1.23-.71,0-1.42-.34-1.42-1.23v-8.45c0-3.63-.15-6.32-4.45-6.32-3.14,0-4.41,1.72-4.41,4.9Z"/>
        <path d="M566.34,157.86c-.22,0-.26.11-.26.26.11,3.48.82,5.35,4.97,5.35,1.16,0,2.65-.37,3.66-.93,1.08-.63,1.27-.82,1.57-.82.86,0,1.35.82,1.35,1.57,0,.37-.19.71-.6.97-1.64,1.12-3.78,1.83-6.24,1.83-6.28,0-7.59-3.63-7.59-9.31,0-5.31,1.16-9.31,7.44-9.31s7.29,4.67,7.29,8.04c0,.97-.15,2.35-1.79,2.35h-9.79ZM570.64,149.93c-3.29,0-4.56,2.02-4.56,5.2,0,.19,0,.34.26.34h8.56c.15,0,.26-.04.26-.22,0-2.99-1.08-5.31-4.52-5.31Z"/>
        <path d="M605.89,156.78c0,5.31-1.35,9.31-6.99,9.31-1.42,0-2.8-.34-4.15-1.38-.19-.15-.34-.34-.49-.34s-.22.04-.22.22v.45c0,.67-.71,1.05-1.38,1.05-.71,0-1.38-.34-1.38-1.23v-23.85c0-.9.67-1.23,1.38-1.23.67,0,1.38.34,1.38,1.23v8c0,.11.08.22.22.22.08,0,.26-.15.3-.19,1.35-1.2,3.07-1.57,4.34-1.57,5.65,0,6.99,4,6.99,9.31ZM598.45,150.08c-4.11,0-4.41,3.03-4.41,6.69,0,3.33.11,6.69,4.41,6.69s4.6-2.77,4.6-6.69-.34-6.69-4.6-6.69Z"/>
        <path d="M613.37,157.86c-.22,0-.26.11-.26.26.11,3.48.82,5.35,4.97,5.35,1.16,0,2.65-.37,3.66-.93,1.08-.63,1.27-.82,1.57-.82.86,0,1.35.82,1.35,1.57,0,.37-.19.71-.6.97-1.64,1.12-3.78,1.83-6.24,1.83-6.28,0-7.59-3.63-7.59-9.31,0-5.31,1.16-9.31,7.44-9.31s7.29,4.67,7.29,8.04c0,.97-.15,2.35-1.79,2.35h-9.79ZM617.67,149.93c-3.29,0-4.56,2.02-4.56,5.2,0,.19,0,.34.26.34h8.56c.15,0,.26-.04.26-.22,0-2.99-1.08-5.31-4.52-5.31Z"/>
        <path d="M630.3,150.42c0-.19-.15-.26-.34-.26h-1.27c-.86,0-1.12-.63-1.12-1.27,0-.6.26-1.27,1.12-1.27h1.27c.22,0,.34-.07.34-.26v-3.18c0-2.92,1.57-4.26,4.34-4.26h1.23c.86,0,1.16.64,1.16,1.27s-.3,1.27-1.16,1.27h-1.05c-1.16,0-1.76.45-1.76,1.94v2.88c0,.26.11.34.34.34h2.47c.82,0,1.12.67,1.12,1.27,0,.64-.3,1.27-1.12,1.27h-2.47c-.22,0-.34.08-.34.34v14.36c0,.9-.71,1.23-1.38,1.23-.71,0-1.38-.34-1.38-1.23v-14.43Z"/>
        <path d="M647.01,147.47c6.28,0,7.44,4,7.44,9.31s-1.16,9.31-7.44,9.31-7.44-4-7.44-9.31,1.16-9.31,7.44-9.31ZM647.01,163.47c4.26,0,4.6-2.77,4.6-6.69s-.34-6.69-4.6-6.69-4.6,2.77-4.6,6.69.34,6.69,4.6,6.69Z"/>
        <path d="M667.8,150.38c-.64,0-.56-.04-1.46-.04-2.84,0-4.08,1.53-4.08,5.64v8.86c0,.9-.67,1.23-1.38,1.23-.75,0-1.38-.34-1.38-1.23v-16.15c0-.9.67-1.23,1.38-1.23.79,0,1.42.34,1.42,1.23v.3c0,.07.04.15.15.15.07,0,.19-.11.3-.22,1.31-1.08,2.77-1.46,4-1.46,1.46,0,2.28.22,2.28,1.53,0,.93-.45,1.38-1.23,1.38Z"/>
        <path d="M673.78,157.86c-.22,0-.26.11-.26.26.11,3.48.82,5.35,4.97,5.35,1.16,0,2.65-.37,3.66-.93,1.08-.63,1.27-.82,1.57-.82.86,0,1.35.82,1.35,1.57,0,.37-.19.71-.6.97-1.64,1.12-3.78,1.83-6.24,1.83-6.28,0-7.59-3.63-7.59-9.31,0-5.31,1.16-9.31,7.44-9.31s7.29,4.67,7.29,8.04c0,.97-.15,2.35-1.79,2.35h-9.79ZM678.08,149.93c-3.29,0-4.56,2.02-4.56,5.2,0,.19,0,.34.26.34h8.56c.15,0,.26-.04.26-.22,0-2.99-1.08-5.31-4.52-5.31Z"/>
        <path d="M691.95,166.08c-1.12,0-1.91-.82-1.91-1.91s.79-1.91,1.91-1.91,1.91.82,1.91,1.91-.82,1.91-1.91,1.91ZM690.57,141c0-.9.67-1.23,1.38-1.23.67,0,1.38.34,1.38,1.23v16c0,.9-.71,1.23-1.38,1.23-.71,0-1.38-.34-1.38-1.23v-16Z"/>
        <path d="M723.39,141.49l5.23,19.22c.11.34.15.97.37.97.19,0,.22-.56.34-.97l5.27-20c.19-.71.64-.93,1.12-.93.82,0,1.76.41,1.76,1.27,0,.11-.04.26-.08.41l-6.24,22.92c-.37,1.42-1.31,1.72-2.13,1.72s-1.72-.3-2.13-1.72l-5.35-19.66c-.08-.26-.11-.6-.3-.6s-.22.34-.3.6l-5.35,19.66c-.41,1.42-1.31,1.72-2.13,1.72s-1.76-.3-2.13-1.72l-6.24-22.92c-.04-.15-.07-.3-.07-.41,0-.86.93-1.27,1.76-1.27.49,0,.93.22,1.12.93l5.27,20c.11.41.15.97.34.97.22,0,.26-.64.37-.97l5.23-19.22c.37-1.42,1.31-1.72,2.13-1.72s1.76.3,2.13,1.72Z"/>
        <path d="M744.03,148.93c0,.19.08.26.22.26.08,0,.22-.15.3-.19,1.38-1.16,2.95-1.53,4.6-1.53,5.01,0,6.5,3.21,6.5,7.74v9.65c0,.9-.67,1.23-1.35,1.23-.71,0-1.42-.34-1.42-1.23v-8.45c0-3.63-.15-6.32-4.45-6.32-3.14,0-4.41,1.68-4.41,4.97v9.79c0,.9-.71,1.23-1.38,1.23-.71,0-1.38-.34-1.38-1.23v-23.85c0-.9.67-1.23,1.38-1.23.67,0,1.38.34,1.38,1.23v7.93Z"/>
        <path d="M767.95,147.47c6.28,0,7.44,4,7.44,9.31s-1.16,9.31-7.44,9.31-7.44-4-7.44-9.31,1.16-9.31,7.44-9.31ZM767.95,163.47c4.26,0,4.6-2.77,4.6-6.69s-.34-6.69-4.6-6.69-4.6,2.77-4.6,6.69.34,6.69,4.6,6.69Z"/>
        <path d="M791.62,148.93c0,.19.08.26.22.26.08,0,.22-.15.3-.19,1.38-1.16,2.95-1.53,4.6-1.53,5.01,0,6.5,3.21,6.5,7.74v9.65c0,.9-.67,1.23-1.35,1.23-.71,0-1.42-.34-1.42-1.23v-8.45c0-3.63-.15-6.32-4.45-6.32-3.14,0-4.41,1.68-4.41,4.97v9.79c0,.9-.71,1.23-1.38,1.23-.71,0-1.38-.34-1.38-1.23v-23.85c0-.9.67-1.23,1.38-1.23.67,0,1.38.34,1.38,1.23v7.93Z"/>
        <path d="M820.22,158.57v-9.87c0-.9.71-1.23,1.42-1.23.67,0,1.35.34,1.35,1.23v16.15c0,.9-.67,1.23-1.35,1.23-.64,0-1.42-.26-1.42-1.23v-.22c0-.15-.07-.26-.19-.26s-.26.15-.3.19c-1.38,1.16-2.99,1.53-4.6,1.53-5.08,0-6.5-3.21-6.5-7.78v-9.61c0-.9.71-1.23,1.38-1.23.71,0,1.38.34,1.38,1.23v8.6c0,3.63.19,6.17,4.41,6.17,3.18,0,4.41-1.68,4.41-4.9Z"/>
        <path d="M837.04,150.38c-.64,0-.56-.04-1.46-.04-2.84,0-4.08,1.53-4.08,5.64v8.86c0,.9-.67,1.23-1.38,1.23-.75,0-1.38-.34-1.38-1.23v-16.15c0-.9.67-1.23,1.38-1.23.79,0,1.42.34,1.42,1.23v.3c0,.07.04.15.15.15.07,0,.19-.11.3-.22,1.31-1.08,2.77-1.46,4-1.46,1.46,0,2.28.22,2.28,1.53,0,.93-.45,1.38-1.23,1.38Z"/>
        <path d="M847.84,166.08c-3.55,0-5.12-2.02-5.12-5.38v-10.28c0-.19-.11-.26-.34-.26h-1.94c-.9,0-1.2-.6-1.2-1.27s.3-1.27,1.2-1.27h1.94c.22,0,.34-.07.34-.3v-4.26c0-.9.67-1.23,1.38-1.23.67,0,1.38.34,1.38,1.23v4.22c0,.26.08.34.34.34h2.36c.9,0,1.2.6,1.2,1.27s-.3,1.27-1.2,1.27h-2.36c-.26,0-.34.08-.34.34v10.47c0,1.57.9,2.5,2.65,2.5.79,0,1.23.56,1.23,1.27,0,.64-.37,1.35-1.53,1.35Z"/>
        <path d="M866.87,168.89c-1.08,2.77-2.95,4.9-5.53,4.9-.97,0-1.35-.56-1.35-1.38,0-.6.37-1.01,1.05-1.16,1.76-.37,2.5-.93,3.44-3.33l.86-2.13c.08-.22.15-.41.15-.64,0-.15-.04-.3-.11-.49l-5.91-15.44c-.08-.19-.11-.37-.11-.52,0-.75.86-1.23,1.61-1.23.41,0,.86.19,1.08.79l4.56,12.49c.11.34.11.71.37.71.22,0,.26-.45.37-.71l4.67-12.49c.22-.6.67-.79,1.08-.79.75,0,1.61.49,1.61,1.23,0,.15-.04.34-.11.52l-7.74,19.66Z"/>
        <path d="M884.71,147.47c6.28,0,7.44,4,7.44,9.31s-1.16,9.31-7.44,9.31-7.44-4-7.44-9.31,1.16-9.31,7.44-9.31ZM884.71,163.47c4.26,0,4.6-2.77,4.6-6.69s-.34-6.69-4.6-6.69-4.6,2.77-4.6,6.69.34,6.69,4.6,6.69Z"/>
        <path d="M908.59,158.57v-9.87c0-.9.71-1.23,1.42-1.23.67,0,1.35.34,1.35,1.23v16.15c0,.9-.67,1.23-1.35,1.23-.64,0-1.42-.26-1.42-1.23v-.22c0-.15-.07-.26-.19-.26s-.26.15-.3.19c-1.38,1.16-2.99,1.53-4.6,1.53-5.08,0-6.5-3.21-6.5-7.78v-9.61c0-.9.71-1.23,1.38-1.23.71,0,1.38.34,1.38,1.23v8.6c0,3.63.19,6.17,4.41,6.17,3.18,0,4.41-1.68,4.41-4.9Z"/>
        <path d="M922.95,139.77c4.52,0,7.51,2.99,7.51,7.14,0,3.07-2.09,5.35-4.26,6.62-1.46.86-1.5,2.06-1.5,3.51,0,.9-.71,1.2-1.42,1.2-.75,0-1.46-.3-1.46-1.2,0-2.13.26-4.34,2.73-5.76,1.68-.97,2.95-2.21,2.95-4.41s-1.5-4.22-4.56-4.22c-1.68,0-2.95.93-4.49,2.24-.22.19-.64.37-.97.37-.63,0-1.46-.71-1.46-1.5,0-.56.49-1.08.97-1.57,1.53-1.5,3.59-2.43,5.94-2.43ZM923.25,166.08c-1.12,0-1.91-.82-1.91-1.91s.79-1.91,1.91-1.91,1.91.82,1.91,1.91-.82,1.91-1.91,1.91Z"/>
        <path d="M936.86,166.08c-1.12,0-1.91-.82-1.91-1.91s.79-1.91,1.91-1.91,1.91.82,1.91,1.91-.82,1.91-1.91,1.91ZM935.47,141c0-.9.67-1.23,1.38-1.23.67,0,1.38.34,1.38,1.23v16c0,.9-.71,1.23-1.38,1.23-.71,0-1.38-.34-1.38-1.23v-16Z"/>
      </g>
    </g>
  </g>
</svg>