<?xml version="1.0" encoding="UTF-8"?>
<svg xmlns="http://www.w3.org/2000/svg" viewBox="0 0 1116 844.26">
  <g id="bg">
    <rect y="-.05" width="1114.94" height="844.31" fill="#fff"/>
  </g>
  <g id="_11" data-name="11">
    <g>
      <rect x="85.31" y="75.74" width="932.07" height="112.63" rx="56.31" ry="56.31" fill="#fff" stroke="#000" stroke-miterlimit="10" stroke-width="3"/>
      <path d="M141.63,75.74c-30.97,0-56.31,25.34-56.31,56.31h0c0,30.97,25.34,56.32,56.31,56.32h126.08v-112.63h-126.08Z" fill="#aaff92" stroke="#000" stroke-miterlimit="10" stroke-width="3"/>
      <g>
        <path d="M119.73,113.6c.99,0,1.57.58,1.57,1.57v13.08c0,.99.58,1.57,1.57,1.57h5.02c1.05,0,1.57-.58,1.57-1.57v-13.08c0-.99.58-1.57,1.57-1.57h5.86c1.05,0,1.57.52,1.57,1.57v33.5c0,.99-.52,1.57-1.57,1.57h-5.86c-.99,0-1.57-.58-1.57-1.57v-8.27c0-1.05-.52-1.57-1.57-1.57h-5.02c-.99,0-1.57.52-1.57,1.57v8.27c0,.99-.52,1.57-1.57,1.57h-5.86c-.99,0-1.57-.58-1.57-1.57v-33.5c0-1.05.52-1.57,1.57-1.57h5.86Z"/>
        <path d="M166.84,113.6c1.05,0,1.57.52,1.57,1.57v5.86c0,.99-.52,1.57-1.57,1.57h-12.67c-.99,0-1.57.52-1.57,1.57v1.67c0,.99.58,1.57,1.57,1.57h8.11c1.05,0,1.57.52,1.57,1.57v5.86c0,.99-.52,1.57-1.57,1.57h-8.11c-.99,0-1.57.52-1.57,1.57v1.68c0,.99.58,1.57,1.57,1.57h12.67c1.05,0,1.57.52,1.57,1.57v5.86c0,1.05-.52,1.57-1.57,1.57h-21.98c-.99,0-1.57-.58-1.57-1.57v-33.5c0-1.05.58-1.57,1.57-1.57h21.98Z"/>
        <path d="M179.69,113.6c1.05,0,1.57.52,1.57,1.57v24.5c0,.99.58,1.57,1.57,1.57h11.67c1.05,0,1.57.52,1.57,1.57v5.86c0,1.05-.52,1.57-1.57,1.57h-20.67c-.99,0-1.57-.58-1.57-1.57v-33.5c0-1.05.58-1.57,1.57-1.57h5.86Z"/>
        <path d="M212.62,113.6c9.32,0,13.08,3.98,13.08,12.56s-3.77,12.56-13.08,12.56h-2.51c-.99,0-1.57.52-1.57,1.57v8.37c0,1.05-.52,1.57-1.57,1.57h-5.86c-.99,0-1.57-.58-1.57-1.57v-33.44c0-1.05.52-1.57,1.57-1.62h11.51ZM212.93,129.72c2.51,0,3.77-.31,3.77-3.56s-1.26-3.56-3.77-3.56h-2.83c-.99,0-1.57.52-1.57,1.57v3.98c0,.99.58,1.57,1.57,1.57h2.83Z"/>
        <path d="M239.08,138.56c-1.05,0-1.67-.63-1.47-1.73,1.26-7.12,6.49-6.39,7.59-11.72.31-1.57-.52-3.46-2.56-3.46-2.46,0-3.66,1.36-4.03,3.51-.16,1.05-.68,1.52-1.73,1.31l-5.97-1.31c-.94-.21-1.41-.78-1.36-1.73.31-3.77,2.3-10.78,13.08-10.78,11.72,0,12.14,9.26,12.09,10.83,0,8.69-6.07,9.42-7.96,13.77-.37.89-.84,1.31-1.78,1.31h-5.91ZM238.92,141.23c-.99,0-1.57.52-1.57,1.57v5.86c0,.99.58,1.57,1.57,1.57h5.86c1.05,0,1.57-.58,1.57-1.57v-5.86c0-1.05-.52-1.57-1.57-1.57h-5.86Z"/>
      </g>
      <g>
        <path d="M317.23,96.62l5.24,19.22c.11.34.15.97.37.97.19,0,.22-.56.34-.97l5.27-20.01c.19-.71.64-.93,1.12-.93.82,0,1.76.41,1.76,1.27,0,.11-.04.26-.07.41l-6.24,22.92c-.37,1.42-1.31,1.72-2.13,1.72s-1.72-.3-2.13-1.72l-5.35-19.67c-.07-.26-.11-.6-.3-.6s-.22.34-.3.6l-5.35,19.67c-.41,1.42-1.31,1.72-2.13,1.72s-1.76-.3-2.13-1.72l-6.24-22.92c-.04-.15-.07-.3-.07-.41,0-.86.93-1.27,1.76-1.27.49,0,.93.22,1.12.93l5.27,20.01c.11.41.15.97.34.97.22,0,.26-.64.37-.97l5.24-19.22c.37-1.42,1.31-1.72,2.13-1.72s1.76.3,2.13,1.72Z"/>
        <path d="M337.86,104.06c0,.19.07.26.22.26.07,0,.22-.15.3-.19,1.38-1.16,2.95-1.53,4.6-1.53,5.01,0,6.51,3.22,6.51,7.74v9.65c0,.9-.67,1.23-1.35,1.23-.71,0-1.42-.34-1.42-1.23v-8.45c0-3.63-.15-6.32-4.45-6.32-3.14,0-4.41,1.68-4.41,4.97v9.8c0,.9-.71,1.23-1.38,1.23-.71,0-1.38-.34-1.38-1.23v-23.86c0-.9.67-1.23,1.38-1.23.67,0,1.38.34,1.38,1.23v7.93Z"/>
        <path d="M357.49,113c-.22,0-.26.11-.26.26.11,3.48.82,5.35,4.97,5.35,1.16,0,2.65-.37,3.67-.93,1.08-.64,1.27-.82,1.57-.82.86,0,1.35.82,1.35,1.57,0,.37-.19.71-.6.97-1.65,1.12-3.78,1.83-6.24,1.83-6.28,0-7.59-3.63-7.59-9.31,0-5.31,1.16-9.31,7.44-9.31s7.29,4.67,7.29,8.04c0,.97-.15,2.35-1.79,2.35h-9.8ZM361.79,105.07c-3.29,0-4.56,2.02-4.56,5.2,0,.19,0,.34.26.34h8.56c.15,0,.26-.04.26-.22,0-2.99-1.08-5.31-4.52-5.31Z"/>
        <path d="M382.32,105.52c-.64,0-.56-.04-1.46-.04-2.84,0-4.08,1.53-4.08,5.65v8.86c0,.9-.67,1.23-1.38,1.23s-1.38-.34-1.38-1.23v-16.16c0-.9.67-1.23,1.38-1.23.79,0,1.42.34,1.42,1.23v.3c0,.07.04.15.15.15.07,0,.19-.11.3-.22,1.31-1.08,2.77-1.46,4-1.46,1.46,0,2.28.22,2.28,1.53,0,.93-.45,1.38-1.23,1.38Z"/>
        <path d="M388.3,113c-.22,0-.26.11-.26.26.11,3.48.82,5.35,4.97,5.35,1.16,0,2.65-.37,3.67-.93,1.08-.64,1.27-.82,1.57-.82.86,0,1.35.82,1.35,1.57,0,.37-.19.71-.6.97-1.65,1.12-3.78,1.83-6.24,1.83-6.28,0-7.59-3.63-7.59-9.31,0-5.31,1.16-9.31,7.44-9.31s7.29,4.67,7.29,8.04c0,.97-.15,2.35-1.79,2.35h-9.8ZM392.6,105.07c-3.29,0-4.56,2.02-4.56,5.2,0,.19,0,.34.26.34h8.56c.15,0,.26-.04.26-.22,0-2.99-1.08-5.31-4.52-5.31Z"/>
        <path d="M412.52,111.91c0-5.31,1.35-9.31,6.92-9.31,1.42,0,3.03.37,4.41,1.57,0,0,.19.19.3.19s.19-.07.19-.26v-7.96c0-.9.71-1.23,1.42-1.23.67,0,1.35.34,1.35,1.23v23.86c0,.9-.67,1.23-1.35,1.23s-1.42-.22-1.42-1.08v-.45c0-.19-.07-.22-.19-.22-.07,0-.26.15-.34.22-1.42,1.2-2.96,1.53-4.38,1.53-5.57,0-6.92-4-6.92-9.31ZM415.36,111.91c0,3.93.34,6.69,4.56,6.69s4.41-2.92,4.41-6.69c0-3.4-.07-6.69-4.41-6.69s-4.56,2.77-4.56,6.69Z"/>
        <path d="M439.59,102.6c6.28,0,7.44,4,7.44,9.31s-1.16,9.31-7.44,9.31-7.44-4-7.44-9.31,1.16-9.31,7.44-9.31ZM439.59,118.61c4.26,0,4.6-2.77,4.6-6.69s-.34-6.69-4.6-6.69-4.6,2.77-4.6,6.69.34,6.69,4.6,6.69Z"/>
        <path d="M460.97,96.21c0-1.05.79-1.31,1.5-1.31.75,0,1.5.26,1.5,1.31v23.71c0,1.05-.75,1.31-1.5,1.31s-1.5-.26-1.5-1.31v-23.71Z"/>
        <path d="M477.91,111.91c0-5.31,1.35-9.31,6.92-9.31,1.42,0,3.03.37,4.41,1.57.04.04.19.19.3.19s.19-.07.19-.22v-.3c0-.9.56-1.23,1.42-1.23.67,0,1.35.34,1.35,1.23v18.47c0,4.86-4,6.99-8.04,6.99-2.39,0-3.93-.56-4.82-1.05-.45-.26-.64-.64-.64-1.01,0-.67.49-1.53,1.27-1.53.19,0,.41.07.67.19.86.41,1.91.78,3.51.78,2.88,0,5.27-1.53,5.27-4.22v-2.73c0-.15-.07-.26-.19-.26s-.26.15-.3.19c-1.35,1.23-2.99,1.57-4.41,1.57-5.57,0-6.92-4-6.92-9.31ZM480.75,111.91c0,3.93.34,6.69,4.56,6.69s4.41-2.84,4.41-6.69c0-3.33-.07-6.69-4.41-6.69s-4.56,2.77-4.56,6.69Z"/>
        <path d="M504.98,102.6c6.28,0,7.44,4,7.44,9.31s-1.16,9.31-7.44,9.31-7.44-4-7.44-9.31,1.16-9.31,7.44-9.31ZM504.98,118.61c4.26,0,4.6-2.77,4.6-6.69s-.34-6.69-4.6-6.69-4.6,2.77-4.6,6.69.34,6.69,4.6,6.69Z"/>
        <path d="M526.28,105.56c0-.19-.15-.26-.34-.26h-1.27c-.86,0-1.12-.64-1.12-1.27,0-.6.26-1.27,1.12-1.27h1.27c.22,0,.34-.07.34-.26v-3.18c0-2.92,1.57-4.26,4.34-4.26h1.23c.86,0,1.16.64,1.16,1.27s-.3,1.27-1.16,1.27h-1.05c-1.16,0-1.76.45-1.76,1.94v2.88c0,.26.11.34.34.34h2.47c.82,0,1.12.67,1.12,1.27,0,.64-.3,1.27-1.12,1.27h-2.47c-.22,0-.34.07-.34.34v14.36c0,.9-.71,1.23-1.38,1.23-.71,0-1.38-.34-1.38-1.23v-14.43Z"/>
        <path d="M543,102.6c6.28,0,7.44,4,7.44,9.31s-1.16,9.31-7.44,9.31-7.44-4-7.44-9.31,1.16-9.31,7.44-9.31ZM543,118.61c4.26,0,4.6-2.77,4.6-6.69s-.34-6.69-4.6-6.69-4.6,2.77-4.6,6.69.34,6.69,4.6,6.69Z"/>
        <path d="M563.78,105.52c-.64,0-.56-.04-1.46-.04-2.84,0-4.07,1.53-4.07,5.65v8.86c0,.9-.67,1.23-1.38,1.23-.75,0-1.38-.34-1.38-1.23v-16.16c0-.9.67-1.23,1.38-1.23.78,0,1.42.34,1.42,1.23v.3c0,.07.04.15.15.15.07,0,.19-.11.3-.22,1.31-1.08,2.77-1.46,4-1.46,1.46,0,2.28.22,2.28,1.53,0,.93-.45,1.38-1.23,1.38Z"/>
        <path d="M579.44,104.06c0,.19.07.26.22.26.07,0,.22-.15.3-.19,1.38-1.16,2.95-1.53,4.6-1.53,5.01,0,6.51,3.22,6.51,7.74v9.65c0,.9-.67,1.23-1.35,1.23-.71,0-1.42-.34-1.42-1.23v-8.45c0-3.63-.15-6.32-4.45-6.32-3.14,0-4.41,1.68-4.41,4.97v9.8c0,.9-.71,1.23-1.38,1.23-.71,0-1.38-.34-1.38-1.23v-23.86c0-.9.67-1.23,1.38-1.23.67,0,1.38.34,1.38,1.23v7.93Z"/>
        <path d="M599.07,113c-.22,0-.26.11-.26.26.11,3.48.82,5.35,4.97,5.35,1.16,0,2.65-.37,3.66-.93,1.08-.64,1.27-.82,1.57-.82.86,0,1.35.82,1.35,1.57,0,.37-.19.71-.6.97-1.64,1.12-3.78,1.83-6.24,1.83-6.28,0-7.59-3.63-7.59-9.31,0-5.31,1.16-9.31,7.44-9.31s7.29,4.67,7.29,8.04c0,.97-.15,2.35-1.79,2.35h-9.8ZM603.37,105.07c-3.29,0-4.56,2.02-4.56,5.2,0,.19,0,.34.26.34h8.56c.15,0,.26-.04.26-.22,0-2.99-1.08-5.31-4.53-5.31Z"/>
        <path d="M615.59,116.92v-20.79c0-.9.67-1.23,1.38-1.23.67,0,1.38.34,1.38,1.23v20.6c0,1.35.56,1.83,1.87,1.83.67,0,1.16.45,1.16,1.23,0,.82-.45,1.42-1.79,1.42-2.62,0-4-1.38-4-4.3Z"/>
        <path d="M639.86,111.91c0,5.31-1.35,9.31-6.95,9.31-1.42,0-2.99-.34-4.38-1.53,0-.04-.19-.19-.3-.19-.15,0-.22.11-.22.26v7.93c0,.9-.71,1.23-1.38,1.23-.71,0-1.38-.34-1.38-1.23v-23.86c0-.9.67-1.23,1.38-1.23s1.38.34,1.38,1.23v.26c0,.15.07.22.22.22.07,0,.26-.11.34-.19,1.42-1.2,2.92-1.53,4.34-1.53,5.61,0,6.95,4,6.95,9.31ZM637.02,111.91c0-3.93-.34-6.69-4.6-6.69s-4.41,3.03-4.41,6.69c0,3.33.07,6.69,4.41,6.69s4.6-2.77,4.6-6.69Z"/>
        <path d="M649.24,94.9c4.52,0,7.52,2.99,7.52,7.14,0,3.07-2.09,5.35-4.26,6.62-1.46.86-1.5,2.06-1.5,3.51,0,.9-.71,1.2-1.42,1.2-.75,0-1.46-.3-1.46-1.2,0-2.13.26-4.34,2.73-5.76,1.68-.97,2.95-2.21,2.95-4.41s-1.5-4.23-4.56-4.23c-1.68,0-2.95.93-4.49,2.24-.22.19-.64.37-.97.37-.64,0-1.46-.71-1.46-1.5,0-.56.49-1.09.97-1.57,1.53-1.5,3.59-2.43,5.95-2.43ZM649.54,121.22c-1.12,0-1.91-.82-1.91-1.91s.78-1.91,1.91-1.91,1.91.82,1.91,1.91-.82,1.91-1.91,1.91Z"/>
        <path d="M673.39,119.92v-9.95c0-.34-.04-.49-.19-.75l-7.29-12.27c-.15-.26-.19-.49-.19-.67,0-.75.93-1.38,1.68-1.38.37,0,.71.15.97.64l6.24,10.55c.15.22.11.49.26.49s.11-.26.26-.49l6.24-10.55c.26-.49.6-.64.97-.64.75,0,1.68.64,1.68,1.38,0,.19-.04.41-.19.67l-7.29,12.27c-.15.26-.19.41-.19.75v9.95c0,1.05-.78,1.31-1.5,1.31s-1.5-.26-1.5-1.31Z"/>
        <path d="M691.97,102.6c6.28,0,7.44,4,7.44,9.31s-1.16,9.31-7.44,9.31-7.44-4-7.44-9.31,1.16-9.31,7.44-9.31ZM691.97,118.61c4.26,0,4.6-2.77,4.6-6.69s-.34-6.69-4.6-6.69-4.6,2.77-4.6,6.69.34,6.69,4.6,6.69Z"/>
        <path d="M715.86,113.71v-9.87c0-.9.71-1.23,1.42-1.23.67,0,1.35.34,1.35,1.23v16.16c0,.9-.67,1.23-1.35,1.23-.64,0-1.42-.26-1.42-1.23v-.22c0-.15-.07-.26-.19-.26s-.26.15-.3.19c-1.38,1.16-2.99,1.53-4.6,1.53-5.09,0-6.51-3.22-6.51-7.78v-9.61c0-.9.71-1.23,1.38-1.23.71,0,1.38.34,1.38,1.23v8.6c0,3.63.19,6.17,4.41,6.17,3.18,0,4.41-1.68,4.41-4.9Z"/>
        <path d="M745.17,105.03c0,.71-.79,1.53-1.46,1.53-.34,0-.64-.22-.93-.45-1.16-.82-2.28-.9-3.25-.9-4.26,0-4.6,2.77-4.6,6.69s.34,6.69,4.64,6.69c.9,0,2.39-.26,3.4-.75.52-.26.86-.56,1.2-.56.71,0,1.38.75,1.38,1.5,0,.19-.04.67-.64,1.01-1.72,1.01-3.18,1.42-5.39,1.42-6.28,0-7.44-4-7.44-9.31s1.16-9.31,7.29-9.31c1.83,0,3.92.26,5.5,1.76.26.26.3.49.3.67Z"/>
        <path d="M759.53,119.06c-.11,0-.22.15-.37.26-1.23,1.01-2.84,1.91-5.53,1.91-4.34,0-5.68-2.69-5.68-5.09,0-4.56,3.78-5.68,7.4-5.68h3.63c.26,0,.34-.11.34-.34v-1.08c0-2.58-1.27-3.82-4.11-3.82-2.28,0-3.21.56-4.37,1.42-.19.15-.37.19-.52.19-.71,0-1.38-.78-1.38-1.46,0-.41.22-.75.6-1.08,1.68-1.35,3.81-1.68,5.76-1.68,5.8,0,6.95,2.99,6.95,7.44v7.59c0,.67.19,1.01.82,1.01h.34c.64,0,.97.52.97,1.23,0,.97-.41,1.35-1.94,1.35-1.42,0-2.28-.64-2.69-1.94-.07-.19-.11-.22-.19-.22ZM759.45,113.26c0-.22-.11-.34-.34-.34h-3.51c-2.54,0-4.82.37-4.82,2.8,0,1.91,1.23,3.07,3.33,3.07,3.7,0,5.35-2.35,5.35-4.6v-.93Z"/>
        <path d="M770.74,110.12v9.87c0,.9-.71,1.23-1.38,1.23-.71,0-1.38-.34-1.38-1.23v-16.16c0-.9.67-1.23,1.38-1.23s1.42.34,1.42,1.16v.37c0,.11.07.19.19.19.07,0,.22-.15.3-.19,1.38-1.16,2.95-1.53,4.6-1.53,5.01,0,6.51,3.22,6.51,7.74v9.65c0,.9-.67,1.23-1.35,1.23-.71,0-1.42-.34-1.42-1.23v-8.45c0-3.63-.15-6.32-4.45-6.32-3.14,0-4.41,1.72-4.41,4.9Z"/>
        <path d="M788.35,103.65c-.26.45-.67.56-1.01.56-.6,0-1.53-.49-1.53-1.2,0-.19.04-.45.19-.71l.82-1.38c.19-.3.22-.52.22-1.12v-3.66c0-.9.71-1.23,1.35-1.23.75,0,1.38.34,1.38,1.23v3.96c0,.86-.15,1.42-.49,1.98l-.93,1.57Z"/>
        <path d="M800.83,121.22c-3.55,0-5.12-2.02-5.12-5.39v-10.28c0-.19-.11-.26-.34-.26h-1.94c-.9,0-1.2-.6-1.2-1.27s.3-1.27,1.2-1.27h1.94c.22,0,.34-.07.34-.3v-4.26c0-.9.67-1.23,1.38-1.23.67,0,1.38.34,1.38,1.23v4.23c0,.26.07.34.34.34h2.36c.9,0,1.2.6,1.2,1.27s-.3,1.27-1.2,1.27h-2.36c-.26,0-.34.07-.34.34v10.47c0,1.57.9,2.51,2.65,2.51.78,0,1.23.56,1.23,1.27,0,.64-.37,1.35-1.53,1.35Z"/>
        <path d="M810.66,127.54c0-.79.41-1.35,1.35-1.35,1.72,0,2.54-1.01,2.54-2.84v-19.52c0-.9.67-1.23,1.38-1.23.67,0,1.38.34,1.38,1.23v19.86c0,2.84-1.79,5.23-4.82,5.23-.9,0-1.83-.26-1.83-1.38ZM815.94,98.6c-1.12,0-1.87-.79-1.87-1.87s.75-1.83,1.87-1.83c1.05,0,1.83.75,1.83,1.83s-.78,1.87-1.83,1.87Z"/>
        <path d="M834.48,113.71v-9.87c0-.9.71-1.23,1.42-1.23.67,0,1.35.34,1.35,1.23v16.16c0,.9-.67,1.23-1.35,1.23-.64,0-1.42-.26-1.42-1.23v-.22c0-.15-.07-.26-.19-.26s-.26.15-.3.19c-1.38,1.16-2.99,1.53-4.6,1.53-5.09,0-6.51-3.22-6.51-7.78v-9.61c0-.9.71-1.23,1.38-1.23.71,0,1.38.34,1.38,1.23v8.6c0,3.63.19,6.17,4.41,6.17,3.18,0,4.41-1.68,4.41-4.9Z"/>
        <path d="M848.84,118.61c2.21,0,3.7-.93,3.7-2.62,0-1.27-.97-1.94-2.77-2.51l-2.73-.86c-2.96-.93-4.75-2.32-4.75-5.01,0-3.1,2.69-5.01,6.54-5.01,2.28,0,3.78.67,4.6,1.16.52.3.86.64.86,1.12,0,.64-.64,1.46-1.23,1.46-.34,0-.52-.11-.79-.22-.56-.34-2.02-.9-3.44-.9-2.21,0-3.7.82-3.7,2.28,0,1.31,1.05,1.94,2.77,2.5l2.69.86c3.1.97,4.79,2.39,4.79,5.12,0,3.22-2.69,5.24-6.54,5.24-2.99,0-4.9-1.05-6.17-2.28-.26-.3-.56-.56-.56-1.01,0-.67.64-1.42,1.42-1.42.26,0,.45.04.93.45.93.82,1.98,1.65,4.38,1.65Z"/>
        <path d="M866.07,121.22c-3.55,0-5.12-2.02-5.12-5.39v-10.28c0-.19-.11-.26-.34-.26h-1.94c-.9,0-1.2-.6-1.2-1.27s.3-1.27,1.2-1.27h1.94c.22,0,.34-.07.34-.3v-4.26c0-.9.67-1.23,1.38-1.23.67,0,1.38.34,1.38,1.23v4.23c0,.26.07.34.34.34h2.36c.9,0,1.2.6,1.2,1.27s-.3,1.27-1.2,1.27h-2.36c-.26,0-.34.07-.34.34v10.47c0,1.57.9,2.51,2.65,2.51.78,0,1.23.56,1.23,1.27,0,.64-.37,1.35-1.53,1.35Z"/>
        <path d="M879.79,116.92v-20.79c0-.9.67-1.23,1.38-1.23.67,0,1.38.34,1.38,1.23v20.6c0,1.35.56,1.83,1.87,1.83.67,0,1.16.45,1.16,1.23,0,.82-.45,1.42-1.79,1.42-2.62,0-4-1.38-4-4.3Z"/>
        <path d="M891.42,113c-.22,0-.26.11-.26.26.11,3.48.82,5.35,4.97,5.35,1.16,0,2.65-.37,3.66-.93,1.08-.64,1.27-.82,1.57-.82.86,0,1.35.82,1.35,1.57,0,.37-.19.71-.6.97-1.64,1.12-3.78,1.83-6.24,1.83-6.28,0-7.59-3.63-7.59-9.31,0-5.31,1.16-9.31,7.44-9.31s7.29,4.67,7.29,8.04c0,.97-.15,2.35-1.79,2.35h-9.8ZM895.72,105.07c-3.29,0-4.56,2.02-4.56,5.2,0,.19,0,.34.26.34h8.56c.15,0,.26-.04.26-.22,0-2.99-1.08-5.31-4.53-5.31Z"/>
        <path d="M918.22,119.06c-.11,0-.22.15-.37.26-1.23,1.01-2.84,1.91-5.53,1.91-4.34,0-5.68-2.69-5.68-5.09,0-4.56,3.78-5.68,7.4-5.68h3.63c.26,0,.34-.11.34-.34v-1.08c0-2.58-1.27-3.82-4.11-3.82-2.28,0-3.21.56-4.37,1.42-.19.15-.37.19-.52.19-.71,0-1.38-.78-1.38-1.46,0-.41.22-.75.6-1.08,1.68-1.35,3.81-1.68,5.76-1.68,5.8,0,6.95,2.99,6.95,7.44v7.59c0,.67.19,1.01.82,1.01h.34c.64,0,.97.52.97,1.23,0,.97-.41,1.35-1.94,1.35-1.42,0-2.28-.64-2.69-1.94-.07-.19-.11-.22-.19-.22ZM918.15,113.26c0-.22-.11-.34-.34-.34h-3.51c-2.54,0-4.82.37-4.82,2.8,0,1.91,1.23,3.07,3.33,3.07,3.7,0,5.35-2.35,5.35-4.6v-.93Z"/>
        <path d="M933.81,119.65c-.49,1.27-1.2,1.57-1.95,1.57s-1.46-.3-1.94-1.57l-5.72-15.33c-.07-.19-.11-.34-.11-.49,0-.75.86-1.23,1.61-1.23.45,0,.86.19,1.05.75l4.75,12.94c.15.37.11.78.37.78s.22-.41.37-.78l4.75-12.94c.19-.56.6-.75,1.05-.75.75,0,1.61.49,1.61,1.23,0,.15-.04.3-.11.49l-5.72,15.33Z"/>
        <path d="M945.33,113c-.22,0-.26.11-.26.26.11,3.48.82,5.35,4.97,5.35,1.16,0,2.65-.37,3.66-.93,1.08-.64,1.27-.82,1.57-.82.86,0,1.35.82,1.35,1.57,0,.37-.19.71-.6.97-1.64,1.12-3.78,1.83-6.24,1.83-6.28,0-7.59-3.63-7.59-9.31,0-5.31,1.16-9.31,7.44-9.31s7.29,4.67,7.29,8.04c0,.97-.15,2.35-1.79,2.35h-9.8ZM949.62,105.07c-3.29,0-4.56,2.02-4.56,5.2,0,.19,0,.34.26.34h8.56c.15,0,.26-.04.26-.22,0-2.99-1.08-5.31-4.53-5.31Z"/>
        <path d="M503.65,164.85c0,.9-.67,1.23-1.35,1.23-.71,0-1.42-.34-1.42-1.23v-8.08c0-2.39-.15-4.26-.75-5.12-.93-1.35-2.36-1.57-3.74-1.57-1.53,0-2.84.52-3.63,1.65-.64.86-.75,2.58-.75,4.11v9.01c0,.9-.71,1.23-1.38,1.23-.71,0-1.38-.34-1.38-1.23v-16.16c0-.9.67-1.23,1.38-1.23.6,0,1.42.22,1.42.97v.56c0,.11.07.19.19.19.07,0,.3-.19.3-.19,1.38-1.16,2.95-1.53,4.37-1.53,1.8,0,3.67.45,5.01,1.98.15.15.34.3.52.3s.26-.11.41-.22c1.91-1.68,3.82-2.06,5.61-2.06,5.42,0,6.81,3.37,6.81,7.7v9.69c0,.9-.71,1.23-1.38,1.23-.71,0-1.38-.34-1.38-1.23v-8.08c0-2.8-.19-4.26-.78-5.16-.82-1.27-2.17-1.53-3.7-1.53-1.16,0-2.62.26-3.51,1.42-.67.82-.9,2.39-.9,4.37l.04,8.98Z"/>
        <path d="M523.27,157.86c-.22,0-.26.11-.26.26.11,3.48.82,5.35,4.97,5.35,1.16,0,2.65-.37,3.67-.93,1.08-.64,1.27-.82,1.57-.82.86,0,1.35.82,1.35,1.57,0,.37-.19.71-.6.97-1.65,1.12-3.78,1.83-6.24,1.83-6.28,0-7.59-3.63-7.59-9.31,0-5.31,1.16-9.31,7.44-9.31s7.29,4.67,7.29,8.04c0,.97-.15,2.35-1.79,2.35h-9.8ZM527.57,149.93c-3.29,0-4.56,2.02-4.56,5.2,0,.19,0,.34.26.34h8.56c.15,0,.26-.04.26-.22,0-2.99-1.08-5.31-4.52-5.31Z"/>
        <path d="M554.04,163.47c2.21,0,3.7-.93,3.7-2.62,0-1.27-.97-1.94-2.77-2.51l-2.73-.86c-2.95-.93-4.75-2.32-4.75-5.01,0-3.1,2.69-5.01,6.54-5.01,2.28,0,3.78.67,4.6,1.16.52.3.86.64.86,1.12,0,.64-.64,1.46-1.23,1.46-.34,0-.52-.11-.79-.22-.56-.34-2.02-.9-3.44-.9-2.21,0-3.7.82-3.7,2.28,0,1.31,1.05,1.94,2.77,2.5l2.69.86c3.1.97,4.79,2.39,4.79,5.12,0,3.22-2.69,5.24-6.54,5.24-2.99,0-4.9-1.05-6.17-2.28-.26-.3-.56-.56-.56-1.01,0-.67.64-1.42,1.42-1.42.26,0,.45.04.93.45.94.82,1.98,1.65,4.38,1.65Z"/>
        <path d="M571.28,166.09c-3.55,0-5.12-2.02-5.12-5.39v-10.28c0-.19-.11-.26-.34-.26h-1.94c-.9,0-1.2-.6-1.2-1.27s.3-1.27,1.2-1.27h1.94c.22,0,.34-.07.34-.3v-4.26c0-.9.67-1.23,1.38-1.23.67,0,1.38.34,1.38,1.23v4.23c0,.26.07.34.34.34h2.36c.9,0,1.2.6,1.2,1.27s-.3,1.27-1.2,1.27h-2.36c-.26,0-.34.07-.34.34v10.47c0,1.57.9,2.51,2.65,2.51.78,0,1.23.56,1.23,1.27,0,.64-.37,1.35-1.53,1.35Z"/>
        <path d="M584.88,150.38c-.64,0-.56-.04-1.46-.04-2.84,0-4.08,1.53-4.08,5.65v8.86c0,.9-.67,1.23-1.38,1.23-.75,0-1.38-.34-1.38-1.23v-16.16c0-.9.67-1.23,1.38-1.23.78,0,1.42.34,1.42,1.23v.3c0,.07.04.15.15.15.07,0,.19-.11.3-.22,1.31-1.08,2.77-1.46,4-1.46,1.46,0,2.28.22,2.28,1.53,0,.93-.45,1.38-1.23,1.38Z"/>
        <path d="M599.65,163.92c-.11,0-.22.15-.37.26-1.23,1.01-2.84,1.91-5.53,1.91-4.34,0-5.68-2.69-5.68-5.09,0-4.56,3.78-5.68,7.4-5.68h3.63c.26,0,.34-.11.34-.34v-1.08c0-2.58-1.27-3.82-4.11-3.82-2.28,0-3.21.56-4.37,1.42-.19.15-.37.19-.52.19-.71,0-1.38-.78-1.38-1.46,0-.41.22-.75.6-1.08,1.68-1.35,3.81-1.68,5.76-1.68,5.8,0,6.95,2.99,6.95,7.44v7.59c0,.67.19,1.01.82,1.01h.34c.64,0,.97.52.97,1.23,0,.97-.41,1.35-1.94,1.35-1.42,0-2.28-.64-2.69-1.94-.07-.19-.11-.22-.19-.22ZM599.58,158.12c0-.22-.11-.34-.34-.34h-3.51c-2.54,0-4.82.37-4.82,2.8,0,1.91,1.23,3.07,3.33,3.07,3.7,0,5.35-2.35,5.35-4.6v-.93Z"/>
        <path d="M610.86,154.98v9.87c0,.9-.71,1.23-1.38,1.23-.71,0-1.38-.34-1.38-1.23v-16.16c0-.9.67-1.23,1.38-1.23s1.42.34,1.42,1.16v.37c0,.11.07.19.19.19.07,0,.22-.15.3-.19,1.38-1.16,2.95-1.53,4.6-1.53,5.01,0,6.51,3.22,6.51,7.74v9.65c0,.9-.67,1.23-1.35,1.23-.71,0-1.42-.34-1.42-1.23v-8.45c0-3.63-.15-6.32-4.45-6.32-3.14,0-4.41,1.72-4.41,4.9Z"/>
        <path d="M627.35,156.77c0-5.31,1.35-9.31,6.92-9.31,1.42,0,3.03.37,4.41,1.57,0,0,.19.19.3.19s.19-.07.19-.26v-7.96c0-.9.71-1.23,1.42-1.23.67,0,1.35.34,1.35,1.23v23.86c0,.9-.67,1.23-1.35,1.23s-1.42-.22-1.42-1.08v-.45c0-.19-.07-.22-.19-.22-.07,0-.26.15-.34.22-1.42,1.2-2.95,1.53-4.37,1.53-5.57,0-6.92-4-6.92-9.31ZM630.19,156.77c0,3.93.34,6.69,4.56,6.69s4.41-2.92,4.41-6.69c0-3.4-.07-6.69-4.41-6.69s-4.56,2.77-4.56,6.69Z"/>
        <path d="M650.12,157.86c-.22,0-.26.11-.26.26.11,3.48.82,5.35,4.97,5.35,1.16,0,2.65-.37,3.66-.93,1.08-.64,1.27-.82,1.57-.82.86,0,1.35.82,1.35,1.57,0,.37-.19.71-.6.97-1.64,1.12-3.78,1.83-6.24,1.83-6.28,0-7.59-3.63-7.59-9.31,0-5.31,1.16-9.31,7.44-9.31s7.29,4.67,7.29,8.04c0,.97-.15,2.35-1.79,2.35h-9.8ZM654.42,149.93c-3.29,0-4.56,2.02-4.56,5.2,0,.19,0,.34.26.34h8.56c.15,0,.26-.04.26-.22,0-2.99-1.08-5.31-4.53-5.31Z"/>
        <path d="M665.93,156.77c0-5.31,1.35-9.31,6.92-9.31,1.42,0,3.03.37,4.41,1.57,0,0,.19.19.3.19s.19-.07.19-.26v-7.96c0-.9.71-1.23,1.42-1.23.67,0,1.35.34,1.35,1.23v23.86c0,.9-.67,1.23-1.35,1.23s-1.42-.22-1.42-1.08v-.45c0-.19-.07-.22-.19-.22-.07,0-.26.15-.34.22-1.42,1.2-2.95,1.53-4.37,1.53-5.57,0-6.92-4-6.92-9.31ZM668.77,156.77c0,3.93.34,6.69,4.56,6.69s4.41-2.92,4.41-6.69c0-3.4-.07-6.69-4.41-6.69s-4.56,2.77-4.56,6.69Z"/>
        <path d="M697.45,148.92c0,.19.07.26.22.26.07,0,.22-.15.3-.19,1.38-1.16,2.95-1.53,4.6-1.53,5.01,0,6.51,3.22,6.51,7.74v9.65c0,.9-.67,1.23-1.35,1.23-.71,0-1.42-.34-1.42-1.23v-8.45c0-3.63-.15-6.32-4.45-6.32-3.14,0-4.41,1.68-4.41,4.97v9.8c0,.9-.71,1.23-1.38,1.23-.71,0-1.38-.34-1.38-1.23v-23.86c0-.9.67-1.23,1.38-1.23.67,0,1.38.34,1.38,1.23v7.93Z"/>
        <path d="M717.07,157.86c-.22,0-.26.11-.26.26.11,3.48.82,5.35,4.97,5.35,1.16,0,2.65-.37,3.66-.93,1.08-.64,1.27-.82,1.57-.82.86,0,1.35.82,1.35,1.57,0,.37-.19.71-.6.97-1.64,1.12-3.78,1.83-6.24,1.83-6.28,0-7.59-3.63-7.59-9.31,0-5.31,1.16-9.31,7.44-9.31s7.29,4.67,7.29,8.04c0,.97-.15,2.35-1.79,2.35h-9.8ZM721.37,149.93c-3.29,0-4.56,2.02-4.56,5.2,0,.19,0,.34.26.34h8.56c.15,0,.26-.04.26-.22,0-2.99-1.08-5.31-4.53-5.31Z"/>
        <path d="M741.9,150.38c-.64,0-.56-.04-1.46-.04-2.84,0-4.08,1.53-4.08,5.65v8.86c0,.9-.67,1.23-1.38,1.23-.75,0-1.38-.34-1.38-1.23v-16.16c0-.9.67-1.23,1.38-1.23.78,0,1.42.34,1.42,1.23v.3c0,.07.04.15.15.15.07,0,.19-.11.3-.22,1.31-1.08,2.77-1.46,4-1.46,1.46,0,2.28.22,2.28,1.53,0,.93-.45,1.38-1.23,1.38Z"/>
        <path d="M747.88,157.86c-.22,0-.26.11-.26.26.11,3.48.82,5.35,4.97,5.35,1.16,0,2.65-.37,3.66-.93,1.08-.64,1.27-.82,1.57-.82.86,0,1.35.82,1.35,1.57,0,.37-.19.71-.6.97-1.64,1.12-3.78,1.83-6.24,1.83-6.28,0-7.59-3.63-7.59-9.31,0-5.31,1.16-9.31,7.44-9.31s7.29,4.67,7.29,8.04c0,.97-.15,2.35-1.79,2.35h-9.8ZM752.18,149.93c-3.29,0-4.56,2.02-4.56,5.2,0,.19,0,.34.26.34h8.56c.15,0,.26-.04.26-.22,0-2.99-1.08-5.31-4.53-5.31Z"/>
        <path d="M766.05,166.09c-1.12,0-1.91-.82-1.91-1.91s.78-1.91,1.91-1.91,1.91.82,1.91,1.91-.82,1.91-1.91,1.91ZM764.66,141c0-.9.67-1.23,1.38-1.23.67,0,1.38.34,1.38,1.23v16c0,.9-.71,1.23-1.38,1.23-.71,0-1.38-.34-1.38-1.23v-16Z"/>
      </g>
    </g>
  </g>
  <g id="_12" data-name="12">
    <g>
      <path d="M100.61,247.43c-.85,0-1.16-.61-1.16-1.22,0-.65.31-1.29,1.16-1.29h14.28c.85,0,1.16.65,1.16,1.29,0,.61-.31,1.22-1.16,1.22h-5.47c-.2,0-.31.07-.31.31v19.79c0,.95-.71,1.19-1.36,1.19-.68,0-1.36-.24-1.36-1.19v-19.79c0-.24-.07-.31-.31-.31h-5.47Z"/>
      <path d="M121.94,253.11c0,.17.07.24.2.24.07,0,.2-.14.27-.17,1.26-1.05,2.69-1.39,4.18-1.39,4.56,0,5.92,2.92,5.92,7.04v8.77c0,.82-.61,1.12-1.22,1.12-.65,0-1.29-.31-1.29-1.12v-7.68c0-3.3-.14-5.75-4.04-5.75-2.86,0-4.01,1.53-4.01,4.52v8.91c0,.82-.65,1.12-1.26,1.12-.65,0-1.26-.31-1.26-1.12v-21.69c0-.82.61-1.12,1.26-1.12.61,0,1.26.31,1.26,1.12v7.21Z"/>
      <path d="M139.5,261.24c-.2,0-.24.1-.24.24.1,3.16.75,4.86,4.52,4.86,1.05,0,2.41-.34,3.33-.85.99-.58,1.16-.75,1.43-.75.78,0,1.22.75,1.22,1.43,0,.34-.17.65-.54.88-1.5,1.02-3.43,1.67-5.68,1.67-5.71,0-6.9-3.3-6.9-8.46,0-4.83,1.05-8.46,6.77-8.46s6.63,4.25,6.63,7.31c0,.88-.14,2.14-1.63,2.14h-8.91ZM143.41,254.03c-2.99,0-4.15,1.84-4.15,4.73,0,.17,0,.31.24.31h7.79c.14,0,.24-.03.24-.2,0-2.72-.99-4.83-4.11-4.83Z"/>
      <path d="M161.74,254.44c-.58,0-.51-.03-1.33-.03-2.58,0-3.71,1.39-3.71,5.13v8.06c0,.82-.61,1.12-1.26,1.12-.68,0-1.26-.31-1.26-1.12v-14.69c0-.82.61-1.12,1.26-1.12.71,0,1.29.31,1.29,1.12v.27c0,.07.03.14.14.14.07,0,.17-.1.27-.2,1.19-.99,2.52-1.33,3.64-1.33,1.33,0,2.07.2,2.07,1.39,0,.85-.41,1.26-1.12,1.26Z"/>
      <path d="M167.97,261.24c-.2,0-.24.1-.24.24.1,3.16.75,4.86,4.52,4.86,1.05,0,2.41-.34,3.33-.85.99-.58,1.16-.75,1.43-.75.78,0,1.22.75,1.22,1.43,0,.34-.17.65-.54.88-1.5,1.02-3.43,1.67-5.68,1.67-5.71,0-6.9-3.3-6.9-8.46,0-4.83,1.05-8.46,6.77-8.46s6.63,4.25,6.63,7.31c0,.88-.14,2.14-1.63,2.14h-8.91ZM171.88,254.03c-2.99,0-4.15,1.84-4.15,4.73,0,.17,0,.31.24.31h7.79c.14,0,.24-.03.24-.2,0-2.72-.99-4.83-4.11-4.83Z"/>
      <path d="M199.99,266.74c-.1,0-.2.14-.34.24-1.12.92-2.58,1.73-5.03,1.73-3.94,0-5.17-2.45-5.17-4.62,0-4.15,3.43-5.17,6.73-5.17h3.3c.24,0,.31-.1.31-.31v-.99c0-2.35-1.16-3.47-3.74-3.47-2.07,0-2.92.51-3.98,1.29-.17.14-.34.17-.48.17-.65,0-1.26-.71-1.26-1.33,0-.37.2-.68.54-.99,1.53-1.22,3.47-1.53,5.24-1.53,5.27,0,6.32,2.72,6.32,6.76v6.9c0,.61.17.92.75.92h.31c.58,0,.88.48.88,1.12,0,.88-.37,1.22-1.77,1.22-1.29,0-2.07-.58-2.45-1.77-.07-.17-.1-.2-.17-.2ZM199.92,261.48c0-.2-.1-.31-.31-.31h-3.2c-2.31,0-4.39.34-4.39,2.55,0,1.73,1.12,2.79,3.03,2.79,3.37,0,4.86-2.14,4.86-4.18v-.85Z"/>
      <path d="M215.29,254.44c-.58,0-.51-.03-1.33-.03-2.58,0-3.71,1.39-3.71,5.13v8.06c0,.82-.61,1.12-1.26,1.12-.68,0-1.26-.31-1.26-1.12v-14.69c0-.82.61-1.12,1.26-1.12.71,0,1.29.31,1.29,1.12v.27c0,.07.03.14.14.14.07,0,.17-.1.27-.2,1.19-.99,2.52-1.33,3.64-1.33,1.33,0,2.07.2,2.07,1.39,0,.85-.41,1.26-1.12,1.26Z"/>
      <path d="M221.52,261.24c-.2,0-.24.1-.24.24.1,3.16.75,4.86,4.52,4.86,1.05,0,2.41-.34,3.33-.85.99-.58,1.16-.75,1.43-.75.78,0,1.22.75,1.22,1.43,0,.34-.17.65-.54.88-1.5,1.02-3.43,1.67-5.68,1.67-5.71,0-6.9-3.3-6.9-8.46,0-4.83,1.05-8.46,6.77-8.46s6.63,4.25,6.63,7.31c0,.88-.14,2.14-1.63,2.14h-8.91ZM225.43,254.03c-2.99,0-4.15,1.84-4.15,4.73,0,.17,0,.31.24.31h7.79c.14,0,.24-.03.24-.2,0-2.72-.99-4.83-4.11-4.83Z"/>
      <path d="M249.94,268.72c-3.23,0-4.66-1.84-4.66-4.9v-9.35c0-.17-.1-.24-.31-.24h-1.77c-.82,0-1.09-.54-1.09-1.16s.27-1.16,1.09-1.16h1.77c.2,0,.31-.07.31-.27v-3.88c0-.82.61-1.12,1.26-1.12.61,0,1.26.31,1.26,1.12v3.84c0,.24.07.31.31.31h2.14c.82,0,1.09.54,1.09,1.16s-.27,1.16-1.09,1.16h-2.14c-.24,0-.31.07-.31.31v9.52c0,1.43.82,2.28,2.41,2.28.71,0,1.12.51,1.12,1.16,0,.58-.34,1.22-1.39,1.22Z"/>
      <path d="M257.26,253.11c0,.17.07.24.2.24.07,0,.2-.14.27-.17,1.26-1.05,2.69-1.39,4.18-1.39,4.56,0,5.92,2.92,5.92,7.04v8.77c0,.82-.61,1.12-1.22,1.12-.65,0-1.29-.31-1.29-1.12v-7.68c0-3.3-.14-5.75-4.04-5.75-2.86,0-4.01,1.53-4.01,4.52v8.91c0,.82-.65,1.12-1.26,1.12-.65,0-1.26-.31-1.26-1.12v-21.69c0-.82.61-1.12,1.26-1.12.61,0,1.26.31,1.26,1.12v7.21Z"/>
      <path d="M280.11,254.44c-.58,0-.51-.03-1.33-.03-2.58,0-3.71,1.39-3.71,5.13v8.06c0,.82-.61,1.12-1.26,1.12-.68,0-1.26-.31-1.26-1.12v-14.69c0-.82.61-1.12,1.26-1.12.71,0,1.29.31,1.29,1.12v.27c0,.07.03.14.14.14.07,0,.17-.1.27-.2,1.19-.99,2.52-1.33,3.64-1.33,1.33,0,2.07.2,2.07,1.39,0,.85-.41,1.26-1.12,1.26Z"/>
      <path d="M286.34,261.24c-.2,0-.24.1-.24.24.1,3.16.75,4.86,4.52,4.86,1.05,0,2.41-.34,3.33-.85.99-.58,1.16-.75,1.43-.75.78,0,1.22.75,1.22,1.43,0,.34-.17.65-.54.88-1.5,1.02-3.43,1.67-5.68,1.67-5.71,0-6.9-3.3-6.9-8.46,0-4.83,1.05-8.46,6.77-8.46s6.63,4.25,6.63,7.31c0,.88-.14,2.14-1.63,2.14h-8.91ZM290.25,254.03c-2.99,0-4.15,1.84-4.15,4.73,0,.17,0,.31.24.31h7.79c.14,0,.24-.03.24-.2,0-2.72-.99-4.83-4.11-4.83Z"/>
      <path d="M303.36,261.24c-.2,0-.24.1-.24.24.1,3.16.75,4.86,4.52,4.86,1.05,0,2.41-.34,3.33-.85.99-.58,1.16-.75,1.43-.75.78,0,1.22.75,1.22,1.43,0,.34-.17.65-.54.88-1.5,1.02-3.43,1.67-5.68,1.67-5.71,0-6.9-3.3-6.9-8.46,0-4.83,1.05-8.46,6.77-8.46s6.63,4.25,6.63,7.31c0,.88-.14,2.14-1.63,2.14h-8.91ZM307.27,254.03c-2.99,0-4.15,1.84-4.15,4.73,0,.17,0,.31.24.31h7.79c.14,0,.24-.03.24-.2,0-2.72-.99-4.83-4.11-4.83Z"/>
      <path d="M339.12,267.59c0,.82-.61,1.12-1.22,1.12-.65,0-1.29-.31-1.29-1.12v-7.34c0-2.18-.14-3.88-.68-4.66-.85-1.22-2.14-1.43-3.4-1.43-1.39,0-2.58.48-3.3,1.5-.58.78-.68,2.35-.68,3.74v8.19c0,.82-.65,1.12-1.26,1.12-.65,0-1.26-.31-1.26-1.12v-14.69c0-.82.61-1.12,1.26-1.12.54,0,1.29.2,1.29.88v.51c0,.1.07.17.17.17.07,0,.27-.17.27-.17,1.26-1.05,2.69-1.39,3.98-1.39,1.63,0,3.33.41,4.56,1.8.14.14.31.27.48.27s.24-.1.37-.2c1.73-1.53,3.47-1.87,5.1-1.87,4.93,0,6.19,3.06,6.19,7v8.8c0,.82-.65,1.12-1.26,1.12-.65,0-1.26-.31-1.26-1.12v-7.34c0-2.55-.17-3.88-.71-4.69-.75-1.16-1.97-1.39-3.37-1.39-1.05,0-2.38.24-3.2,1.29-.61.75-.82,2.18-.82,3.98l.03,8.16Z"/>
      <path d="M363.91,266.74c-.1,0-.2.14-.34.24-1.12.92-2.58,1.73-5.03,1.73-3.94,0-5.17-2.45-5.17-4.62,0-4.15,3.43-5.17,6.73-5.17h3.3c.24,0,.31-.1.31-.31v-.99c0-2.35-1.16-3.47-3.74-3.47-2.07,0-2.92.51-3.98,1.29-.17.14-.34.17-.48.17-.65,0-1.26-.71-1.26-1.33,0-.37.2-.68.54-.99,1.53-1.22,3.47-1.53,5.24-1.53,5.27,0,6.32,2.72,6.32,6.76v6.9c0,.61.17.92.75.92h.31c.58,0,.88.48.88,1.12,0,.88-.37,1.22-1.77,1.22-1.29,0-2.07-.58-2.45-1.77-.07-.17-.1-.2-.17-.2ZM363.84,261.48c0-.2-.1-.31-.31-.31h-3.2c-2.31,0-4.39.34-4.39,2.55,0,1.73,1.12,2.79,3.03,2.79,3.37,0,4.86-2.14,4.86-4.18v-.85Z"/>
      <path d="M372.91,248.15c-1.02,0-1.7-.71-1.7-1.7s.68-1.67,1.7-1.67c.95,0,1.67.68,1.67,1.67s-.71,1.7-1.67,1.7ZM374.17,267.59c0,.82-.65,1.12-1.26,1.12-.65,0-1.26-.31-1.26-1.12v-14.69c0-.82.61-1.12,1.26-1.12.61,0,1.26.31,1.26,1.12v14.69Z"/>
      <path d="M381.51,258.62v8.97c0,.82-.65,1.12-1.26,1.12-.65,0-1.26-.31-1.26-1.12v-14.69c0-.82.61-1.12,1.26-1.12s1.29.31,1.29,1.05v.34c0,.1.07.17.17.17.07,0,.2-.14.27-.17,1.26-1.05,2.69-1.39,4.18-1.39,4.56,0,5.92,2.92,5.92,7.04v8.77c0,.82-.61,1.12-1.22,1.12-.65,0-1.29-.31-1.29-1.12v-7.68c0-3.3-.14-5.75-4.04-5.75-2.86,0-4.01,1.56-4.01,4.45Z"/>
      <path d="M418.09,260.25c0,4.83-1.22,8.46-6.32,8.46-1.29,0-2.72-.31-3.98-1.39,0-.03-.17-.17-.27-.17-.14,0-.2.1-.2.24v7.21c0,.82-.65,1.12-1.26,1.12-.65,0-1.26-.31-1.26-1.12v-21.69c0-.82.61-1.12,1.26-1.12s1.26.31,1.26,1.12v.24c0,.14.07.2.2.2.07,0,.24-.1.31-.17,1.29-1.09,2.65-1.39,3.94-1.39,5.1,0,6.32,3.64,6.32,8.46ZM415.51,260.25c0-3.57-.31-6.08-4.18-6.08s-4.01,2.75-4.01,6.08c0,3.03.07,6.08,4.01,6.08s4.18-2.52,4.18-6.08Z"/>
      <path d="M422.35,264.81v-18.9c0-.82.61-1.12,1.26-1.12.61,0,1.26.31,1.26,1.12v18.73c0,1.22.51,1.67,1.7,1.67.61,0,1.05.41,1.05,1.12s-.41,1.29-1.63,1.29c-2.38,0-3.64-1.26-3.64-3.91Z"/>
      <path d="M440.73,266.74c-.1,0-.2.14-.34.24-1.12.92-2.58,1.73-5.03,1.73-3.94,0-5.17-2.45-5.17-4.62,0-4.15,3.43-5.17,6.73-5.17h3.3c.24,0,.31-.1.31-.31v-.99c0-2.35-1.16-3.47-3.74-3.47-2.07,0-2.92.51-3.98,1.29-.17.14-.34.17-.48.17-.65,0-1.26-.71-1.26-1.33,0-.37.2-.68.54-.99,1.53-1.22,3.47-1.53,5.24-1.53,5.27,0,6.32,2.72,6.32,6.76v6.9c0,.61.17.92.75.92h.31c.58,0,.88.48.88,1.12,0,.88-.37,1.22-1.77,1.22-1.29,0-2.07-.58-2.45-1.77-.07-.17-.1-.2-.17-.2ZM440.66,261.48c0-.2-.1-.31-.31-.31h-3.2c-2.31,0-4.39.34-4.39,2.55,0,1.73,1.12,2.79,3.03,2.79,3.37,0,4.86-2.14,4.86-4.18v-.85Z"/>
      <path d="M459.39,254c0,.65-.71,1.39-1.33,1.39-.31,0-.58-.2-.85-.41-1.05-.75-2.07-.82-2.96-.82-3.88,0-4.18,2.52-4.18,6.08s.31,6.08,4.22,6.08c.82,0,2.18-.24,3.09-.68.48-.24.78-.51,1.09-.51.65,0,1.26.68,1.26,1.36,0,.17-.03.61-.58.92-1.56.92-2.89,1.29-4.9,1.29-5.71,0-6.77-3.64-6.77-8.46s1.05-8.46,6.63-8.46c1.67,0,3.57.24,5,1.6.24.24.27.44.27.61Z"/>
      <path d="M465.39,261.24c-.2,0-.24.1-.24.24.1,3.16.75,4.86,4.52,4.86,1.05,0,2.41-.34,3.33-.85.99-.58,1.16-.75,1.43-.75.78,0,1.22.75,1.22,1.43,0,.34-.17.65-.54.88-1.5,1.02-3.43,1.67-5.68,1.67-5.71,0-6.9-3.3-6.9-8.46,0-4.83,1.05-8.46,6.77-8.46s6.63,4.25,6.63,7.31c0,.88-.14,2.14-1.63,2.14h-8.91ZM469.3,254.03c-2.99,0-4.15,1.84-4.15,4.73,0,.17,0,.31.24.31h7.79c.14,0,.24-.03.24-.2,0-2.72-.99-4.83-4.11-4.83Z"/>
      <path d="M485.45,266.34c2.01,0,3.37-.85,3.37-2.38,0-1.16-.88-1.77-2.52-2.28l-2.48-.78c-2.69-.85-4.32-2.11-4.32-4.55,0-2.82,2.45-4.56,5.95-4.56,2.07,0,3.43.61,4.18,1.05.48.27.78.58.78,1.02,0,.58-.58,1.33-1.12,1.33-.31,0-.48-.1-.71-.2-.51-.31-1.84-.82-3.13-.82-2.01,0-3.37.75-3.37,2.07,0,1.19.95,1.77,2.52,2.28l2.45.78c2.82.88,4.35,2.18,4.35,4.66,0,2.92-2.45,4.76-5.95,4.76-2.72,0-4.45-.95-5.61-2.07-.24-.27-.51-.51-.51-.92,0-.61.58-1.29,1.29-1.29.24,0,.41.03.85.41.85.75,1.8,1.5,3.98,1.5Z"/>
      <path d="M508.3,271.27c-.99,2.52-2.69,4.45-5.03,4.45-.88,0-1.22-.51-1.22-1.26,0-.54.34-.92.95-1.05,1.6-.34,2.28-.85,3.13-3.03l.78-1.94c.07-.2.14-.37.14-.58,0-.14-.03-.27-.1-.44l-5.37-14.04c-.07-.17-.1-.34-.1-.48,0-.68.78-1.12,1.46-1.12.37,0,.78.17.99.71l4.15,11.35c.1.31.1.65.34.65.2,0,.24-.41.34-.65l4.25-11.35c.2-.54.61-.71.99-.71.68,0,1.46.44,1.46,1.12,0,.14-.03.31-.1.48l-7.04,17.88Z"/>
      <path d="M524.55,251.79c5.71,0,6.77,3.64,6.77,8.46s-1.05,8.46-6.77,8.46-6.77-3.64-6.77-8.46,1.05-8.46,6.77-8.46ZM524.55,266.34c3.88,0,4.18-2.52,4.18-6.08s-.31-6.08-4.18-6.08-4.18,2.52-4.18,6.08.31,6.08,4.18,6.08Z"/>
      <path d="M545.92,261.88v-8.98c0-.82.65-1.12,1.29-1.12.61,0,1.22.31,1.22,1.12v14.69c0,.82-.61,1.12-1.22,1.12-.58,0-1.29-.24-1.29-1.12v-.2c0-.14-.07-.24-.17-.24s-.24.14-.27.17c-1.26,1.05-2.72,1.39-4.18,1.39-4.62,0-5.92-2.92-5.92-7.07v-8.74c0-.82.65-1.12,1.26-1.12.65,0,1.26.31,1.26,1.12v7.82c0,3.3.17,5.61,4.01,5.61,2.89,0,4.01-1.53,4.01-4.45Z"/>
      <path d="M572.58,254c0,.65-.71,1.39-1.33,1.39-.31,0-.58-.2-.85-.41-1.05-.75-2.07-.82-2.96-.82-3.88,0-4.18,2.52-4.18,6.08s.31,6.08,4.22,6.08c.82,0,2.18-.24,3.09-.68.48-.24.78-.51,1.09-.51.65,0,1.26.68,1.26,1.36,0,.17-.03.61-.58.92-1.56.92-2.89,1.29-4.9,1.29-5.71,0-6.77-3.64-6.77-8.46s1.05-8.46,6.63-8.46c1.67,0,3.57.24,5,1.6.24.24.27.44.27.61Z"/>
      <path d="M586.3,266.74c-.1,0-.2.14-.34.24-1.12.92-2.58,1.73-5.03,1.73-3.94,0-5.17-2.45-5.17-4.62,0-4.15,3.43-5.17,6.73-5.17h3.3c.24,0,.31-.1.31-.31v-.99c0-2.35-1.16-3.47-3.74-3.47-2.07,0-2.92.51-3.98,1.29-.17.14-.34.17-.48.17-.65,0-1.26-.71-1.26-1.33,0-.37.2-.68.54-.99,1.53-1.22,3.47-1.53,5.24-1.53,5.27,0,6.32,2.72,6.32,6.76v6.9c0,.61.17.92.75.92h.31c.58,0,.88.48.88,1.12,0,.88-.37,1.22-1.77,1.22-1.29,0-2.07-.58-2.45-1.77-.07-.17-.1-.2-.17-.2ZM586.23,261.48c0-.2-.1-.31-.31-.31h-3.2c-2.31,0-4.39.34-4.39,2.55,0,1.73,1.12,2.79,3.03,2.79,3.37,0,4.86-2.14,4.86-4.18v-.85Z"/>
      <path d="M596.57,258.62v8.97c0,.82-.65,1.12-1.26,1.12-.65,0-1.26-.31-1.26-1.12v-14.69c0-.82.61-1.12,1.26-1.12s1.29.31,1.29,1.05v.34c0,.1.07.17.17.17.07,0,.2-.14.27-.17,1.26-1.05,2.69-1.39,4.18-1.39,4.56,0,5.92,2.92,5.92,7.04v8.77c0,.82-.61,1.12-1.22,1.12-.65,0-1.29-.31-1.29-1.12v-7.68c0-3.3-.14-5.75-4.04-5.75-2.86,0-4.01,1.56-4.01,4.45Z"/>
      <path d="M619.21,260.25c0-4.83,1.22-8.46,6.29-8.46,1.29,0,2.75.34,4.01,1.43.03.03.17.17.27.17s.17-.07.17-.2v-.27c0-.82.51-1.12,1.29-1.12.61,0,1.22.31,1.22,1.12v16.79c0,4.42-3.64,6.36-7.31,6.36-2.18,0-3.57-.51-4.38-.95-.41-.24-.58-.58-.58-.92,0-.61.44-1.39,1.16-1.39.17,0,.37.07.61.17.78.37,1.73.71,3.2.71,2.62,0,4.79-1.39,4.79-3.84v-2.48c0-.14-.07-.24-.17-.24s-.24.14-.27.17c-1.22,1.12-2.72,1.43-4.01,1.43-5.07,0-6.29-3.64-6.29-8.46ZM621.79,260.25c0,3.57.31,6.08,4.15,6.08s4.01-2.58,4.01-6.08c0-3.03-.07-6.08-4.01-6.08s-4.15,2.52-4.15,6.08Z"/>
      <path d="M639.62,261.24c-.2,0-.24.1-.24.24.1,3.16.75,4.86,4.52,4.86,1.05,0,2.41-.34,3.33-.85.99-.58,1.16-.75,1.43-.75.78,0,1.22.75,1.22,1.43,0,.34-.17.65-.54.88-1.5,1.02-3.43,1.67-5.68,1.67-5.71,0-6.9-3.3-6.9-8.46,0-4.83,1.05-8.46,6.77-8.46s6.63,4.25,6.63,7.31c0,.88-.14,2.14-1.63,2.14h-8.91ZM643.53,254.03c-2.99,0-4.15,1.84-4.15,4.73,0,.17,0,.31.24.31h7.79c.14,0,.24-.03.24-.2,0-2.72-.99-4.83-4.11-4.83Z"/>
      <path d="M660.28,268.72c-3.23,0-4.66-1.84-4.66-4.9v-9.35c0-.17-.1-.24-.31-.24h-1.77c-.82,0-1.09-.54-1.09-1.16s.27-1.16,1.09-1.16h1.77c.2,0,.31-.07.31-.27v-3.88c0-.82.61-1.12,1.26-1.12.61,0,1.26.31,1.26,1.12v3.84c0,.24.07.31.31.31h2.14c.82,0,1.09.54,1.09,1.16s-.27,1.16-1.09,1.16h-2.14c-.24,0-.31.07-.31.31v9.52c0,1.43.82,2.28,2.41,2.28.71,0,1.12.51,1.12,1.16,0,.58-.34,1.22-1.39,1.22Z"/>
      <path d="M675.27,253.11c0,.17.07.24.2.24.07,0,.2-.14.27-.17,1.26-1.05,2.69-1.39,4.18-1.39,4.56,0,5.92,2.92,5.92,7.04v8.77c0,.82-.61,1.12-1.22,1.12-.65,0-1.29-.31-1.29-1.12v-7.68c0-3.3-.14-5.75-4.04-5.75-2.86,0-4.01,1.53-4.01,4.52v8.91c0,.82-.65,1.12-1.26,1.12-.65,0-1.26-.31-1.26-1.12v-21.69c0-.82.61-1.12,1.26-1.12.61,0,1.26.31,1.26,1.12v7.21Z"/>
      <path d="M692.82,261.24c-.2,0-.24.1-.24.24.1,3.16.75,4.86,4.52,4.86,1.05,0,2.41-.34,3.33-.85.99-.58,1.16-.75,1.43-.75.78,0,1.22.75,1.22,1.43,0,.34-.17.65-.54.88-1.5,1.02-3.43,1.67-5.68,1.67-5.71,0-6.9-3.3-6.9-8.46,0-4.83,1.05-8.46,6.77-8.46s6.63,4.25,6.63,7.31c0,.88-.14,2.14-1.63,2.14h-8.91ZM696.73,254.03c-2.99,0-4.15,1.84-4.15,4.73,0,.17,0,.31.24.31h7.79c.14,0,.24-.03.24-.2,0-2.72-.99-4.83-4.11-4.83Z"/>
      <path d="M707.47,264.81v-18.9c0-.82.61-1.12,1.26-1.12.61,0,1.26.31,1.26,1.12v18.73c0,1.22.51,1.67,1.7,1.67.61,0,1.05.41,1.05,1.12s-.41,1.29-1.63,1.29c-2.38,0-3.64-1.26-3.64-3.91Z"/>
      <path d="M729.45,260.25c0,4.83-1.22,8.46-6.32,8.46-1.29,0-2.72-.31-3.98-1.39,0-.03-.17-.17-.27-.17-.14,0-.2.1-.2.24v7.21c0,.82-.65,1.12-1.26,1.12-.65,0-1.26-.31-1.26-1.12v-21.69c0-.82.61-1.12,1.26-1.12s1.26.31,1.26,1.12v.24c0,.14.07.2.2.2.07,0,.24-.1.31-.17,1.29-1.09,2.65-1.39,3.94-1.39,5.1,0,6.32,3.64,6.32,8.46ZM726.87,260.25c0-3.57-.31-6.08-4.18-6.08s-4.01,2.75-4.01,6.08c0,3.03.07,6.08,4.01,6.08s4.18-2.52,4.18-6.08Z"/>
      <path d="M734.52,252.81c1.02,0,1.77.75,1.77,1.77s-.75,1.77-1.77,1.77-1.77-.75-1.77-1.77.75-1.77,1.77-1.77ZM734.52,265.18c1.02,0,1.77.75,1.77,1.77s-.75,1.77-1.77,1.77-1.77-.75-1.77-1.77.75-1.77,1.77-1.77Z"/>
    </g>
  </g>
</svg>