<?xml version="1.0" encoding="UTF-8"?>
<svg xmlns="http://www.w3.org/2000/svg" viewBox="0 0 1116 844.26">
  <g id="bg">
    <rect y="-.05" width="1114.94" height="844.31" fill="#fff"/>
  </g>
  <g id="_16" data-name="16">
    <g>
      <path d="M435.52,184.9c8.25,3.45,16.05,7.05,23.85,9.75,10.05-12,21.75-20.55,34.35-20.55,10.2,0,16.95,4.5,16.95,12.15,0,10.2-11.4,16.8-26.55,16.8-8.1,0-15.75-1.65-23.4-4.2-16.8,21.45-29.55,53.85-35.4,70.95,11.1-14.25,35.4-34.95,47.7-34.95,3.3,0,6,2.25,6,6.15,0,7.35-14.55,17.25-14.55,24.15,0,2.55,1.35,3.75,4.2,3.75,9.6,0,22.35-14.4,22.35-14.4,0,0,.75-.9,1.5-.9.9,0,1.35.6,1.35,1.35,0,.6-.75,1.5-.75,1.5,0,0-13.65,15.75-25.5,15.75-4.35,0-7.35-2.55-7.35-6.9,0-9,14.55-18.3,14.55-24.3,0-1.5-.9-2.4-2.55-2.4-9.45,0-33.9,20.55-45.3,34.2-1.5,1.65-2.55,2.85-3.75,2.85-1.05,0-2.4-1.05-2.4-2.25,0-1.5.6-3.3,1.5-6,5.55-16.95,17.85-48,34.65-69.75-7.95-2.85-15.75-6.45-24-9.75-32.1,39.3-42.3,121.5-88.35,121.5-17.55,0-25.2-15.6-25.2-17.1,0-.45.45-.9.9-.9,1.2,0,8.25,14.4,25.05,14.4,40.8,0,51.6-79.35,84.15-119.25-12.3-4.8-25.05-8.85-39.45-8.85-37.65,0-62.4,22.65-62.4,47.4s20.25,32.7,29.1,32.7c1.2,0,1.8.3,1.8,1.05s-.9,1.2-3,1.2c-8.7,0-32.55-9.3-32.55-36.15s27.15-50.1,66.6-50.1c15.75,0,29.55,4.5,42.45,9.6,10.35-11.55,22.95-19.2,39.3-19.2,1.35,0,2.25.6,2.25,1.65,0,.9-.9,1.65-2.1,1.65-14.85,0-26.4,6.75-36,17.4ZM506.92,186.55c0-6.3-4.65-9-13.05-9-11.1,0-21.6,7.5-30.75,18.45,7.05,2.25,13.95,3.75,21.15,3.75,13.35,0,22.65-5.4,22.65-13.2Z"/>
      <path d="M503.48,275.8c-7.8,0-14.4-4.8-14.4-13.35,0-13.95,18.6-29.1,30-29.1,4.65,0,7.5,2.7,7.5,6.45,0,8.85-20.55,17.25-33.15,20.25-.15.9-.15,1.95-.15,2.85,0,5.7,4.05,9.45,10.2,9.45,16.95,0,31.8-17.85,31.8-17.85,0,0,.75-.9,1.5-.9.9,0,1.35.6,1.35,1.35,0,.6-.75,1.5-.75,1.5,0,0-16.5,19.35-33.9,19.35ZM494.48,256.6c11.4-2.7,28.5-10.35,28.5-17.25,0-1.35-1.2-2.7-3.3-2.7-8.7,0-21.15,9.75-25.2,19.95Z"/>
      <path d="M634.57,233.05c3,0,5.1,1.2,5.1,3.15s-2.55,3.3-6,3.3c-1.95,0-6.6-1.5-6.6-1.5-20.1,3.75-57.45,18.9-57.45,50.85,0,13.5,10.8,23.25,26.7,23.25,30.45,0,65.25-27.15,65.25-49.8,0-6.15-4.05-10.05-9.45-10.05-14.85,0-28.05,13.5-29.55,20.85-.3,1.5-.45,1.95-1.2,1.95s-1.05-.6-1.05-1.65c0-8.1,15.75-24.6,31.95-24.6,7.5,0,13.5,5.55,13.5,13.5,0,24.6-37.65,53.7-69.15,53.7-19.05,0-31.35-11.4-31.35-27.3,0-33.6,38.25-49.35,57.3-53.1-4.2-2.1-8.25-7.05-8.85-13.5-21.15-2.25-37.5-13.2-37.5-27.75,0-13.2,13.35-20.55,26.4-20.55s20.25,7.5,20.25,8.55c0,.75-.3,1.05-1.05,1.05-1.05,0-6.6-6.3-19.2-6.3-10.8,0-22.65,5.7-22.65,17.25,0,12.45,14.85,21.9,33.75,24,1.65-22.05,29.7-37.65,51.15-37.65,9.45,0,16.35,3.9,16.35,12.15,0,16.65-34.65,29.7-58.95,29.7h-4.2c.75,6,4.95,11.25,9.6,11.25.75,0,3.9-.75,6.9-.75ZM617.92,218.65c1.5.15,3,.15,4.5.15,22.05,0,54.6-11.4,54.6-26.4,0-6-6-7.8-12-7.8-19.2,0-45.6,13.5-47.1,34.05Z"/>
      <path d="M714.67,272.19c-4.8,0-7.95-3-7.95-7.35,0-8.7,14.7-18.6,14.7-25.05,0-1.65-1.35-2.85-3.15-2.85-9.6,0-29.7,16.2-45.45,34.65-1.05,1.35-1.65,1.8-2.55,1.8-1.05,0-2.1-.9-2.1-2.25,0-1.2,1.8-4.8,4.95-10.2,5.7-9.75,17.55-26.1,19.8-26.1.9,0,2.1,1.05,2.1,1.8,0,.6-.45,1.05-1.5,2.25-5.4,6.15-12.6,15.6-17.85,24.75,11.4-13.2,32.4-30.3,43.5-30.3,3.9,0,6.6,2.85,6.6,6.45,0,7.95-14.55,17.85-14.55,24.6,0,2.7,2.1,4.35,4.8,4.35,10.5,0,22.5-14.25,22.5-14.25,0,0,.75-.9,1.35-.9.9,0,1.5.6,1.5,1.35,0,.6-.75,1.5-.75,1.5,0,0-13.65,15.75-25.95,15.75Z"/>
      <path d="M779.47,268.75c10.5,0,22.5-14.25,22.5-14.25,0,0,.75-.9,1.35-.9.9,0,1.5.6,1.5,1.35,0,.6-.75,1.5-.75,1.5,0,0-13.65,15.75-24.9,15.75-5.85,0-10.2-3.3-10.35-11.1-9.6,8.55-18.45,14.4-24,14.4-5.1,0-9.45-4.05-9.45-9.9,0-14.7,19.05-31.8,30.9-31.8,4.65,0,7.05,1.95,8.1,3.15,7.5-20.4,21-43.95,32.85-43.95,3.75,0,6.6,2.4,6.6,7.05,0,10.05-21,38.4-40.95,57.3-.15,1.2-.15,2.1-.15,3,0,6.75,3.6,8.4,6.75,8.4ZM769.12,256.75c.6-4.65,2.1-10.35,4.2-16.5-.9-1.5-2.55-3.3-6.45-3.3-10.2,0-27.6,16.2-27.6,29.1,0,3.75,2.7,6,5.85,6,5.25,0,14.25-6.3,24-15.3ZM773.77,252.25c18-18,36.6-43.05,36.6-52.5,0-2.1-1.5-3.3-3.45-3.3-12.15,0-28.65,36.15-33.15,55.8Z"/>
    </g>
  </g>
</svg>