<?xml version="1.0" encoding="UTF-8"?>
<svg xmlns="http://www.w3.org/2000/svg" viewBox="0 0 1116 844.26">
  <g id="bg">
    <rect y="-.05" width="1114.94" height="844.31" fill="#fff"/>
  </g>
  <g id="_09" data-name="09">
    <g>
      <rect x="85.31" y="75.74" width="929.78" height="112.35" rx="56.18" ry="56.18" fill="none" stroke="#000" stroke-miterlimit="10" stroke-width="3"/>
      <path d="M141.49,75.74c-30.9,0-56.18,25.28-56.18,56.18h0c0,30.9,25.28,56.18,56.18,56.18h125.77v-112.35h-125.77Z" fill="#ffe783" stroke="#000" stroke-miterlimit="10" stroke-width="3"/>
      <g>
        <path d="M126.99,113.51c.99,0,1.57.57,1.57,1.57v13.05c0,.99.57,1.57,1.57,1.57h5.01c1.04,0,1.57-.57,1.57-1.57v-13.05c0-.99.57-1.57,1.57-1.57h5.85c1.04,0,1.57.52,1.57,1.57v33.41c0,.99-.52,1.57-1.57,1.57h-5.85c-.99,0-1.57-.57-1.57-1.57v-8.25c0-1.04-.52-1.57-1.57-1.57h-5.01c-.99,0-1.57.52-1.57,1.57v8.25c0,.99-.52,1.57-1.57,1.57h-5.85c-.99,0-1.57-.57-1.57-1.57v-33.41c0-1.04.52-1.57,1.57-1.57h5.85Z"/>
        <path d="M175.88,138.3c0,3.45-.73,12.69-13.1,12.69s-13.1-9.24-13.1-12.69v-13.05c0-3.45.73-12.69,13.1-12.69s13.1,9.24,13.1,12.69v13.05ZM166.9,128.02c0-4.02-.26-6.47-4.12-6.47s-4.12,2.45-4.12,6.47v7.52c0,4.02.26,6.47,4.12,6.47s4.12-2.45,4.12-6.47v-7.52Z"/>
        <path d="M178.09,115.23c-.21-1.1.31-1.72,1.41-1.72h6.21c.94,0,1.62.47,1.72,1.36l2.98,21.77c.1.52.52.52.63,0l3.5-21.77c.16-.89.78-1.36,1.72-1.36h4.49c.94,0,1.57.47,1.72,1.36l3.5,21.77c.1.52.52.52.63,0l2.98-21.77c.1-.89.78-1.36,1.72-1.36h6.21c1.1,0,1.62.63,1.41,1.72l-6.42,33.46c-.16.89-.78,1.36-1.72,1.36h-7.36c-.94,0-1.51-.47-1.72-1.36l-2.87-12.84c-.1-.52-.52-.52-.63,0l-2.87,12.84c-.21.89-.78,1.36-1.72,1.36h-7.36c-.94,0-1.57-.47-1.72-1.36l-6.42-33.46Z"/>
        <path d="M231.35,138.41c-1.04,0-1.67-.63-1.46-1.72,1.25-7.1,6.47-6.37,7.57-11.69.31-1.57-.52-3.45-2.56-3.45-2.45,0-3.65,1.36-4.02,3.5-.16,1.04-.68,1.51-1.72,1.31l-5.95-1.31c-.94-.21-1.41-.78-1.36-1.72.31-3.76,2.3-10.75,13.05-10.75,11.69,0,12.11,9.24,12.06,10.81,0,8.67-6.06,9.4-7.94,13.73-.37.89-.84,1.31-1.77,1.31h-5.9ZM231.19,141.07c-.99,0-1.57.52-1.57,1.57v5.85c0,.99.57,1.57,1.57,1.57h5.85c1.04,0,1.57-.57,1.57-1.57v-5.85c0-1.04-.52-1.57-1.57-1.57h-5.85Z"/>
      </g>
      <g>
        <path d="M324.99,119.81c0,1.04-.75,1.3-1.49,1.3s-1.49-.26-1.49-1.3v-23.64c0-1.04.78-1.31,1.49-1.31.75,0,1.49.26,1.49,1.31v10.03c0,.26.07.33.34.33h11.49c.22,0,.33-.07.33-.33v-10.03c0-1.04.78-1.31,1.49-1.31s1.49.26,1.49,1.31v23.64c0,1.04-.78,1.3-1.49,1.3s-1.49-.26-1.49-1.3v-10.18c0-.26-.11-.33-.33-.33h-11.49c-.26,0-.34.07-.34.33v10.18Z"/>
        <path d="M353.07,102.54c6.26,0,7.42,3.99,7.42,9.28s-1.16,9.28-7.42,9.28-7.42-3.99-7.42-9.28,1.16-9.28,7.42-9.28ZM353.07,118.5c4.25,0,4.59-2.76,4.59-6.67s-.34-6.67-4.59-6.67-4.59,2.76-4.59,6.67.34,6.67,4.59,6.67Z"/>
        <path d="M381.6,116c.11.37.15.78.41.78.22,0,.26-.41.37-.78l4.06-12.64c.19-.6.67-.82,1.08-.82.75,0,1.6.45,1.6,1.23,0,.11-.04.26-.07.41l-5.33,15.77c-.22.67-.75,1.16-1.71,1.16s-1.45-.48-1.68-1.19l-3.88-12.27c-.11-.33-.11-.93-.37-.93s-.26.6-.37.93l-3.62,11.9c-.41,1.3-1.19,1.57-1.94,1.57s-1.53-.26-1.94-1.57l-5.11-15.36c-.04-.15-.07-.3-.07-.41,0-.78.86-1.23,1.6-1.23.41,0,.9.22,1.08.82l4.06,12.79c.11.37.15.78.41.78s.26-.41.37-.78l3.58-12.04c.37-1.31,1.19-1.57,1.94-1.57s1.57.26,1.94,1.57l3.58,11.89Z"/>
        <path d="M413.41,104.96c0,.71-.78,1.53-1.45,1.53-.34,0-.63-.22-.93-.45-1.16-.82-2.28-.9-3.24-.9-4.25,0-4.59,2.76-4.59,6.67s.34,6.67,4.62,6.67c.9,0,2.39-.26,3.39-.75.52-.26.86-.56,1.19-.56.71,0,1.38.75,1.38,1.49,0,.19-.04.67-.63,1.01-1.71,1.01-3.17,1.42-5.37,1.42-6.27,0-7.42-3.99-7.42-9.28s1.16-9.28,7.27-9.28c1.83,0,3.92.26,5.48,1.75.26.26.3.48.3.67Z"/>
        <path d="M427.73,118.95c-.11,0-.22.15-.37.26-1.23,1.01-2.83,1.9-5.52,1.9-4.33,0-5.67-2.68-5.67-5.07,0-4.55,3.77-5.67,7.38-5.67h3.62c.26,0,.34-.11.34-.34v-1.08c0-2.57-1.27-3.8-4.1-3.8-2.27,0-3.21.56-4.36,1.42-.19.15-.37.19-.52.19-.71,0-1.38-.78-1.38-1.45,0-.41.22-.75.6-1.08,1.68-1.34,3.8-1.68,5.74-1.68,5.78,0,6.94,2.98,6.94,7.42v7.57c0,.67.19,1.01.82,1.01h.34c.63,0,.97.52.97,1.23,0,.97-.41,1.34-1.94,1.34-1.42,0-2.28-.63-2.68-1.94-.07-.19-.11-.22-.19-.22ZM427.65,113.17c0-.22-.11-.34-.34-.34h-3.51c-2.54,0-4.81.37-4.81,2.8,0,1.9,1.23,3.06,3.32,3.06,3.69,0,5.33-2.35,5.33-4.59v-.93Z"/>
        <path d="M438.92,110.04v9.84c0,.89-.71,1.23-1.38,1.23-.71,0-1.38-.34-1.38-1.23v-16.11c0-.9.67-1.23,1.38-1.23s1.42.33,1.42,1.16v.37c0,.11.07.19.19.19.07,0,.22-.15.3-.19,1.38-1.16,2.95-1.53,4.59-1.53,5,0,6.49,3.21,6.49,7.72v9.62c0,.89-.67,1.23-1.34,1.23-.71,0-1.42-.34-1.42-1.23v-8.43c0-3.62-.15-6.3-4.44-6.3-3.13,0-4.4,1.71-4.4,4.88Z"/>
        <path d="M465.84,98.55c-1.12,0-1.86-.78-1.86-1.86s.75-1.83,1.86-1.83c1.04,0,1.83.75,1.83,1.83s-.78,1.86-1.83,1.86ZM467.22,119.88c0,.89-.71,1.23-1.38,1.23-.71,0-1.38-.34-1.38-1.23v-16.11c0-.9.67-1.23,1.38-1.23.67,0,1.38.33,1.38,1.23v16.11Z"/>
        <path d="M479.27,121.11c-3.54,0-5.11-2.01-5.11-5.37v-10.25c0-.19-.11-.26-.34-.26h-1.94c-.89,0-1.19-.6-1.19-1.27s.3-1.27,1.19-1.27h1.94c.22,0,.34-.07.34-.3v-4.25c0-.9.67-1.23,1.38-1.23.67,0,1.38.34,1.38,1.23v4.21c0,.26.07.34.34.34h2.35c.9,0,1.19.6,1.19,1.27s-.3,1.27-1.19,1.27h-2.35c-.26,0-.34.07-.34.34v10.44c0,1.57.9,2.5,2.65,2.5.78,0,1.23.56,1.23,1.27,0,.63-.37,1.34-1.53,1.34Z"/>
        <path d="M507.53,111.83c0,5.29-1.34,9.28-6.97,9.28-1.42,0-2.8-.34-4.14-1.38-.19-.15-.33-.33-.48-.33s-.22.04-.22.22v.45c0,.67-.71,1.04-1.38,1.04-.71,0-1.38-.34-1.38-1.23v-23.79c0-.9.67-1.23,1.38-1.23.67,0,1.38.34,1.38,1.23v7.98c0,.11.07.22.22.22.07,0,.26-.15.3-.19,1.34-1.19,3.06-1.57,4.32-1.57,5.63,0,6.97,3.99,6.97,9.28ZM500.11,105.15c-4.1,0-4.4,3.02-4.4,6.67,0,3.32.11,6.67,4.4,6.67s4.59-2.76,4.59-6.67-.34-6.67-4.59-6.67Z"/>
        <path d="M514.99,112.91c-.22,0-.26.11-.26.26.11,3.47.82,5.33,4.96,5.33,1.16,0,2.65-.37,3.65-.93,1.08-.63,1.27-.82,1.57-.82.86,0,1.34.82,1.34,1.57,0,.37-.19.71-.6.97-1.64,1.12-3.77,1.83-6.23,1.83-6.27,0-7.57-3.62-7.57-9.28,0-5.3,1.16-9.28,7.42-9.28s7.27,4.66,7.27,8.02c0,.97-.15,2.35-1.79,2.35h-9.77ZM519.28,105c-3.28,0-4.55,2.01-4.55,5.18,0,.19,0,.34.26.34h8.54c.15,0,.26-.04.26-.22,0-2.98-1.08-5.29-4.51-5.29Z"/>
        <path d="M554.22,119.88c0,.89-.67,1.23-1.34,1.23-.71,0-1.42-.34-1.42-1.23v-8.05c0-2.39-.15-4.25-.75-5.11-.93-1.34-2.35-1.57-3.73-1.57-1.53,0-2.83.52-3.62,1.64-.63.86-.75,2.57-.75,4.1v8.99c0,.89-.71,1.23-1.38,1.23-.71,0-1.38-.34-1.38-1.23v-16.11c0-.9.67-1.23,1.38-1.23.6,0,1.42.22,1.42.97v.56c0,.11.07.19.19.19.07,0,.3-.19.3-.19,1.38-1.16,2.95-1.53,4.36-1.53,1.79,0,3.65.45,5,1.98.15.15.34.3.52.3s.26-.11.41-.22c1.9-1.68,3.8-2.05,5.59-2.05,5.41,0,6.79,3.36,6.79,7.68v9.66c0,.89-.71,1.23-1.38,1.23-.71,0-1.38-.34-1.38-1.23v-8.05c0-2.8-.19-4.25-.78-5.15-.82-1.27-2.16-1.53-3.69-1.53-1.16,0-2.61.26-3.51,1.42-.67.82-.9,2.39-.9,4.36l.04,8.95Z"/>
        <path d="M578.09,102.54c6.26,0,7.42,3.99,7.42,9.28s-1.16,9.28-7.42,9.28-7.42-3.99-7.42-9.28,1.16-9.28,7.42-9.28ZM578.09,118.5c4.25,0,4.59-2.76,4.59-6.67s-.34-6.67-4.59-6.67-4.59,2.76-4.59,6.67.34,6.67,4.59,6.67Z"/>
        <path d="M598.82,105.45c-.63,0-.56-.04-1.45-.04-2.83,0-4.06,1.53-4.06,5.63v8.84c0,.89-.67,1.23-1.38,1.23-.75,0-1.38-.34-1.38-1.23v-16.11c0-.9.67-1.23,1.38-1.23.78,0,1.42.33,1.42,1.23v.3c0,.07.04.15.15.15.07,0,.19-.11.3-.22,1.31-1.08,2.76-1.45,3.99-1.45,1.45,0,2.27.22,2.27,1.53,0,.93-.45,1.38-1.23,1.38Z"/>
        <path d="M604.79,112.91c-.22,0-.26.11-.26.26.11,3.47.82,5.33,4.96,5.33,1.16,0,2.65-.37,3.65-.93,1.08-.63,1.27-.82,1.57-.82.86,0,1.34.82,1.34,1.57,0,.37-.19.71-.6.97-1.64,1.12-3.77,1.83-6.23,1.83-6.27,0-7.57-3.62-7.57-9.28,0-5.3,1.16-9.28,7.42-9.28s7.27,4.66,7.27,8.02c0,.97-.15,2.35-1.79,2.35h-9.77ZM609.08,105c-3.28,0-4.55,2.01-4.55,5.18,0,.19,0,.34.26.34h8.54c.15,0,.26-.04.26-.22,0-2.98-1.08-5.29-4.51-5.29Z"/>
        <path d="M635.48,118.5c2.2,0,3.69-.93,3.69-2.61,0-1.27-.97-1.94-2.76-2.5l-2.72-.86c-2.95-.93-4.74-2.31-4.74-5,0-3.09,2.68-5,6.53-5,2.27,0,3.77.67,4.59,1.16.52.3.86.63.86,1.12,0,.63-.63,1.45-1.23,1.45-.34,0-.52-.11-.78-.22-.56-.34-2.01-.9-3.43-.9-2.2,0-3.69.82-3.69,2.27,0,1.31,1.04,1.94,2.76,2.5l2.68.86c3.09.97,4.77,2.39,4.77,5.11,0,3.21-2.68,5.22-6.53,5.22-2.98,0-4.89-1.04-6.15-2.27-.26-.3-.56-.56-.56-1.01,0-.67.63-1.42,1.42-1.42.26,0,.45.04.93.45.93.82,1.98,1.64,4.36,1.64Z"/>
        <path d="M652.67,121.11c-3.54,0-5.11-2.01-5.11-5.37v-10.25c0-.19-.11-.26-.34-.26h-1.94c-.89,0-1.19-.6-1.19-1.27s.3-1.27,1.19-1.27h1.94c.22,0,.34-.07.34-.3v-4.25c0-.9.67-1.23,1.38-1.23.67,0,1.38.34,1.38,1.23v4.21c0,.26.07.34.34.34h2.35c.9,0,1.19.6,1.19,1.27s-.3,1.27-1.19,1.27h-2.35c-.26,0-.34.07-.34.34v10.44c0,1.57.9,2.5,2.65,2.5.78,0,1.23.56,1.23,1.27,0,.63-.37,1.34-1.53,1.34Z"/>
        <path d="M666.25,105.45c-.63,0-.56-.04-1.45-.04-2.83,0-4.06,1.53-4.06,5.63v8.84c0,.89-.67,1.23-1.38,1.23-.75,0-1.38-.34-1.38-1.23v-16.11c0-.9.67-1.23,1.38-1.23.78,0,1.42.33,1.42,1.23v.3c0,.07.04.15.15.15.07,0,.19-.11.3-.22,1.31-1.08,2.76-1.45,3.99-1.45,1.45,0,2.27.22,2.27,1.53,0,.93-.45,1.38-1.23,1.38Z"/>
        <path d="M672.22,112.91c-.22,0-.26.11-.26.26.11,3.47.82,5.33,4.96,5.33,1.16,0,2.65-.37,3.65-.93,1.08-.63,1.27-.82,1.57-.82.86,0,1.34.82,1.34,1.57,0,.37-.19.71-.6.97-1.64,1.12-3.77,1.83-6.23,1.83-6.27,0-7.57-3.62-7.57-9.28,0-5.3,1.16-9.28,7.42-9.28s7.27,4.66,7.27,8.02c0,.97-.15,2.35-1.79,2.35h-9.77ZM676.5,105c-3.28,0-4.55,2.01-4.55,5.18,0,.19,0,.34.26.34h8.54c.15,0,.26-.04.26-.22,0-2.98-1.08-5.29-4.51-5.29Z"/>
        <path d="M698.95,118.95c-.11,0-.22.15-.37.26-1.23,1.01-2.83,1.9-5.52,1.9-4.33,0-5.67-2.68-5.67-5.07,0-4.55,3.77-5.67,7.38-5.67h3.62c.26,0,.34-.11.34-.34v-1.08c0-2.57-1.27-3.8-4.1-3.8-2.27,0-3.21.56-4.36,1.42-.19.15-.37.19-.52.19-.71,0-1.38-.78-1.38-1.45,0-.41.22-.75.6-1.08,1.68-1.34,3.8-1.68,5.74-1.68,5.78,0,6.94,2.98,6.94,7.42v7.57c0,.67.19,1.01.82,1.01h.34c.63,0,.97.52.97,1.23,0,.97-.41,1.34-1.94,1.34-1.42,0-2.27-.63-2.68-1.94-.07-.19-.11-.22-.19-.22ZM698.88,113.17c0-.22-.11-.34-.34-.34h-3.51c-2.54,0-4.81.37-4.81,2.8,0,1.9,1.23,3.06,3.32,3.06,3.69,0,5.33-2.35,5.33-4.59v-.93Z"/>
        <path d="M721.74,119.88c0,.89-.67,1.23-1.34,1.23-.71,0-1.42-.34-1.42-1.23v-8.05c0-2.39-.15-4.25-.75-5.11-.93-1.34-2.35-1.57-3.73-1.57-1.53,0-2.83.52-3.62,1.64-.63.86-.75,2.57-.75,4.1v8.99c0,.89-.71,1.23-1.38,1.23-.71,0-1.38-.34-1.38-1.23v-16.11c0-.9.67-1.23,1.38-1.23.6,0,1.42.22,1.42.97v.56c0,.11.07.19.19.19.07,0,.3-.19.3-.19,1.38-1.16,2.95-1.53,4.36-1.53,1.79,0,3.65.45,5,1.98.15.15.34.3.52.3s.26-.11.41-.22c1.9-1.68,3.8-2.05,5.59-2.05,5.41,0,6.79,3.36,6.79,7.68v9.66c0,.89-.71,1.23-1.38,1.23-.71,0-1.38-.34-1.38-1.23v-8.05c0-2.8-.19-4.25-.78-5.15-.82-1.27-2.16-1.53-3.69-1.53-1.16,0-2.61.26-3.51,1.42-.67.82-.9,2.39-.9,4.36l.04,8.95Z"/>
        <path d="M738.89,116.82v-20.73c0-.9.67-1.23,1.38-1.23.67,0,1.38.34,1.38,1.23v20.54c0,1.34.56,1.83,1.86,1.83.67,0,1.16.45,1.16,1.23s-.45,1.42-1.79,1.42c-2.61,0-3.99-1.38-3.99-4.29Z"/>
        <path d="M749.9,98.55c-1.12,0-1.86-.78-1.86-1.86s.75-1.83,1.86-1.83c1.04,0,1.83.75,1.83,1.83s-.78,1.86-1.83,1.86ZM751.28,119.88c0,.89-.71,1.23-1.38,1.23-.71,0-1.38-.34-1.38-1.23v-16.11c0-.9.67-1.23,1.38-1.23.67,0,1.38.33,1.38,1.23v16.11Z"/>
        <path d="M759.78,110.04v9.84c0,.89-.71,1.23-1.38,1.23-.71,0-1.38-.34-1.38-1.23v-16.11c0-.9.67-1.23,1.38-1.23s1.42.33,1.42,1.16v.37c0,.11.07.19.19.19.07,0,.22-.15.3-.19,1.38-1.16,2.95-1.53,4.59-1.53,5,0,6.49,3.21,6.49,7.72v9.62c0,.89-.67,1.23-1.34,1.23-.71,0-1.42-.34-1.42-1.23v-8.43c0-3.62-.15-6.3-4.44-6.3-3.13,0-4.4,1.71-4.4,4.88Z"/>
        <path d="M779.36,112.91c-.22,0-.26.11-.26.26.11,3.47.82,5.33,4.96,5.33,1.16,0,2.65-.37,3.65-.93,1.08-.63,1.27-.82,1.57-.82.86,0,1.34.82,1.34,1.57,0,.37-.19.71-.6.97-1.64,1.12-3.77,1.83-6.23,1.83-6.27,0-7.57-3.62-7.57-9.28,0-5.3,1.16-9.28,7.42-9.28s7.27,4.66,7.27,8.02c0,.97-.15,2.35-1.79,2.35h-9.77ZM783.64,105c-3.28,0-4.55,2.01-4.55,5.18,0,.19,0,.34.26.34h8.54c.15,0,.26-.04.26-.22,0-2.98-1.08-5.29-4.51-5.29Z"/>
        <path d="M795.13,111.83c0-5.3,1.34-9.28,6.9-9.28,1.42,0,3.02.37,4.4,1.57,0,0,.19.19.3.19s.19-.08.19-.26v-7.94c0-.9.71-1.23,1.42-1.23.67,0,1.34.34,1.34,1.23v23.79c0,.89-.67,1.23-1.34,1.23s-1.42-.22-1.42-1.08v-.45c0-.19-.07-.22-.19-.22-.07,0-.26.15-.34.22-1.42,1.19-2.95,1.53-4.36,1.53-5.56,0-6.9-3.99-6.9-9.28ZM797.97,111.83c0,3.92.34,6.67,4.55,6.67s4.4-2.91,4.4-6.67c0-3.39-.07-6.67-4.4-6.67s-4.55,2.76-4.55,6.67Z"/>
        <path d="M840.18,116c.11.37.15.78.41.78.22,0,.26-.41.37-.78l4.06-12.64c.19-.6.67-.82,1.08-.82.75,0,1.6.45,1.6,1.23,0,.11-.04.26-.07.41l-5.33,15.77c-.22.67-.75,1.16-1.71,1.16s-1.45-.48-1.68-1.19l-3.88-12.27c-.11-.33-.11-.93-.37-.93s-.26.6-.37.93l-3.62,11.9c-.41,1.3-1.19,1.57-1.94,1.57s-1.53-.26-1.94-1.57l-5.11-15.36c-.04-.15-.07-.3-.07-.41,0-.78.86-1.23,1.6-1.23.41,0,.9.22,1.08.82l4.06,12.79c.11.37.15.78.41.78s.26-.41.37-.78l3.58-12.04c.37-1.31,1.19-1.57,1.94-1.57s1.57.26,1.94,1.57l3.58,11.89Z"/>
        <path d="M854.01,103.99c0,.19.07.26.22.26.07,0,.22-.15.3-.19,1.38-1.16,2.95-1.53,4.59-1.53,5,0,6.49,3.21,6.49,7.72v9.62c0,.89-.67,1.23-1.34,1.23-.71,0-1.42-.34-1.42-1.23v-8.43c0-3.62-.15-6.3-4.44-6.3-3.13,0-4.4,1.68-4.4,4.96v9.77c0,.89-.71,1.23-1.38,1.23-.71,0-1.38-.34-1.38-1.23v-23.79c0-.9.67-1.23,1.38-1.23.67,0,1.38.34,1.38,1.23v7.9Z"/>
        <path d="M873.59,112.91c-.22,0-.26.11-.26.26.11,3.47.82,5.33,4.96,5.33,1.16,0,2.65-.37,3.65-.93,1.08-.63,1.27-.82,1.57-.82.86,0,1.34.82,1.34,1.57,0,.37-.19.71-.6.97-1.64,1.12-3.77,1.83-6.23,1.83-6.27,0-7.57-3.62-7.57-9.28,0-5.3,1.16-9.28,7.42-9.28s7.27,4.66,7.27,8.02c0,.97-.15,2.35-1.79,2.35h-9.77ZM877.88,105c-3.28,0-4.55,2.01-4.55,5.18,0,.19,0,.34.26.34h8.54c.15,0,.26-.04.26-.22,0-2.98-1.08-5.29-4.51-5.29Z"/>
        <path d="M892.84,110.04v9.84c0,.89-.71,1.23-1.38,1.23-.71,0-1.38-.34-1.38-1.23v-16.11c0-.9.67-1.23,1.38-1.23s1.42.33,1.42,1.16v.37c0,.11.07.19.19.19.07,0,.22-.15.3-.19,1.38-1.16,2.95-1.53,4.59-1.53,5,0,6.49,3.21,6.49,7.72v9.62c0,.89-.67,1.23-1.34,1.23-.71,0-1.42-.34-1.42-1.23v-8.43c0-3.62-.15-6.3-4.44-6.3-3.13,0-4.4,1.71-4.4,4.88Z"/>
        <path d="M919.76,98.55c-1.12,0-1.86-.78-1.86-1.86s.75-1.83,1.86-1.83c1.04,0,1.83.75,1.83,1.83s-.78,1.86-1.83,1.86ZM921.14,119.88c0,.89-.71,1.23-1.38,1.23-.71,0-1.38-.34-1.38-1.23v-16.11c0-.9.67-1.23,1.38-1.23.67,0,1.38.33,1.38,1.23v16.11Z"/>
        <path d="M933.19,121.11c-3.54,0-5.11-2.01-5.11-5.37v-10.25c0-.19-.11-.26-.34-.26h-1.94c-.89,0-1.19-.6-1.19-1.27s.3-1.27,1.19-1.27h1.94c.22,0,.34-.07.34-.3v-4.25c0-.9.67-1.23,1.38-1.23.67,0,1.38.34,1.38,1.23v4.21c0,.26.07.34.34.34h2.35c.9,0,1.19.6,1.19,1.27s-.3,1.27-1.19,1.27h-2.35c-.26,0-.34.07-.34.34v10.44c0,1.57.9,2.5,2.65,2.5.78,0,1.23.56,1.23,1.27,0,.63-.37,1.34-1.53,1.34Z"/>
        <path d="M423.18,150.2c-.63,0-.56-.04-1.45-.04-2.83,0-4.06,1.53-4.06,5.63v8.84c0,.89-.67,1.23-1.38,1.23-.75,0-1.38-.34-1.38-1.23v-16.11c0-.9.67-1.23,1.38-1.23.78,0,1.42.33,1.42,1.23v.3c0,.07.04.15.15.15.07,0,.19-.11.3-.22,1.31-1.08,2.76-1.45,3.99-1.45,1.45,0,2.27.22,2.27,1.53,0,.93-.45,1.38-1.23,1.38Z"/>
        <path d="M429.15,157.66c-.22,0-.26.11-.26.26.11,3.47.82,5.33,4.96,5.33,1.16,0,2.65-.37,3.65-.93,1.08-.63,1.27-.82,1.57-.82.86,0,1.34.82,1.34,1.57,0,.37-.19.71-.6.97-1.64,1.12-3.77,1.83-6.23,1.83-6.27,0-7.57-3.62-7.57-9.28,0-5.3,1.16-9.28,7.42-9.28s7.27,4.66,7.27,8.02c0,.97-.15,2.35-1.79,2.35h-9.77ZM433.44,149.75c-3.28,0-4.55,2.01-4.55,5.18,0,.19,0,.34.26.34h8.54c.15,0,.26-.04.26-.22,0-2.98-1.08-5.29-4.51-5.29Z"/>
        <path d="M455.88,163.7c-.11,0-.22.15-.37.26-1.23,1.01-2.83,1.9-5.52,1.9-4.33,0-5.67-2.68-5.67-5.07,0-4.55,3.77-5.67,7.38-5.67h3.62c.26,0,.34-.11.34-.34v-1.08c0-2.57-1.27-3.8-4.1-3.8-2.27,0-3.21.56-4.36,1.42-.19.15-.37.19-.52.19-.71,0-1.38-.78-1.38-1.45,0-.41.22-.75.6-1.08,1.68-1.34,3.8-1.68,5.74-1.68,5.78,0,6.94,2.98,6.94,7.42v7.57c0,.67.19,1.01.82,1.01h.34c.63,0,.97.52.97,1.23,0,.97-.41,1.34-1.94,1.34-1.42,0-2.27-.63-2.68-1.94-.07-.19-.11-.22-.19-.22ZM455.81,157.92c0-.22-.11-.34-.34-.34h-3.51c-2.54,0-4.81.37-4.81,2.8,0,1.9,1.23,3.06,3.32,3.06,3.69,0,5.33-2.35,5.33-4.59v-.93Z"/>
        <path d="M464.31,161.57v-20.73c0-.9.67-1.23,1.38-1.23.67,0,1.38.34,1.38,1.23v20.54c0,1.34.56,1.83,1.86,1.83.67,0,1.16.45,1.16,1.23s-.45,1.42-1.79,1.42c-2.61,0-3.99-1.38-3.99-4.29Z"/>
        <path d="M473.56,161.57v-20.73c0-.9.67-1.23,1.38-1.23.67,0,1.38.34,1.38,1.23v20.54c0,1.34.56,1.83,1.86,1.83.67,0,1.16.45,1.16,1.23s-.45,1.42-1.79,1.42c-2.61,0-3.99-1.38-3.99-4.29Z"/>
        <path d="M488.11,168.66c-1.08,2.76-2.95,4.89-5.52,4.89-.97,0-1.34-.56-1.34-1.38,0-.6.37-1.01,1.04-1.16,1.75-.37,2.5-.93,3.43-3.32l.86-2.13c.07-.22.15-.41.15-.63,0-.15-.04-.3-.11-.48l-5.89-15.4c-.07-.19-.11-.37-.11-.52,0-.75.86-1.23,1.6-1.23.41,0,.86.19,1.08.78l4.55,12.45c.11.34.11.71.37.71.22,0,.26-.45.37-.71l4.66-12.45c.22-.6.67-.78,1.08-.78.75,0,1.6.48,1.6,1.23,0,.15-.04.34-.11.52l-7.72,19.61Z"/>
        <path d="M507.16,156.58c0-5.3,1.34-9.28,6.9-9.28,1.42,0,3.02.37,4.4,1.57,0,0,.19.19.3.19s.19-.08.19-.26v-7.94c0-.9.71-1.23,1.42-1.23.67,0,1.34.34,1.34,1.23v23.79c0,.89-.67,1.23-1.34,1.23s-1.42-.22-1.42-1.08v-.45c0-.19-.07-.22-.19-.22-.07,0-.26.15-.34.22-1.42,1.19-2.95,1.53-4.36,1.53-5.56,0-6.9-3.99-6.9-9.28ZM510,156.58c0,3.92.34,6.67,4.55,6.67s4.4-2.91,4.4-6.67c0-3.39-.07-6.67-4.4-6.67s-4.55,2.76-4.55,6.67Z"/>
        <path d="M534.16,147.29c6.26,0,7.42,3.99,7.42,9.28s-1.16,9.28-7.42,9.28-7.42-3.99-7.42-9.28,1.16-9.28,7.42-9.28ZM534.16,163.25c4.25,0,4.59-2.76,4.59-6.67s-.34-6.67-4.59-6.67-4.59,2.76-4.59,6.67.34,6.67,4.59,6.67Z"/>
        <path d="M549.04,157.66c-.22,0-.26.11-.26.26.11,3.47.82,5.33,4.96,5.33,1.16,0,2.65-.37,3.65-.93,1.08-.63,1.27-.82,1.57-.82.86,0,1.34.82,1.34,1.57,0,.37-.19.71-.6.97-1.64,1.12-3.77,1.83-6.23,1.83-6.27,0-7.57-3.62-7.57-9.28,0-5.3,1.16-9.28,7.42-9.28s7.27,4.66,7.27,8.02c0,.97-.15,2.35-1.79,2.35h-9.77ZM553.33,149.75c-3.28,0-4.55,2.01-4.55,5.18,0,.19,0,.34.26.34h8.54c.15,0,.26-.04.26-.22,0-2.98-1.08-5.29-4.51-5.29Z"/>
        <path d="M571.34,163.25c2.2,0,3.69-.93,3.69-2.61,0-1.27-.97-1.94-2.76-2.5l-2.72-.86c-2.95-.93-4.74-2.31-4.74-5,0-3.09,2.68-5,6.53-5,2.27,0,3.77.67,4.59,1.16.52.3.86.63.86,1.12,0,.63-.63,1.45-1.23,1.45-.34,0-.52-.11-.78-.22-.56-.34-2.01-.9-3.43-.9-2.2,0-3.69.82-3.69,2.27,0,1.31,1.04,1.94,2.76,2.5l2.69.86c3.09.97,4.77,2.39,4.77,5.11,0,3.21-2.69,5.22-6.53,5.22-2.98,0-4.89-1.04-6.15-2.27-.26-.3-.56-.56-.56-1.01,0-.67.63-1.42,1.42-1.42.26,0,.45.04.93.45.93.82,1.98,1.64,4.36,1.64Z"/>
        <path d="M585.47,154.79v9.84c0,.89-.71,1.23-1.38,1.23-.71,0-1.38-.34-1.38-1.23v-16.11c0-.9.67-1.23,1.38-1.23s1.42.33,1.42,1.16v.37c0,.11.07.19.19.19.07,0,.22-.15.3-.19,1.38-1.16,2.95-1.53,4.59-1.53,5,0,6.49,3.21,6.49,7.72v9.62c0,.89-.67,1.23-1.34,1.23-.71,0-1.42-.34-1.42-1.23v-8.43c0-3.62-.15-6.3-4.44-6.3-3.13,0-4.4,1.71-4.4,4.88Z"/>
        <path d="M603.04,148.34c-.26.45-.67.56-1.01.56-.6,0-1.53-.48-1.53-1.19,0-.19.04-.45.19-.71l.82-1.38c.19-.3.22-.52.22-1.12v-3.65c0-.9.71-1.23,1.34-1.23.75,0,1.38.34,1.38,1.23v3.95c0,.86-.15,1.42-.48,1.98l-.93,1.57Z"/>
        <path d="M615.49,165.86c-3.54,0-5.11-2.01-5.11-5.37v-10.25c0-.19-.11-.26-.34-.26h-1.94c-.9,0-1.19-.6-1.19-1.27s.3-1.27,1.19-1.27h1.94c.22,0,.34-.07.34-.3v-4.25c0-.9.67-1.23,1.38-1.23.67,0,1.38.34,1.38,1.23v4.21c0,.26.07.34.34.34h2.35c.9,0,1.19.6,1.19,1.27s-.3,1.27-1.19,1.27h-2.35c-.26,0-.34.07-.34.34v10.44c0,1.57.9,2.5,2.65,2.5.78,0,1.23.56,1.23,1.27,0,.63-.37,1.34-1.53,1.34Z"/>
        <path d="M629.59,150.24c0-.19-.15-.26-.34-.26h-1.27c-.86,0-1.12-.63-1.12-1.27,0-.6.26-1.27,1.12-1.27h1.27c.22,0,.34-.07.34-.26v-3.17c0-2.91,1.57-4.25,4.32-4.25h1.23c.86,0,1.16.63,1.16,1.27s-.3,1.27-1.16,1.27h-1.04c-1.16,0-1.75.45-1.75,1.94v2.87c0,.26.11.34.34.34h2.46c.82,0,1.12.67,1.12,1.27,0,.63-.3,1.27-1.12,1.27h-2.46c-.22,0-.34.07-.34.34v14.32c0,.89-.71,1.23-1.38,1.23-.71,0-1.38-.34-1.38-1.23v-14.39Z"/>
        <path d="M641.97,157.66c-.22,0-.26.11-.26.26.11,3.47.82,5.33,4.96,5.33,1.16,0,2.65-.37,3.65-.93,1.08-.63,1.27-.82,1.57-.82.86,0,1.34.82,1.34,1.57,0,.37-.19.71-.6.97-1.64,1.12-3.77,1.83-6.23,1.83-6.27,0-7.57-3.62-7.57-9.28,0-5.3,1.16-9.28,7.42-9.28s7.27,4.66,7.27,8.02c0,.97-.15,2.35-1.79,2.35h-9.77ZM646.26,149.75c-3.28,0-4.55,2.01-4.55,5.18,0,.19,0,.34.26.34h8.54c.15,0,.26-.04.26-.22,0-2.98-1.08-5.29-4.51-5.29Z"/>
        <path d="M660.88,157.66c-.22,0-.26.11-.26.26.11,3.47.82,5.33,4.96,5.33,1.16,0,2.65-.37,3.65-.93,1.08-.63,1.27-.82,1.57-.82.86,0,1.34.82,1.34,1.57,0,.37-.19.71-.6.97-1.64,1.12-3.77,1.83-6.23,1.83-6.27,0-7.57-3.62-7.57-9.28,0-5.3,1.16-9.28,7.42-9.28s7.27,4.66,7.27,8.02c0,.97-.15,2.35-1.79,2.35h-9.77ZM665.17,149.75c-3.28,0-4.55,2.01-4.55,5.18,0,.19,0,.34.26.34h8.54c.15,0,.26-.04.26-.22,0-2.98-1.08-5.29-4.51-5.29Z"/>
        <path d="M677.36,161.57v-20.73c0-.9.67-1.23,1.38-1.23.67,0,1.38.34,1.38,1.23v20.54c0,1.34.56,1.83,1.86,1.83.67,0,1.16.45,1.16,1.23s-.45,1.42-1.79,1.42c-2.61,0-3.99-1.38-3.99-4.29Z"/>
        <path d="M701.67,165.86c-3.54,0-5.11-2.01-5.11-5.37v-10.25c0-.19-.11-.26-.34-.26h-1.94c-.89,0-1.19-.6-1.19-1.27s.3-1.27,1.19-1.27h1.94c.22,0,.34-.07.34-.3v-4.25c0-.9.67-1.23,1.38-1.23.67,0,1.38.34,1.38,1.23v4.21c0,.26.07.34.34.34h2.35c.9,0,1.19.6,1.19,1.27s-.3,1.27-1.19,1.27h-2.35c-.26,0-.34.07-.34.34v10.44c0,1.57.9,2.5,2.65,2.5.78,0,1.23.56,1.23,1.27,0,.63-.37,1.34-1.53,1.34Z"/>
        <path d="M709.73,148.75c0,.19.07.26.22.26.07,0,.22-.15.3-.19,1.38-1.16,2.95-1.53,4.59-1.53,5,0,6.49,3.21,6.49,7.72v9.62c0,.89-.67,1.23-1.34,1.23-.71,0-1.42-.34-1.42-1.23v-8.43c0-3.62-.15-6.3-4.44-6.3-3.13,0-4.4,1.68-4.4,4.96v9.77c0,.89-.71,1.23-1.38,1.23-.71,0-1.38-.34-1.38-1.23v-23.79c0-.9.67-1.23,1.38-1.23.67,0,1.38.34,1.38,1.23v7.9Z"/>
        <path d="M737.14,163.7c-.11,0-.22.15-.37.26-1.23,1.01-2.83,1.9-5.52,1.9-4.33,0-5.67-2.68-5.67-5.07,0-4.55,3.77-5.67,7.38-5.67h3.62c.26,0,.34-.11.34-.34v-1.08c0-2.57-1.27-3.8-4.1-3.8-2.27,0-3.21.56-4.36,1.42-.19.15-.37.19-.52.19-.71,0-1.38-.78-1.38-1.45,0-.41.22-.75.6-1.08,1.68-1.34,3.8-1.68,5.74-1.68,5.78,0,6.94,2.98,6.94,7.42v7.57c0,.67.19,1.01.82,1.01h.34c.63,0,.97.52.97,1.23,0,.97-.41,1.34-1.94,1.34-1.42,0-2.27-.63-2.68-1.94-.07-.19-.11-.22-.19-.22ZM737.06,157.92c0-.22-.11-.34-.34-.34h-3.51c-2.54,0-4.81.37-4.81,2.8,0,1.9,1.23,3.06,3.32,3.06,3.69,0,5.33-2.35,5.33-4.59v-.93Z"/>
        <path d="M751.12,165.86c-3.54,0-5.11-2.01-5.11-5.37v-10.25c0-.19-.11-.26-.34-.26h-1.94c-.89,0-1.19-.6-1.19-1.27s.3-1.27,1.19-1.27h1.94c.22,0,.34-.07.34-.3v-4.25c0-.9.67-1.23,1.38-1.23.67,0,1.38.34,1.38,1.23v4.21c0,.26.07.34.34.34h2.35c.9,0,1.19.6,1.19,1.27s-.3,1.27-1.19,1.27h-2.35c-.26,0-.34.07-.34.34v10.44c0,1.57.9,2.5,2.65,2.5.78,0,1.23.56,1.23,1.27,0,.63-.37,1.34-1.53,1.34Z"/>
        <path d="M781.18,160.75c.11.37.15.78.41.78.22,0,.26-.41.37-.78l4.06-12.64c.19-.6.67-.82,1.08-.82.75,0,1.6.45,1.6,1.23,0,.11-.04.26-.07.41l-5.33,15.77c-.22.67-.75,1.16-1.71,1.16s-1.45-.48-1.68-1.19l-3.88-12.27c-.11-.33-.11-.93-.37-.93s-.26.6-.37.93l-3.62,11.9c-.41,1.3-1.19,1.57-1.94,1.57s-1.53-.26-1.94-1.57l-5.11-15.36c-.04-.15-.07-.3-.07-.41,0-.78.86-1.23,1.6-1.23.41,0,.9.22,1.08.82l4.06,12.79c.11.37.15.78.41.78s.26-.41.37-.78l3.58-12.04c.37-1.31,1.19-1.57,1.94-1.57s1.57.26,1.94,1.57l3.58,11.89Z"/>
        <path d="M802.33,163.7c-.11,0-.22.15-.37.26-1.23,1.01-2.83,1.9-5.52,1.9-4.33,0-5.67-2.68-5.67-5.07,0-4.55,3.77-5.67,7.38-5.67h3.62c.26,0,.34-.11.34-.34v-1.08c0-2.57-1.27-3.8-4.1-3.8-2.27,0-3.21.56-4.36,1.42-.19.15-.37.19-.52.19-.71,0-1.38-.78-1.38-1.45,0-.41.22-.75.6-1.08,1.68-1.34,3.8-1.68,5.74-1.68,5.78,0,6.94,2.98,6.94,7.42v7.57c0,.67.19,1.01.82,1.01h.34c.63,0,.97.52.97,1.23,0,.97-.41,1.34-1.94,1.34-1.42,0-2.28-.63-2.68-1.94-.07-.19-.11-.22-.19-.22ZM802.25,157.92c0-.22-.11-.34-.34-.34h-3.51c-2.54,0-4.81.37-4.81,2.8,0,1.9,1.23,3.06,3.32,3.06,3.69,0,5.33-2.35,5.33-4.59v-.93Z"/>
        <path d="M815.68,168.66c-1.08,2.76-2.95,4.89-5.52,4.89-.97,0-1.34-.56-1.34-1.38,0-.6.37-1.01,1.04-1.16,1.75-.37,2.5-.93,3.43-3.32l.86-2.13c.07-.22.15-.41.15-.63,0-.15-.04-.3-.11-.48l-5.89-15.4c-.07-.19-.11-.37-.11-.52,0-.75.86-1.23,1.6-1.23.41,0,.86.19,1.08.78l4.55,12.45c.11.34.11.71.37.71.22,0,.26-.45.37-.71l4.66-12.45c.22-.6.67-.78,1.08-.78.75,0,1.6.48,1.6,1.23,0,.15-.04.34-.11.52l-7.72,19.61Z"/>
        <path d="M832.87,139.61c4.51,0,7.5,2.98,7.5,7.12,0,3.06-2.09,5.33-4.25,6.6-1.45.86-1.49,2.05-1.49,3.51,0,.89-.71,1.19-1.42,1.19-.75,0-1.45-.3-1.45-1.19,0-2.13.26-4.33,2.72-5.74,1.68-.97,2.95-2.2,2.95-4.4s-1.49-4.21-4.55-4.21c-1.68,0-2.95.93-4.47,2.24-.22.19-.63.37-.97.37-.63,0-1.45-.71-1.45-1.49,0-.56.48-1.08.97-1.57,1.53-1.49,3.58-2.42,5.93-2.42ZM833.17,165.86c-1.12,0-1.9-.82-1.9-1.9s.78-1.9,1.9-1.9,1.9.82,1.9,1.9-.82,1.9-1.9,1.9Z"/>
      </g>
    </g>
  </g>
  <g id="_10" data-name="10">
    <text transform="translate(98.61 268.58)" font-family="DINosaur-Book, DINosaur" font-size="34"><tspan x="0" y="0" letter-spacing="0em">C</tspan><tspan x="18.18" y="0" letter-spacing="0em">h</tspan><tspan x="36.09" y="0" letter-spacing="0em">a</tspan><tspan x="53.19" y="0" letter-spacing="0em">ng</tspan><tspan x="88.6" y="0">e </tspan><tspan x="113.49" y="0" letter-spacing="-.01em">i</tspan><tspan x="120.76" y="0">s </tspan><tspan x="144.08" y="0" letter-spacing="-.01em">d</tspan><tspan x="161.58" y="0" letter-spacing="0em">i</tspan><tspan x="169.44" y="0" letter-spacing=".03em">f</tspan><tspan x="180.27" y="0" letter-spacing="-.01em">fi</tspan><tspan x="197.45" y="0" letter-spacing="0em">c</tspan><tspan x="212.49" y="0" letter-spacing="-.01em">u</tspan><tspan x="230.23" y="0" letter-spacing="-.01em">l</tspan><tspan x="238.57" y="0" letter-spacing="0em">t</tspan><tspan x="249.17" y="0">! </tspan><tspan x="265.05" y="0" letter-spacing="-.04em">W</tspan><tspan x="294.96" y="0">e </tspan><tspan x="319.84" y="0" letter-spacing="0em">k</tspan><tspan x="336.66" y="0" letter-spacing="0em">n</tspan><tspan x="354.52" y="0" letter-spacing="0em">o</tspan><tspan x="371.81" y="0">w </tspan><tspan x="404.49" y="0" letter-spacing="0em">y</tspan><tspan x="419.45" y="0" letter-spacing="-.01em">o</tspan><tspan x="436.57" y="0" letter-spacing="0em">u</tspan><tspan x="454.68" y="0" letter-spacing="-.03em">’</tspan><tspan x="459.67" y="0" letter-spacing="0em">r</tspan><tspan x="471.24" y="0">e </tspan><tspan x="496.12" y="0" letter-spacing="0em">n</tspan><tspan x="513.98" y="0" letter-spacing="0em">o</tspan><tspan x="531.27" y="0">t </tspan><tspan x="549.5" y="0" letter-spacing="0em">g</tspan><tspan x="567.05" y="0" letter-spacing="-.01em">o</tspan><tspan x="584.15" y="0" letter-spacing="-.01em">i</tspan><tspan x="591.49" y="0" letter-spacing="0em">n</tspan><tspan x="609.35" y="0">g </tspan><tspan x="634.85" y="0" letter-spacing="-.01em">t</tspan><tspan x="645.06" y="0">o </tspan><tspan x="670.18" y="0" letter-spacing="0em">b</tspan><tspan x="687.79" y="0">e </tspan><tspan x="712.68" y="0" letter-spacing="0em">e</tspan><tspan x="730.2" y="0" letter-spacing="0em">x</tspan><tspan x="745.17" y="0" letter-spacing="0em">p</tspan><tspan x="762.78" y="0" letter-spacing="0em">e</tspan><tspan x="779.68" y="0" letter-spacing=".04em">r</tspan><tspan x="792.6" y="0" letter-spacing="0em">t</tspan><tspan x="803.41" y="0">s </tspan><tspan x="826.74" y="0" letter-spacing="0em">r</tspan><tspan x="838.58" y="0" letter-spacing="-.01em">i</tspan><tspan x="845.91" y="0" letter-spacing="-.01em">g</tspan><tspan x="863.38" y="0" letter-spacing="0em">h</tspan><tspan x="881.23" y="0">t </tspan><tspan x="0" y="40.8" letter-spacing="-.01em">a</tspan><tspan x="16.67" y="40.8" letter-spacing="0em">w</tspan><tspan x="41.89" y="40.8" letter-spacing="-.01em">a</tspan><tspan x="58.55" y="40.8" letter-spacing="-.06em">y</tspan><tspan x="71.76" y="40.8">, </tspan><tspan x="87.03" y="40.8" letter-spacing="0em">b</tspan><tspan x="104.64" y="40.8" letter-spacing="0em">e</tspan><tspan x="121.65" y="40.8" letter-spacing="0em">c</tspan><tspan x="137.28" y="40.8" letter-spacing="-.01em">a</tspan><tspan x="153.94" y="40.8" letter-spacing="-.01em">u</tspan><tspan x="171.66" y="40.8" letter-spacing="0em">s</tspan><tspan x="187.06" y="40.8">e </tspan><tspan x="211.94" y="40.8" letter-spacing="0em">m</tspan><tspan x="240.47" y="40.8" letter-spacing="0em">a</tspan><tspan x="257.56" y="40.8" letter-spacing="0em">k</tspan><tspan x="274.38" y="40.8" letter-spacing="-.01em">i</tspan><tspan x="281.72" y="40.8" letter-spacing="0em">n</tspan><tspan x="299.58" y="40.8">g a </tspan><tspan x="349.76" y="40.8" letter-spacing="-.01em">h</tspan><tspan x="367.54" y="40.8" letter-spacing="0em">ug</tspan><tspan x="402.93" y="40.8">e </tspan><tspan x="427.82" y="40.8" letter-spacing="0em">c</tspan><tspan x="442.95" y="40.8" letter-spacing="0em">h</tspan><tspan x="460.87" y="40.8" letter-spacing="0em">a</tspan><tspan x="477.96" y="40.8" letter-spacing="0em">ng</tspan><tspan x="513.38" y="40.8">e </tspan><tspan x="538.26" y="40.8" letter-spacing="0em">l</tspan><tspan x="546.96" y="40.8" letter-spacing="-.01em">i</tspan><tspan x="554.3" y="40.8" letter-spacing="-.01em">k</tspan><tspan x="570.72" y="40.8">e </tspan><tspan x="595.61" y="40.8" letter-spacing="0em">t</tspan><tspan x="606.15" y="40.8" letter-spacing="-.01em">h</tspan><tspan x="623.91" y="40.8" letter-spacing="-.01em">i</tspan><tspan x="631.18" y="40.8">s </tspan><tspan x="654.5" y="40.8" letter-spacing="-.01em">i</tspan><tspan x="661.77" y="40.8">s </tspan><tspan x="685.09" y="40.8" letter-spacing="-.01em">t</tspan><tspan x="695.3" y="40.8" letter-spacing="-.01em">o</tspan><tspan x="712.43" y="40.8" letter-spacing="0em">u</tspan><tspan x="730.26" y="40.8" letter-spacing="-.01em">g</tspan><tspan x="747.74" y="40.8" letter-spacing="-.01em">h</tspan><tspan x="765.54" y="40.8">. </tspan><tspan x="780.81" y="40.8" letter-spacing="-.01em">B</tspan><tspan x="802.3" y="40.8" letter-spacing="0em">u</tspan><tspan x="820.56" y="40.8">t </tspan><tspan x="838.78" y="40.8" letter-spacing="0em">w</tspan><tspan x="863.93" y="40.8" letter-spacing="0em">i</tspan><tspan x="871.78" y="40.8" letter-spacing="0em">t</tspan><tspan x="882.33" y="40.8">h </tspan><tspan x="0" y="81.6" letter-spacing="0em">t</tspan><tspan x="10.55" y="81.6" letter-spacing="-.01em">i</tspan><tspan x="17.89" y="81.6" letter-spacing="0em">m</tspan><tspan x="46.35" y="81.6">e </tspan><tspan x="71.24" y="81.6" letter-spacing="0em">w</tspan><tspan x="96.09" y="81.6">e </tspan><tspan x="120.98" y="81.6" letter-spacing="0em">k</tspan><tspan x="137.8" y="81.6" letter-spacing="0em">n</tspan><tspan x="155.66" y="81.6" letter-spacing="0em">o</tspan><tspan x="172.95" y="81.6">w </tspan><tspan x="205.62" y="81.6" letter-spacing="0em">y</tspan><tspan x="220.58" y="81.6" letter-spacing="-.01em">o</tspan><tspan x="237.71" y="81.6" letter-spacing="0em">u</tspan><tspan x="255.81" y="81.6" letter-spacing="-.02em">’</tspan><tspan x="261.21" y="81.6" letter-spacing="0em">l</tspan><tspan x="269.78" y="81.6">l </tspan><tspan x="286.2" y="81.6" letter-spacing="0em">m</tspan><tspan x="314.72" y="81.6" letter-spacing=".01em">a</tspan><tspan x="332.12" y="81.6" letter-spacing="0em">s</tspan><tspan x="347.82" y="81.6" letter-spacing="-.01em">t</tspan><tspan x="358.03" y="81.6" letter-spacing="0em">e</tspan><tspan x="374.93" y="81.6">r </tspan><tspan x="394.21" y="81.6" letter-spacing="0em">i</tspan><tspan x="402.06" y="81.6" letter-spacing="0em">t</tspan><tspan x="412.84" y="81.6">. </tspan><tspan x="428.1" y="81.6" letter-spacing="-.07em">Y</tspan><tspan x="443.33" y="81.6" letter-spacing="-.01em">o</tspan><tspan x="460.46" y="81.6">u </tspan><tspan x="486.23" y="81.6" letter-spacing="0em">m</tspan><tspan x="514.75" y="81.6" letter-spacing=".01em">a</tspan><tspan x="532.15" y="81.6" letter-spacing="0em">s</tspan><tspan x="547.85" y="81.6" letter-spacing="-.01em">t</tspan><tspan x="558.06" y="81.6" letter-spacing="0em">e</tspan><tspan x="574.96" y="81.6" letter-spacing="0em">r</tspan><tspan x="586.53" y="81.6" letter-spacing="0em">e</tspan><tspan x="603.55" y="81.6">d </tspan><tspan x="629.05" y="81.6" letter-spacing="-.02em">C</tspan><tspan x="646.93" y="81.6" letter-spacing="-.01em">P</tspan><tspan x="667.26" y="81.6" letter-spacing="-.04em">R</tspan><tspan x="687.67" y="81.6" letter-spacing="-.06em">+</tspan><tspan x="704.07" y="81.6">, </tspan><tspan x="719.34" y="81.6" letter-spacing="0em">a</tspan><tspan x="736.43" y="81.6" letter-spacing="0em">n</tspan><tspan x="754.29" y="81.6">d </tspan><tspan x="779.79" y="81.6" letter-spacing=".01em">C</tspan><tspan x="798.59" y="81.6" letter-spacing="0em">a</tspan><tspan x="815.68" y="81.6" letter-spacing="0em">r</tspan><tspan x="827.25" y="81.6" letter-spacing="-.09em">e</tspan><tspan x="841.29" y="81.6" letter-spacing="-.09em">T</tspan><tspan x="856.5" y="81.6" letter-spacing="0em">e</tspan><tspan x="873.4" y="81.6" letter-spacing="0em">n</tspan><tspan x="891.26" y="81.6">d </tspan><tspan x="0" y="122.4" letter-spacing="-.01em">i</tspan><tspan x="7.27" y="122.4">s </tspan><tspan x="30.59" y="122.4" letter-spacing="0em">m</tspan><tspan x="59.12" y="122.4" letter-spacing="0em">a</tspan><tspan x="75.88" y="122.4" letter-spacing="0em">d</tspan><tspan x="93.43" y="122.4">e </tspan><tspan x="118.32" y="122.4" letter-spacing="0em">b</tspan><tspan x="135.97" y="122.4">y </tspan><tspan x="158.81" y="122.4" letter-spacing="0em">t</tspan><tspan x="169.36" y="122.4" letter-spacing="0em">h</tspan><tspan x="187.22" y="122.4">e </tspan><tspan x="212.11" y="122.4" letter-spacing="0em">s</tspan><tspan x="227.86" y="122.4" letter-spacing="0em">a</tspan><tspan x="244.95" y="122.4" letter-spacing="0em">m</tspan><tspan x="273.42" y="122.4">e </tspan><tspan x="298.31" y="122.4" letter-spacing="0em">p</tspan><tspan x="315.92" y="122.4" letter-spacing="0em">e</tspan><tspan x="332.93" y="122.4" letter-spacing="0em">op</tspan><tspan x="367.62" y="122.4" letter-spacing="-.01em">l</tspan><tspan x="375.98" y="122.4" letter-spacing="-.02em">e</tspan><tspan x="392.58" y="122.4">!</tspan></text>
  </g>
</svg>