<?xml version="1.0" encoding="UTF-8"?>
<svg xmlns="http://www.w3.org/2000/svg" viewBox="0 0 1116 844.26">
  <g id="bg">
    <rect y="-.05" width="1114.94" height="844.31" fill="#fff"/>
  </g>
  <g id="_11" data-name="11">
    <g>
      <rect x="85.31" y="75.74" width="932.07" height="112.63" rx="56.31" ry="56.31" fill="none" stroke="#000" stroke-miterlimit="10" stroke-width="3"/>
      <path d="M141.63,75.74c-30.97,0-56.31,25.34-56.31,56.31h0c0,30.97,25.34,56.32,56.31,56.32h126.08v-112.63h-126.08Z" fill="#aaff92" stroke="#000" stroke-miterlimit="10" stroke-width="3"/>
      <g>
        <path d="M119.73,113.6c.99,0,1.57.58,1.57,1.57v13.08c0,.99.58,1.57,1.57,1.57h5.02c1.05,0,1.57-.58,1.57-1.57v-13.08c0-.99.58-1.57,1.57-1.57h5.86c1.05,0,1.57.52,1.57,1.57v33.5c0,.99-.52,1.57-1.57,1.57h-5.86c-.99,0-1.57-.58-1.57-1.57v-8.27c0-1.05-.52-1.57-1.57-1.57h-5.02c-.99,0-1.57.52-1.57,1.57v8.27c0,.99-.52,1.57-1.57,1.57h-5.86c-.99,0-1.57-.58-1.57-1.57v-33.5c0-1.05.52-1.57,1.57-1.57h5.86Z"/>
        <path d="M166.84,113.6c1.05,0,1.57.52,1.57,1.57v5.86c0,.99-.52,1.57-1.57,1.57h-12.67c-.99,0-1.57.52-1.57,1.57v1.67c0,.99.58,1.57,1.57,1.57h8.11c1.05,0,1.57.52,1.57,1.57v5.86c0,.99-.52,1.57-1.57,1.57h-8.11c-.99,0-1.57.52-1.57,1.57v1.68c0,.99.58,1.57,1.57,1.57h12.67c1.05,0,1.57.52,1.57,1.57v5.86c0,1.05-.52,1.57-1.57,1.57h-21.98c-.99,0-1.57-.58-1.57-1.57v-33.5c0-1.05.58-1.57,1.57-1.57h21.98Z"/>
        <path d="M179.69,113.6c1.05,0,1.57.52,1.57,1.57v24.5c0,.99.58,1.57,1.57,1.57h11.67c1.05,0,1.57.52,1.57,1.57v5.86c0,1.05-.52,1.57-1.57,1.57h-20.67c-.99,0-1.57-.58-1.57-1.57v-33.5c0-1.05.58-1.57,1.57-1.57h5.86Z"/>
        <path d="M212.62,113.6c9.32,0,13.08,3.98,13.08,12.56s-3.77,12.56-13.08,12.56h-2.51c-.99,0-1.57.52-1.57,1.57v8.37c0,1.05-.52,1.57-1.57,1.57h-5.86c-.99,0-1.57-.58-1.57-1.57v-33.44c0-1.05.52-1.57,1.57-1.62h11.51ZM212.93,129.72c2.51,0,3.77-.31,3.77-3.56s-1.26-3.56-3.77-3.56h-2.83c-.99,0-1.57.52-1.57,1.57v3.98c0,.99.58,1.57,1.57,1.57h2.83Z"/>
        <path d="M239.08,138.56c-1.05,0-1.67-.63-1.47-1.73,1.26-7.12,6.49-6.39,7.59-11.72.31-1.57-.52-3.46-2.56-3.46-2.46,0-3.66,1.36-4.03,3.51-.16,1.05-.68,1.52-1.73,1.31l-5.97-1.31c-.94-.21-1.41-.78-1.36-1.73.31-3.77,2.3-10.78,13.08-10.78,11.72,0,12.14,9.26,12.09,10.83,0,8.69-6.07,9.42-7.96,13.77-.37.89-.84,1.31-1.78,1.31h-5.91ZM238.92,141.23c-.99,0-1.57.52-1.57,1.57v5.86c0,.99.58,1.57,1.57,1.57h5.86c1.05,0,1.57-.58,1.57-1.57v-5.86c0-1.05-.52-1.57-1.57-1.57h-5.86Z"/>
      </g>
      <g>
        <path d="M317.23,96.62l5.24,19.22c.11.34.15.97.37.97.19,0,.22-.56.34-.97l5.27-20.01c.19-.71.64-.93,1.12-.93.82,0,1.76.41,1.76,1.27,0,.11-.04.26-.07.41l-6.24,22.92c-.37,1.42-1.31,1.72-2.13,1.72s-1.72-.3-2.13-1.72l-5.35-19.67c-.07-.26-.11-.6-.3-.6s-.22.34-.3.6l-5.35,19.67c-.41,1.42-1.31,1.72-2.13,1.72s-1.76-.3-2.13-1.72l-6.24-22.92c-.04-.15-.07-.3-.07-.41,0-.86.93-1.27,1.76-1.27.49,0,.93.22,1.12.93l5.27,20.01c.11.41.15.97.34.97.22,0,.26-.64.37-.97l5.24-19.22c.37-1.42,1.31-1.72,2.13-1.72s1.76.3,2.13,1.72Z"/>
        <path d="M337.86,104.06c0,.19.07.26.22.26.07,0,.22-.15.3-.19,1.38-1.16,2.95-1.53,4.6-1.53,5.01,0,6.51,3.22,6.51,7.74v9.65c0,.9-.67,1.23-1.35,1.23-.71,0-1.42-.34-1.42-1.23v-8.45c0-3.63-.15-6.32-4.45-6.32-3.14,0-4.41,1.68-4.41,4.97v9.8c0,.9-.71,1.23-1.38,1.23-.71,0-1.38-.34-1.38-1.23v-23.86c0-.9.67-1.23,1.38-1.23.67,0,1.38.34,1.38,1.23v7.93Z"/>
        <path d="M357.49,113c-.22,0-.26.11-.26.26.11,3.48.82,5.35,4.97,5.35,1.16,0,2.65-.37,3.67-.93,1.08-.64,1.27-.82,1.57-.82.86,0,1.35.82,1.35,1.57,0,.37-.19.71-.6.97-1.65,1.12-3.78,1.83-6.24,1.83-6.28,0-7.59-3.63-7.59-9.31,0-5.31,1.16-9.31,7.44-9.31s7.29,4.67,7.29,8.04c0,.97-.15,2.35-1.79,2.35h-9.8ZM361.79,105.07c-3.29,0-4.56,2.02-4.56,5.2,0,.19,0,.34.26.34h8.56c.15,0,.26-.04.26-.22,0-2.99-1.08-5.31-4.52-5.31Z"/>
        <path d="M382.32,105.52c-.64,0-.56-.04-1.46-.04-2.84,0-4.08,1.53-4.08,5.65v8.86c0,.9-.67,1.23-1.38,1.23s-1.38-.34-1.38-1.23v-16.16c0-.9.67-1.23,1.38-1.23.79,0,1.42.34,1.42,1.23v.3c0,.07.04.15.15.15.07,0,.19-.11.3-.22,1.31-1.08,2.77-1.46,4-1.46,1.46,0,2.28.22,2.28,1.53,0,.93-.45,1.38-1.23,1.38Z"/>
        <path d="M388.3,113c-.22,0-.26.11-.26.26.11,3.48.82,5.35,4.97,5.35,1.16,0,2.65-.37,3.67-.93,1.08-.64,1.27-.82,1.57-.82.86,0,1.35.82,1.35,1.57,0,.37-.19.71-.6.97-1.65,1.12-3.78,1.83-6.24,1.83-6.28,0-7.59-3.63-7.59-9.31,0-5.31,1.16-9.31,7.44-9.31s7.29,4.67,7.29,8.04c0,.97-.15,2.35-1.79,2.35h-9.8ZM392.6,105.07c-3.29,0-4.56,2.02-4.56,5.2,0,.19,0,.34.26.34h8.56c.15,0,.26-.04.26-.22,0-2.99-1.08-5.31-4.52-5.31Z"/>
        <path d="M412.52,111.91c0-5.31,1.35-9.31,6.92-9.31,1.42,0,3.03.37,4.41,1.57,0,0,.19.19.3.19s.19-.07.19-.26v-7.96c0-.9.71-1.23,1.42-1.23.67,0,1.35.34,1.35,1.23v23.86c0,.9-.67,1.23-1.35,1.23s-1.42-.22-1.42-1.08v-.45c0-.19-.07-.22-.19-.22-.07,0-.26.15-.34.22-1.42,1.2-2.96,1.53-4.38,1.53-5.57,0-6.92-4-6.92-9.31ZM415.36,111.91c0,3.93.34,6.69,4.56,6.69s4.41-2.92,4.41-6.69c0-3.4-.07-6.69-4.41-6.69s-4.56,2.77-4.56,6.69Z"/>
        <path d="M439.59,102.6c6.28,0,7.44,4,7.44,9.31s-1.16,9.31-7.44,9.31-7.44-4-7.44-9.31,1.16-9.31,7.44-9.31ZM439.59,118.61c4.26,0,4.6-2.77,4.6-6.69s-.34-6.69-4.6-6.69-4.6,2.77-4.6,6.69.34,6.69,4.6,6.69Z"/>
        <path d="M460.97,96.21c0-1.05.79-1.31,1.5-1.31.75,0,1.5.26,1.5,1.31v23.71c0,1.05-.75,1.31-1.5,1.31s-1.5-.26-1.5-1.31v-23.71Z"/>
        <path d="M477.91,111.91c0-5.31,1.35-9.31,6.92-9.31,1.42,0,3.03.37,4.41,1.57.04.04.19.19.3.19s.19-.07.19-.22v-.3c0-.9.56-1.23,1.42-1.23.67,0,1.35.34,1.35,1.23v18.47c0,4.86-4,6.99-8.04,6.99-2.39,0-3.93-.56-4.82-1.05-.45-.26-.64-.64-.64-1.01,0-.67.49-1.53,1.27-1.53.19,0,.41.07.67.19.86.41,1.91.78,3.51.78,2.88,0,5.27-1.53,5.27-4.22v-2.73c0-.15-.07-.26-.19-.26s-.26.15-.3.19c-1.35,1.23-2.99,1.57-4.41,1.57-5.57,0-6.92-4-6.92-9.31ZM480.75,111.91c0,3.93.34,6.69,4.56,6.69s4.41-2.84,4.41-6.69c0-3.33-.07-6.69-4.41-6.69s-4.56,2.77-4.56,6.69Z"/>
        <path d="M504.98,102.6c6.28,0,7.44,4,7.44,9.31s-1.16,9.31-7.44,9.31-7.44-4-7.44-9.31,1.16-9.31,7.44-9.31ZM504.98,118.61c4.26,0,4.6-2.77,4.6-6.69s-.34-6.69-4.6-6.69-4.6,2.77-4.6,6.69.34,6.69,4.6,6.69Z"/>
        <path d="M526.28,105.56c0-.19-.15-.26-.34-.26h-1.27c-.86,0-1.12-.64-1.12-1.27,0-.6.26-1.27,1.12-1.27h1.27c.22,0,.34-.07.34-.26v-3.18c0-2.92,1.57-4.26,4.34-4.26h1.23c.86,0,1.16.64,1.16,1.27s-.3,1.27-1.16,1.27h-1.05c-1.16,0-1.76.45-1.76,1.94v2.88c0,.26.11.34.34.34h2.47c.82,0,1.12.67,1.12,1.27,0,.64-.3,1.27-1.12,1.27h-2.47c-.22,0-.34.07-.34.34v14.36c0,.9-.71,1.23-1.38,1.23-.71,0-1.38-.34-1.38-1.23v-14.43Z"/>
        <path d="M543,102.6c6.28,0,7.44,4,7.44,9.31s-1.16,9.31-7.44,9.31-7.44-4-7.44-9.31,1.16-9.31,7.44-9.31ZM543,118.61c4.26,0,4.6-2.77,4.6-6.69s-.34-6.69-4.6-6.69-4.6,2.77-4.6,6.69.34,6.69,4.6,6.69Z"/>
        <path d="M563.78,105.52c-.64,0-.56-.04-1.46-.04-2.84,0-4.07,1.53-4.07,5.65v8.86c0,.9-.67,1.23-1.38,1.23-.75,0-1.38-.34-1.38-1.23v-16.16c0-.9.67-1.23,1.38-1.23.78,0,1.42.34,1.42,1.23v.3c0,.07.04.15.15.15.07,0,.19-.11.3-.22,1.31-1.08,2.77-1.46,4-1.46,1.46,0,2.28.22,2.28,1.53,0,.93-.45,1.38-1.23,1.38Z"/>
        <path d="M579.44,104.06c0,.19.07.26.22.26.07,0,.22-.15.3-.19,1.38-1.16,2.95-1.53,4.6-1.53,5.01,0,6.51,3.22,6.51,7.74v9.65c0,.9-.67,1.23-1.35,1.23-.71,0-1.42-.34-1.42-1.23v-8.45c0-3.63-.15-6.32-4.45-6.32-3.14,0-4.41,1.68-4.41,4.97v9.8c0,.9-.71,1.23-1.38,1.23-.71,0-1.38-.34-1.38-1.23v-23.86c0-.9.67-1.23,1.38-1.23.67,0,1.38.34,1.38,1.23v7.93Z"/>
        <path d="M599.07,113c-.22,0-.26.11-.26.26.11,3.48.82,5.35,4.97,5.35,1.16,0,2.65-.37,3.66-.93,1.08-.64,1.27-.82,1.57-.82.86,0,1.35.82,1.35,1.57,0,.37-.19.71-.6.97-1.64,1.12-3.78,1.83-6.24,1.83-6.28,0-7.59-3.63-7.59-9.31,0-5.31,1.16-9.31,7.44-9.31s7.29,4.67,7.29,8.04c0,.97-.15,2.35-1.79,2.35h-9.8ZM603.37,105.07c-3.29,0-4.56,2.02-4.56,5.2,0,.19,0,.34.26.34h8.56c.15,0,.26-.04.26-.22,0-2.99-1.08-5.31-4.53-5.31Z"/>
        <path d="M615.59,116.92v-20.79c0-.9.67-1.23,1.38-1.23.67,0,1.38.34,1.38,1.23v20.6c0,1.35.56,1.83,1.87,1.83.67,0,1.16.45,1.16,1.23,0,.82-.45,1.42-1.79,1.42-2.62,0-4-1.38-4-4.3Z"/>
        <path d="M639.86,111.91c0,5.31-1.35,9.31-6.95,9.31-1.42,0-2.99-.34-4.38-1.53,0-.04-.19-.19-.3-.19-.15,0-.22.11-.22.26v7.93c0,.9-.71,1.23-1.38,1.23-.71,0-1.38-.34-1.38-1.23v-23.86c0-.9.67-1.23,1.38-1.23s1.38.34,1.38,1.23v.26c0,.15.07.22.22.22.07,0,.26-.11.34-.19,1.42-1.2,2.92-1.53,4.34-1.53,5.61,0,6.95,4,6.95,9.31ZM637.02,111.91c0-3.93-.34-6.69-4.6-6.69s-4.41,3.03-4.41,6.69c0,3.33.07,6.69,4.41,6.69s4.6-2.77,4.6-6.69Z"/>
        <path d="M649.24,94.9c4.52,0,7.52,2.99,7.52,7.14,0,3.07-2.09,5.35-4.26,6.62-1.46.86-1.5,2.06-1.5,3.51,0,.9-.71,1.2-1.42,1.2-.75,0-1.46-.3-1.46-1.2,0-2.13.26-4.34,2.73-5.76,1.68-.97,2.95-2.21,2.95-4.41s-1.5-4.23-4.56-4.23c-1.68,0-2.95.93-4.49,2.24-.22.19-.64.37-.97.37-.64,0-1.46-.71-1.46-1.5,0-.56.49-1.09.97-1.57,1.53-1.5,3.59-2.43,5.95-2.43ZM649.54,121.22c-1.12,0-1.91-.82-1.91-1.91s.78-1.91,1.91-1.91,1.91.82,1.91,1.91-.82,1.91-1.91,1.91Z"/>
        <path d="M673.39,119.92v-9.95c0-.34-.04-.49-.19-.75l-7.29-12.27c-.15-.26-.19-.49-.19-.67,0-.75.93-1.38,1.68-1.38.37,0,.71.15.97.64l6.24,10.55c.15.22.11.49.26.49s.11-.26.26-.49l6.24-10.55c.26-.49.6-.64.97-.64.75,0,1.68.64,1.68,1.38,0,.19-.04.41-.19.67l-7.29,12.27c-.15.26-.19.41-.19.75v9.95c0,1.05-.78,1.31-1.5,1.31s-1.5-.26-1.5-1.31Z"/>
        <path d="M691.97,102.6c6.28,0,7.44,4,7.44,9.31s-1.16,9.31-7.44,9.31-7.44-4-7.44-9.31,1.16-9.31,7.44-9.31ZM691.97,118.61c4.26,0,4.6-2.77,4.6-6.69s-.34-6.69-4.6-6.69-4.6,2.77-4.6,6.69.34,6.69,4.6,6.69Z"/>
        <path d="M715.86,113.71v-9.87c0-.9.71-1.23,1.42-1.23.67,0,1.35.34,1.35,1.23v16.16c0,.9-.67,1.23-1.35,1.23-.64,0-1.42-.26-1.42-1.23v-.22c0-.15-.07-.26-.19-.26s-.26.15-.3.19c-1.38,1.16-2.99,1.53-4.6,1.53-5.09,0-6.51-3.22-6.51-7.78v-9.61c0-.9.71-1.23,1.38-1.23.71,0,1.38.34,1.38,1.23v8.6c0,3.63.19,6.17,4.41,6.17,3.18,0,4.41-1.68,4.41-4.9Z"/>
        <path d="M745.17,105.03c0,.71-.79,1.53-1.46,1.53-.34,0-.64-.22-.93-.45-1.16-.82-2.28-.9-3.25-.9-4.26,0-4.6,2.77-4.6,6.69s.34,6.69,4.64,6.69c.9,0,2.39-.26,3.4-.75.52-.26.86-.56,1.2-.56.71,0,1.38.75,1.38,1.5,0,.19-.04.67-.64,1.01-1.72,1.01-3.18,1.42-5.39,1.42-6.28,0-7.44-4-7.44-9.31s1.16-9.31,7.29-9.31c1.83,0,3.92.26,5.5,1.76.26.26.3.49.3.67Z"/>
        <path d="M759.53,119.06c-.11,0-.22.15-.37.26-1.23,1.01-2.84,1.91-5.53,1.91-4.34,0-5.68-2.69-5.68-5.09,0-4.56,3.78-5.68,7.4-5.68h3.63c.26,0,.34-.11.34-.34v-1.08c0-2.58-1.27-3.82-4.11-3.82-2.28,0-3.21.56-4.37,1.42-.19.15-.37.19-.52.19-.71,0-1.38-.78-1.38-1.46,0-.41.22-.75.6-1.08,1.68-1.35,3.81-1.68,5.76-1.68,5.8,0,6.95,2.99,6.95,7.44v7.59c0,.67.19,1.01.82,1.01h.34c.64,0,.97.52.97,1.23,0,.97-.41,1.35-1.94,1.35-1.42,0-2.28-.64-2.69-1.94-.07-.19-.11-.22-.19-.22ZM759.45,113.26c0-.22-.11-.34-.34-.34h-3.51c-2.54,0-4.82.37-4.82,2.8,0,1.91,1.23,3.07,3.33,3.07,3.7,0,5.35-2.35,5.35-4.6v-.93Z"/>
        <path d="M770.74,110.12v9.87c0,.9-.71,1.23-1.38,1.23-.71,0-1.38-.34-1.38-1.23v-16.16c0-.9.67-1.23,1.38-1.23s1.42.34,1.42,1.16v.37c0,.11.07.19.19.19.07,0,.22-.15.3-.19,1.38-1.16,2.95-1.53,4.6-1.53,5.01,0,6.51,3.22,6.51,7.74v9.65c0,.9-.67,1.23-1.35,1.23-.71,0-1.42-.34-1.42-1.23v-8.45c0-3.63-.15-6.32-4.45-6.32-3.14,0-4.41,1.72-4.41,4.9Z"/>
        <path d="M788.35,103.65c-.26.45-.67.56-1.01.56-.6,0-1.53-.49-1.53-1.2,0-.19.04-.45.19-.71l.82-1.38c.19-.3.22-.52.22-1.12v-3.66c0-.9.71-1.23,1.35-1.23.75,0,1.38.34,1.38,1.23v3.96c0,.86-.15,1.42-.49,1.98l-.93,1.57Z"/>
        <path d="M800.83,121.22c-3.55,0-5.12-2.02-5.12-5.39v-10.28c0-.19-.11-.26-.34-.26h-1.94c-.9,0-1.2-.6-1.2-1.27s.3-1.27,1.2-1.27h1.94c.22,0,.34-.07.34-.3v-4.26c0-.9.67-1.23,1.38-1.23.67,0,1.38.34,1.38,1.23v4.23c0,.26.07.34.34.34h2.36c.9,0,1.2.6,1.2,1.27s-.3,1.27-1.2,1.27h-2.36c-.26,0-.34.07-.34.34v10.47c0,1.57.9,2.51,2.65,2.51.78,0,1.23.56,1.23,1.27,0,.64-.37,1.35-1.53,1.35Z"/>
        <path d="M810.66,127.54c0-.79.41-1.35,1.35-1.35,1.72,0,2.54-1.01,2.54-2.84v-19.52c0-.9.67-1.23,1.38-1.23.67,0,1.38.34,1.38,1.23v19.86c0,2.84-1.79,5.23-4.82,5.23-.9,0-1.83-.26-1.83-1.38ZM815.94,98.6c-1.12,0-1.87-.79-1.87-1.87s.75-1.83,1.87-1.83c1.05,0,1.83.75,1.83,1.83s-.78,1.87-1.83,1.87Z"/>
        <path d="M834.48,113.71v-9.87c0-.9.71-1.23,1.42-1.23.67,0,1.35.34,1.35,1.23v16.16c0,.9-.67,1.23-1.35,1.23-.64,0-1.42-.26-1.42-1.23v-.22c0-.15-.07-.26-.19-.26s-.26.15-.3.19c-1.38,1.16-2.99,1.53-4.6,1.53-5.09,0-6.51-3.22-6.51-7.78v-9.61c0-.9.71-1.23,1.38-1.23.71,0,1.38.34,1.38,1.23v8.6c0,3.63.19,6.17,4.41,6.17,3.18,0,4.41-1.68,4.41-4.9Z"/>
        <path d="M848.84,118.61c2.21,0,3.7-.93,3.7-2.62,0-1.27-.97-1.94-2.77-2.51l-2.73-.86c-2.96-.93-4.75-2.32-4.75-5.01,0-3.1,2.69-5.01,6.54-5.01,2.28,0,3.78.67,4.6,1.16.52.3.86.64.86,1.12,0,.64-.64,1.46-1.23,1.46-.34,0-.52-.11-.79-.22-.56-.34-2.02-.9-3.44-.9-2.21,0-3.7.82-3.7,2.28,0,1.31,1.05,1.94,2.77,2.5l2.69.86c3.1.97,4.79,2.39,4.79,5.12,0,3.22-2.69,5.24-6.54,5.24-2.99,0-4.9-1.05-6.17-2.28-.26-.3-.56-.56-.56-1.01,0-.67.64-1.42,1.42-1.42.26,0,.45.04.93.45.93.82,1.98,1.65,4.38,1.65Z"/>
        <path d="M866.07,121.22c-3.55,0-5.12-2.02-5.12-5.39v-10.28c0-.19-.11-.26-.34-.26h-1.94c-.9,0-1.2-.6-1.2-1.27s.3-1.27,1.2-1.27h1.94c.22,0,.34-.07.34-.3v-4.26c0-.9.67-1.23,1.38-1.23.67,0,1.38.34,1.38,1.23v4.23c0,.26.07.34.34.34h2.36c.9,0,1.2.6,1.2,1.27s-.3,1.27-1.2,1.27h-2.36c-.26,0-.34.07-.34.34v10.47c0,1.57.9,2.51,2.65,2.51.78,0,1.23.56,1.23,1.27,0,.64-.37,1.35-1.53,1.35Z"/>
        <path d="M879.79,116.92v-20.79c0-.9.67-1.23,1.38-1.23.67,0,1.38.34,1.38,1.23v20.6c0,1.35.56,1.83,1.87,1.83.67,0,1.16.45,1.16,1.23,0,.82-.45,1.42-1.79,1.42-2.62,0-4-1.38-4-4.3Z"/>
        <path d="M891.42,113c-.22,0-.26.11-.26.26.11,3.48.82,5.35,4.97,5.35,1.16,0,2.65-.37,3.66-.93,1.08-.64,1.27-.82,1.57-.82.86,0,1.35.82,1.35,1.57,0,.37-.19.71-.6.97-1.64,1.12-3.78,1.83-6.24,1.83-6.28,0-7.59-3.63-7.59-9.31,0-5.31,1.16-9.31,7.44-9.31s7.29,4.67,7.29,8.04c0,.97-.15,2.35-1.79,2.35h-9.8ZM895.72,105.07c-3.29,0-4.56,2.02-4.56,5.2,0,.19,0,.34.26.34h8.56c.15,0,.26-.04.26-.22,0-2.99-1.08-5.31-4.53-5.31Z"/>
        <path d="M918.22,119.06c-.11,0-.22.15-.37.26-1.23,1.01-2.84,1.91-5.53,1.91-4.34,0-5.68-2.69-5.68-5.09,0-4.56,3.78-5.68,7.4-5.68h3.63c.26,0,.34-.11.34-.34v-1.08c0-2.58-1.27-3.82-4.11-3.82-2.28,0-3.21.56-4.37,1.42-.19.15-.37.19-.52.19-.71,0-1.38-.78-1.38-1.46,0-.41.22-.75.6-1.08,1.68-1.35,3.81-1.68,5.76-1.68,5.8,0,6.95,2.99,6.95,7.44v7.59c0,.67.19,1.01.82,1.01h.34c.64,0,.97.52.97,1.23,0,.97-.41,1.35-1.94,1.35-1.42,0-2.28-.64-2.69-1.94-.07-.19-.11-.22-.19-.22ZM918.15,113.26c0-.22-.11-.34-.34-.34h-3.51c-2.54,0-4.82.37-4.82,2.8,0,1.91,1.23,3.07,3.33,3.07,3.7,0,5.35-2.35,5.35-4.6v-.93Z"/>
        <path d="M933.81,119.65c-.49,1.27-1.2,1.57-1.95,1.57s-1.46-.3-1.94-1.57l-5.72-15.33c-.07-.19-.11-.34-.11-.49,0-.75.86-1.23,1.61-1.23.45,0,.86.19,1.05.75l4.75,12.94c.15.37.11.78.37.78s.22-.41.37-.78l4.75-12.94c.19-.56.6-.75,1.05-.75.75,0,1.61.49,1.61,1.23,0,.15-.04.3-.11.49l-5.72,15.33Z"/>
        <path d="M945.33,113c-.22,0-.26.11-.26.26.11,3.48.82,5.35,4.97,5.35,1.16,0,2.65-.37,3.66-.93,1.08-.64,1.27-.82,1.57-.82.86,0,1.35.82,1.35,1.57,0,.37-.19.71-.6.97-1.64,1.12-3.78,1.83-6.24,1.83-6.28,0-7.59-3.63-7.59-9.31,0-5.31,1.16-9.31,7.44-9.31s7.29,4.67,7.29,8.04c0,.97-.15,2.35-1.79,2.35h-9.8ZM949.62,105.07c-3.29,0-4.56,2.02-4.56,5.2,0,.19,0,.34.26.34h8.56c.15,0,.26-.04.26-.22,0-2.99-1.08-5.31-4.53-5.31Z"/>
        <path d="M503.65,164.85c0,.9-.67,1.23-1.35,1.23-.71,0-1.42-.34-1.42-1.23v-8.08c0-2.39-.15-4.26-.75-5.12-.93-1.35-2.36-1.57-3.74-1.57-1.53,0-2.84.52-3.63,1.65-.64.86-.75,2.58-.75,4.11v9.01c0,.9-.71,1.23-1.38,1.23-.71,0-1.38-.34-1.38-1.23v-16.16c0-.9.67-1.23,1.38-1.23.6,0,1.42.22,1.42.97v.56c0,.11.07.19.19.19.07,0,.3-.19.3-.19,1.38-1.16,2.95-1.53,4.37-1.53,1.8,0,3.67.45,5.01,1.98.15.15.34.3.52.3s.26-.11.41-.22c1.91-1.68,3.82-2.06,5.61-2.06,5.42,0,6.81,3.37,6.81,7.7v9.69c0,.9-.71,1.23-1.38,1.23-.71,0-1.38-.34-1.38-1.23v-8.08c0-2.8-.19-4.26-.78-5.16-.82-1.27-2.17-1.53-3.7-1.53-1.16,0-2.62.26-3.51,1.42-.67.82-.9,2.39-.9,4.37l.04,8.98Z"/>
        <path d="M523.27,157.86c-.22,0-.26.11-.26.26.11,3.48.82,5.35,4.97,5.35,1.16,0,2.65-.37,3.67-.93,1.08-.64,1.27-.82,1.57-.82.86,0,1.35.82,1.35,1.57,0,.37-.19.71-.6.97-1.65,1.12-3.78,1.83-6.24,1.83-6.28,0-7.59-3.63-7.59-9.31,0-5.31,1.16-9.31,7.44-9.31s7.29,4.67,7.29,8.04c0,.97-.15,2.35-1.79,2.35h-9.8ZM527.57,149.93c-3.29,0-4.56,2.02-4.56,5.2,0,.19,0,.34.26.34h8.56c.15,0,.26-.04.26-.22,0-2.99-1.08-5.31-4.52-5.31Z"/>
        <path d="M554.04,163.47c2.21,0,3.7-.93,3.7-2.62,0-1.27-.97-1.94-2.77-2.51l-2.73-.86c-2.95-.93-4.75-2.32-4.75-5.01,0-3.1,2.69-5.01,6.54-5.01,2.28,0,3.78.67,4.6,1.16.52.3.86.64.86,1.12,0,.64-.64,1.46-1.23,1.46-.34,0-.52-.11-.79-.22-.56-.34-2.02-.9-3.44-.9-2.21,0-3.7.82-3.7,2.28,0,1.31,1.05,1.94,2.77,2.5l2.69.86c3.1.97,4.79,2.39,4.79,5.12,0,3.22-2.69,5.24-6.54,5.24-2.99,0-4.9-1.05-6.17-2.28-.26-.3-.56-.56-.56-1.01,0-.67.64-1.42,1.42-1.42.26,0,.45.04.93.45.94.82,1.98,1.65,4.38,1.65Z"/>
        <path d="M571.28,166.09c-3.55,0-5.12-2.02-5.12-5.39v-10.28c0-.19-.11-.26-.34-.26h-1.94c-.9,0-1.2-.6-1.2-1.27s.3-1.27,1.2-1.27h1.94c.22,0,.34-.07.34-.3v-4.26c0-.9.67-1.23,1.38-1.23.67,0,1.38.34,1.38,1.23v4.23c0,.26.07.34.34.34h2.36c.9,0,1.2.6,1.2,1.27s-.3,1.27-1.2,1.27h-2.36c-.26,0-.34.07-.34.34v10.47c0,1.57.9,2.51,2.65,2.51.78,0,1.23.56,1.23,1.27,0,.64-.37,1.35-1.53,1.35Z"/>
        <path d="M584.88,150.38c-.64,0-.56-.04-1.46-.04-2.84,0-4.08,1.53-4.08,5.65v8.86c0,.9-.67,1.23-1.38,1.23-.75,0-1.38-.34-1.38-1.23v-16.16c0-.9.67-1.23,1.38-1.23.78,0,1.42.34,1.42,1.23v.3c0,.07.04.15.15.15.07,0,.19-.11.3-.22,1.31-1.08,2.77-1.46,4-1.46,1.46,0,2.28.22,2.28,1.53,0,.93-.45,1.38-1.23,1.38Z"/>
        <path d="M599.65,163.92c-.11,0-.22.15-.37.26-1.23,1.01-2.84,1.91-5.53,1.91-4.34,0-5.68-2.69-5.68-5.09,0-4.56,3.78-5.68,7.4-5.68h3.63c.26,0,.34-.11.34-.34v-1.08c0-2.58-1.27-3.82-4.11-3.82-2.28,0-3.21.56-4.37,1.42-.19.15-.37.19-.52.19-.71,0-1.38-.78-1.38-1.46,0-.41.22-.75.6-1.08,1.68-1.35,3.81-1.68,5.76-1.68,5.8,0,6.95,2.99,6.95,7.44v7.59c0,.67.19,1.01.82,1.01h.34c.64,0,.97.52.97,1.23,0,.97-.41,1.35-1.94,1.35-1.42,0-2.28-.64-2.69-1.94-.07-.19-.11-.22-.19-.22ZM599.58,158.12c0-.22-.11-.34-.34-.34h-3.51c-2.54,0-4.82.37-4.82,2.8,0,1.91,1.23,3.07,3.33,3.07,3.7,0,5.35-2.35,5.35-4.6v-.93Z"/>
        <path d="M610.86,154.98v9.87c0,.9-.71,1.23-1.38,1.23-.71,0-1.38-.34-1.38-1.23v-16.16c0-.9.67-1.23,1.38-1.23s1.42.34,1.42,1.16v.37c0,.11.07.19.19.19.07,0,.22-.15.3-.19,1.38-1.16,2.95-1.53,4.6-1.53,5.01,0,6.51,3.22,6.51,7.74v9.65c0,.9-.67,1.23-1.35,1.23-.71,0-1.42-.34-1.42-1.23v-8.45c0-3.63-.15-6.32-4.45-6.32-3.14,0-4.41,1.72-4.41,4.9Z"/>
        <path d="M627.35,156.77c0-5.31,1.35-9.31,6.92-9.31,1.42,0,3.03.37,4.41,1.57,0,0,.19.19.3.19s.19-.07.19-.26v-7.96c0-.9.71-1.23,1.42-1.23.67,0,1.35.34,1.35,1.23v23.86c0,.9-.67,1.23-1.35,1.23s-1.42-.22-1.42-1.08v-.45c0-.19-.07-.22-.19-.22-.07,0-.26.15-.34.22-1.42,1.2-2.95,1.53-4.37,1.53-5.57,0-6.92-4-6.92-9.31ZM630.19,156.77c0,3.93.34,6.69,4.56,6.69s4.41-2.92,4.41-6.69c0-3.4-.07-6.69-4.41-6.69s-4.56,2.77-4.56,6.69Z"/>
        <path d="M650.12,157.86c-.22,0-.26.11-.26.26.11,3.48.82,5.35,4.97,5.35,1.16,0,2.65-.37,3.66-.93,1.08-.64,1.27-.82,1.57-.82.86,0,1.35.82,1.35,1.57,0,.37-.19.71-.6.97-1.64,1.12-3.78,1.83-6.24,1.83-6.28,0-7.59-3.63-7.59-9.31,0-5.31,1.16-9.31,7.44-9.31s7.29,4.67,7.29,8.04c0,.97-.15,2.35-1.79,2.35h-9.8ZM654.42,149.93c-3.29,0-4.56,2.02-4.56,5.2,0,.19,0,.34.26.34h8.56c.15,0,.26-.04.26-.22,0-2.99-1.08-5.31-4.53-5.31Z"/>
        <path d="M665.93,156.77c0-5.31,1.35-9.31,6.92-9.31,1.42,0,3.03.37,4.41,1.57,0,0,.19.19.3.19s.19-.07.19-.26v-7.96c0-.9.71-1.23,1.42-1.23.67,0,1.35.34,1.35,1.23v23.86c0,.9-.67,1.23-1.35,1.23s-1.42-.22-1.42-1.08v-.45c0-.19-.07-.22-.19-.22-.07,0-.26.15-.34.22-1.42,1.2-2.95,1.53-4.37,1.53-5.57,0-6.92-4-6.92-9.31ZM668.77,156.77c0,3.93.34,6.69,4.56,6.69s4.41-2.92,4.41-6.69c0-3.4-.07-6.69-4.41-6.69s-4.56,2.77-4.56,6.69Z"/>
        <path d="M697.45,148.92c0,.19.07.26.22.26.07,0,.22-.15.3-.19,1.38-1.16,2.95-1.53,4.6-1.53,5.01,0,6.51,3.22,6.51,7.74v9.65c0,.9-.67,1.23-1.35,1.23-.71,0-1.42-.34-1.42-1.23v-8.45c0-3.63-.15-6.32-4.45-6.32-3.14,0-4.41,1.68-4.41,4.97v9.8c0,.9-.71,1.23-1.38,1.23-.71,0-1.38-.34-1.38-1.23v-23.86c0-.9.67-1.23,1.38-1.23.67,0,1.38.34,1.38,1.23v7.93Z"/>
        <path d="M717.07,157.86c-.22,0-.26.11-.26.26.11,3.48.82,5.35,4.97,5.35,1.16,0,2.65-.37,3.66-.93,1.08-.64,1.27-.82,1.57-.82.86,0,1.35.82,1.35,1.57,0,.37-.19.71-.6.97-1.64,1.12-3.78,1.83-6.24,1.83-6.28,0-7.59-3.63-7.59-9.31,0-5.31,1.16-9.31,7.44-9.31s7.29,4.67,7.29,8.04c0,.97-.15,2.35-1.79,2.35h-9.8ZM721.37,149.93c-3.29,0-4.56,2.02-4.56,5.2,0,.19,0,.34.26.34h8.56c.15,0,.26-.04.26-.22,0-2.99-1.08-5.31-4.53-5.31Z"/>
        <path d="M741.9,150.38c-.64,0-.56-.04-1.46-.04-2.84,0-4.08,1.53-4.08,5.65v8.86c0,.9-.67,1.23-1.38,1.23-.75,0-1.38-.34-1.38-1.23v-16.16c0-.9.67-1.23,1.38-1.23.78,0,1.42.34,1.42,1.23v.3c0,.07.04.15.15.15.07,0,.19-.11.3-.22,1.31-1.08,2.77-1.46,4-1.46,1.46,0,2.28.22,2.28,1.53,0,.93-.45,1.38-1.23,1.38Z"/>
        <path d="M747.88,157.86c-.22,0-.26.11-.26.26.11,3.48.82,5.35,4.97,5.35,1.16,0,2.65-.37,3.66-.93,1.08-.64,1.27-.82,1.57-.82.86,0,1.35.82,1.35,1.57,0,.37-.19.71-.6.97-1.64,1.12-3.78,1.83-6.24,1.83-6.28,0-7.59-3.63-7.59-9.31,0-5.31,1.16-9.31,7.44-9.31s7.29,4.67,7.29,8.04c0,.97-.15,2.35-1.79,2.35h-9.8ZM752.18,149.93c-3.29,0-4.56,2.02-4.56,5.2,0,.19,0,.34.26.34h8.56c.15,0,.26-.04.26-.22,0-2.99-1.08-5.31-4.53-5.31Z"/>
        <path d="M766.05,166.09c-1.12,0-1.91-.82-1.91-1.91s.78-1.91,1.91-1.91,1.91.82,1.91,1.91-.82,1.91-1.91,1.91ZM764.66,141c0-.9.67-1.23,1.38-1.23.67,0,1.38.34,1.38,1.23v16c0,.9-.71,1.23-1.38,1.23-.71,0-1.38-.34-1.38-1.23v-16Z"/>
      </g>
    </g>
  </g>
  <g id="_12" data-name="12">
    <text transform="translate(98.61 268.58)" font-family="DINosaur-Book, DINosaur" font-size="34"><tspan x="0" y="0" letter-spacing="0em">T</tspan><tspan x="18.2" y="0" letter-spacing="0em">h</tspan><tspan x="36.06" y="0" letter-spacing="0em">e</tspan><tspan x="52.96" y="0" letter-spacing="0em">r</tspan><tspan x="64.53" y="0">e </tspan><tspan x="89.42" y="0" letter-spacing="0em">a</tspan><tspan x="106.51" y="0" letter-spacing="0em">r</tspan><tspan x="118.08" y="0">e </tspan><tspan x="142.97" y="0" letter-spacing="0em">t</tspan><tspan x="153.51" y="0" letter-spacing="0em">h</tspan><tspan x="171.34" y="0" letter-spacing="0em">r</tspan><tspan x="182.91" y="0" letter-spacing="0em">e</tspan><tspan x="199.92" y="0">e </tspan><tspan x="224.81" y="0" letter-spacing="0em">m</tspan><tspan x="253.33" y="0" letter-spacing="0em">a</tspan><tspan x="270.43" y="0" letter-spacing="-.01em">i</tspan><tspan x="277.77" y="0">n </tspan><tspan x="303.58" y="0" letter-spacing="0em">p</tspan><tspan x="321.12" y="0" letter-spacing="0em">l</tspan><tspan x="330.15" y="0" letter-spacing="0em">a</tspan><tspan x="346.91" y="0" letter-spacing="0em">c</tspan><tspan x="361.95" y="0" letter-spacing="0em">e</tspan><tspan x="378.92" y="0">s </tspan><tspan x="402.24" y="0" letter-spacing="0em">y</tspan><tspan x="417.2" y="0" letter-spacing="-.01em">o</tspan><tspan x="434.33" y="0">u </tspan><tspan x="460.1" y="0" letter-spacing="0em">c</tspan><tspan x="475.73" y="0" letter-spacing="0em">a</tspan><tspan x="492.82" y="0">n </tspan><tspan x="518.63" y="0" letter-spacing="0em">g</tspan><tspan x="536.19" y="0" letter-spacing="0em">e</tspan><tspan x="553.3" y="0">t </tspan><tspan x="571.53" y="0" letter-spacing="0em">h</tspan><tspan x="589.39" y="0" letter-spacing="-.01em">e</tspan><tspan x="606.24" y="0" letter-spacing="0em">l</tspan><tspan x="614.93" y="0" letter-spacing="-.02em">p</tspan><tspan x="632.11" y="0">:</tspan></text>
  </g>
</svg>