<?xml version="1.0" encoding="UTF-8"?>
<svg xmlns="http://www.w3.org/2000/svg" viewBox="0 0 1116 844.26">
  <g id="bg">
    <rect y="-.05" width="1114.94" height="844.31" fill="#fff"/>
  </g>
  <g id="_16" data-name="16">
    <text transform="translate(314.03 271.3)" font-family="BelovedScript, &apos;Beloved Script&apos;" font-size="150"><tspan x="0" y="0">The </tspan><tspan x="251.25" y="0" letter-spacing=".02em">E</tspan><tspan x="363.29" y="0">nd</tspan></text>
  </g>
  <g id="_17" data-name="17">
    <text transform="translate(350.01 400.45)" font-family="Cubano-Regular, Cubano" font-size="40"><tspan x="0" y="0" letter-spacing="-.01em">o</tspan><tspan x="22.86" y="0">f </tspan><tspan x="56.86" y="0" letter-spacing="0em">t</tspan><tspan x="80.63" y="0" letter-spacing="-.01em">h</tspan><tspan x="104.17" y="0">e </tspan><tspan x="138.45" y="0" letter-spacing="0em">p</tspan><tspan x="160.96" y="0" letter-spacing="0em">r</tspan><tspan x="184.76" y="0" letter-spacing="0em">e</tspan><tspan x="207.32" y="0" letter-spacing="0em">s</tspan><tspan x="230.02" y="0" letter-spacing="0em">e</tspan><tspan x="252.02" y="0" letter-spacing="0em">n</tspan><tspan x="277.4" y="0" letter-spacing="0em">t</tspan><tspan x="301.2" y="0" letter-spacing="0em">at</tspan><tspan x="348.27" y="0" letter-spacing="-.01em">i</tspan><tspan x="358.6" y="0" letter-spacing="-.01em">o</tspan><tspan x="381.46" y="0" letter-spacing="0em">n</tspan><tspan x="406.5" y="0">.</tspan></text>
  </g>
  <g id="_18" data-name="18">
    <text transform="translate(385.28 440.26)" font-family="Cubano-Regular, Cubano" font-size="40"><tspan x="0" y="0" letter-spacing="0em">A</tspan><tspan x="22.81" y="0" letter-spacing="-.01em">n</tspan><tspan x="47.65" y="0">d </tspan><tspan x="83.37" y="0" letter-spacing="0em">C</tspan><tspan x="105.66" y="0" letter-spacing="0em">P</tspan><tspan x="128.17" y="0" letter-spacing="-.02em">R</tspan><tspan x="151" y="0" letter-spacing="-.05em">+</tspan><tspan x="176.89" y="0">, I </tspan><tspan x="221.17" y="0" letter-spacing="0em">gu</tspan><tspan x="267.2" y="0" letter-spacing="0em">e</tspan><tspan x="289.76" y="0" letter-spacing=".01em">s</tspan><tspan x="313.11" y="0" letter-spacing="0em">s</tspan><tspan x="335.96" y="0">.</tspan></text>
  </g>
</svg>