<?xml version="1.0" encoding="UTF-8"?>
<svg xmlns="http://www.w3.org/2000/svg" viewBox="0 0 1116 844.26">
  <g id="bg">
    <rect y="-.05" width="1114.94" height="844.31" fill="#fff"/>
  </g>
  <g id="_09" data-name="09">
    <g>
      <rect x="84.16" y="75.6" width="932.07" height="112.63" rx="56.31" ry="56.31" fill="#fff" stroke="#000" stroke-miterlimit="10" stroke-width="3"/>
      <path d="M140.48,75.6c-30.97,0-56.31,25.34-56.31,56.31h0c0,30.97,25.34,56.32,56.31,56.32h126.08v-112.63h-126.08Z" fill="#ffe783" stroke="#000" stroke-miterlimit="10" stroke-width="3"/>
      <g>
        <path d="M125.95,113.46c.99,0,1.57.58,1.57,1.57v13.08c0,.99.58,1.57,1.57,1.57h5.02c1.05,0,1.57-.58,1.57-1.57v-13.08c0-.99.58-1.57,1.57-1.57h5.86c1.05,0,1.57.52,1.57,1.57v33.49c0,.99-.52,1.57-1.57,1.57h-5.86c-.99,0-1.57-.58-1.57-1.57v-8.27c0-1.05-.52-1.57-1.57-1.57h-5.02c-.99,0-1.57.52-1.57,1.57v8.27c0,.99-.52,1.57-1.57,1.57h-5.86c-.99,0-1.57-.58-1.57-1.57v-33.49c0-1.05.52-1.57,1.57-1.57h5.86Z"/>
        <path d="M174.96,138.32c0,3.45-.73,12.72-13.14,12.72s-13.14-9.26-13.14-12.72v-13.08c0-3.45.73-12.72,13.14-12.72s13.14,9.26,13.14,12.72v13.08ZM165.95,128.01c0-4.03-.26-6.49-4.13-6.49s-4.13,2.46-4.13,6.49v7.54c0,4.03.26,6.49,4.13,6.49s4.13-2.46,4.13-6.49v-7.54Z"/>
        <path d="M177.17,115.19c-.21-1.1.31-1.73,1.41-1.73h6.23c.94,0,1.62.47,1.73,1.36l2.98,21.82c.11.52.52.52.63,0l3.51-21.82c.16-.89.78-1.36,1.73-1.36h4.5c.94,0,1.57.47,1.73,1.36l3.51,21.82c.11.52.52.52.63,0l2.98-21.82c.1-.89.78-1.36,1.73-1.36h6.23c1.1,0,1.62.63,1.41,1.73l-6.44,33.55c-.16.89-.78,1.36-1.73,1.36h-7.38c-.94,0-1.52-.47-1.73-1.36l-2.88-12.87c-.11-.52-.52-.52-.63,0l-2.88,12.87c-.21.89-.78,1.36-1.73,1.36h-7.38c-.94,0-1.57-.47-1.73-1.36l-6.44-33.55Z"/>
        <path d="M230.56,138.42c-1.05,0-1.67-.63-1.47-1.73,1.26-7.12,6.49-6.39,7.59-11.72.31-1.57-.52-3.46-2.56-3.46-2.46,0-3.66,1.36-4.03,3.51-.16,1.05-.68,1.52-1.73,1.31l-5.97-1.31c-.94-.21-1.41-.78-1.36-1.73.31-3.77,2.3-10.78,13.08-10.78,11.72,0,12.14,9.26,12.09,10.83,0,8.69-6.07,9.42-7.95,13.76-.37.89-.84,1.31-1.78,1.31h-5.91ZM230.4,141.09c-.99,0-1.57.52-1.57,1.57v5.86c0,.99.58,1.57,1.57,1.57h5.86c1.05,0,1.57-.58,1.57-1.57v-5.86c0-1.05-.52-1.57-1.57-1.57h-5.86Z"/>
      </g>
      <g>
        <path d="M324.43,119.78c0,1.05-.75,1.31-1.49,1.31s-1.49-.26-1.49-1.31v-23.7c0-1.05.78-1.31,1.49-1.31.75,0,1.49.26,1.49,1.31v10.06c0,.26.07.34.34.34h11.51c.22,0,.34-.07.34-.34v-10.06c0-1.05.79-1.31,1.5-1.31s1.49.26,1.49,1.31v23.7c0,1.05-.78,1.31-1.49,1.31s-1.5-.26-1.5-1.31v-10.21c0-.26-.11-.34-.34-.34h-11.51c-.26,0-.34.07-.34.34v10.21Z"/>
        <path d="M352.58,102.47c6.28,0,7.44,4,7.44,9.31s-1.16,9.31-7.44,9.31-7.44-4-7.44-9.31,1.16-9.31,7.44-9.31ZM352.58,118.47c4.26,0,4.6-2.77,4.6-6.69s-.34-6.69-4.6-6.69-4.6,2.77-4.6,6.69.34,6.69,4.6,6.69Z"/>
        <path d="M381.18,115.96c.11.37.15.78.41.78.22,0,.26-.41.37-.78l4.07-12.67c.19-.6.67-.82,1.08-.82.75,0,1.61.45,1.61,1.23,0,.11-.04.26-.07.41l-5.35,15.81c-.22.67-.75,1.16-1.72,1.16s-1.46-.49-1.68-1.2l-3.89-12.3c-.11-.34-.11-.93-.37-.93s-.26.6-.37.93l-3.63,11.92c-.41,1.31-1.2,1.57-1.94,1.57s-1.53-.26-1.94-1.57l-5.12-15.4c-.04-.15-.07-.3-.07-.41,0-.78.86-1.23,1.61-1.23.41,0,.9.22,1.08.82l4.07,12.82c.11.37.15.79.41.79s.26-.41.37-.79l3.59-12.07c.37-1.31,1.2-1.57,1.94-1.57s1.57.26,1.94,1.57l3.59,11.92Z"/>
        <path d="M413.07,104.9c0,.71-.78,1.53-1.46,1.53-.34,0-.64-.22-.93-.45-1.16-.82-2.28-.9-3.25-.9-4.26,0-4.6,2.77-4.6,6.69s.34,6.69,4.64,6.69c.9,0,2.39-.26,3.4-.75.52-.26.86-.56,1.2-.56.71,0,1.38.75,1.38,1.5,0,.19-.04.67-.64,1.01-1.72,1.01-3.18,1.42-5.38,1.42-6.28,0-7.44-4-7.44-9.31s1.16-9.31,7.29-9.31c1.83,0,3.93.26,5.5,1.76.26.26.3.49.3.67Z"/>
        <path d="M427.43,118.91c-.11,0-.22.15-.37.26-1.23,1.01-2.84,1.91-5.53,1.91-4.34,0-5.68-2.69-5.68-5.08,0-4.56,3.78-5.68,7.4-5.68h3.63c.26,0,.34-.11.34-.34v-1.08c0-2.58-1.27-3.81-4.11-3.81-2.28,0-3.21.56-4.37,1.42-.19.15-.37.19-.52.19-.71,0-1.38-.79-1.38-1.46,0-.41.22-.75.6-1.08,1.68-1.35,3.81-1.68,5.76-1.68,5.79,0,6.95,2.99,6.95,7.44v7.59c0,.67.19,1.01.82,1.01h.34c.64,0,.97.52.97,1.23,0,.97-.41,1.35-1.94,1.35-1.42,0-2.28-.64-2.69-1.94-.07-.19-.11-.22-.19-.22ZM427.35,113.12c0-.22-.11-.34-.34-.34h-3.51c-2.54,0-4.82.37-4.82,2.8,0,1.91,1.23,3.07,3.33,3.07,3.7,0,5.35-2.36,5.35-4.6v-.93Z"/>
        <path d="M438.64,109.98v9.87c0,.9-.71,1.23-1.38,1.23-.71,0-1.38-.34-1.38-1.23v-16.15c0-.9.67-1.23,1.38-1.23s1.42.34,1.42,1.16v.37c0,.11.07.19.19.19.07,0,.23-.15.3-.19,1.38-1.16,2.95-1.53,4.6-1.53,5.01,0,6.5,3.21,6.5,7.74v9.64c0,.9-.67,1.23-1.35,1.23-.71,0-1.42-.34-1.42-1.23v-8.45c0-3.63-.15-6.32-4.45-6.32-3.14,0-4.41,1.72-4.41,4.9Z"/>
        <path d="M465.63,98.47c-1.12,0-1.87-.78-1.87-1.87s.75-1.83,1.87-1.83c1.05,0,1.83.75,1.83,1.83s-.79,1.87-1.83,1.87ZM467.02,119.85c0,.9-.71,1.23-1.38,1.23-.71,0-1.38-.34-1.38-1.23v-16.15c0-.9.67-1.23,1.38-1.23.67,0,1.38.34,1.38,1.23v16.15Z"/>
        <path d="M479.09,121.08c-3.55,0-5.12-2.02-5.12-5.38v-10.28c0-.19-.11-.26-.34-.26h-1.94c-.9,0-1.2-.6-1.2-1.27s.3-1.27,1.2-1.27h1.94c.22,0,.34-.07.34-.3v-4.26c0-.9.67-1.23,1.38-1.23.67,0,1.38.34,1.38,1.23v4.22c0,.26.07.34.34.34h2.35c.9,0,1.2.6,1.2,1.27s-.3,1.27-1.2,1.27h-2.35c-.26,0-.34.07-.34.34v10.47c0,1.57.9,2.5,2.65,2.5.78,0,1.23.56,1.23,1.27,0,.64-.37,1.35-1.53,1.35Z"/>
        <path d="M507.43,111.78c0,5.31-1.35,9.31-6.99,9.31-1.42,0-2.8-.34-4.15-1.38-.19-.15-.34-.34-.49-.34s-.22.04-.22.22v.45c0,.67-.71,1.05-1.38,1.05-.71,0-1.38-.34-1.38-1.23v-23.85c0-.9.67-1.23,1.38-1.23.67,0,1.38.34,1.38,1.23v8c0,.11.07.23.22.23.07,0,.26-.15.3-.19,1.35-1.2,3.06-1.57,4.34-1.57,5.64,0,6.99,4,6.99,9.31ZM499.99,105.08c-4.11,0-4.41,3.03-4.41,6.69,0,3.33.11,6.69,4.41,6.69s4.6-2.77,4.6-6.69-.34-6.69-4.6-6.69Z"/>
        <path d="M514.9,112.86c-.22,0-.26.11-.26.26.11,3.48.82,5.35,4.97,5.35,1.16,0,2.65-.37,3.66-.93,1.08-.64,1.27-.82,1.57-.82.86,0,1.35.82,1.35,1.57,0,.37-.19.71-.6.97-1.64,1.12-3.77,1.83-6.24,1.83-6.28,0-7.59-3.63-7.59-9.31,0-5.31,1.16-9.31,7.44-9.31s7.29,4.67,7.29,8.04c0,.97-.15,2.35-1.79,2.35h-9.79ZM519.2,104.94c-3.29,0-4.56,2.02-4.56,5.19,0,.19,0,.34.26.34h8.56c.15,0,.26-.04.26-.22,0-2.99-1.08-5.31-4.52-5.31Z"/>
        <path d="M554.23,119.85c0,.9-.67,1.23-1.35,1.23-.71,0-1.42-.34-1.42-1.23v-8.07c0-2.39-.15-4.26-.75-5.12-.93-1.35-2.35-1.57-3.74-1.57-1.53,0-2.84.52-3.63,1.64-.64.86-.75,2.58-.75,4.11v9.01c0,.9-.71,1.23-1.38,1.23-.71,0-1.38-.34-1.38-1.23v-16.15c0-.9.67-1.23,1.38-1.23.6,0,1.42.22,1.42.97v.56c0,.11.07.19.19.19.07,0,.3-.19.3-.19,1.38-1.16,2.95-1.53,4.37-1.53,1.79,0,3.66.45,5.01,1.98.15.15.34.3.52.3s.26-.11.41-.22c1.91-1.68,3.81-2.06,5.61-2.06,5.42,0,6.8,3.36,6.8,7.7v9.68c0,.9-.71,1.23-1.38,1.23-.71,0-1.38-.34-1.38-1.23v-8.07c0-2.8-.19-4.26-.78-5.16-.82-1.27-2.17-1.53-3.7-1.53-1.16,0-2.62.26-3.51,1.42-.67.82-.9,2.39-.9,4.37l.04,8.97Z"/>
        <path d="M578.16,102.47c6.28,0,7.44,4,7.44,9.31s-1.16,9.31-7.44,9.31-7.44-4-7.44-9.31,1.16-9.31,7.44-9.31ZM578.16,118.47c4.26,0,4.6-2.77,4.6-6.69s-.34-6.69-4.6-6.69-4.6,2.77-4.6,6.69.34,6.69,4.6,6.69Z"/>
        <path d="M598.94,105.38c-.64,0-.56-.04-1.46-.04-2.84,0-4.07,1.53-4.07,5.65v8.86c0,.9-.67,1.23-1.38,1.23-.75,0-1.38-.34-1.38-1.23v-16.15c0-.9.67-1.23,1.38-1.23.78,0,1.42.34,1.42,1.23v.3c0,.07.04.15.15.15.07,0,.19-.11.3-.22,1.31-1.08,2.77-1.46,4-1.46,1.46,0,2.28.22,2.28,1.53,0,.94-.45,1.38-1.23,1.38Z"/>
        <path d="M604.93,112.86c-.22,0-.26.11-.26.26.11,3.48.82,5.35,4.97,5.35,1.16,0,2.65-.37,3.66-.93,1.08-.64,1.27-.82,1.57-.82.86,0,1.35.82,1.35,1.57,0,.37-.19.71-.6.97-1.64,1.12-3.77,1.83-6.24,1.83-6.28,0-7.59-3.63-7.59-9.31,0-5.31,1.16-9.31,7.44-9.31s7.29,4.67,7.29,8.04c0,.97-.15,2.35-1.79,2.35h-9.79ZM609.23,104.94c-3.29,0-4.56,2.02-4.56,5.19,0,.19,0,.34.26.34h8.56c.15,0,.26-.04.26-.22,0-2.99-1.08-5.31-4.52-5.31Z"/>
        <path d="M635.69,118.47c2.21,0,3.7-.93,3.7-2.62,0-1.27-.97-1.94-2.77-2.5l-2.73-.86c-2.95-.93-4.75-2.32-4.75-5.01,0-3.1,2.69-5.01,6.54-5.01,2.28,0,3.77.67,4.6,1.16.52.3.86.64.86,1.12,0,.64-.64,1.46-1.23,1.46-.34,0-.52-.11-.78-.22-.56-.34-2.02-.9-3.44-.9-2.21,0-3.7.82-3.7,2.28,0,1.31,1.05,1.94,2.77,2.5l2.69.86c3.1.97,4.78,2.39,4.78,5.12,0,3.21-2.69,5.23-6.54,5.23-2.99,0-4.9-1.05-6.17-2.28-.26-.3-.56-.56-.56-1.01,0-.67.64-1.42,1.42-1.42.26,0,.45.04.94.45.93.82,1.98,1.64,4.37,1.64Z"/>
        <path d="M652.93,121.08c-3.55,0-5.12-2.02-5.12-5.38v-10.28c0-.19-.11-.26-.34-.26h-1.94c-.9,0-1.2-.6-1.2-1.27s.3-1.27,1.2-1.27h1.94c.22,0,.34-.07.34-.3v-4.26c0-.9.67-1.23,1.38-1.23.67,0,1.38.34,1.38,1.23v4.22c0,.26.07.34.34.34h2.35c.9,0,1.2.6,1.2,1.27s-.3,1.27-1.2,1.27h-2.35c-.26,0-.34.07-.34.34v10.47c0,1.57.9,2.5,2.65,2.5.78,0,1.23.56,1.23,1.27,0,.64-.37,1.35-1.53,1.35Z"/>
        <path d="M666.53,105.38c-.64,0-.56-.04-1.46-.04-2.84,0-4.07,1.53-4.07,5.65v8.86c0,.9-.67,1.23-1.38,1.23-.75,0-1.38-.34-1.38-1.23v-16.15c0-.9.67-1.23,1.38-1.23.78,0,1.42.34,1.42,1.23v.3c0,.07.04.15.15.15.07,0,.19-.11.3-.22,1.31-1.08,2.77-1.46,4-1.46,1.46,0,2.28.22,2.28,1.53,0,.94-.45,1.38-1.23,1.38Z"/>
        <path d="M672.52,112.86c-.22,0-.26.11-.26.26.11,3.48.82,5.35,4.97,5.35,1.16,0,2.65-.37,3.66-.93,1.08-.64,1.27-.82,1.57-.82.86,0,1.35.82,1.35,1.57,0,.37-.19.71-.6.97-1.64,1.12-3.77,1.83-6.24,1.83-6.28,0-7.59-3.63-7.59-9.31,0-5.31,1.16-9.31,7.44-9.31s7.29,4.67,7.29,8.04c0,.97-.15,2.35-1.79,2.35h-9.79ZM676.82,104.94c-3.29,0-4.56,2.02-4.56,5.19,0,.19,0,.34.26.34h8.56c.15,0,.26-.04.26-.22,0-2.99-1.08-5.31-4.52-5.31Z"/>
        <path d="M699.32,118.91c-.11,0-.22.15-.37.26-1.23,1.01-2.84,1.91-5.53,1.91-4.34,0-5.68-2.69-5.68-5.08,0-4.56,3.78-5.68,7.4-5.68h3.63c.26,0,.34-.11.34-.34v-1.08c0-2.58-1.27-3.81-4.11-3.81-2.28,0-3.21.56-4.37,1.42-.19.15-.37.19-.52.19-.71,0-1.38-.79-1.38-1.46,0-.41.22-.75.6-1.08,1.68-1.35,3.81-1.68,5.76-1.68,5.79,0,6.95,2.99,6.95,7.44v7.59c0,.67.19,1.01.82,1.01h.34c.64,0,.97.52.97,1.23,0,.97-.41,1.35-1.94,1.35-1.42,0-2.28-.64-2.69-1.94-.07-.19-.11-.22-.19-.22ZM699.25,113.12c0-.22-.11-.34-.34-.34h-3.51c-2.54,0-4.82.37-4.82,2.8,0,1.91,1.23,3.07,3.33,3.07,3.7,0,5.35-2.36,5.35-4.6v-.93Z"/>
        <path d="M722.16,119.85c0,.9-.67,1.23-1.35,1.23-.71,0-1.42-.34-1.42-1.23v-8.07c0-2.39-.15-4.26-.75-5.12-.93-1.35-2.35-1.57-3.74-1.57-1.53,0-2.84.52-3.63,1.64-.64.86-.75,2.58-.75,4.11v9.01c0,.9-.71,1.23-1.38,1.23-.71,0-1.38-.34-1.38-1.23v-16.15c0-.9.67-1.23,1.38-1.23.6,0,1.42.22,1.42.97v.56c0,.11.07.19.19.19.07,0,.3-.19.3-.19,1.38-1.16,2.95-1.53,4.37-1.53,1.79,0,3.66.45,5.01,1.98.15.15.34.3.52.3s.26-.11.41-.22c1.91-1.68,3.81-2.06,5.61-2.06,5.42,0,6.8,3.36,6.8,7.7v9.68c0,.9-.71,1.23-1.38,1.23-.71,0-1.38-.34-1.38-1.23v-8.07c0-2.8-.19-4.26-.78-5.16-.82-1.27-2.17-1.53-3.7-1.53-1.16,0-2.62.26-3.51,1.42-.67.82-.9,2.39-.9,4.37l.04,8.97Z"/>
        <path d="M739.36,116.78v-20.78c0-.9.67-1.23,1.38-1.23.67,0,1.38.34,1.38,1.23v20.6c0,1.35.56,1.83,1.87,1.83.67,0,1.16.45,1.16,1.23s-.45,1.42-1.79,1.42c-2.62,0-4-1.38-4-4.3Z"/>
        <path d="M750.39,98.47c-1.12,0-1.87-.78-1.87-1.87s.75-1.83,1.87-1.83c1.05,0,1.83.75,1.83,1.83s-.79,1.87-1.83,1.87ZM751.77,119.85c0,.9-.71,1.23-1.38,1.23-.71,0-1.38-.34-1.38-1.23v-16.15c0-.9.67-1.23,1.38-1.23.67,0,1.38.34,1.38,1.23v16.15Z"/>
        <path d="M760.3,109.98v9.87c0,.9-.71,1.23-1.38,1.23-.71,0-1.38-.34-1.38-1.23v-16.15c0-.9.67-1.23,1.38-1.23s1.42.34,1.42,1.16v.37c0,.11.07.19.19.19.07,0,.23-.15.3-.19,1.38-1.16,2.95-1.53,4.6-1.53,5.01,0,6.5,3.21,6.5,7.74v9.64c0,.9-.67,1.23-1.35,1.23-.71,0-1.42-.34-1.42-1.23v-8.45c0-3.63-.15-6.32-4.45-6.32-3.14,0-4.41,1.72-4.41,4.9Z"/>
        <path d="M779.92,112.86c-.22,0-.26.11-.26.26.11,3.48.82,5.35,4.97,5.35,1.16,0,2.65-.37,3.66-.93,1.08-.64,1.27-.82,1.57-.82.86,0,1.35.82,1.35,1.57,0,.37-.19.71-.6.97-1.64,1.12-3.77,1.83-6.24,1.83-6.28,0-7.59-3.63-7.59-9.31,0-5.31,1.16-9.31,7.44-9.31s7.29,4.67,7.29,8.04c0,.97-.15,2.35-1.79,2.35h-9.79ZM784.22,104.94c-3.29,0-4.56,2.02-4.56,5.19,0,.19,0,.34.26.34h8.56c.15,0,.26-.04.26-.22,0-2.99-1.08-5.31-4.52-5.31Z"/>
        <path d="M795.74,111.78c0-5.31,1.35-9.31,6.92-9.31,1.42,0,3.03.37,4.41,1.57,0,0,.19.19.3.19s.19-.08.19-.26v-7.96c0-.9.71-1.23,1.42-1.23.67,0,1.35.34,1.35,1.23v23.85c0,.9-.67,1.23-1.35,1.23s-1.42-.22-1.42-1.08v-.45c0-.19-.07-.22-.19-.22-.07,0-.26.15-.34.22-1.42,1.2-2.95,1.53-4.37,1.53-5.57,0-6.92-4-6.92-9.31ZM798.58,111.78c0,3.93.34,6.69,4.56,6.69s4.41-2.92,4.41-6.69c0-3.4-.07-6.69-4.41-6.69s-4.56,2.77-4.56,6.69Z"/>
        <path d="M840.89,115.96c.11.37.15.78.41.78.22,0,.26-.41.37-.78l4.07-12.67c.19-.6.67-.82,1.08-.82.75,0,1.61.45,1.61,1.23,0,.11-.04.26-.07.41l-5.35,15.81c-.22.67-.75,1.16-1.72,1.16s-1.46-.49-1.68-1.2l-3.89-12.3c-.11-.34-.11-.93-.37-.93s-.26.6-.37.93l-3.63,11.92c-.41,1.31-1.2,1.57-1.94,1.57s-1.53-.26-1.94-1.57l-5.12-15.4c-.04-.15-.07-.3-.07-.41,0-.78.86-1.23,1.61-1.23.41,0,.9.22,1.08.82l4.07,12.82c.11.37.15.79.41.79s.26-.41.37-.79l3.59-12.07c.37-1.31,1.2-1.57,1.94-1.57s1.57.26,1.94,1.57l3.59,11.92Z"/>
        <path d="M854.77,103.93c0,.19.07.26.22.26.07,0,.23-.15.3-.19,1.38-1.16,2.95-1.53,4.6-1.53,5.01,0,6.5,3.21,6.5,7.74v9.64c0,.9-.67,1.23-1.35,1.23-.71,0-1.42-.34-1.42-1.23v-8.45c0-3.63-.15-6.32-4.45-6.32-3.14,0-4.41,1.68-4.41,4.97v9.79c0,.9-.71,1.23-1.38,1.23-.71,0-1.38-.34-1.38-1.23v-23.85c0-.9.67-1.23,1.38-1.23.67,0,1.38.34,1.38,1.23v7.92Z"/>
        <path d="M874.39,112.86c-.22,0-.26.11-.26.26.11,3.48.82,5.35,4.97,5.35,1.16,0,2.65-.37,3.66-.93,1.08-.64,1.27-.82,1.57-.82.86,0,1.35.82,1.35,1.57,0,.37-.19.71-.6.97-1.64,1.12-3.77,1.83-6.24,1.83-6.28,0-7.59-3.63-7.59-9.31,0-5.31,1.16-9.31,7.44-9.31s7.29,4.67,7.29,8.04c0,.97-.15,2.35-1.79,2.35h-9.79ZM878.69,104.94c-3.29,0-4.56,2.02-4.56,5.19,0,.19,0,.34.26.34h8.56c.15,0,.26-.04.26-.22,0-2.99-1.08-5.31-4.52-5.31Z"/>
        <path d="M893.68,109.98v9.87c0,.9-.71,1.23-1.38,1.23-.71,0-1.38-.34-1.38-1.23v-16.15c0-.9.67-1.23,1.38-1.23s1.42.34,1.42,1.16v.37c0,.11.07.19.19.19.07,0,.23-.15.3-.19,1.38-1.16,2.95-1.53,4.6-1.53,5.01,0,6.5,3.21,6.5,7.74v9.64c0,.9-.67,1.23-1.35,1.23-.71,0-1.42-.34-1.42-1.23v-8.45c0-3.63-.15-6.32-4.45-6.32-3.14,0-4.41,1.72-4.41,4.9Z"/>
        <path d="M920.67,98.47c-1.12,0-1.87-.78-1.87-1.87s.75-1.83,1.87-1.83c1.05,0,1.83.75,1.83,1.83s-.79,1.87-1.83,1.87ZM922.06,119.85c0,.9-.71,1.23-1.38,1.23-.71,0-1.38-.34-1.38-1.23v-16.15c0-.9.67-1.23,1.38-1.23.67,0,1.38.34,1.38,1.23v16.15Z"/>
        <path d="M934.13,121.08c-3.55,0-5.12-2.02-5.12-5.38v-10.28c0-.19-.11-.26-.34-.26h-1.94c-.9,0-1.2-.6-1.2-1.27s.3-1.27,1.2-1.27h1.94c.22,0,.34-.07.34-.3v-4.26c0-.9.67-1.23,1.38-1.23.67,0,1.38.34,1.38,1.23v4.22c0,.26.07.34.34.34h2.35c.9,0,1.2.6,1.2,1.27s-.3,1.27-1.2,1.27h-2.35c-.26,0-.34.07-.34.34v10.47c0,1.57.9,2.5,2.65,2.5.78,0,1.23.56,1.23,1.27,0,.64-.37,1.35-1.53,1.35Z"/>
        <path d="M422.87,150.25c-.64,0-.56-.04-1.46-.04-2.84,0-4.07,1.53-4.07,5.65v8.86c0,.9-.67,1.23-1.38,1.23-.75,0-1.38-.34-1.38-1.23v-16.15c0-.9.67-1.23,1.38-1.23.78,0,1.42.34,1.42,1.23v.3c0,.07.04.15.15.15.07,0,.19-.11.3-.22,1.31-1.08,2.77-1.46,4-1.46,1.46,0,2.28.22,2.28,1.53,0,.94-.45,1.38-1.23,1.38Z"/>
        <path d="M428.85,157.72c-.22,0-.26.11-.26.26.11,3.48.82,5.35,4.97,5.35,1.16,0,2.65-.37,3.66-.93,1.08-.64,1.27-.82,1.57-.82.86,0,1.35.82,1.35,1.57,0,.37-.19.71-.6.97-1.64,1.12-3.77,1.83-6.24,1.83-6.28,0-7.59-3.63-7.59-9.31,0-5.31,1.16-9.31,7.44-9.31s7.29,4.67,7.29,8.04c0,.97-.15,2.35-1.79,2.35h-9.79ZM433.15,149.8c-3.29,0-4.56,2.02-4.56,5.19,0,.19,0,.34.26.34h8.56c.15,0,.26-.04.26-.22,0-2.99-1.08-5.31-4.52-5.31Z"/>
        <path d="M455.65,163.78c-.11,0-.22.15-.37.26-1.23,1.01-2.84,1.91-5.53,1.91-4.34,0-5.68-2.69-5.68-5.08,0-4.56,3.78-5.68,7.4-5.68h3.63c.26,0,.34-.11.34-.34v-1.08c0-2.58-1.27-3.81-4.11-3.81-2.28,0-3.21.56-4.37,1.42-.19.15-.37.19-.52.19-.71,0-1.38-.79-1.38-1.46,0-.41.22-.75.6-1.08,1.68-1.35,3.81-1.68,5.76-1.68,5.79,0,6.95,2.99,6.95,7.44v7.59c0,.67.19,1.01.82,1.01h.34c.64,0,.97.52.97,1.23,0,.97-.41,1.35-1.94,1.35-1.42,0-2.28-.64-2.69-1.94-.07-.19-.11-.22-.19-.22ZM455.58,157.98c0-.22-.11-.34-.34-.34h-3.51c-2.54,0-4.82.37-4.82,2.8,0,1.91,1.23,3.07,3.33,3.07,3.7,0,5.35-2.36,5.35-4.6v-.93Z"/>
        <path d="M464.1,161.65v-20.78c0-.9.67-1.23,1.38-1.23.67,0,1.38.34,1.38,1.23v20.6c0,1.35.56,1.83,1.87,1.83.67,0,1.16.45,1.16,1.23s-.45,1.42-1.79,1.42c-2.62,0-4-1.38-4-4.3Z"/>
        <path d="M473.37,161.65v-20.78c0-.9.67-1.23,1.38-1.23.67,0,1.38.34,1.38,1.23v20.6c0,1.35.56,1.83,1.87,1.83.67,0,1.16.45,1.16,1.23s-.45,1.42-1.79,1.42c-2.62,0-4-1.38-4-4.3Z"/>
        <path d="M487.95,168.75c-1.08,2.77-2.95,4.9-5.53,4.9-.97,0-1.35-.56-1.35-1.38,0-.6.37-1.01,1.05-1.16,1.76-.37,2.5-.93,3.44-3.33l.86-2.13c.07-.22.15-.41.15-.64,0-.15-.04-.3-.11-.49l-5.91-15.44c-.07-.19-.11-.37-.11-.52,0-.75.86-1.23,1.61-1.23.41,0,.86.19,1.08.78l4.56,12.48c.11.34.11.71.37.71.22,0,.26-.45.37-.71l4.67-12.48c.22-.6.67-.78,1.08-.78.75,0,1.61.49,1.61,1.23,0,.15-.04.34-.11.52l-7.74,19.66Z"/>
        <path d="M507.06,156.64c0-5.31,1.35-9.31,6.92-9.31,1.42,0,3.03.37,4.41,1.57,0,0,.19.19.3.19s.19-.08.19-.26v-7.96c0-.9.71-1.23,1.42-1.23.67,0,1.35.34,1.35,1.23v23.85c0,.9-.67,1.23-1.35,1.23s-1.42-.22-1.42-1.08v-.45c0-.19-.07-.22-.19-.22-.07,0-.26.15-.34.22-1.42,1.2-2.95,1.53-4.37,1.53-5.57,0-6.92-4-6.92-9.31ZM509.9,156.64c0,3.93.34,6.69,4.56,6.69s4.41-2.92,4.41-6.69c0-3.4-.07-6.69-4.41-6.69s-4.56,2.77-4.56,6.69Z"/>
        <path d="M534.12,147.33c6.28,0,7.44,4,7.44,9.31s-1.16,9.31-7.44,9.31-7.44-4-7.44-9.31,1.16-9.31,7.44-9.31ZM534.12,163.33c4.26,0,4.6-2.77,4.6-6.69s-.34-6.69-4.6-6.69-4.6,2.77-4.6,6.69.34,6.69,4.6,6.69Z"/>
        <path d="M549.04,157.72c-.22,0-.26.11-.26.26.11,3.48.82,5.35,4.97,5.35,1.16,0,2.65-.37,3.66-.93,1.08-.64,1.27-.82,1.57-.82.86,0,1.35.82,1.35,1.57,0,.37-.19.71-.6.97-1.64,1.12-3.77,1.83-6.24,1.83-6.28,0-7.59-3.63-7.59-9.31,0-5.31,1.16-9.31,7.44-9.31s7.29,4.67,7.29,8.04c0,.97-.15,2.35-1.79,2.35h-9.79ZM553.34,149.8c-3.29,0-4.56,2.02-4.56,5.19,0,.19,0,.34.26.34h8.56c.15,0,.26-.04.26-.22,0-2.99-1.08-5.31-4.52-5.31Z"/>
        <path d="M571.39,163.33c2.21,0,3.7-.93,3.7-2.62,0-1.27-.97-1.94-2.77-2.5l-2.73-.86c-2.95-.93-4.75-2.32-4.75-5.01,0-3.1,2.69-5.01,6.54-5.01,2.28,0,3.77.67,4.6,1.16.52.3.86.64.86,1.12,0,.64-.64,1.46-1.23,1.46-.34,0-.52-.11-.78-.22-.56-.34-2.02-.9-3.44-.9-2.21,0-3.7.82-3.7,2.28,0,1.31,1.05,1.94,2.77,2.5l2.69.86c3.1.97,4.78,2.39,4.78,5.12,0,3.21-2.69,5.23-6.54,5.23-2.99,0-4.9-1.05-6.17-2.28-.26-.3-.56-.56-.56-1.01,0-.67.64-1.42,1.42-1.42.26,0,.45.04.94.45.93.82,1.98,1.64,4.37,1.64Z"/>
        <path d="M585.56,154.84v9.87c0,.9-.71,1.23-1.38,1.23-.71,0-1.38-.34-1.38-1.23v-16.15c0-.9.67-1.23,1.38-1.23s1.42.34,1.42,1.16v.37c0,.11.07.19.19.19.07,0,.23-.15.3-.19,1.38-1.16,2.95-1.53,4.6-1.53,5.01,0,6.5,3.21,6.5,7.74v9.64c0,.9-.67,1.23-1.35,1.23-.71,0-1.42-.34-1.42-1.23v-8.45c0-3.63-.15-6.32-4.45-6.32-3.14,0-4.41,1.72-4.41,4.9Z"/>
        <path d="M603.17,148.38c-.26.45-.67.56-1.01.56-.6,0-1.53-.49-1.53-1.2,0-.19.04-.45.19-.71l.82-1.38c.19-.3.22-.52.22-1.12v-3.66c0-.9.71-1.23,1.35-1.23.75,0,1.38.34,1.38,1.23v3.96c0,.86-.15,1.42-.49,1.98l-.93,1.57Z"/>
        <path d="M615.66,165.95c-3.55,0-5.12-2.02-5.12-5.38v-10.28c0-.19-.11-.26-.34-.26h-1.94c-.9,0-1.2-.6-1.2-1.27s.3-1.27,1.2-1.27h1.94c.22,0,.34-.07.34-.3v-4.26c0-.9.67-1.23,1.38-1.23.67,0,1.38.34,1.38,1.23v4.22c0,.26.07.34.34.34h2.35c.9,0,1.2.6,1.2,1.27s-.3,1.27-1.2,1.27h-2.35c-.26,0-.34.07-.34.34v10.47c0,1.57.9,2.5,2.65,2.5.78,0,1.23.56,1.23,1.27,0,.64-.37,1.35-1.53,1.35Z"/>
        <path d="M629.79,150.28c0-.19-.15-.26-.34-.26h-1.27c-.86,0-1.12-.64-1.12-1.27,0-.6.26-1.27,1.12-1.27h1.27c.22,0,.34-.07.34-.26v-3.18c0-2.92,1.57-4.26,4.34-4.26h1.23c.86,0,1.16.64,1.16,1.27s-.3,1.27-1.16,1.27h-1.05c-1.16,0-1.76.45-1.76,1.94v2.88c0,.26.11.34.34.34h2.47c.82,0,1.12.67,1.12,1.27,0,.64-.3,1.27-1.12,1.27h-2.47c-.22,0-.34.07-.34.34v14.35c0,.9-.71,1.23-1.38,1.23-.71,0-1.38-.34-1.38-1.23v-14.43Z"/>
        <path d="M642.2,157.72c-.22,0-.26.11-.26.26.11,3.48.82,5.35,4.97,5.35,1.16,0,2.65-.37,3.66-.93,1.08-.64,1.27-.82,1.57-.82.86,0,1.35.82,1.35,1.57,0,.37-.19.71-.6.97-1.64,1.12-3.77,1.83-6.24,1.83-6.28,0-7.59-3.63-7.59-9.31,0-5.31,1.16-9.31,7.44-9.31s7.29,4.67,7.29,8.04c0,.97-.15,2.35-1.79,2.35h-9.79ZM646.5,149.8c-3.29,0-4.56,2.02-4.56,5.19,0,.19,0,.34.26.34h8.56c.15,0,.26-.04.26-.22,0-2.99-1.08-5.31-4.52-5.31Z"/>
        <path d="M661.15,157.72c-.22,0-.26.11-.26.26.11,3.48.82,5.35,4.97,5.35,1.16,0,2.65-.37,3.66-.93,1.08-.64,1.27-.82,1.57-.82.86,0,1.35.82,1.35,1.57,0,.37-.19.71-.6.97-1.64,1.12-3.77,1.83-6.24,1.83-6.28,0-7.59-3.63-7.59-9.31,0-5.31,1.16-9.31,7.44-9.31s7.29,4.67,7.29,8.04c0,.97-.15,2.35-1.79,2.35h-9.79ZM665.45,149.8c-3.29,0-4.56,2.02-4.56,5.19,0,.19,0,.34.26.34h8.56c.15,0,.26-.04.26-.22,0-2.99-1.08-5.31-4.52-5.31Z"/>
        <path d="M677.68,161.65v-20.78c0-.9.67-1.23,1.38-1.23.67,0,1.38.34,1.38,1.23v20.6c0,1.35.56,1.83,1.87,1.83.67,0,1.16.45,1.16,1.23s-.45,1.42-1.79,1.42c-2.62,0-4-1.38-4-4.3Z"/>
        <path d="M702.05,165.95c-3.55,0-5.12-2.02-5.12-5.38v-10.28c0-.19-.11-.26-.34-.26h-1.94c-.9,0-1.2-.6-1.2-1.27s.3-1.27,1.2-1.27h1.94c.22,0,.34-.07.34-.3v-4.26c0-.9.67-1.23,1.38-1.23.67,0,1.38.34,1.38,1.23v4.22c0,.26.07.34.34.34h2.35c.9,0,1.2.6,1.2,1.27s-.3,1.27-1.2,1.27h-2.35c-.26,0-.34.07-.34.34v10.47c0,1.57.9,2.5,2.65,2.5.78,0,1.23.56,1.23,1.27,0,.64-.37,1.35-1.53,1.35Z"/>
        <path d="M710.12,148.79c0,.19.07.26.22.26.07,0,.23-.15.3-.19,1.38-1.16,2.95-1.53,4.6-1.53,5.01,0,6.5,3.21,6.5,7.74v9.64c0,.9-.67,1.23-1.35,1.23-.71,0-1.42-.34-1.42-1.23v-8.45c0-3.63-.15-6.32-4.45-6.32-3.14,0-4.41,1.68-4.41,4.97v9.79c0,.9-.71,1.23-1.38,1.23-.71,0-1.38-.34-1.38-1.23v-23.85c0-.9.67-1.23,1.38-1.23.67,0,1.38.34,1.38,1.23v7.92Z"/>
        <path d="M737.6,163.78c-.11,0-.22.15-.37.26-1.23,1.01-2.84,1.91-5.53,1.91-4.34,0-5.68-2.69-5.68-5.08,0-4.56,3.78-5.68,7.4-5.68h3.63c.26,0,.34-.11.34-.34v-1.08c0-2.58-1.27-3.81-4.11-3.81-2.28,0-3.21.56-4.37,1.42-.19.15-.37.19-.52.19-.71,0-1.38-.79-1.38-1.46,0-.41.22-.75.6-1.08,1.68-1.35,3.81-1.68,5.76-1.68,5.79,0,6.95,2.99,6.95,7.44v7.59c0,.67.19,1.01.82,1.01h.34c.64,0,.97.52.97,1.23,0,.97-.41,1.35-1.94,1.35-1.42,0-2.28-.64-2.69-1.94-.07-.19-.11-.22-.19-.22ZM737.53,157.98c0-.22-.11-.34-.34-.34h-3.51c-2.54,0-4.82.37-4.82,2.8,0,1.91,1.23,3.07,3.33,3.07,3.7,0,5.35-2.36,5.35-4.6v-.93Z"/>
        <path d="M751.62,165.95c-3.55,0-5.12-2.02-5.12-5.38v-10.28c0-.19-.11-.26-.34-.26h-1.94c-.9,0-1.2-.6-1.2-1.27s.3-1.27,1.2-1.27h1.94c.22,0,.34-.07.34-.3v-4.26c0-.9.67-1.23,1.38-1.23.67,0,1.38.34,1.38,1.23v4.22c0,.26.07.34.34.34h2.35c.9,0,1.2.6,1.2,1.27s-.3,1.27-1.2,1.27h-2.35c-.26,0-.34.07-.34.34v10.47c0,1.57.9,2.5,2.65,2.5.78,0,1.23.56,1.23,1.27,0,.64-.37,1.35-1.53,1.35Z"/>
        <path d="M781.75,160.82c.11.37.15.78.41.78.22,0,.26-.41.37-.78l4.07-12.67c.19-.6.67-.82,1.08-.82.75,0,1.61.45,1.61,1.23,0,.11-.04.26-.07.41l-5.35,15.81c-.22.67-.75,1.16-1.72,1.16s-1.46-.49-1.68-1.2l-3.89-12.3c-.11-.34-.11-.93-.37-.93s-.26.6-.37.93l-3.63,11.92c-.41,1.31-1.2,1.57-1.94,1.57s-1.53-.26-1.94-1.57l-5.12-15.4c-.04-.15-.07-.3-.07-.41,0-.78.86-1.23,1.61-1.23.41,0,.9.22,1.08.82l4.07,12.82c.11.37.15.79.41.79s.26-.41.37-.79l3.59-12.07c.37-1.31,1.2-1.57,1.94-1.57s1.57.26,1.94,1.57l3.59,11.92Z"/>
        <path d="M802.95,163.78c-.11,0-.22.15-.37.26-1.23,1.01-2.84,1.91-5.53,1.91-4.34,0-5.68-2.69-5.68-5.08,0-4.56,3.78-5.68,7.4-5.68h3.63c.26,0,.34-.11.34-.34v-1.08c0-2.58-1.27-3.81-4.11-3.81-2.28,0-3.21.56-4.37,1.42-.19.15-.37.19-.52.19-.71,0-1.38-.79-1.38-1.46,0-.41.22-.75.6-1.08,1.68-1.35,3.81-1.68,5.76-1.68,5.79,0,6.95,2.99,6.95,7.44v7.59c0,.67.19,1.01.82,1.01h.34c.64,0,.97.52.97,1.23,0,.97-.41,1.35-1.94,1.35-1.42,0-2.28-.64-2.69-1.94-.07-.19-.11-.22-.19-.22ZM802.87,157.98c0-.22-.11-.34-.34-.34h-3.51c-2.54,0-4.82.37-4.82,2.8,0,1.91,1.23,3.07,3.33,3.07,3.7,0,5.35-2.36,5.35-4.6v-.93Z"/>
        <path d="M816.33,168.75c-1.08,2.77-2.95,4.9-5.53,4.9-.97,0-1.35-.56-1.35-1.38,0-.6.37-1.01,1.05-1.16,1.76-.37,2.5-.93,3.44-3.33l.86-2.13c.07-.22.15-.41.15-.64,0-.15-.04-.3-.11-.49l-5.91-15.44c-.07-.19-.11-.37-.11-.52,0-.75.86-1.23,1.61-1.23.41,0,.86.19,1.08.78l4.56,12.48c.11.34.11.71.37.71.22,0,.26-.45.37-.71l4.67-12.48c.22-.6.67-.78,1.08-.78.75,0,1.61.49,1.61,1.23,0,.15-.04.34-.11.52l-7.74,19.66Z"/>
        <path d="M833.57,139.63c4.52,0,7.51,2.99,7.51,7.14,0,3.06-2.09,5.35-4.26,6.62-1.46.86-1.49,2.06-1.49,3.51,0,.9-.71,1.2-1.42,1.2-.75,0-1.46-.3-1.46-1.2,0-2.13.26-4.34,2.73-5.76,1.68-.97,2.95-2.21,2.95-4.41s-1.5-4.22-4.56-4.22c-1.68,0-2.95.93-4.49,2.24-.22.19-.64.37-.97.37-.64,0-1.46-.71-1.46-1.49,0-.56.49-1.08.97-1.57,1.53-1.5,3.59-2.43,5.94-2.43ZM833.87,165.95c-1.12,0-1.91-.82-1.91-1.91s.78-1.91,1.91-1.91,1.91.82,1.91,1.91-.82,1.91-1.91,1.91Z"/>
      </g>
    </g>
  </g>
  <g id="_10" data-name="10">
    <g>
      <path d="M108.54,268.72c-2.24,0-4.83-.65-6.53-3.2-1.22-1.8-1.56-4.59-1.56-8.77s.34-6.97,1.56-8.8c1.63-2.45,4.18-3.16,6.53-3.16s4.32.48,5.81,1.73c.48.41.92.78.92,1.26,0,.58-.68,1.33-1.29,1.33-.27,0-.58-.2-.82-.37-1.53-1.12-2.55-1.43-4.45-1.43-1.67,0-3.5.31-4.52,2.28-.85,1.63-.95,4.15-.95,7.17s.07,5.54.95,7.21c.99,1.87,2.69,2.24,4.45,2.24,1.53,0,3.37-.31,5.07-1.77.27-.27.48-.44.78-.44.65,0,1.39.75,1.39,1.33,0,.31-.17.58-.44.88-.75.82-2.72,2.52-6.9,2.52Z"/>
      <path d="M121.92,253.11c0,.17.07.24.2.24.07,0,.2-.14.27-.17,1.26-1.05,2.69-1.39,4.18-1.39,4.56,0,5.92,2.92,5.92,7.04v8.77c0,.82-.61,1.12-1.22,1.12-.65,0-1.29-.31-1.29-1.12v-7.68c0-3.3-.14-5.75-4.04-5.75-2.86,0-4.01,1.53-4.01,4.52v8.91c0,.82-.65,1.12-1.26,1.12-.65,0-1.26-.31-1.26-1.12v-21.69c0-.82.61-1.12,1.26-1.12.61,0,1.26.31,1.26,1.12v7.21Z"/>
      <path d="M146.67,266.74c-.1,0-.2.14-.34.24-1.12.92-2.58,1.73-5.03,1.73-3.94,0-5.17-2.45-5.17-4.62,0-4.15,3.43-5.17,6.73-5.17h3.3c.24,0,.31-.1.31-.31v-.99c0-2.35-1.16-3.47-3.74-3.47-2.07,0-2.92.51-3.98,1.29-.17.14-.34.17-.48.17-.65,0-1.26-.71-1.26-1.33,0-.37.2-.68.54-.99,1.53-1.22,3.47-1.53,5.24-1.53,5.27,0,6.32,2.72,6.32,6.76v6.9c0,.61.17.92.75.92h.31c.58,0,.88.48.88,1.12,0,.88-.37,1.22-1.77,1.22-1.29,0-2.07-.58-2.45-1.77-.07-.17-.1-.2-.17-.2ZM146.6,261.48c0-.2-.1-.31-.31-.31h-3.2c-2.31,0-4.39.34-4.39,2.55,0,1.73,1.12,2.79,3.03,2.79,3.37,0,4.86-2.14,4.86-4.18v-.85Z"/>
      <path d="M156.93,258.62v8.97c0,.82-.65,1.12-1.26,1.12-.65,0-1.26-.31-1.26-1.12v-14.69c0-.82.61-1.12,1.26-1.12s1.29.31,1.29,1.05v.34c0,.1.07.17.17.17.07,0,.2-.14.27-.17,1.26-1.05,2.69-1.39,4.18-1.39,4.56,0,5.92,2.92,5.92,7.04v8.77c0,.82-.61,1.12-1.22,1.12-.65,0-1.29-.31-1.29-1.12v-7.68c0-3.3-.14-5.75-4.04-5.75-2.86,0-4.01,1.56-4.01,4.45Z"/>
      <path d="M171.63,260.25c0-4.83,1.22-8.46,6.29-8.46,1.29,0,2.75.34,4.01,1.43.03.03.17.17.27.17s.17-.07.17-.2v-.27c0-.82.51-1.12,1.29-1.12.61,0,1.22.31,1.22,1.12v16.79c0,4.42-3.64,6.36-7.31,6.36-2.18,0-3.57-.51-4.39-.95-.41-.24-.58-.58-.58-.92,0-.61.44-1.39,1.16-1.39.17,0,.37.07.61.17.78.37,1.73.71,3.2.71,2.62,0,4.79-1.39,4.79-3.84v-2.48c0-.14-.07-.24-.17-.24s-.24.14-.27.17c-1.22,1.12-2.72,1.43-4.01,1.43-5.07,0-6.29-3.64-6.29-8.46ZM174.21,260.25c0,3.57.31,6.08,4.15,6.08s4.01-2.58,4.01-6.08c0-3.03-.07-6.08-4.01-6.08s-4.15,2.52-4.15,6.08Z"/>
      <path d="M192.04,261.24c-.2,0-.24.1-.24.24.1,3.16.75,4.86,4.52,4.86,1.05,0,2.41-.34,3.33-.85.99-.58,1.16-.75,1.43-.75.78,0,1.22.75,1.22,1.43,0,.34-.17.65-.54.88-1.5,1.02-3.43,1.67-5.68,1.67-5.71,0-6.9-3.3-6.9-8.46,0-4.83,1.05-8.46,6.77-8.46s6.63,4.25,6.63,7.31c0,.88-.14,2.14-1.63,2.14h-8.91ZM195.95,254.03c-2.99,0-4.15,1.84-4.15,4.73,0,.17,0,.31.24.31h7.79c.14,0,.24-.03.24-.2,0-2.72-.99-4.83-4.11-4.83Z"/>
      <path d="M215.98,248.15c-1.02,0-1.7-.71-1.7-1.7s.68-1.67,1.7-1.67c.95,0,1.67.68,1.67,1.67s-.71,1.7-1.67,1.7ZM217.23,267.59c0,.82-.65,1.12-1.26,1.12-.65,0-1.26-.31-1.26-1.12v-14.69c0-.82.61-1.12,1.26-1.12.61,0,1.26.31,1.26,1.12v14.69Z"/>
      <path d="M227.29,266.34c2.01,0,3.37-.85,3.37-2.38,0-1.16-.88-1.77-2.52-2.28l-2.48-.78c-2.69-.85-4.32-2.11-4.32-4.55,0-2.82,2.45-4.56,5.95-4.56,2.07,0,3.43.61,4.18,1.05.48.27.78.58.78,1.02,0,.58-.58,1.33-1.12,1.33-.31,0-.48-.1-.71-.2-.51-.31-1.84-.82-3.13-.82-2.01,0-3.37.75-3.37,2.07,0,1.19.95,1.77,2.52,2.28l2.45.78c2.82.88,4.35,2.18,4.35,4.66,0,2.92-2.45,4.76-5.95,4.76-2.72,0-4.45-.95-5.61-2.07-.24-.27-.51-.51-.51-.92,0-.61.58-1.29,1.29-1.29.24,0,.41.03.85.41.85.75,1.8,1.5,3.98,1.5Z"/>
      <path d="M244.66,260.25c0-4.83,1.22-8.46,6.29-8.46,1.29,0,2.75.34,4.01,1.43,0,0,.17.17.27.17s.17-.07.17-.24v-7.24c0-.82.65-1.12,1.29-1.12.61,0,1.22.31,1.22,1.12v21.69c0,.82-.61,1.12-1.22,1.12s-1.29-.2-1.29-.99v-.41c0-.17-.07-.2-.17-.2-.07,0-.24.14-.31.2-1.29,1.09-2.69,1.39-3.98,1.39-5.07,0-6.29-3.64-6.29-8.46ZM247.25,260.25c0,3.57.31,6.08,4.15,6.08s4.01-2.65,4.01-6.08c0-3.09-.07-6.08-4.01-6.08s-4.15,2.52-4.15,6.08Z"/>
      <path d="M264.06,248.15c-1.02,0-1.7-.71-1.7-1.7s.68-1.67,1.7-1.67c.95,0,1.67.68,1.67,1.67s-.71,1.7-1.67,1.7ZM265.32,267.59c0,.82-.65,1.12-1.26,1.12-.65,0-1.26-.31-1.26-1.12v-14.69c0-.82.61-1.12,1.26-1.12.61,0,1.26.31,1.26,1.12v14.69Z"/>
      <path d="M271.04,254.47c0-.17-.14-.24-.31-.24h-1.16c-.78,0-1.02-.58-1.02-1.16,0-.54.24-1.16,1.02-1.16h1.16c.2,0,.31-.07.31-.24v-2.89c0-2.65,1.43-3.88,3.94-3.88h1.12c.78,0,1.05.58,1.05,1.16s-.27,1.16-1.05,1.16h-.95c-1.05,0-1.6.41-1.6,1.77v2.62c0,.24.1.31.31.31h2.24c.75,0,1.02.61,1.02,1.16,0,.58-.27,1.16-1.02,1.16h-2.24c-.2,0-.31.07-.31.31v13.05c0,.82-.65,1.12-1.26,1.12-.65,0-1.26-.31-1.26-1.12v-13.12Z"/>
      <path d="M281.87,254.47c0-.17-.14-.24-.31-.24h-1.16c-.78,0-1.02-.58-1.02-1.16,0-.54.24-1.16,1.02-1.16h1.16c.2,0,.31-.07.31-.24v-2.89c0-2.65,1.43-3.88,3.94-3.88h1.12c.78,0,1.05.58,1.05,1.16s-.27,1.16-1.05,1.16h-.95c-1.05,0-1.6.41-1.6,1.77v2.62c0,.24.1.31.31.31h2.24c.75,0,1.02.61,1.02,1.16,0,.58-.27,1.16-1.02,1.16h-2.24c-.2,0-.31.07-.31.31v13.05c0,.82-.65,1.12-1.26,1.12-.65,0-1.26-.31-1.26-1.12v-13.12ZM292.61,248.15c-1.02,0-1.7-.71-1.7-1.7s.68-1.67,1.7-1.67c.95,0,1.67.68,1.67,1.67s-.71,1.7-1.67,1.7ZM293.87,267.59c0,.82-.65,1.12-1.26,1.12-.65,0-1.26-.31-1.26-1.12v-14.69c0-.82.61-1.12,1.26-1.12.61,0,1.26.31,1.26,1.12v14.69Z"/>
      <path d="M309.93,254c0,.65-.71,1.39-1.33,1.39-.31,0-.58-.2-.85-.41-1.05-.75-2.07-.82-2.96-.82-3.88,0-4.18,2.52-4.18,6.08s.31,6.08,4.22,6.08c.82,0,2.18-.24,3.09-.68.48-.24.78-.51,1.09-.51.65,0,1.26.68,1.26,1.36,0,.17-.03.61-.58.92-1.56.92-2.89,1.29-4.9,1.29-5.71,0-6.77-3.64-6.77-8.46s1.05-8.46,6.63-8.46c1.67,0,3.57.24,5,1.6.24.24.27.44.27.61Z"/>
      <path d="M324.09,261.88v-8.98c0-.82.65-1.12,1.29-1.12.61,0,1.22.31,1.22,1.12v14.69c0,.82-.61,1.12-1.22,1.12-.58,0-1.29-.24-1.29-1.12v-.2c0-.14-.07-.24-.17-.24s-.24.14-.27.17c-1.26,1.05-2.72,1.39-4.18,1.39-4.62,0-5.92-2.92-5.92-7.07v-8.74c0-.82.65-1.12,1.26-1.12.65,0,1.26.31,1.26,1.12v7.82c0,3.3.17,5.61,4.01,5.61,2.89,0,4.01-1.53,4.01-4.45Z"/>
      <path d="M331.46,264.81v-18.9c0-.82.61-1.12,1.26-1.12.61,0,1.26.31,1.26,1.12v18.73c0,1.22.51,1.67,1.7,1.67.61,0,1.05.41,1.05,1.12s-.41,1.29-1.63,1.29c-2.38,0-3.64-1.26-3.64-3.91Z"/>
      <path d="M345.54,268.72c-3.23,0-4.66-1.84-4.66-4.9v-9.35c0-.17-.1-.24-.31-.24h-1.77c-.82,0-1.09-.54-1.09-1.16s.27-1.16,1.09-1.16h1.77c.2,0,.31-.07.31-.27v-3.88c0-.82.61-1.12,1.26-1.12.61,0,1.26.31,1.26,1.12v3.84c0,.24.07.31.31.31h2.14c.82,0,1.09.54,1.09,1.16s-.27,1.16-1.09,1.16h-2.14c-.24,0-.31.07-.31.31v9.52c0,1.43.82,2.28,2.41,2.28.71,0,1.12.51,1.12,1.16,0,.58-.34,1.22-1.39,1.22Z"/>
      <path d="M351.9,268.72c-1.02,0-1.73-.75-1.73-1.73s.71-1.73,1.73-1.73,1.73.75,1.73,1.73-.75,1.73-1.73,1.73ZM350.64,245.9c0-.82.61-1.12,1.26-1.12.61,0,1.26.31,1.26,1.12v14.55c0,.82-.65,1.12-1.26,1.12-.65,0-1.26-.31-1.26-1.12v-14.55Z"/>
      <path d="M381.17,246.35l4.76,17.47c.1.31.14.88.34.88.17,0,.2-.51.31-.88l4.79-18.19c.17-.65.58-.85,1.02-.85.75,0,1.6.37,1.6,1.16,0,.1-.03.24-.07.37l-5.68,20.84c-.34,1.29-1.19,1.56-1.94,1.56s-1.56-.27-1.94-1.56l-4.86-17.88c-.07-.24-.1-.54-.27-.54s-.2.31-.27.54l-4.86,17.88c-.37,1.29-1.19,1.56-1.94,1.56s-1.6-.27-1.94-1.56l-5.68-20.84c-.03-.14-.07-.27-.07-.37,0-.78.85-1.16,1.6-1.16.44,0,.85.2,1.02.85l4.79,18.19c.1.37.14.88.31.88.2,0,.24-.58.34-.88l4.76-17.47c.34-1.29,1.19-1.56,1.94-1.56s1.6.27,1.94,1.56Z"/>
      <path d="M398.39,261.24c-.2,0-.24.1-.24.24.1,3.16.75,4.86,4.52,4.86,1.05,0,2.41-.34,3.33-.85.99-.58,1.16-.75,1.43-.75.78,0,1.22.75,1.22,1.43,0,.34-.17.65-.54.88-1.5,1.02-3.43,1.67-5.68,1.67-5.71,0-6.9-3.3-6.9-8.46,0-4.83,1.05-8.46,6.77-8.46s6.63,4.25,6.63,7.31c0,.88-.14,2.14-1.63,2.14h-8.91ZM402.3,254.03c-2.99,0-4.15,1.84-4.15,4.73,0,.17,0,.31.24.31h7.79c.14,0,.24-.03.24-.2,0-2.72-.99-4.83-4.11-4.83Z"/>
      <path d="M434.19,266.91c.14.2.17.41.17.58,0,.65-.75,1.22-1.39,1.22-.34,0-.65-.14-.88-.51l-4.59-7.51c-.07-.1-.14-.17-.24-.17-.07,0-.2.1-.24.14l-3.09,3.2c-.17.17-.34.44-.34.75v2.99c0,.82-.61,1.12-1.26,1.12s-1.26-.31-1.26-1.12v-21.69c0-.82.61-1.12,1.26-1.12s1.26.31,1.26,1.12v14.31s0,.2.17.2c.1,0,.14-.03.17-.07l7.96-8.23c.24-.24.48-.34.75-.34.61,0,1.36.65,1.36,1.36,0,.24-.1.51-.34.75l-4.42,4.52s-.07.07-.07.17c0,.14.03.24.07.27l4.96,8.06Z"/>
      <path d="M440.4,258.62v8.97c0,.82-.65,1.12-1.26,1.12-.65,0-1.26-.31-1.26-1.12v-14.69c0-.82.61-1.12,1.26-1.12s1.29.31,1.29,1.05v.34c0,.1.07.17.17.17.07,0,.2-.14.27-.17,1.26-1.05,2.69-1.39,4.18-1.39,4.56,0,5.92,2.92,5.92,7.04v8.77c0,.82-.61,1.12-1.22,1.12-.65,0-1.29-.31-1.29-1.12v-7.68c0-3.3-.14-5.75-4.04-5.75-2.86,0-4.01,1.56-4.01,4.45Z"/>
      <path d="M461.87,251.79c5.71,0,6.77,3.64,6.77,8.46s-1.05,8.46-6.77,8.46-6.77-3.64-6.77-8.46,1.05-8.46,6.77-8.46ZM461.87,266.34c3.88,0,4.18-2.52,4.18-6.08s-.31-6.08-4.18-6.08-4.18,2.52-4.18,6.08.31,6.08,4.18,6.08Z"/>
      <path d="M487.96,264.06c.1.34.14.71.37.71.2,0,.24-.37.34-.71l3.71-11.53c.17-.54.61-.75.99-.75.68,0,1.46.41,1.46,1.12,0,.1-.03.24-.07.37l-4.86,14.38c-.2.61-.68,1.05-1.56,1.05s-1.33-.44-1.53-1.09l-3.54-11.18c-.1-.31-.1-.85-.34-.85s-.24.54-.34.85l-3.3,10.84c-.37,1.19-1.09,1.43-1.77,1.43s-1.39-.24-1.77-1.43l-4.66-14.01c-.03-.14-.07-.27-.07-.37,0-.71.78-1.12,1.46-1.12.37,0,.82.2.99.75l3.71,11.66c.1.34.14.71.37.71s.24-.37.34-.71l3.26-10.98c.34-1.19,1.09-1.43,1.77-1.43s1.43.24,1.77,1.43l3.26,10.84Z"/>
      <path d="M510.54,271.27c-.99,2.52-2.69,4.45-5.03,4.45-.88,0-1.22-.51-1.22-1.26,0-.54.34-.92.95-1.05,1.6-.34,2.28-.85,3.13-3.03l.78-1.94c.07-.2.14-.37.14-.58,0-.14-.03-.27-.1-.44l-5.37-14.04c-.07-.17-.1-.34-.1-.48,0-.68.78-1.12,1.46-1.12.37,0,.78.17.99.71l4.15,11.35c.1.31.1.65.34.65.2,0,.24-.41.34-.65l4.25-11.35c.2-.54.61-.71.99-.71.68,0,1.46.44,1.46,1.12,0,.14-.03.31-.1.48l-7.04,17.88Z"/>
      <path d="M526.79,251.79c5.71,0,6.77,3.64,6.77,8.46s-1.05,8.46-6.77,8.46-6.77-3.64-6.77-8.46,1.05-8.46,6.77-8.46ZM526.79,266.34c3.88,0,4.18-2.52,4.18-6.08s-.31-6.08-4.18-6.08-4.18,2.52-4.18,6.08.31,6.08,4.18,6.08Z"/>
      <path d="M548.17,261.88v-8.98c0-.82.65-1.12,1.29-1.12.61,0,1.22.31,1.22,1.12v14.69c0,.82-.61,1.12-1.22,1.12-.58,0-1.29-.24-1.29-1.12v-.2c0-.14-.07-.24-.17-.24s-.24.14-.27.17c-1.26,1.05-2.72,1.39-4.18,1.39-4.62,0-5.92-2.92-5.92-7.07v-8.74c0-.82.65-1.12,1.26-1.12.65,0,1.26.31,1.26,1.12v7.82c0,3.3.17,5.61,4.01,5.61,2.89,0,4.01-1.53,4.01-4.45Z"/>
      <path d="M556.28,252.74c-.24.41-.61.51-.92.51-.54,0-1.39-.44-1.39-1.09,0-.17.03-.41.17-.65l.75-1.26c.17-.27.2-.48.2-1.02v-3.33c0-.82.65-1.12,1.22-1.12.68,0,1.26.31,1.26,1.12v3.6c0,.78-.14,1.29-.44,1.8l-.85,1.43Z"/>
      <path d="M568.44,254.44c-.58,0-.51-.03-1.33-.03-2.58,0-3.71,1.39-3.71,5.13v8.06c0,.82-.61,1.12-1.26,1.12-.68,0-1.26-.31-1.26-1.12v-14.69c0-.82.61-1.12,1.26-1.12.71,0,1.29.31,1.29,1.12v.27c0,.07.03.14.14.14.07,0,.17-.1.27-.2,1.19-.99,2.52-1.33,3.64-1.33,1.33,0,2.07.2,2.07,1.39,0,.85-.41,1.26-1.12,1.26Z"/>
      <path d="M574.67,261.24c-.2,0-.24.1-.24.24.1,3.16.75,4.86,4.52,4.86,1.05,0,2.41-.34,3.33-.85.99-.58,1.16-.75,1.43-.75.78,0,1.22.75,1.22,1.43,0,.34-.17.65-.54.88-1.5,1.02-3.43,1.67-5.68,1.67-5.71,0-6.9-3.3-6.9-8.46,0-4.83,1.05-8.46,6.77-8.46s6.63,4.25,6.63,7.31c0,.88-.14,2.14-1.63,2.14h-8.91ZM578.58,254.03c-2.99,0-4.15,1.84-4.15,4.73,0,.17,0,.31.24.31h7.79c.14,0,.24-.03.24-.2,0-2.72-.99-4.83-4.11-4.83Z"/>
      <path d="M599.87,258.62v8.97c0,.82-.65,1.12-1.26,1.12-.65,0-1.26-.31-1.26-1.12v-14.69c0-.82.61-1.12,1.26-1.12s1.29.31,1.29,1.05v.34c0,.1.07.17.17.17.07,0,.2-.14.27-.17,1.26-1.05,2.69-1.39,4.18-1.39,4.56,0,5.92,2.92,5.92,7.04v8.77c0,.82-.61,1.12-1.22,1.12-.65,0-1.29-.31-1.29-1.12v-7.68c0-3.3-.14-5.75-4.04-5.75-2.86,0-4.01,1.56-4.01,4.45Z"/>
      <path d="M621.33,251.79c5.71,0,6.76,3.64,6.76,8.46s-1.05,8.46-6.76,8.46-6.77-3.64-6.77-8.46,1.05-8.46,6.77-8.46ZM621.33,266.34c3.88,0,4.18-2.52,4.18-6.08s-.31-6.08-4.18-6.08-4.18,2.52-4.18,6.08.31,6.08,4.18,6.08Z"/>
      <path d="M638.24,268.72c-3.23,0-4.66-1.84-4.66-4.9v-9.35c0-.17-.1-.24-.31-.24h-1.77c-.82,0-1.09-.54-1.09-1.16s.27-1.16,1.09-1.16h1.77c.2,0,.31-.07.31-.27v-3.88c0-.82.61-1.12,1.26-1.12.61,0,1.26.31,1.26,1.12v3.84c0,.24.07.31.31.31h2.14c.82,0,1.09.54,1.09,1.16s-.27,1.16-1.09,1.16h-2.14c-.24,0-.31.07-.31.31v9.52c0,1.43.82,2.28,2.41,2.28.71,0,1.12.51,1.12,1.16,0,.58-.34,1.22-1.39,1.22Z"/>
      <path d="M650.08,260.25c0-4.83,1.22-8.46,6.29-8.46,1.29,0,2.75.34,4.01,1.43.03.03.17.17.27.17s.17-.07.17-.2v-.27c0-.82.51-1.12,1.29-1.12.61,0,1.22.31,1.22,1.12v16.79c0,4.42-3.64,6.36-7.31,6.36-2.18,0-3.57-.51-4.39-.95-.41-.24-.58-.58-.58-.92,0-.61.44-1.39,1.16-1.39.17,0,.37.07.61.17.78.37,1.73.71,3.2.71,2.62,0,4.79-1.39,4.79-3.84v-2.48c0-.14-.07-.24-.17-.24s-.24.14-.27.17c-1.22,1.12-2.72,1.43-4.01,1.43-5.07,0-6.29-3.64-6.29-8.46ZM652.66,260.25c0,3.57.31,6.08,4.15,6.08s4.01-2.58,4.01-6.08c0-3.03-.07-6.08-4.01-6.08s-4.15,2.52-4.15,6.08Z"/>
      <path d="M674.4,251.79c5.71,0,6.76,3.64,6.76,8.46s-1.05,8.46-6.76,8.46-6.77-3.64-6.77-8.46,1.05-8.46,6.77-8.46ZM674.4,266.34c3.88,0,4.18-2.52,4.18-6.08s-.31-6.08-4.18-6.08-4.18,2.52-4.18,6.08.31,6.08,4.18,6.08Z"/>
      <path d="M686.63,248.15c-1.02,0-1.7-.71-1.7-1.7s.68-1.67,1.7-1.67c.95,0,1.67.68,1.67,1.67s-.71,1.7-1.67,1.7ZM687.89,267.59c0,.82-.65,1.12-1.26,1.12-.65,0-1.26-.31-1.26-1.12v-14.69c0-.82.61-1.12,1.26-1.12.61,0,1.26.31,1.26,1.12v14.69Z"/>
      <path d="M695.23,258.62v8.97c0,.82-.65,1.12-1.26,1.12-.65,0-1.26-.31-1.26-1.12v-14.69c0-.82.61-1.12,1.26-1.12s1.29.31,1.29,1.05v.34c0,.1.07.17.17.17.07,0,.2-.14.27-.17,1.26-1.05,2.69-1.39,4.18-1.39,4.56,0,5.92,2.92,5.92,7.04v8.77c0,.82-.61,1.12-1.22,1.12-.65,0-1.29-.31-1.29-1.12v-7.68c0-3.3-.14-5.75-4.04-5.75-2.86,0-4.01,1.56-4.01,4.45Z"/>
      <path d="M709.93,260.25c0-4.83,1.22-8.46,6.29-8.46,1.29,0,2.75.34,4.01,1.43.03.03.17.17.27.17s.17-.07.17-.2v-.27c0-.82.51-1.12,1.29-1.12.61,0,1.22.31,1.22,1.12v16.79c0,4.42-3.64,6.36-7.31,6.36-2.18,0-3.57-.51-4.38-.95-.41-.24-.58-.58-.58-.92,0-.61.44-1.39,1.16-1.39.17,0,.37.07.61.17.78.37,1.73.71,3.2.71,2.62,0,4.79-1.39,4.79-3.84v-2.48c0-.14-.07-.24-.17-.24s-.24.14-.27.17c-1.22,1.12-2.72,1.43-4.01,1.43-5.07,0-6.29-3.64-6.29-8.46ZM712.51,260.25c0,3.57.31,6.08,4.15,6.08s4.01-2.58,4.01-6.08c0-3.03-.07-6.08-4.01-6.08s-4.15,2.52-4.15,6.08Z"/>
      <path d="M741.82,268.72c-3.23,0-4.66-1.84-4.66-4.9v-9.35c0-.17-.1-.24-.31-.24h-1.77c-.82,0-1.09-.54-1.09-1.16s.27-1.16,1.09-1.16h1.77c.2,0,.31-.07.31-.27v-3.88c0-.82.61-1.12,1.26-1.12.61,0,1.26.31,1.26,1.12v3.84c0,.24.07.31.31.31h2.14c.82,0,1.09.54,1.09,1.16s-.27,1.16-1.09,1.16h-2.14c-.24,0-.31.07-.31.31v9.52c0,1.43.82,2.28,2.41,2.28.71,0,1.12.51,1.12,1.16,0,.58-.34,1.22-1.39,1.22Z"/>
      <path d="M752.4,251.79c5.71,0,6.77,3.64,6.77,8.46s-1.05,8.46-6.77,8.46-6.77-3.64-6.77-8.46,1.05-8.46,6.77-8.46ZM752.4,266.34c3.88,0,4.18-2.52,4.18-6.08s-.31-6.08-4.18-6.08-4.18,2.52-4.18,6.08.31,6.08,4.18,6.08Z"/>
      <path d="M784.7,260.25c0,4.83-1.22,8.46-6.36,8.46-1.29,0-2.55-.31-3.77-1.26-.17-.14-.31-.31-.44-.31s-.2.03-.2.2v.41c0,.61-.65.95-1.26.95-.65,0-1.26-.31-1.26-1.12v-21.69c0-.82.61-1.12,1.26-1.12.61,0,1.26.31,1.26,1.12v7.28c0,.1.07.2.2.2.07,0,.24-.14.27-.17,1.22-1.09,2.79-1.43,3.94-1.43,5.13,0,6.36,3.64,6.36,8.46ZM777.94,254.17c-3.74,0-4.01,2.75-4.01,6.08,0,3.03.1,6.08,4.01,6.08s4.18-2.52,4.18-6.08-.31-6.08-4.18-6.08Z"/>
      <path d="M791.23,261.24c-.2,0-.24.1-.24.24.1,3.16.75,4.86,4.52,4.86,1.05,0,2.41-.34,3.33-.85.99-.58,1.16-.75,1.43-.75.78,0,1.22.75,1.22,1.43,0,.34-.17.65-.54.88-1.5,1.02-3.43,1.67-5.68,1.67-5.71,0-6.9-3.3-6.9-8.46,0-4.83,1.05-8.46,6.77-8.46s6.63,4.25,6.63,7.31c0,.88-.14,2.14-1.63,2.14h-8.91ZM795.14,254.03c-2.99,0-4.15,1.84-4.15,4.73,0,.17,0,.31.24.31h7.79c.14,0,.24-.03.24-.2,0-2.72-.99-4.83-4.11-4.83Z"/>
      <path d="M816.11,261.24c-.2,0-.24.1-.24.24.1,3.16.75,4.86,4.52,4.86,1.05,0,2.41-.34,3.33-.85.99-.58,1.16-.75,1.43-.75.78,0,1.22.75,1.22,1.43,0,.34-.17.65-.54.88-1.5,1.02-3.43,1.67-5.68,1.67-5.71,0-6.9-3.3-6.9-8.46,0-4.83,1.05-8.46,6.77-8.46s6.63,4.25,6.63,7.31c0,.88-.14,2.14-1.63,2.14h-8.91ZM820.02,254.03c-2.99,0-4.15,1.84-4.15,4.73,0,.17,0,.31.24.31h7.79c.14,0,.24-.03.24-.2,0-2.72-.99-4.83-4.11-4.83Z"/>
      <path d="M836.43,257.7l4.05-5.47c.24-.34.48-.44.85-.44.65,0,1.36.65,1.36,1.26,0,.2-.07.44-.24.68l-4.56,5.95c-.07.1-.1.17-.1.24,0,.1.03.14.1.24l4.93,6.63c.17.24.27.44.27.65,0,.68-.75,1.29-1.36,1.29-.31,0-.61-.1-.85-.44l-4.42-6.12c-.07-.1-.1-.2-.2-.2s-.14.1-.2.2l-4.42,6.12c-.24.34-.54.44-.85.44-.61,0-1.36-.61-1.36-1.29,0-.2.1-.41.27-.65l4.93-6.63c.07-.1.1-.14.1-.24,0-.07-.03-.14-.1-.24l-4.56-5.95c-.17-.24-.24-.48-.24-.68,0-.61.71-1.26,1.36-1.26.37,0,.61.1.85.44l4.05,5.47c.07.1.07.2.17.2s.1-.1.17-.2Z"/>
      <path d="M859.69,260.25c0,4.83-1.22,8.46-6.32,8.46-1.29,0-2.72-.31-3.98-1.39,0-.03-.17-.17-.27-.17-.14,0-.2.1-.2.24v7.21c0,.82-.65,1.12-1.26,1.12-.65,0-1.26-.31-1.26-1.12v-21.69c0-.82.61-1.12,1.26-1.12s1.26.31,1.26,1.12v.24c0,.14.07.2.2.2.07,0,.24-.1.31-.17,1.29-1.09,2.65-1.39,3.94-1.39,5.1,0,6.32,3.64,6.32,8.46ZM857.11,260.25c0-3.57-.31-6.08-4.18-6.08s-4.01,2.75-4.01,6.08c0,3.03.07,6.08,4.01,6.08s4.18-2.52,4.18-6.08Z"/>
      <path d="M866.22,261.24c-.2,0-.24.1-.24.24.1,3.16.75,4.86,4.52,4.86,1.05,0,2.41-.34,3.33-.85.99-.58,1.16-.75,1.43-.75.78,0,1.22.75,1.22,1.43,0,.34-.17.65-.54.88-1.5,1.02-3.43,1.67-5.68,1.67-5.71,0-6.9-3.3-6.9-8.46,0-4.83,1.05-8.46,6.77-8.46s6.63,4.25,6.63,7.31c0,.88-.14,2.14-1.63,2.14h-8.91ZM870.13,254.03c-2.99,0-4.15,1.84-4.15,4.73,0,.17,0,.31.24.31h7.79c.14,0,.24-.03.24-.2,0-2.72-.99-4.83-4.11-4.83Z"/>
      <path d="M888.46,254.44c-.58,0-.51-.03-1.33-.03-2.58,0-3.71,1.39-3.71,5.13v8.06c0,.82-.61,1.12-1.26,1.12-.68,0-1.26-.31-1.26-1.12v-14.69c0-.82.61-1.12,1.26-1.12.71,0,1.29.31,1.29,1.12v.27c0,.07.03.14.14.14.07,0,.17-.1.27-.2,1.19-.99,2.52-1.33,3.64-1.33,1.33,0,2.07.2,2.07,1.39,0,.85-.41,1.26-1.12,1.26Z"/>
      <path d="M899.58,268.72c-3.23,0-4.66-1.84-4.66-4.9v-9.35c0-.17-.1-.24-.31-.24h-1.77c-.82,0-1.09-.54-1.09-1.16s.27-1.16,1.09-1.16h1.77c.2,0,.31-.07.31-.27v-3.88c0-.82.61-1.12,1.26-1.12.61,0,1.26.31,1.26,1.12v3.84c0,.24.07.31.31.31h2.14c.82,0,1.09.54,1.09,1.16s-.27,1.16-1.09,1.16h-2.14c-.24,0-.31.07-.31.31v9.52c0,1.43.82,2.28,2.41,2.28.71,0,1.12.51,1.12,1.16,0,.58-.34,1.22-1.39,1.22Z"/>
      <path d="M909.94,266.34c2.01,0,3.37-.85,3.37-2.38,0-1.16-.88-1.77-2.52-2.28l-2.48-.78c-2.69-.85-4.32-2.11-4.32-4.55,0-2.82,2.45-4.56,5.95-4.56,2.07,0,3.43.61,4.18,1.05.48.27.78.58.78,1.02,0,.58-.58,1.33-1.12,1.33-.31,0-.48-.1-.71-.2-.51-.31-1.84-.82-3.13-.82-2.01,0-3.37.75-3.37,2.07,0,1.19.95,1.77,2.52,2.28l2.45.78c2.82.88,4.35,2.18,4.35,4.66,0,2.92-2.45,4.76-5.95,4.76-2.72,0-4.45-.95-5.61-2.07-.24-.27-.51-.51-.51-.92,0-.61.58-1.29,1.29-1.29.24,0,.41.03.85.41.85.75,1.8,1.5,3.98,1.5Z"/>
      <path d="M935.51,254.44c-.58,0-.51-.03-1.33-.03-2.58,0-3.71,1.39-3.71,5.13v8.06c0,.82-.61,1.12-1.26,1.12-.68,0-1.26-.31-1.26-1.12v-14.69c0-.82.61-1.12,1.26-1.12.71,0,1.29.31,1.29,1.12v.27c0,.07.03.14.14.14.07,0,.17-.1.27-.2,1.19-.99,2.52-1.33,3.64-1.33,1.33,0,2.07.2,2.07,1.39,0,.85-.41,1.26-1.12,1.26Z"/>
      <path d="M941.07,248.15c-1.02,0-1.7-.71-1.7-1.7s.68-1.67,1.7-1.67c.95,0,1.67.68,1.67,1.67s-.71,1.7-1.67,1.7ZM942.33,267.59c0,.82-.65,1.12-1.26,1.12-.65,0-1.26-.31-1.26-1.12v-14.69c0-.82.61-1.12,1.26-1.12.61,0,1.26.31,1.26,1.12v14.69Z"/>
      <path d="M946.49,260.25c0-4.83,1.22-8.46,6.29-8.46,1.29,0,2.75.34,4.01,1.43.03.03.17.17.27.17s.17-.07.17-.2v-.27c0-.82.51-1.12,1.29-1.12.61,0,1.22.31,1.22,1.12v16.79c0,4.42-3.64,6.36-7.31,6.36-2.18,0-3.57-.51-4.39-.95-.41-.24-.58-.58-.58-.92,0-.61.44-1.39,1.16-1.39.17,0,.37.07.61.17.78.37,1.73.71,3.2.71,2.62,0,4.79-1.39,4.79-3.84v-2.48c0-.14-.07-.24-.17-.24s-.24.14-.27.17c-1.22,1.12-2.72,1.43-4.01,1.43-5.07,0-6.29-3.64-6.29-8.46ZM949.07,260.25c0,3.57.31,6.08,4.15,6.08s4.01-2.58,4.01-6.08c0-3.03-.07-6.08-4.01-6.08s-4.15,2.52-4.15,6.08Z"/>
      <path d="M967.12,253.11c0,.17.07.24.2.24.07,0,.2-.14.27-.17,1.26-1.05,2.69-1.39,4.18-1.39,4.56,0,5.92,2.92,5.92,7.04v8.77c0,.82-.61,1.12-1.22,1.12-.65,0-1.29-.31-1.29-1.12v-7.68c0-3.3-.14-5.75-4.04-5.75-2.86,0-4.01,1.53-4.01,4.52v8.91c0,.82-.65,1.12-1.26,1.12-.65,0-1.26-.31-1.26-1.12v-21.69c0-.82.61-1.12,1.26-1.12.61,0,1.26.31,1.26,1.12v7.21Z"/>
      <path d="M988.2,268.72c-3.23,0-4.66-1.84-4.66-4.9v-9.35c0-.17-.1-.24-.31-.24h-1.77c-.82,0-1.09-.54-1.09-1.16s.27-1.16,1.09-1.16h1.77c.2,0,.31-.07.31-.27v-3.88c0-.82.61-1.12,1.26-1.12.61,0,1.26.31,1.26,1.12v3.84c0,.24.07.31.31.31h2.14c.82,0,1.09.54,1.09,1.16s-.27,1.16-1.09,1.16h-2.14c-.24,0-.31.07-.31.31v9.52c0,1.43.82,2.28,2.41,2.28.71,0,1.12.51,1.12,1.16,0,.58-.34,1.22-1.39,1.22Z"/>
      <path d="M110.58,307.54c-.1,0-.2.14-.34.24-1.12.92-2.58,1.73-5.03,1.73-3.94,0-5.17-2.45-5.17-4.62,0-4.15,3.43-5.17,6.73-5.17h3.3c.24,0,.31-.1.31-.31v-.99c0-2.35-1.16-3.47-3.74-3.47-2.07,0-2.92.51-3.98,1.29-.17.14-.34.17-.48.17-.65,0-1.26-.71-1.26-1.33,0-.37.2-.68.54-.99,1.53-1.22,3.47-1.53,5.24-1.53,5.27,0,6.32,2.72,6.32,6.76v6.9c0,.61.17.92.75.92h.31c.58,0,.88.48.88,1.12,0,.88-.37,1.22-1.77,1.22-1.29,0-2.07-.58-2.45-1.77-.07-.17-.1-.2-.17-.2ZM110.51,302.27c0-.2-.1-.31-.31-.31h-3.2c-2.31,0-4.39.34-4.39,2.55,0,1.73,1.12,2.79,3.03,2.79,3.37,0,4.86-2.14,4.86-4.18v-.85Z"/>
      <path d="M132.82,304.86c.1.34.14.71.37.71.2,0,.24-.37.34-.71l3.71-11.52c.17-.54.61-.75.99-.75.68,0,1.46.41,1.46,1.12,0,.1-.03.24-.07.37l-4.86,14.38c-.2.61-.68,1.05-1.56,1.05s-1.33-.44-1.53-1.09l-3.54-11.18c-.1-.31-.1-.85-.34-.85s-.24.54-.34.85l-3.3,10.84c-.37,1.19-1.09,1.43-1.77,1.43s-1.39-.24-1.77-1.43l-4.66-14.01c-.03-.14-.07-.27-.07-.37,0-.71.78-1.12,1.46-1.12.37,0,.82.2.99.75l3.71,11.66c.1.34.14.71.37.71s.24-.37.34-.71l3.26-10.98c.34-1.19,1.09-1.43,1.77-1.43s1.43.24,1.77,1.43l3.26,10.84Z"/>
      <path d="M152.47,307.54c-.1,0-.2.14-.34.24-1.12.92-2.58,1.73-5.03,1.73-3.94,0-5.17-2.45-5.17-4.62,0-4.15,3.43-5.17,6.73-5.17h3.3c.24,0,.31-.1.31-.31v-.99c0-2.35-1.16-3.47-3.74-3.47-2.07,0-2.92.51-3.98,1.29-.17.14-.34.17-.48.17-.65,0-1.26-.71-1.26-1.33,0-.37.2-.68.54-.99,1.53-1.22,3.47-1.53,5.24-1.53,5.27,0,6.32,2.72,6.32,6.76v6.9c0,.61.17.92.75.92h.31c.58,0,.88.48.88,1.12,0,.88-.37,1.22-1.77,1.22-1.29,0-2.07-.58-2.45-1.77-.07-.17-.1-.2-.17-.2ZM152.4,302.27c0-.2-.1-.31-.31-.31h-3.2c-2.31,0-4.39.34-4.39,2.55,0,1.73,1.12,2.79,3.03,2.79,3.37,0,4.86-2.14,4.86-4.18v-.85Z"/>
      <path d="M164.6,312.07c-.99,2.52-2.69,4.45-5.03,4.45-.88,0-1.22-.51-1.22-1.26,0-.54.34-.92.95-1.05,1.6-.34,2.28-.85,3.13-3.03l.78-1.94c.07-.2.14-.37.14-.58,0-.14-.03-.27-.1-.44l-5.37-14.04c-.07-.17-.1-.34-.1-.48,0-.68.78-1.12,1.46-1.12.37,0,.78.17.99.71l4.15,11.35c.1.31.1.65.34.65.2,0,.24-.41.34-.65l4.25-11.35c.2-.54.61-.71.99-.71.68,0,1.46.44,1.46,1.12,0,.14-.03.31-.1.48l-7.04,17.88Z"/>
      <path d="M173.43,313.32c-.14.41-.41.78-.92.78-.61,0-1.43-.41-1.43-1.12,0-.1.03-.31.07-.37l2.04-6.08c.14-.41.44-.75.99-.75.58,0,1.39.31,1.39,1.02,0,.14-.07.37-.1.51l-2.04,6.02Z"/>
      <path d="M201.55,301.05c0,4.83-1.22,8.46-6.36,8.46-1.29,0-2.55-.31-3.77-1.26-.17-.14-.31-.31-.44-.31s-.2.03-.2.2v.41c0,.61-.65.95-1.26.95-.65,0-1.26-.31-1.26-1.12v-21.69c0-.82.61-1.12,1.26-1.12.61,0,1.26.31,1.26,1.12v7.28c0,.1.07.2.2.2.07,0,.24-.14.27-.17,1.22-1.09,2.79-1.43,3.94-1.43,5.13,0,6.36,3.64,6.36,8.46ZM194.78,294.97c-3.74,0-4.01,2.75-4.01,6.09,0,3.03.1,6.08,4.01,6.08s4.18-2.52,4.18-6.08-.31-6.09-4.18-6.09Z"/>
      <path d="M208.07,302.04c-.2,0-.24.1-.24.24.1,3.16.75,4.86,4.52,4.86,1.05,0,2.41-.34,3.33-.85.99-.58,1.16-.75,1.43-.75.78,0,1.22.75,1.22,1.43,0,.34-.17.65-.54.88-1.5,1.02-3.43,1.67-5.68,1.67-5.71,0-6.9-3.3-6.9-8.46,0-4.83,1.05-8.46,6.77-8.46s6.63,4.25,6.63,7.31c0,.88-.14,2.14-1.63,2.14h-8.91ZM211.98,294.83c-2.99,0-4.15,1.84-4.15,4.73,0,.17,0,.31.24.31h7.79c.14,0,.24-.03.24-.2,0-2.72-.99-4.83-4.11-4.83Z"/>
      <path d="M234.13,294.8c0,.65-.71,1.39-1.33,1.39-.31,0-.58-.2-.85-.41-1.05-.75-2.07-.82-2.96-.82-3.88,0-4.18,2.52-4.18,6.09s.31,6.08,4.22,6.08c.82,0,2.18-.24,3.09-.68.48-.24.78-.51,1.09-.51.65,0,1.26.68,1.26,1.36,0,.17-.03.61-.58.92-1.56.92-2.89,1.29-4.9,1.29-5.71,0-6.77-3.64-6.77-8.46s1.05-8.46,6.63-8.46c1.67,0,3.57.24,5,1.6.24.24.27.44.27.61Z"/>
      <path d="M247.85,307.54c-.1,0-.2.14-.34.24-1.12.92-2.58,1.73-5.03,1.73-3.94,0-5.17-2.45-5.17-4.62,0-4.15,3.43-5.17,6.73-5.17h3.3c.24,0,.31-.1.31-.31v-.99c0-2.35-1.16-3.47-3.74-3.47-2.07,0-2.92.51-3.98,1.29-.17.14-.34.17-.48.17-.65,0-1.26-.71-1.26-1.33,0-.37.2-.68.54-.99,1.53-1.22,3.47-1.53,5.24-1.53,5.27,0,6.32,2.72,6.32,6.76v6.9c0,.61.17.92.75.92h.31c.58,0,.88.48.88,1.12,0,.88-.37,1.22-1.77,1.22-1.29,0-2.07-.58-2.45-1.77-.07-.17-.1-.2-.17-.2ZM247.79,302.27c0-.2-.1-.31-.31-.31h-3.2c-2.31,0-4.39.34-4.39,2.55,0,1.73,1.12,2.79,3.03,2.79,3.37,0,4.86-2.14,4.86-4.18v-.85Z"/>
      <path d="M265.53,302.68v-8.98c0-.82.65-1.12,1.29-1.12.61,0,1.22.31,1.22,1.12v14.69c0,.82-.61,1.12-1.22,1.12-.58,0-1.29-.24-1.29-1.12v-.2c0-.14-.07-.24-.17-.24s-.24.14-.27.17c-1.26,1.05-2.72,1.39-4.18,1.39-4.62,0-5.92-2.92-5.92-7.07v-8.74c0-.82.65-1.12,1.26-1.12.65,0,1.26.31,1.26,1.12v7.82c0,3.3.17,5.61,4.01,5.61,2.89,0,4.01-1.53,4.01-4.45Z"/>
      <path d="M278.19,307.14c2.01,0,3.37-.85,3.37-2.38,0-1.16-.88-1.77-2.52-2.28l-2.48-.78c-2.69-.85-4.32-2.11-4.32-4.56,0-2.82,2.45-4.55,5.95-4.55,2.07,0,3.43.61,4.18,1.05.48.27.78.58.78,1.02,0,.58-.58,1.33-1.12,1.33-.31,0-.48-.1-.71-.2-.51-.31-1.84-.82-3.13-.82-2.01,0-3.37.75-3.37,2.07,0,1.19.95,1.77,2.52,2.28l2.45.78c2.82.88,4.35,2.18,4.35,4.66,0,2.92-2.45,4.76-5.95,4.76-2.72,0-4.45-.95-5.61-2.07-.24-.27-.51-.51-.51-.92,0-.61.58-1.29,1.29-1.29.24,0,.41.03.85.41.85.75,1.8,1.5,3.98,1.5Z"/>
      <path d="M290.49,302.04c-.2,0-.24.1-.24.24.1,3.16.75,4.86,4.52,4.86,1.05,0,2.41-.34,3.33-.85.99-.58,1.16-.75,1.43-.75.78,0,1.22.75,1.22,1.43,0,.34-.17.65-.54.88-1.5,1.02-3.43,1.67-5.68,1.67-5.71,0-6.9-3.3-6.9-8.46,0-4.83,1.05-8.46,6.77-8.46s6.63,4.25,6.63,7.31c0,.88-.14,2.14-1.63,2.14h-8.91ZM294.4,294.83c-2.99,0-4.15,1.84-4.15,4.73,0,.17,0,.31.24.31h7.79c.14,0,.24-.03.24-.2,0-2.72-.99-4.83-4.11-4.83Z"/>
      <path d="M326.26,308.39c0,.82-.61,1.12-1.22,1.12-.65,0-1.29-.31-1.29-1.12v-7.34c0-2.18-.14-3.88-.68-4.66-.85-1.22-2.14-1.43-3.4-1.43-1.39,0-2.58.48-3.3,1.5-.58.78-.68,2.35-.68,3.74v8.19c0,.82-.65,1.12-1.26,1.12-.65,0-1.26-.31-1.26-1.12v-14.69c0-.82.61-1.12,1.26-1.12.54,0,1.29.2,1.29.88v.51c0,.1.07.17.17.17.07,0,.27-.17.27-.17,1.26-1.05,2.69-1.39,3.98-1.39,1.63,0,3.33.41,4.56,1.8.14.14.31.27.48.27s.24-.1.37-.2c1.73-1.53,3.47-1.87,5.1-1.87,4.93,0,6.19,3.06,6.19,7v8.8c0,.82-.65,1.12-1.26,1.12-.65,0-1.26-.31-1.26-1.12v-7.34c0-2.55-.17-3.88-.71-4.69-.75-1.16-1.97-1.39-3.37-1.39-1.05,0-2.38.24-3.2,1.29-.61.75-.82,2.18-.82,3.98l.03,8.16Z"/>
      <path d="M351.04,307.54c-.1,0-.2.14-.34.24-1.12.92-2.58,1.73-5.03,1.73-3.94,0-5.17-2.45-5.17-4.62,0-4.15,3.43-5.17,6.73-5.17h3.3c.24,0,.31-.1.31-.31v-.99c0-2.35-1.16-3.47-3.74-3.47-2.07,0-2.92.51-3.98,1.29-.17.14-.34.17-.48.17-.65,0-1.26-.71-1.26-1.33,0-.37.2-.68.54-.99,1.53-1.22,3.47-1.53,5.24-1.53,5.27,0,6.32,2.72,6.32,6.76v6.9c0,.61.17.92.75.92h.31c.58,0,.88.48.88,1.12,0,.88-.37,1.22-1.77,1.22-1.29,0-2.07-.58-2.45-1.77-.07-.17-.1-.2-.17-.2ZM350.97,302.27c0-.2-.1-.31-.31-.31h-3.2c-2.31,0-4.39.34-4.39,2.55,0,1.73,1.12,2.79,3.03,2.79,3.37,0,4.86-2.14,4.86-4.18v-.85Z"/>
      <path d="M371.91,307.71c.14.2.17.41.17.58,0,.65-.75,1.22-1.39,1.22-.34,0-.65-.14-.88-.51l-4.59-7.51c-.07-.1-.14-.17-.24-.17-.07,0-.2.1-.24.14l-3.09,3.2c-.17.17-.34.44-.34.75v2.99c0,.82-.61,1.12-1.26,1.12s-1.26-.31-1.26-1.12v-21.69c0-.82.61-1.12,1.26-1.12s1.26.31,1.26,1.12v14.31s0,.2.17.2c.1,0,.14-.03.17-.07l7.96-8.23c.24-.24.48-.34.75-.34.61,0,1.36.65,1.36,1.36,0,.24-.1.51-.34.75l-4.42,4.52s-.07.07-.07.17c0,.14.03.24.07.27l4.96,8.06Z"/>
      <path d="M376.86,288.95c-1.02,0-1.7-.71-1.7-1.7s.68-1.67,1.7-1.67c.95,0,1.67.68,1.67,1.67s-.71,1.7-1.67,1.7ZM378.12,308.39c0,.82-.65,1.12-1.26,1.12-.65,0-1.26-.31-1.26-1.12v-14.69c0-.82.61-1.12,1.26-1.12.61,0,1.26.31,1.26,1.12v14.69Z"/>
      <path d="M385.46,299.42v8.97c0,.82-.65,1.12-1.26,1.12-.65,0-1.26-.31-1.26-1.12v-14.69c0-.82.61-1.12,1.26-1.12s1.29.31,1.29,1.05v.34c0,.1.07.17.17.17.07,0,.2-.14.27-.17,1.26-1.05,2.69-1.39,4.18-1.39,4.56,0,5.92,2.92,5.92,7.04v8.77c0,.82-.61,1.12-1.22,1.12-.65,0-1.29-.31-1.29-1.12v-7.68c0-3.3-.14-5.75-4.04-5.75-2.86,0-4.01,1.56-4.01,4.45Z"/>
      <path d="M400.16,301.05c0-4.83,1.22-8.46,6.29-8.46,1.29,0,2.75.34,4.01,1.43.03.03.17.17.27.17s.17-.07.17-.2v-.27c0-.82.51-1.12,1.29-1.12.61,0,1.22.31,1.22,1.12v16.79c0,4.42-3.64,6.36-7.31,6.36-2.18,0-3.57-.51-4.38-.95-.41-.24-.58-.58-.58-.92,0-.61.44-1.39,1.16-1.39.17,0,.37.07.61.17.78.37,1.73.71,3.2.71,2.62,0,4.79-1.39,4.79-3.84v-2.48c0-.14-.07-.24-.17-.24s-.24.14-.27.17c-1.22,1.12-2.72,1.43-4.01,1.43-5.07,0-6.29-3.64-6.29-8.46ZM402.74,301.05c0,3.57.31,6.08,4.15,6.08s4.01-2.58,4.01-6.08c0-3.03-.07-6.09-4.01-6.09s-4.15,2.52-4.15,6.09Z"/>
      <path d="M435.65,307.54c-.1,0-.2.14-.34.24-1.12.92-2.58,1.73-5.03,1.73-3.94,0-5.17-2.45-5.17-4.62,0-4.15,3.43-5.17,6.73-5.17h3.3c.24,0,.31-.1.31-.31v-.99c0-2.35-1.16-3.47-3.74-3.47-2.07,0-2.92.51-3.98,1.29-.17.14-.34.17-.48.17-.65,0-1.26-.71-1.26-1.33,0-.37.2-.68.54-.99,1.53-1.22,3.47-1.53,5.24-1.53,5.27,0,6.32,2.72,6.32,6.76v6.9c0,.61.17.92.75.92h.31c.58,0,.88.48.88,1.12,0,.88-.37,1.22-1.77,1.22-1.29,0-2.07-.58-2.45-1.77-.07-.17-.1-.2-.17-.2ZM435.59,302.27c0-.2-.1-.31-.31-.31h-3.2c-2.31,0-4.39.34-4.39,2.55,0,1.73,1.12,2.79,3.03,2.79,3.37,0,4.86-2.14,4.86-4.18v-.85Z"/>
      <path d="M453.51,293.91c0,.17.07.24.2.24.07,0,.2-.14.27-.17,1.26-1.05,2.69-1.39,4.18-1.39,4.56,0,5.92,2.92,5.92,7.04v8.77c0,.82-.61,1.12-1.22,1.12-.65,0-1.29-.31-1.29-1.12v-7.68c0-3.3-.14-5.75-4.04-5.75-2.86,0-4.01,1.53-4.01,4.52v8.91c0,.82-.65,1.12-1.26,1.12-.65,0-1.26-.31-1.26-1.12v-21.69c0-.82.61-1.12,1.26-1.12.61,0,1.26.31,1.26,1.12v7.21Z"/>
      <path d="M479.14,302.68v-8.98c0-.82.65-1.12,1.29-1.12.61,0,1.22.31,1.22,1.12v14.69c0,.82-.61,1.12-1.22,1.12-.58,0-1.29-.24-1.29-1.12v-.2c0-.14-.07-.24-.17-.24s-.24.14-.27.17c-1.26,1.05-2.72,1.39-4.18,1.39-4.62,0-5.92-2.92-5.92-7.07v-8.74c0-.82.65-1.12,1.26-1.12.65,0,1.26.31,1.26,1.12v7.82c0,3.3.17,5.61,4.01,5.61,2.89,0,4.01-1.53,4.01-4.45Z"/>
      <path d="M485.96,301.05c0-4.83,1.22-8.46,6.29-8.46,1.29,0,2.75.34,4.01,1.43.03.03.17.17.27.17s.17-.07.17-.2v-.27c0-.82.51-1.12,1.29-1.12.61,0,1.22.31,1.22,1.12v16.79c0,4.42-3.64,6.36-7.31,6.36-2.18,0-3.57-.51-4.38-.95-.41-.24-.58-.58-.58-.92,0-.61.44-1.39,1.16-1.39.17,0,.37.07.61.17.78.37,1.73.71,3.2.71,2.62,0,4.79-1.39,4.79-3.84v-2.48c0-.14-.07-.24-.17-.24s-.24.14-.27.17c-1.22,1.12-2.72,1.43-4.01,1.43-5.07,0-6.29-3.64-6.29-8.46ZM488.54,301.05c0,3.57.31,6.08,4.15,6.08s4.01-2.58,4.01-6.08c0-3.03-.07-6.09-4.01-6.09s-4.15,2.52-4.15,6.09Z"/>
      <path d="M506.37,302.04c-.2,0-.24.1-.24.24.1,3.16.75,4.86,4.52,4.86,1.05,0,2.41-.34,3.33-.85.99-.58,1.16-.75,1.43-.75.78,0,1.22.75,1.22,1.43,0,.34-.17.65-.54.88-1.5,1.02-3.43,1.67-5.68,1.67-5.71,0-6.9-3.3-6.9-8.46,0-4.83,1.05-8.46,6.77-8.46s6.63,4.25,6.63,7.31c0,.88-.14,2.14-1.63,2.14h-8.91ZM510.28,294.83c-2.99,0-4.15,1.84-4.15,4.73,0,.17,0,.31.24.31h7.79c.14,0,.24-.03.24-.2,0-2.72-.99-4.83-4.11-4.83Z"/>
      <path d="M540.3,294.8c0,.65-.71,1.39-1.33,1.39-.31,0-.58-.2-.85-.41-1.05-.75-2.07-.82-2.96-.82-3.88,0-4.18,2.52-4.18,6.09s.31,6.08,4.22,6.08c.82,0,2.18-.24,3.09-.68.48-.24.78-.51,1.09-.51.65,0,1.26.68,1.26,1.36,0,.17-.03.61-.58.92-1.56.92-2.89,1.29-4.9,1.29-5.71,0-6.77-3.64-6.77-8.46s1.05-8.46,6.63-8.46c1.67,0,3.57.24,5,1.6.24.24.27.44.27.61Z"/>
      <path d="M546.69,293.91c0,.17.07.24.2.24.07,0,.2-.14.27-.17,1.26-1.05,2.69-1.39,4.18-1.39,4.56,0,5.92,2.92,5.92,7.04v8.77c0,.82-.61,1.12-1.22,1.12-.65,0-1.29-.31-1.29-1.12v-7.68c0-3.3-.14-5.75-4.04-5.75-2.86,0-4.01,1.53-4.01,4.52v8.91c0,.82-.65,1.12-1.26,1.12-.65,0-1.26-.31-1.26-1.12v-21.69c0-.82.61-1.12,1.26-1.12.61,0,1.26.31,1.26,1.12v7.21Z"/>
      <path d="M571.44,307.54c-.1,0-.2.14-.34.24-1.12.92-2.58,1.73-5.03,1.73-3.94,0-5.17-2.45-5.17-4.62,0-4.15,3.43-5.17,6.73-5.17h3.3c.24,0,.31-.1.31-.31v-.99c0-2.35-1.16-3.47-3.74-3.47-2.07,0-2.92.51-3.98,1.29-.17.14-.34.17-.48.17-.65,0-1.26-.71-1.26-1.33,0-.37.2-.68.54-.99,1.53-1.22,3.47-1.53,5.24-1.53,5.27,0,6.32,2.72,6.32,6.76v6.9c0,.61.17.92.75.92h.31c.58,0,.88.48.88,1.12,0,.88-.37,1.22-1.77,1.22-1.29,0-2.07-.58-2.45-1.77-.07-.17-.1-.2-.17-.2ZM571.37,302.27c0-.2-.1-.31-.31-.31h-3.2c-2.31,0-4.39.34-4.39,2.55,0,1.73,1.12,2.79,3.03,2.79,3.37,0,4.86-2.14,4.86-4.18v-.85Z"/>
      <path d="M581.7,299.42v8.97c0,.82-.65,1.12-1.26,1.12-.65,0-1.26-.31-1.26-1.12v-14.69c0-.82.61-1.12,1.26-1.12s1.29.31,1.29,1.05v.34c0,.1.07.17.17.17.07,0,.2-.14.27-.17,1.26-1.05,2.69-1.39,4.18-1.39,4.56,0,5.92,2.92,5.92,7.04v8.77c0,.82-.61,1.12-1.22,1.12-.65,0-1.29-.31-1.29-1.12v-7.68c0-3.3-.14-5.75-4.04-5.75-2.86,0-4.01,1.56-4.01,4.45Z"/>
      <path d="M596.4,301.05c0-4.83,1.22-8.46,6.29-8.46,1.29,0,2.75.34,4.01,1.43.03.03.17.17.27.17s.17-.07.17-.2v-.27c0-.82.51-1.12,1.29-1.12.61,0,1.22.31,1.22,1.12v16.79c0,4.42-3.64,6.36-7.31,6.36-2.18,0-3.57-.51-4.38-.95-.41-.24-.58-.58-.58-.92,0-.61.44-1.39,1.16-1.39.17,0,.37.07.61.17.78.37,1.73.71,3.2.71,2.62,0,4.79-1.39,4.79-3.84v-2.48c0-.14-.07-.24-.17-.24s-.24.14-.27.17c-1.22,1.12-2.72,1.43-4.01,1.43-5.07,0-6.29-3.64-6.29-8.46ZM598.99,301.05c0,3.57.31,6.08,4.15,6.08s4.01-2.58,4.01-6.08c0-3.03-.07-6.09-4.01-6.09s-4.15,2.52-4.15,6.09Z"/>
      <path d="M616.81,302.04c-.2,0-.24.1-.24.24.1,3.16.75,4.86,4.52,4.86,1.05,0,2.41-.34,3.33-.85.99-.58,1.16-.75,1.43-.75.78,0,1.22.75,1.22,1.43,0,.34-.17.65-.54.88-1.5,1.02-3.43,1.67-5.68,1.67-5.71,0-6.9-3.3-6.9-8.46,0-4.83,1.05-8.46,6.77-8.46s6.63,4.25,6.63,7.31c0,.88-.14,2.14-1.63,2.14h-8.91ZM620.72,294.83c-2.99,0-4.15,1.84-4.15,4.73,0,.17,0,.31.24.31h7.79c.14,0,.24-.03.24-.2,0-2.72-.99-4.83-4.11-4.83Z"/>
      <path d="M639.49,305.61v-18.9c0-.82.61-1.12,1.26-1.12.61,0,1.26.31,1.26,1.12v18.73c0,1.22.51,1.67,1.7,1.67.61,0,1.05.41,1.05,1.12s-.41,1.29-1.63,1.29c-2.38,0-3.64-1.26-3.64-3.91Z"/>
      <path d="M649.44,288.95c-1.02,0-1.7-.71-1.7-1.7s.68-1.67,1.7-1.67c.95,0,1.67.68,1.67,1.67s-.71,1.7-1.67,1.7ZM650.7,308.39c0,.82-.65,1.12-1.26,1.12-.65,0-1.26-.31-1.26-1.12v-14.69c0-.82.61-1.12,1.26-1.12.61,0,1.26.31,1.26,1.12v14.69Z"/>
      <path d="M668.65,307.71c.14.2.17.41.17.58,0,.65-.75,1.22-1.39,1.22-.34,0-.65-.14-.88-.51l-4.59-7.51c-.07-.1-.14-.17-.24-.17-.07,0-.2.1-.24.14l-3.09,3.2c-.17.17-.34.44-.34.75v2.99c0,.82-.61,1.12-1.26,1.12s-1.26-.31-1.26-1.12v-21.69c0-.82.61-1.12,1.26-1.12s1.26.31,1.26,1.12v14.31s0,.2.17.2c.1,0,.14-.03.17-.07l7.96-8.23c.24-.24.48-.34.75-.34.61,0,1.36.65,1.36,1.36,0,.24-.1.51-.34.75l-4.42,4.52s-.07.07-.07.17c0,.14.03.24.07.27l4.96,8.06Z"/>
      <path d="M674.16,302.04c-.2,0-.24.1-.24.24.1,3.16.75,4.86,4.52,4.86,1.05,0,2.41-.34,3.33-.85.99-.58,1.16-.75,1.43-.75.78,0,1.22.75,1.22,1.43,0,.34-.17.65-.54.88-1.5,1.02-3.43,1.67-5.68,1.67-5.71,0-6.9-3.3-6.9-8.46,0-4.83,1.05-8.46,6.77-8.46s6.63,4.25,6.63,7.31c0,.88-.14,2.14-1.63,2.14h-8.91ZM678.07,294.83c-2.99,0-4.15,1.84-4.15,4.73,0,.17,0,.31.24.31h7.79c.14,0,.24-.03.24-.2,0-2.72-.99-4.83-4.11-4.83Z"/>
      <path d="M702.58,309.52c-3.23,0-4.66-1.84-4.66-4.9v-9.35c0-.17-.1-.24-.31-.24h-1.77c-.82,0-1.09-.54-1.09-1.16s.27-1.16,1.09-1.16h1.77c.2,0,.31-.07.31-.27v-3.88c0-.82.61-1.12,1.26-1.12.61,0,1.26.31,1.26,1.12v3.84c0,.24.07.31.31.31h2.14c.82,0,1.09.54,1.09,1.16s-.27,1.16-1.09,1.16h-2.14c-.24,0-.31.07-.31.31v9.52c0,1.43.82,2.28,2.41,2.28.71,0,1.12.51,1.12,1.16,0,.58-.34,1.22-1.39,1.22Z"/>
      <path d="M709.9,293.91c0,.17.07.24.2.24.07,0,.2-.14.27-.17,1.26-1.05,2.69-1.39,4.18-1.39,4.56,0,5.92,2.92,5.92,7.04v8.77c0,.82-.61,1.12-1.22,1.12-.65,0-1.29-.31-1.29-1.12v-7.68c0-3.3-.14-5.75-4.04-5.75-2.86,0-4.01,1.53-4.01,4.52v8.91c0,.82-.65,1.12-1.26,1.12-.65,0-1.26-.31-1.26-1.12v-21.69c0-.82.61-1.12,1.26-1.12.61,0,1.26.31,1.26,1.12v7.21Z"/>
      <path d="M726.39,288.95c-1.02,0-1.7-.71-1.7-1.7s.68-1.67,1.7-1.67c.95,0,1.67.68,1.67,1.67s-.71,1.7-1.67,1.7ZM727.65,308.39c0,.82-.65,1.12-1.26,1.12-.65,0-1.26-.31-1.26-1.12v-14.69c0-.82.61-1.12,1.26-1.12.61,0,1.26.31,1.26,1.12v14.69Z"/>
      <path d="M737.71,307.14c2.01,0,3.37-.85,3.37-2.38,0-1.16-.88-1.77-2.52-2.28l-2.48-.78c-2.69-.85-4.32-2.11-4.32-4.56,0-2.82,2.45-4.55,5.95-4.55,2.07,0,3.43.61,4.18,1.05.48.27.78.58.78,1.02,0,.58-.58,1.33-1.12,1.33-.31,0-.48-.1-.71-.2-.51-.31-1.84-.82-3.13-.82-2.01,0-3.37.75-3.37,2.07,0,1.19.95,1.77,2.52,2.28l2.45.78c2.82.88,4.35,2.18,4.35,4.66,0,2.92-2.45,4.76-5.95,4.76-2.72,0-4.45-.95-5.61-2.07-.24-.27-.51-.51-.51-.92,0-.61.58-1.29,1.29-1.29.24,0,.41.03.85.41.85.75,1.8,1.5,3.98,1.5Z"/>
      <path d="M756.99,288.95c-1.02,0-1.7-.71-1.7-1.7s.68-1.67,1.7-1.67c.95,0,1.67.68,1.67,1.67s-.71,1.7-1.67,1.7ZM758.24,308.39c0,.82-.65,1.12-1.26,1.12-.65,0-1.26-.31-1.26-1.12v-14.69c0-.82.61-1.12,1.26-1.12.61,0,1.26.31,1.26,1.12v14.69Z"/>
      <path d="M768.3,307.14c2.01,0,3.37-.85,3.37-2.38,0-1.16-.88-1.77-2.52-2.28l-2.48-.78c-2.69-.85-4.32-2.11-4.32-4.56,0-2.82,2.45-4.55,5.95-4.55,2.07,0,3.43.61,4.18,1.05.48.27.78.58.78,1.02,0,.58-.58,1.33-1.12,1.33-.31,0-.48-.1-.71-.2-.51-.31-1.84-.82-3.13-.82-2.01,0-3.37.75-3.37,2.07,0,1.19.95,1.77,2.52,2.28l2.45.78c2.82.88,4.35,2.18,4.35,4.66,0,2.92-2.45,4.76-5.95,4.76-2.72,0-4.45-.95-5.61-2.07-.24-.27-.51-.51-.51-.92,0-.61.58-1.29,1.29-1.29.24,0,.41.03.85.41.85.75,1.8,1.5,3.98,1.5Z"/>
      <path d="M792.07,309.52c-3.23,0-4.66-1.84-4.66-4.9v-9.35c0-.17-.1-.24-.31-.24h-1.77c-.82,0-1.09-.54-1.09-1.16s.27-1.16,1.09-1.16h1.77c.2,0,.31-.07.31-.27v-3.88c0-.82.61-1.12,1.26-1.12.61,0,1.26.31,1.26,1.12v3.84c0,.24.07.31.31.31h2.14c.82,0,1.09.54,1.09,1.16s-.27,1.16-1.09,1.16h-2.14c-.24,0-.31.07-.31.31v9.52c0,1.43.82,2.28,2.41,2.28.71,0,1.12.51,1.12,1.16,0,.58-.34,1.22-1.39,1.22Z"/>
      <path d="M802.65,292.59c5.71,0,6.76,3.64,6.76,8.46s-1.05,8.46-6.76,8.46-6.77-3.64-6.77-8.46,1.05-8.46,6.77-8.46ZM802.65,307.14c3.88,0,4.18-2.52,4.18-6.08s-.31-6.09-4.18-6.09-4.18,2.52-4.18,6.09.31,6.08,4.18,6.08Z"/>
      <path d="M824.03,302.68v-8.98c0-.82.65-1.12,1.29-1.12.61,0,1.22.31,1.22,1.12v14.69c0,.82-.61,1.12-1.22,1.12-.58,0-1.29-.24-1.29-1.12v-.2c0-.14-.07-.24-.17-.24s-.24.14-.27.17c-1.26,1.05-2.72,1.39-4.18,1.39-4.62,0-5.92-2.92-5.92-7.07v-8.74c0-.82.65-1.12,1.26-1.12.65,0,1.26.31,1.26,1.12v7.82c0,3.3.17,5.61,4.01,5.61,2.89,0,4.01-1.53,4.01-4.45Z"/>
      <path d="M830.84,301.05c0-4.83,1.22-8.46,6.29-8.46,1.29,0,2.75.34,4.01,1.43.03.03.17.17.27.17s.17-.07.17-.2v-.27c0-.82.51-1.12,1.29-1.12.61,0,1.22.31,1.22,1.12v16.79c0,4.42-3.64,6.36-7.31,6.36-2.18,0-3.57-.51-4.39-.95-.41-.24-.58-.58-.58-.92,0-.61.44-1.39,1.16-1.39.17,0,.37.07.61.17.78.37,1.73.71,3.2.71,2.62,0,4.79-1.39,4.79-3.84v-2.48c0-.14-.07-.24-.17-.24s-.24.14-.27.17c-1.22,1.12-2.72,1.43-4.01,1.43-5.07,0-6.29-3.64-6.29-8.46ZM833.43,301.05c0,3.57.31,6.08,4.15,6.08s4.01-2.58,4.01-6.08c0-3.03-.07-6.09-4.01-6.09s-4.15,2.52-4.15,6.09Z"/>
      <path d="M851.48,293.91c0,.17.07.24.2.24.07,0,.2-.14.27-.17,1.26-1.05,2.69-1.39,4.18-1.39,4.56,0,5.92,2.92,5.92,7.04v8.77c0,.82-.61,1.12-1.22,1.12-.65,0-1.29-.31-1.29-1.12v-7.68c0-3.3-.14-5.75-4.04-5.75-2.86,0-4.01,1.53-4.01,4.52v8.91c0,.82-.65,1.12-1.26,1.12-.65,0-1.26-.31-1.26-1.12v-21.69c0-.82.61-1.12,1.26-1.12.61,0,1.26.31,1.26,1.12v7.21Z"/>
      <path d="M867.96,305.98c1.02,0,1.77.75,1.77,1.77s-.75,1.77-1.77,1.77-1.77-.75-1.77-1.77.75-1.77,1.77-1.77Z"/>
      <path d="M896.59,297.24c0,.1.03.2.17.31,1.67,1.12,2.75,2.79,2.75,5.24,0,4.39-3.26,6.6-6.9,6.6h-8.87c-.65,0-1.26-.27-1.26-1.09v-21.49c0-.82.61-1.09,1.26-1.09h8.33c3.6,0,6.83,2.07,6.83,6.49,0,2.35-.92,3.71-2.14,4.76-.1.1-.17.2-.17.27ZM892.06,296.22c2.38,0,4.05-1.39,4.05-4.01s-1.84-3.98-4.05-3.98h-6.56c-.24,0-.31.07-.31.31v7.38c0,.24.07.31.31.31h6.56ZM885.5,298.74c-.24,0-.31.07-.31.31v7.51c0,.24.07.31.31.31h7.11c2.28,0,4.11-1.39,4.11-4.08s-1.67-4.04-4.18-4.04h-7.04Z"/>
      <path d="M913.9,302.68v-8.98c0-.82.65-1.12,1.29-1.12.61,0,1.22.31,1.22,1.12v14.69c0,.82-.61,1.12-1.22,1.12-.58,0-1.29-.24-1.29-1.12v-.2c0-.14-.07-.24-.17-.24s-.24.14-.27.17c-1.26,1.05-2.72,1.39-4.18,1.39-4.62,0-5.92-2.92-5.92-7.07v-8.74c0-.82.65-1.12,1.26-1.12.65,0,1.26.31,1.26,1.12v7.82c0,3.3.17,5.61,4.01,5.61,2.89,0,4.01-1.53,4.01-4.45Z"/>
      <path d="M927.53,309.52c-3.23,0-4.66-1.84-4.66-4.9v-9.35c0-.17-.1-.24-.31-.24h-1.77c-.82,0-1.09-.54-1.09-1.16s.27-1.16,1.09-1.16h1.77c.2,0,.31-.07.31-.27v-3.88c0-.82.61-1.12,1.26-1.12.61,0,1.26.31,1.26,1.12v3.84c0,.24.07.31.31.31h2.14c.82,0,1.09.54,1.09,1.16s-.27,1.16-1.09,1.16h-2.14c-.24,0-.31.07-.31.31v9.52c0,1.43.82,2.28,2.41,2.28.71,0,1.12.51,1.12,1.16,0,.58-.34,1.22-1.39,1.22Z"/>
      <path d="M954.93,304.86c.1.34.14.71.37.71.2,0,.24-.37.34-.71l3.71-11.52c.17-.54.61-.75.99-.75.68,0,1.46.41,1.46,1.12,0,.1-.03.24-.07.37l-4.86,14.38c-.2.61-.68,1.05-1.56,1.05s-1.33-.44-1.53-1.09l-3.54-11.18c-.1-.31-.1-.85-.34-.85s-.24.54-.34.85l-3.3,10.84c-.37,1.19-1.09,1.43-1.77,1.43s-1.39-.24-1.77-1.43l-4.66-14.01c-.03-.14-.07-.27-.07-.37,0-.71.78-1.12,1.46-1.12.37,0,.82.2.99.75l3.71,11.66c.1.34.14.71.37.71s.24-.37.34-.71l3.26-10.98c.34-1.19,1.09-1.43,1.77-1.43s1.43.24,1.77,1.43l3.26,10.84Z"/>
      <path d="M966.42,288.95c-1.02,0-1.7-.71-1.7-1.7s.68-1.67,1.7-1.67c.95,0,1.67.68,1.67,1.67s-.71,1.7-1.67,1.7ZM967.68,308.39c0,.82-.65,1.12-1.26,1.12-.65,0-1.26-.31-1.26-1.12v-14.69c0-.82.61-1.12,1.26-1.12.61,0,1.26.31,1.26,1.12v14.69Z"/>
      <path d="M978.75,309.52c-3.23,0-4.66-1.84-4.66-4.9v-9.35c0-.17-.1-.24-.31-.24h-1.77c-.82,0-1.09-.54-1.09-1.16s.27-1.16,1.09-1.16h1.77c.2,0,.31-.07.31-.27v-3.88c0-.82.61-1.12,1.26-1.12.61,0,1.26.31,1.26,1.12v3.84c0,.24.07.31.31.31h2.14c.82,0,1.09.54,1.09,1.16s-.27,1.16-1.09,1.16h-2.14c-.24,0-.31.07-.31.31v9.52c0,1.43.82,2.28,2.41,2.28.71,0,1.12.51,1.12,1.16,0,.58-.34,1.22-1.39,1.22Z"/>
      <path d="M986.07,293.91c0,.17.07.24.2.24.07,0,.2-.14.27-.17,1.26-1.05,2.69-1.39,4.18-1.39,4.56,0,5.92,2.92,5.92,7.04v8.77c0,.82-.61,1.12-1.22,1.12-.65,0-1.29-.31-1.29-1.12v-7.68c0-3.3-.14-5.75-4.04-5.75-2.86,0-4.01,1.53-4.01,4.52v8.91c0,.82-.65,1.12-1.26,1.12-.65,0-1.26-.31-1.26-1.12v-21.69c0-.82.61-1.12,1.26-1.12.61,0,1.26.31,1.26,1.12v7.21Z"/>
      <path d="M106.97,350.32c-3.23,0-4.66-1.84-4.66-4.9v-9.35c0-.17-.1-.24-.31-.24h-1.77c-.82,0-1.09-.54-1.09-1.16s.27-1.16,1.09-1.16h1.77c.2,0,.31-.07.31-.27v-3.88c0-.82.61-1.12,1.26-1.12.61,0,1.26.31,1.26,1.12v3.84c0,.24.07.31.31.31h2.14c.82,0,1.09.54,1.09,1.16s-.27,1.16-1.09,1.16h-2.14c-.24,0-.31.07-.31.31v9.52c0,1.43.82,2.28,2.41,2.28.71,0,1.12.51,1.12,1.16,0,.58-.34,1.22-1.39,1.22Z"/>
      <path d="M113.03,329.75c-1.02,0-1.7-.71-1.7-1.7s.68-1.67,1.7-1.67c.95,0,1.67.68,1.67,1.67s-.71,1.7-1.67,1.7ZM114.29,349.19c0,.82-.65,1.12-1.26,1.12-.65,0-1.26-.31-1.26-1.12v-14.69c0-.82.61-1.12,1.26-1.12.61,0,1.26.31,1.26,1.12v14.69Z"/>
      <path d="M132.2,349.19c0,.82-.61,1.12-1.22,1.12-.65,0-1.29-.31-1.29-1.12v-7.34c0-2.18-.14-3.88-.68-4.66-.85-1.22-2.14-1.43-3.4-1.43-1.39,0-2.58.48-3.3,1.5-.58.78-.68,2.35-.68,3.74v8.19c0,.82-.65,1.12-1.26,1.12-.65,0-1.26-.31-1.26-1.12v-14.69c0-.82.61-1.12,1.26-1.12.54,0,1.29.2,1.29.88v.51c0,.1.07.17.17.17.07,0,.27-.17.27-.17,1.26-1.05,2.69-1.39,3.98-1.39,1.63,0,3.33.41,4.56,1.8.14.14.31.27.48.27s.24-.1.37-.2c1.73-1.53,3.47-1.87,5.1-1.87,4.93,0,6.19,3.06,6.19,7v8.8c0,.82-.65,1.12-1.26,1.12-.65,0-1.26-.31-1.26-1.12v-7.34c0-2.55-.17-3.88-.71-4.69-.75-1.16-1.97-1.39-3.37-1.39-1.05,0-2.38.24-3.2,1.29-.61.75-.82,2.18-.82,3.98l.03,8.16Z"/>
      <path d="M149.79,342.84c-.2,0-.24.1-.24.24.1,3.16.75,4.86,4.52,4.86,1.05,0,2.41-.34,3.33-.85.99-.58,1.16-.75,1.43-.75.78,0,1.22.75,1.22,1.43,0,.34-.17.65-.54.88-1.5,1.02-3.43,1.67-5.68,1.67-5.71,0-6.9-3.3-6.9-8.46,0-4.83,1.05-8.46,6.77-8.46s6.63,4.25,6.63,7.31c0,.88-.14,2.14-1.63,2.14h-8.91ZM153.7,335.63c-2.99,0-4.15,1.84-4.15,4.73,0,.17,0,.31.24.31h7.79c.14,0,.24-.03.24-.2,0-2.72-.99-4.83-4.11-4.83Z"/>
      <path d="M187.39,345.66c.1.34.14.71.37.71.2,0,.24-.37.34-.71l3.71-11.53c.17-.54.61-.75.99-.75.68,0,1.46.41,1.46,1.12,0,.1-.03.24-.07.37l-4.86,14.38c-.2.61-.68,1.05-1.56,1.05s-1.33-.44-1.53-1.09l-3.54-11.18c-.1-.31-.1-.85-.34-.85s-.24.54-.34.85l-3.3,10.84c-.37,1.19-1.09,1.43-1.77,1.43s-1.39-.24-1.77-1.43l-4.66-14.01c-.03-.14-.07-.27-.07-.37,0-.71.78-1.12,1.46-1.12.37,0,.82.2.99.75l3.71,11.66c.1.34.14.71.37.71s.24-.37.34-.71l3.26-10.98c.34-1.19,1.09-1.43,1.77-1.43s1.43.24,1.77,1.43l3.26,10.84Z"/>
      <path d="M199.53,342.84c-.2,0-.24.1-.24.24.1,3.16.75,4.86,4.52,4.86,1.05,0,2.41-.34,3.33-.85.99-.58,1.16-.75,1.43-.75.78,0,1.22.75,1.22,1.43,0,.34-.17.65-.54.88-1.5,1.02-3.43,1.67-5.68,1.67-5.71,0-6.9-3.3-6.9-8.46,0-4.83,1.05-8.46,6.77-8.46s6.63,4.25,6.63,7.31c0,.88-.14,2.14-1.63,2.14h-8.91ZM203.44,335.63c-2.99,0-4.15,1.84-4.15,4.73,0,.17,0,.31.24.31h7.79c.14,0,.24-.03.24-.2,0-2.72-.99-4.83-4.11-4.83Z"/>
      <path d="M235.33,348.51c.14.2.17.41.17.58,0,.65-.75,1.22-1.39,1.22-.34,0-.65-.14-.88-.51l-4.59-7.51c-.07-.1-.14-.17-.24-.17-.07,0-.2.1-.24.14l-3.09,3.2c-.17.17-.34.44-.34.75v2.99c0,.82-.61,1.12-1.26,1.12s-1.26-.31-1.26-1.12v-21.69c0-.82.61-1.12,1.26-1.12s1.26.31,1.26,1.12v14.31s0,.2.17.2c.1,0,.14-.03.17-.07l7.96-8.23c.24-.24.48-.34.75-.34.61,0,1.36.65,1.36,1.36,0,.24-.1.51-.34.75l-4.42,4.52s-.07.07-.07.17c0,.14.03.24.07.27l4.96,8.06Z"/>
      <path d="M241.54,340.22v8.97c0,.82-.65,1.12-1.26,1.12-.65,0-1.26-.31-1.26-1.12v-14.69c0-.82.61-1.12,1.26-1.12s1.29.31,1.29,1.05v.34c0,.1.07.17.17.17.07,0,.2-.14.27-.17,1.26-1.05,2.69-1.39,4.18-1.39,4.56,0,5.92,2.92,5.92,7.04v8.77c0,.82-.61,1.12-1.22,1.12-.65,0-1.29-.31-1.29-1.12v-7.68c0-3.3-.14-5.75-4.04-5.75-2.86,0-4.01,1.56-4.01,4.45Z"/>
      <path d="M263,333.39c5.71,0,6.76,3.64,6.76,8.46s-1.05,8.46-6.76,8.46-6.77-3.64-6.77-8.46,1.05-8.46,6.77-8.46ZM263,347.94c3.88,0,4.18-2.52,4.18-6.08s-.31-6.08-4.18-6.08-4.18,2.52-4.18,6.08.31,6.08,4.18,6.08Z"/>
      <path d="M289.1,345.66c.1.34.14.71.37.71.2,0,.24-.37.34-.71l3.71-11.53c.17-.54.61-.75.99-.75.68,0,1.46.41,1.46,1.12,0,.1-.03.24-.07.37l-4.86,14.38c-.2.61-.68,1.05-1.56,1.05s-1.33-.44-1.53-1.09l-3.54-11.18c-.1-.31-.1-.85-.34-.85s-.24.54-.34.85l-3.3,10.84c-.37,1.19-1.09,1.43-1.77,1.43s-1.39-.24-1.77-1.43l-4.66-14.01c-.03-.14-.07-.27-.07-.37,0-.71.78-1.12,1.46-1.12.37,0,.82.2.99.75l3.71,11.66c.1.34.14.71.37.71s.24-.37.34-.71l3.26-10.98c.34-1.19,1.09-1.43,1.77-1.43s1.43.24,1.77,1.43l3.26,10.84Z"/>
      <path d="M311.68,352.87c-.99,2.52-2.69,4.45-5.03,4.45-.88,0-1.22-.51-1.22-1.26,0-.54.34-.92.95-1.05,1.6-.34,2.28-.85,3.13-3.03l.78-1.94c.07-.2.14-.37.14-.58,0-.14-.03-.27-.1-.44l-5.37-14.04c-.07-.17-.1-.34-.1-.48,0-.68.78-1.12,1.46-1.12.37,0,.78.17.99.71l4.15,11.35c.1.31.1.65.34.65.2,0,.24-.41.34-.65l4.25-11.35c.2-.54.61-.71.99-.71.68,0,1.46.44,1.46,1.12,0,.14-.03.31-.1.48l-7.04,17.88Z"/>
      <path d="M327.93,333.39c5.71,0,6.77,3.64,6.77,8.46s-1.05,8.46-6.77,8.46-6.77-3.64-6.77-8.46,1.05-8.46,6.77-8.46ZM327.93,347.94c3.88,0,4.18-2.52,4.18-6.08s-.31-6.08-4.18-6.08-4.18,2.52-4.18,6.08.31,6.08,4.18,6.08Z"/>
      <path d="M349.31,343.48v-8.98c0-.82.65-1.12,1.29-1.12.61,0,1.22.31,1.22,1.12v14.69c0,.82-.61,1.12-1.22,1.12-.58,0-1.29-.24-1.29-1.12v-.2c0-.14-.07-.24-.17-.24s-.24.14-.27.17c-1.26,1.05-2.72,1.39-4.18,1.39-4.62,0-5.92-2.92-5.92-7.07v-8.74c0-.82.65-1.12,1.26-1.12.65,0,1.26.31,1.26,1.12v7.82c0,3.3.17,5.61,4.01,5.61,2.89,0,4.01-1.53,4.01-4.45Z"/>
      <path d="M357.41,334.34c-.24.41-.61.51-.92.51-.54,0-1.39-.44-1.39-1.09,0-.17.03-.41.17-.65l.75-1.26c.17-.27.2-.48.2-1.02v-3.33c0-.82.65-1.12,1.22-1.12.68,0,1.26.31,1.26,1.12v3.6c0,.78-.14,1.29-.44,1.8l-.85,1.43Z"/>
      <path d="M362.44,346.41v-18.9c0-.82.61-1.12,1.26-1.12.61,0,1.26.31,1.26,1.12v18.73c0,1.22.51,1.67,1.7,1.67.61,0,1.05.41,1.05,1.12s-.41,1.29-1.63,1.29c-2.38,0-3.64-1.26-3.64-3.91Z"/>
      <path d="M371.01,346.41v-18.9c0-.82.61-1.12,1.26-1.12.61,0,1.26.31,1.26,1.12v18.73c0,1.22.51,1.67,1.7,1.67.61,0,1.05.41,1.05,1.12s-.41,1.29-1.63,1.29c-2.38,0-3.64-1.26-3.64-3.91Z"/>
      <path d="M400.51,349.19c0,.82-.61,1.12-1.22,1.12-.65,0-1.29-.31-1.29-1.12v-7.34c0-2.18-.14-3.88-.68-4.66-.85-1.22-2.14-1.43-3.4-1.43-1.39,0-2.58.48-3.3,1.5-.58.78-.68,2.35-.68,3.74v8.19c0,.82-.65,1.12-1.26,1.12-.65,0-1.26-.31-1.26-1.12v-14.69c0-.82.61-1.12,1.26-1.12.54,0,1.29.2,1.29.88v.51c0,.1.07.17.17.17.07,0,.27-.17.27-.17,1.26-1.05,2.69-1.39,3.98-1.39,1.63,0,3.33.41,4.56,1.8.14.14.31.27.48.27s.24-.1.37-.2c1.73-1.53,3.47-1.87,5.1-1.87,4.93,0,6.19,3.06,6.19,7v8.8c0,.82-.65,1.12-1.26,1.12-.65,0-1.26-.31-1.26-1.12v-7.34c0-2.55-.17-3.88-.71-4.69-.75-1.16-1.97-1.39-3.37-1.39-1.05,0-2.38.24-3.2,1.29-.61.75-.82,2.18-.82,3.98l.03,8.16Z"/>
      <path d="M425.3,348.34c-.1,0-.2.14-.34.24-1.12.92-2.58,1.73-5.03,1.73-3.94,0-5.17-2.45-5.17-4.62,0-4.15,3.43-5.17,6.73-5.17h3.3c.24,0,.31-.1.31-.31v-.99c0-2.35-1.16-3.47-3.74-3.47-2.07,0-2.92.51-3.98,1.29-.17.14-.34.17-.48.17-.65,0-1.26-.71-1.26-1.33,0-.37.2-.68.54-.99,1.53-1.22,3.47-1.53,5.24-1.53,5.27,0,6.32,2.72,6.32,6.76v6.9c0,.61.17.92.75.92h.31c.58,0,.88.48.88,1.12,0,.88-.37,1.22-1.77,1.22-1.29,0-2.07-.58-2.45-1.77-.07-.17-.1-.2-.17-.2ZM425.23,343.07c0-.2-.1-.31-.31-.31h-3.2c-2.31,0-4.39.34-4.39,2.55,0,1.73,1.12,2.79,3.03,2.79,3.37,0,4.86-2.14,4.86-4.18v-.85Z"/>
      <path d="M438.65,347.94c2.01,0,3.37-.85,3.37-2.38,0-1.16-.88-1.77-2.52-2.28l-2.48-.78c-2.69-.85-4.32-2.11-4.32-4.55,0-2.82,2.45-4.56,5.95-4.56,2.07,0,3.43.61,4.18,1.05.48.27.78.58.78,1.02,0,.58-.58,1.33-1.12,1.33-.31,0-.48-.1-.71-.2-.51-.31-1.84-.82-3.13-.82-2.01,0-3.37.75-3.37,2.07,0,1.19.95,1.77,2.52,2.28l2.45.78c2.82.88,4.35,2.18,4.35,4.66,0,2.92-2.45,4.76-5.95,4.76-2.72,0-4.45-.95-5.61-2.07-.24-.27-.51-.51-.51-.92,0-.61.58-1.29,1.29-1.29.24,0,.41.03.85.41.85.75,1.8,1.5,3.98,1.5Z"/>
      <path d="M454.79,350.32c-3.23,0-4.66-1.84-4.66-4.9v-9.35c0-.17-.1-.24-.31-.24h-1.77c-.82,0-1.09-.54-1.09-1.16s.27-1.16,1.09-1.16h1.77c.2,0,.31-.07.31-.27v-3.88c0-.82.61-1.12,1.26-1.12.61,0,1.26.31,1.26,1.12v3.84c0,.24.07.31.31.31h2.14c.82,0,1.09.54,1.09,1.16s-.27,1.16-1.09,1.16h-2.14c-.24,0-.31.07-.31.31v9.52c0,1.43.82,2.28,2.41,2.28.71,0,1.12.51,1.12,1.16,0,.58-.34,1.22-1.39,1.22Z"/>
      <path d="M461.47,342.84c-.2,0-.24.1-.24.24.1,3.16.75,4.86,4.52,4.86,1.05,0,2.41-.34,3.33-.85.99-.58,1.16-.75,1.43-.75.78,0,1.22.75,1.22,1.43,0,.34-.17.65-.54.88-1.5,1.02-3.43,1.67-5.68,1.67-5.71,0-6.9-3.3-6.9-8.46,0-4.83,1.05-8.46,6.77-8.46s6.63,4.25,6.63,7.31c0,.88-.14,2.14-1.63,2.14h-8.91ZM465.38,335.63c-2.99,0-4.15,1.84-4.15,4.73,0,.17,0,.31.24.31h7.79c.14,0,.24-.03.24-.2,0-2.72-.99-4.83-4.11-4.83Z"/>
      <path d="M483.71,336.04c-.58,0-.51-.03-1.33-.03-2.58,0-3.71,1.39-3.71,5.13v8.06c0,.82-.61,1.12-1.26,1.12-.68,0-1.26-.31-1.26-1.12v-14.69c0-.82.61-1.12,1.26-1.12.71,0,1.29.31,1.29,1.12v.27c0,.07.03.14.14.14.07,0,.17-.1.27-.2,1.19-.99,2.52-1.33,3.64-1.33,1.33,0,2.07.2,2.07,1.39,0,.85-.41,1.26-1.12,1.26Z"/>
      <path d="M496.7,329.75c-1.02,0-1.7-.71-1.7-1.7s.68-1.67,1.7-1.67c.95,0,1.67.68,1.67,1.67s-.71,1.7-1.67,1.7ZM497.95,349.19c0,.82-.65,1.12-1.26,1.12-.65,0-1.26-.31-1.26-1.12v-14.69c0-.82.61-1.12,1.26-1.12.61,0,1.26.31,1.26,1.12v14.69Z"/>
      <path d="M509.03,350.32c-3.23,0-4.66-1.84-4.66-4.9v-9.35c0-.17-.1-.24-.31-.24h-1.77c-.82,0-1.09-.54-1.09-1.16s.27-1.16,1.09-1.16h1.77c.2,0,.31-.07.31-.27v-3.88c0-.82.61-1.12,1.26-1.12.61,0,1.26.31,1.26,1.12v3.84c0,.24.07.31.31.31h2.14c.82,0,1.09.54,1.09,1.16s-.27,1.16-1.09,1.16h-2.14c-.24,0-.31.07-.31.31v9.52c0,1.43.82,2.28,2.41,2.28.71,0,1.12.51,1.12,1.16,0,.58-.34,1.22-1.39,1.22Z"/>
      <path d="M515.26,346.78c1.02,0,1.77.75,1.77,1.77s-.75,1.77-1.77,1.77-1.77-.75-1.77-1.77.75-1.77,1.77-1.77Z"/>
      <path d="M534.19,349.13v-9.04c0-.31-.03-.44-.17-.68l-6.63-11.15c-.14-.24-.17-.44-.17-.61,0-.68.85-1.26,1.53-1.26.34,0,.65.14.88.58l5.68,9.59c.14.2.1.44.24.44s.1-.24.24-.44l5.68-9.59c.24-.44.54-.58.88-.58.68,0,1.53.58,1.53,1.26,0,.17-.03.37-.17.61l-6.63,11.15c-.14.24-.17.37-.17.68v9.04c0,.95-.71,1.19-1.36,1.19s-1.36-.24-1.36-1.19Z"/>
      <path d="M550.67,333.39c5.71,0,6.76,3.64,6.76,8.46s-1.05,8.46-6.76,8.46-6.77-3.64-6.77-8.46,1.05-8.46,6.77-8.46ZM550.67,347.94c3.88,0,4.18-2.52,4.18-6.08s-.31-6.08-4.18-6.08-4.18,2.52-4.18,6.08.31,6.08,4.18,6.08Z"/>
      <path d="M572.05,343.48v-8.98c0-.82.65-1.12,1.29-1.12.61,0,1.22.31,1.22,1.12v14.69c0,.82-.61,1.12-1.22,1.12-.58,0-1.29-.24-1.29-1.12v-.2c0-.14-.07-.24-.17-.24s-.24.14-.27.17c-1.26,1.05-2.72,1.39-4.18,1.39-4.62,0-5.92-2.92-5.92-7.07v-8.74c0-.82.65-1.12,1.26-1.12.65,0,1.26.31,1.26,1.12v7.82c0,3.3.17,5.61,4.01,5.61,2.89,0,4.01-1.53,4.01-4.45Z"/>
      <path d="M600.54,349.19c0,.82-.61,1.12-1.22,1.12-.65,0-1.29-.31-1.29-1.12v-7.34c0-2.18-.14-3.88-.68-4.66-.85-1.22-2.14-1.43-3.4-1.43-1.39,0-2.58.48-3.3,1.5-.58.78-.68,2.35-.68,3.74v8.19c0,.82-.65,1.12-1.26,1.12-.65,0-1.26-.31-1.26-1.12v-14.69c0-.82.61-1.12,1.26-1.12.54,0,1.29.2,1.29.88v.51c0,.1.07.17.17.17.07,0,.27-.17.27-.17,1.26-1.05,2.69-1.39,3.98-1.39,1.63,0,3.33.41,4.56,1.8.14.14.31.27.48.27s.24-.1.37-.2c1.73-1.53,3.47-1.87,5.1-1.87,4.93,0,6.19,3.06,6.19,7v8.8c0,.82-.65,1.12-1.26,1.12-.65,0-1.26-.31-1.26-1.12v-7.34c0-2.55-.17-3.88-.71-4.69-.75-1.16-1.97-1.39-3.37-1.39-1.05,0-2.38.24-3.2,1.29-.61.75-.82,2.18-.82,3.98l.03,8.16Z"/>
      <path d="M625.33,348.34c-.1,0-.2.14-.34.24-1.12.92-2.58,1.73-5.03,1.73-3.94,0-5.17-2.45-5.17-4.62,0-4.15,3.43-5.17,6.73-5.17h3.3c.24,0,.31-.1.31-.31v-.99c0-2.35-1.16-3.47-3.74-3.47-2.07,0-2.92.51-3.98,1.29-.17.14-.34.17-.48.17-.65,0-1.26-.71-1.26-1.33,0-.37.2-.68.54-.99,1.53-1.22,3.47-1.53,5.24-1.53,5.27,0,6.32,2.72,6.32,6.76v6.9c0,.61.17.92.75.92h.31c.58,0,.88.48.88,1.12,0,.88-.37,1.22-1.77,1.22-1.29,0-2.07-.58-2.45-1.77-.07-.17-.1-.2-.17-.2ZM625.26,343.07c0-.2-.1-.31-.31-.31h-3.2c-2.31,0-4.39.34-4.39,2.55,0,1.73,1.12,2.79,3.03,2.79,3.37,0,4.86-2.14,4.86-4.18v-.85Z"/>
      <path d="M638.68,347.94c2.01,0,3.37-.85,3.37-2.38,0-1.16-.88-1.77-2.52-2.28l-2.48-.78c-2.69-.85-4.32-2.11-4.32-4.55,0-2.82,2.45-4.56,5.95-4.56,2.07,0,3.43.61,4.18,1.05.48.27.78.58.78,1.02,0,.58-.58,1.33-1.12,1.33-.31,0-.48-.1-.71-.2-.51-.31-1.84-.82-3.13-.82-2.01,0-3.37.75-3.37,2.07,0,1.19.95,1.77,2.52,2.28l2.45.78c2.82.88,4.35,2.18,4.35,4.66,0,2.92-2.45,4.76-5.95,4.76-2.72,0-4.45-.95-5.61-2.07-.24-.27-.51-.51-.51-.92,0-.61.58-1.29,1.29-1.29.24,0,.41.03.85.41.85.75,1.8,1.5,3.98,1.5Z"/>
      <path d="M654.82,350.32c-3.23,0-4.66-1.84-4.66-4.9v-9.35c0-.17-.1-.24-.31-.24h-1.77c-.82,0-1.09-.54-1.09-1.16s.27-1.16,1.09-1.16h1.77c.2,0,.31-.07.31-.27v-3.88c0-.82.61-1.12,1.26-1.12.61,0,1.26.31,1.26,1.12v3.84c0,.24.07.31.31.31h2.14c.82,0,1.09.54,1.09,1.16s-.27,1.16-1.09,1.16h-2.14c-.24,0-.31.07-.31.31v9.52c0,1.43.82,2.28,2.41,2.28.71,0,1.12.51,1.12,1.16,0,.58-.34,1.22-1.39,1.22Z"/>
      <path d="M661.5,342.84c-.2,0-.24.1-.24.24.1,3.16.75,4.86,4.52,4.86,1.05,0,2.41-.34,3.33-.85.99-.58,1.16-.75,1.43-.75.78,0,1.22.75,1.22,1.43,0,.34-.17.65-.54.88-1.5,1.02-3.43,1.67-5.68,1.67-5.71,0-6.9-3.3-6.9-8.46,0-4.83,1.05-8.46,6.77-8.46s6.63,4.25,6.63,7.31c0,.88-.14,2.14-1.63,2.14h-8.91ZM665.41,335.63c-2.99,0-4.15,1.84-4.15,4.73,0,.17,0,.31.24.31h7.79c.14,0,.24-.03.24-.2,0-2.72-.99-4.83-4.11-4.83Z"/>
      <path d="M683.74,336.04c-.58,0-.51-.03-1.33-.03-2.58,0-3.71,1.39-3.71,5.13v8.06c0,.82-.61,1.12-1.26,1.12-.68,0-1.26-.31-1.26-1.12v-14.69c0-.82.61-1.12,1.26-1.12.71,0,1.29.31,1.29,1.12v.27c0,.07.03.14.14.14.07,0,.17-.1.27-.2,1.19-.99,2.52-1.33,3.64-1.33,1.33,0,2.07.2,2.07,1.39,0,.85-.41,1.26-1.12,1.26Z"/>
      <path d="M689.97,342.84c-.2,0-.24.1-.24.24.1,3.16.75,4.86,4.52,4.86,1.05,0,2.41-.34,3.33-.85.99-.58,1.16-.75,1.43-.75.78,0,1.22.75,1.22,1.43,0,.34-.17.65-.54.88-1.5,1.02-3.43,1.67-5.68,1.67-5.71,0-6.9-3.3-6.9-8.46,0-4.83,1.05-8.46,6.77-8.46s6.63,4.25,6.63,7.31c0,.88-.14,2.14-1.63,2.14h-8.91ZM693.88,335.63c-2.99,0-4.15,1.84-4.15,4.73,0,.17,0,.31.24.31h7.79c.14,0,.24-.03.24-.2,0-2.72-.99-4.83-4.11-4.83Z"/>
      <path d="M704.13,341.85c0-4.83,1.22-8.46,6.29-8.46,1.29,0,2.75.34,4.01,1.43,0,0,.17.17.27.17s.17-.07.17-.24v-7.24c0-.82.65-1.12,1.29-1.12.61,0,1.22.31,1.22,1.12v21.69c0,.82-.61,1.12-1.22,1.12s-1.29-.2-1.29-.99v-.41c0-.17-.07-.2-.17-.2-.07,0-.24.14-.31.2-1.29,1.09-2.69,1.39-3.98,1.39-5.07,0-6.29-3.64-6.29-8.46ZM706.71,341.85c0,3.57.31,6.08,4.15,6.08s4.01-2.65,4.01-6.08c0-3.09-.07-6.08-4.01-6.08s-4.15,2.52-4.15,6.08Z"/>
      <path d="M737.58,350.32c-2.24,0-4.83-.65-6.53-3.2-1.22-1.8-1.56-4.59-1.56-8.77s.34-6.97,1.56-8.8c1.63-2.45,4.18-3.16,6.53-3.16s4.32.48,5.81,1.73c.48.41.92.78.92,1.26,0,.58-.68,1.33-1.29,1.33-.27,0-.58-.2-.82-.37-1.53-1.12-2.55-1.43-4.45-1.43-1.67,0-3.5.31-4.52,2.28-.85,1.63-.95,4.15-.95,7.17s.07,5.54.95,7.21c.99,1.87,2.69,2.24,4.45,2.24,1.53,0,3.37-.31,5.07-1.77.27-.27.48-.44.78-.44.65,0,1.39.75,1.39,1.33,0,.31-.17.58-.44.88-.75.82-2.72,2.52-6.9,2.52Z"/>
      <path d="M751.62,340.97c-.24,0-.31.07-.31.31v7.85c0,.95-.68,1.19-1.36,1.19s-1.36-.24-1.36-1.19v-21.52c0-.88.61-1.09,1.26-1.09h8.87c3.6,0,6.56,2.31,6.56,7.21s-2.96,7.24-6.56,7.24h-7.11ZM758.7,338.45c2.31,0,3.81-1.53,3.81-4.73s-1.5-4.69-3.81-4.69h-7.07c-.24,0-.31.07-.31.31v8.8c0,.24.07.31.31.31h7.07Z"/>
      <path d="M785.42,348.38c.14.24.2.44.2.65,0,.68-.88,1.29-1.56,1.29-.34,0-.68-.17-.92-.58l-5.44-9.18c-.17-.31-.27-.31-.54-.31h-5.2c-.24,0-.31.07-.31.31v8.57c0,.95-.68,1.19-1.36,1.19s-1.36-.24-1.36-1.19v-21.52c0-.82.61-1.09,1.26-1.09h8.87c3.6,0,6.56,2.21,6.56,6.87,0,3.64-1.73,5.95-4.83,6.66-.14.03-.17.14-.17.24,0,.07.03.14.03.14l4.76,7.96ZM778.86,337.74c2.52,0,3.98-1.43,3.98-4.35s-1.5-4.35-3.77-4.35h-7.11c-.24,0-.31.07-.31.31v8.09c0,.24.07.31.31.31h6.9Z"/>
      <path d="M794.44,340.83c0-.2-.03-.24-.24-.24h-5.2c-.65,0-.88-.48-.88-.95,0-.54.24-.95.88-.95h5.2c.2,0,.24-.1.24-.27v-5.03c0-.68.51-.92,1.02-.92s1.02.24,1.02.92v5.03c0,.17.07.27.24.27h5.2c.65,0,.88.41.88.95,0,.48-.24.95-.88.95h-5.2c-.17,0-.24.03-.24.24v5.2c0,.65-.51.88-1.02.88s-1.02-.24-1.02-.88v-5.2Z"/>
      <path d="M805.74,354.12c-.14.41-.41.78-.92.78-.61,0-1.43-.41-1.43-1.12,0-.1.03-.31.07-.37l2.04-6.08c.14-.41.44-.75.99-.75.58,0,1.39.31,1.39,1.02,0,.14-.07.37-.1.51l-2.04,6.02Z"/>
      <path d="M829.91,348.34c-.1,0-.2.14-.34.24-1.12.92-2.58,1.73-5.03,1.73-3.94,0-5.17-2.45-5.17-4.62,0-4.15,3.43-5.17,6.73-5.17h3.3c.24,0,.31-.1.31-.31v-.99c0-2.35-1.16-3.47-3.74-3.47-2.07,0-2.92.51-3.98,1.29-.17.14-.34.17-.48.17-.65,0-1.26-.71-1.26-1.33,0-.37.2-.68.54-.99,1.53-1.22,3.47-1.53,5.24-1.53,5.27,0,6.32,2.72,6.32,6.76v6.9c0,.61.17.92.75.92h.31c.58,0,.88.48.88,1.12,0,.88-.37,1.22-1.77,1.22-1.29,0-2.07-.58-2.45-1.77-.07-.17-.1-.2-.17-.2ZM829.85,343.07c0-.2-.1-.31-.31-.31h-3.2c-2.31,0-4.39.34-4.39,2.55,0,1.73,1.12,2.79,3.03,2.79,3.37,0,4.86-2.14,4.86-4.18v-.85Z"/>
      <path d="M840.18,340.22v8.97c0,.82-.65,1.12-1.26,1.12-.65,0-1.26-.31-1.26-1.12v-14.69c0-.82.61-1.12,1.26-1.12s1.29.31,1.29,1.05v.34c0,.1.07.17.17.17.07,0,.2-.14.27-.17,1.26-1.05,2.69-1.39,4.18-1.39,4.56,0,5.92,2.92,5.92,7.04v8.77c0,.82-.61,1.12-1.22,1.12-.65,0-1.29-.31-1.29-1.12v-7.68c0-3.3-.14-5.75-4.04-5.75-2.86,0-4.01,1.56-4.01,4.45Z"/>
      <path d="M854.88,341.85c0-4.83,1.22-8.46,6.29-8.46,1.29,0,2.75.34,4.01,1.43,0,0,.17.17.27.17s.17-.07.17-.24v-7.24c0-.82.65-1.12,1.29-1.12.61,0,1.22.31,1.22,1.12v21.69c0,.82-.61,1.12-1.22,1.12s-1.29-.2-1.29-.99v-.41c0-.17-.07-.2-.17-.2-.07,0-.24.14-.31.2-1.29,1.09-2.69,1.39-3.98,1.39-5.07,0-6.29-3.64-6.29-8.46ZM857.46,341.85c0,3.57.31,6.08,4.15,6.08s4.01-2.65,4.01-6.08c0-3.09-.07-6.08-4.01-6.08s-4.15,2.52-4.15,6.08Z"/>
      <path d="M888.33,350.32c-2.24,0-4.83-.65-6.53-3.2-1.22-1.8-1.56-4.59-1.56-8.77s.34-6.97,1.56-8.8c1.63-2.45,4.18-3.16,6.53-3.16s4.32.48,5.81,1.73c.48.41.92.78.92,1.26,0,.58-.68,1.33-1.29,1.33-.27,0-.58-.2-.82-.37-1.53-1.12-2.55-1.43-4.45-1.43-1.67,0-3.5.31-4.52,2.28-.85,1.63-.95,4.15-.95,7.17s.07,5.54.95,7.21c.99,1.87,2.69,2.24,4.45,2.24,1.53,0,3.37-.31,5.07-1.77.27-.27.48-.44.78-.44.65,0,1.39.75,1.39,1.33,0,.31-.17.58-.44.88-.75.82-2.72,2.52-6.9,2.52Z"/>
      <path d="M909.16,348.34c-.1,0-.2.14-.34.24-1.12.92-2.58,1.73-5.03,1.73-3.94,0-5.17-2.45-5.17-4.62,0-4.15,3.43-5.17,6.73-5.17h3.3c.24,0,.31-.1.31-.31v-.99c0-2.35-1.16-3.47-3.74-3.47-2.07,0-2.92.51-3.98,1.29-.17.14-.34.17-.48.17-.65,0-1.26-.71-1.26-1.33,0-.37.2-.68.54-.99,1.53-1.22,3.47-1.53,5.24-1.53,5.27,0,6.32,2.72,6.32,6.76v6.9c0,.61.17.92.75.92h.31c.58,0,.88.48.88,1.12,0,.88-.37,1.22-1.77,1.22-1.29,0-2.07-.58-2.45-1.77-.07-.17-.1-.2-.17-.2ZM909.1,343.07c0-.2-.1-.31-.31-.31h-3.2c-2.31,0-4.39.34-4.39,2.55,0,1.73,1.12,2.79,3.03,2.79,3.37,0,4.86-2.14,4.86-4.18v-.85Z"/>
      <path d="M924.46,336.04c-.58,0-.51-.03-1.33-.03-2.58,0-3.71,1.39-3.71,5.13v8.06c0,.82-.61,1.12-1.26,1.12-.68,0-1.26-.31-1.26-1.12v-14.69c0-.82.61-1.12,1.26-1.12.71,0,1.29.31,1.29,1.12v.27c0,.07.03.14.14.14.07,0,.17-.1.27-.2,1.19-.99,2.52-1.33,3.64-1.33,1.33,0,2.07.2,2.07,1.39,0,.85-.41,1.26-1.12,1.26Z"/>
      <path d="M930.69,342.84c-.2,0-.24.1-.24.24.1,3.16.75,4.86,4.52,4.86,1.05,0,2.41-.34,3.33-.85.99-.58,1.16-.75,1.43-.75.78,0,1.22.75,1.22,1.43,0,.34-.17.65-.54.88-1.5,1.02-3.43,1.67-5.68,1.67-5.71,0-6.9-3.3-6.9-8.46,0-4.83,1.05-8.46,6.77-8.46s6.63,4.25,6.63,7.31c0,.88-.14,2.14-1.63,2.14h-8.91ZM934.6,335.63c-2.99,0-4.15,1.84-4.15,4.73,0,.17,0,.31.24.31h7.79c.14,0,.24-.03.24-.2,0-2.72-.99-4.83-4.11-4.83Z"/>
      <path d="M941.91,329.03c-.85,0-1.16-.61-1.16-1.22,0-.65.31-1.29,1.16-1.29h14.28c.85,0,1.16.65,1.16,1.29,0,.61-.31,1.22-1.16,1.22h-5.47c-.2,0-.31.07-.31.31v19.79c0,.95-.71,1.19-1.36,1.19-.68,0-1.36-.24-1.36-1.19v-19.79c0-.24-.07-.31-.31-.31h-5.47Z"/>
      <path d="M959.94,342.84c-.2,0-.24.1-.24.24.1,3.16.75,4.86,4.52,4.86,1.05,0,2.41-.34,3.33-.85.99-.58,1.16-.75,1.43-.75.78,0,1.22.75,1.22,1.43,0,.34-.17.65-.54.88-1.5,1.02-3.43,1.67-5.68,1.67-5.71,0-6.9-3.3-6.9-8.46,0-4.83,1.05-8.46,6.77-8.46s6.63,4.25,6.63,7.31c0,.88-.14,2.14-1.63,2.14h-8.91ZM963.85,335.63c-2.99,0-4.15,1.84-4.15,4.73,0,.17,0,.31.24.31h7.79c.14,0,.24-.03.24-.2,0-2.72-.99-4.83-4.11-4.83Z"/>
      <path d="M977.15,340.22v8.97c0,.82-.65,1.12-1.26,1.12-.65,0-1.26-.31-1.26-1.12v-14.69c0-.82.61-1.12,1.26-1.12s1.29.31,1.29,1.05v.34c0,.1.07.17.17.17.07,0,.2-.14.27-.17,1.26-1.05,2.69-1.39,4.18-1.39,4.56,0,5.92,2.92,5.92,7.04v8.77c0,.82-.61,1.12-1.22,1.12-.65,0-1.29-.31-1.29-1.12v-7.68c0-3.3-.14-5.75-4.04-5.75-2.86,0-4.01,1.56-4.01,4.45Z"/>
      <path d="M991.84,341.85c0-4.83,1.22-8.46,6.29-8.46,1.29,0,2.75.34,4.01,1.43,0,0,.17.17.27.17s.17-.07.17-.24v-7.24c0-.82.65-1.12,1.29-1.12.61,0,1.22.31,1.22,1.12v21.69c0,.82-.61,1.12-1.22,1.12s-1.29-.2-1.29-.99v-.41c0-.17-.07-.2-.17-.2-.07,0-.24.14-.31.2-1.29,1.09-2.69,1.39-3.98,1.39-5.07,0-6.29-3.64-6.29-8.46ZM994.43,341.85c0,3.57.31,6.08,4.15,6.08s4.01-2.65,4.01-6.08c0-3.09-.07-6.08-4.01-6.08s-4.15,2.52-4.15,6.08Z"/>
      <path d="M102.48,370.55c-1.02,0-1.7-.71-1.7-1.7s.68-1.67,1.7-1.67c.95,0,1.67.68,1.67,1.67s-.71,1.7-1.67,1.7ZM103.74,389.99c0,.82-.65,1.12-1.26,1.12-.65,0-1.26-.31-1.26-1.12v-14.69c0-.82.61-1.12,1.26-1.12.61,0,1.26.31,1.26,1.12v14.69Z"/>
      <path d="M113.8,388.74c2.01,0,3.37-.85,3.37-2.38,0-1.16-.88-1.77-2.52-2.28l-2.48-.78c-2.69-.85-4.32-2.11-4.32-4.55,0-2.82,2.45-4.56,5.95-4.56,2.07,0,3.43.61,4.18,1.05.48.27.78.58.78,1.02,0,.58-.58,1.33-1.12,1.33-.31,0-.48-.1-.71-.2-.51-.31-1.84-.82-3.13-.82-2.01,0-3.37.75-3.37,2.07,0,1.19.95,1.77,2.52,2.28l2.45.78c2.82.88,4.35,2.18,4.35,4.66,0,2.92-2.45,4.76-5.95,4.76-2.72,0-4.45-.95-5.61-2.07-.24-.27-.51-.51-.51-.92,0-.61.58-1.29,1.29-1.29.24,0,.41.03.85.41.85.75,1.8,1.5,3.98,1.5Z"/>
      <path d="M144.91,389.99c0,.82-.61,1.12-1.22,1.12-.65,0-1.29-.31-1.29-1.12v-7.34c0-2.18-.14-3.88-.68-4.66-.85-1.22-2.14-1.43-3.4-1.43-1.39,0-2.58.48-3.3,1.5-.58.78-.68,2.35-.68,3.74v8.19c0,.82-.65,1.12-1.26,1.12-.65,0-1.26-.31-1.26-1.12v-14.69c0-.82.61-1.12,1.26-1.12.54,0,1.29.2,1.29.88v.51c0,.1.07.17.17.17.07,0,.27-.17.27-.17,1.26-1.05,2.69-1.39,3.98-1.39,1.63,0,3.33.41,4.56,1.8.14.14.31.27.48.27s.24-.1.37-.2c1.73-1.53,3.47-1.87,5.1-1.87,4.93,0,6.19,3.06,6.19,7v8.8c0,.82-.65,1.12-1.26,1.12-.65,0-1.26-.31-1.26-1.12v-7.34c0-2.55-.17-3.88-.71-4.69-.75-1.16-1.97-1.39-3.37-1.39-1.05,0-2.38.24-3.2,1.29-.61.75-.82,2.18-.82,3.98l.03,8.16Z"/>
      <path d="M169.69,389.14c-.1,0-.2.14-.34.24-1.12.92-2.58,1.73-5.03,1.73-3.94,0-5.17-2.45-5.17-4.62,0-4.15,3.43-5.17,6.73-5.17h3.3c.24,0,.31-.1.31-.31v-.99c0-2.35-1.16-3.47-3.74-3.47-2.07,0-2.92.51-3.98,1.29-.17.14-.34.17-.48.17-.65,0-1.26-.71-1.26-1.33,0-.37.2-.68.54-.99,1.53-1.22,3.47-1.53,5.24-1.53,5.27,0,6.32,2.72,6.32,6.76v6.9c0,.61.17.92.75.92h.31c.58,0,.88.48.88,1.12,0,.88-.37,1.22-1.77,1.22-1.29,0-2.07-.58-2.45-1.77-.07-.17-.1-.2-.17-.2ZM169.63,383.88c0-.2-.1-.31-.31-.31h-3.2c-2.31,0-4.39.34-4.39,2.55,0,1.73,1.12,2.79,3.03,2.79,3.37,0,4.86-2.14,4.86-4.18v-.85Z"/>
      <path d="M176.46,382.65c0-4.83,1.22-8.46,6.29-8.46,1.29,0,2.75.34,4.01,1.43,0,0,.17.17.27.17s.17-.07.17-.24v-7.24c0-.82.65-1.12,1.29-1.12.61,0,1.22.31,1.22,1.12v21.69c0,.82-.61,1.12-1.22,1.12s-1.29-.2-1.29-.99v-.41c0-.17-.07-.2-.17-.2-.07,0-.24.14-.31.2-1.29,1.09-2.69,1.39-3.98,1.39-5.07,0-6.29-3.64-6.29-8.46ZM179.04,382.65c0,3.57.31,6.08,4.15,6.08s4.01-2.65,4.01-6.08c0-3.09-.07-6.08-4.01-6.08s-4.15,2.52-4.15,6.08Z"/>
      <path d="M196.87,383.64c-.2,0-.24.1-.24.24.1,3.16.75,4.86,4.52,4.86,1.05,0,2.41-.34,3.33-.85.99-.58,1.16-.75,1.43-.75.78,0,1.22.75,1.22,1.43,0,.34-.17.65-.54.88-1.5,1.02-3.43,1.67-5.68,1.67-5.71,0-6.9-3.3-6.9-8.46,0-4.83,1.05-8.46,6.77-8.46s6.63,4.25,6.63,7.31c0,.88-.14,2.14-1.63,2.14h-8.91ZM200.78,376.43c-2.99,0-4.15,1.84-4.15,4.73,0,.17,0,.31.24.31h7.79c.14,0,.24-.03.24-.2,0-2.72-.99-4.83-4.11-4.83Z"/>
      <path d="M232.84,382.65c0,4.83-1.22,8.46-6.36,8.46-1.29,0-2.55-.31-3.77-1.26-.17-.14-.31-.31-.44-.31s-.2.03-.2.2v.41c0,.61-.65.95-1.26.95-.65,0-1.26-.31-1.26-1.12v-21.69c0-.82.61-1.12,1.26-1.12.61,0,1.26.31,1.26,1.12v7.28c0,.1.07.2.2.2.07,0,.24-.14.27-.17,1.22-1.09,2.79-1.43,3.94-1.43,5.13,0,6.36,3.64,6.36,8.46ZM226.07,376.57c-3.74,0-4.01,2.75-4.01,6.08,0,3.03.1,6.08,4.01,6.08s4.18-2.52,4.18-6.08-.31-6.08-4.18-6.08Z"/>
      <path d="M242.02,393.67c-.99,2.52-2.69,4.45-5.03,4.45-.88,0-1.22-.51-1.22-1.26,0-.54.34-.92.95-1.05,1.6-.34,2.28-.85,3.13-3.03l.78-1.94c.07-.2.14-.37.14-.58,0-.14-.03-.27-.1-.44l-5.37-14.04c-.07-.17-.1-.34-.1-.48,0-.68.78-1.12,1.46-1.12.37,0,.78.17.99.71l4.15,11.35c.1.31.1.65.34.65.2,0,.24-.41.34-.65l4.25-11.35c.2-.54.61-.71.99-.71.68,0,1.46.44,1.46,1.12,0,.14-.03.31-.1.48l-7.04,17.88Z"/>
      <path d="M265.79,391.12c-3.23,0-4.66-1.84-4.66-4.9v-9.35c0-.17-.1-.24-.31-.24h-1.77c-.82,0-1.09-.54-1.09-1.16s.27-1.16,1.09-1.16h1.77c.2,0,.31-.07.31-.27v-3.88c0-.82.61-1.12,1.26-1.12.61,0,1.26.31,1.26,1.12v3.84c0,.24.07.31.31.31h2.14c.82,0,1.09.54,1.09,1.16s-.27,1.16-1.09,1.16h-2.14c-.24,0-.31.07-.31.31v9.52c0,1.43.82,2.28,2.41,2.28.71,0,1.12.51,1.12,1.16,0,.58-.34,1.22-1.39,1.22Z"/>
      <path d="M273.1,375.51c0,.17.07.24.2.24.07,0,.2-.14.27-.17,1.26-1.05,2.69-1.39,4.18-1.39,4.56,0,5.92,2.92,5.92,7.04v8.77c0,.82-.61,1.12-1.22,1.12-.65,0-1.29-.31-1.29-1.12v-7.68c0-3.3-.14-5.75-4.04-5.75-2.86,0-4.01,1.53-4.01,4.52v8.91c0,.82-.65,1.12-1.26,1.12-.65,0-1.26-.31-1.26-1.12v-21.69c0-.82.61-1.12,1.26-1.12.61,0,1.26.31,1.26,1.12v7.21Z"/>
      <path d="M290.66,383.64c-.2,0-.24.1-.24.24.1,3.16.75,4.86,4.52,4.86,1.05,0,2.41-.34,3.33-.85.99-.58,1.16-.75,1.43-.75.78,0,1.22.75,1.22,1.43,0,.34-.17.65-.54.88-1.5,1.02-3.43,1.67-5.68,1.67-5.71,0-6.9-3.3-6.9-8.46,0-4.83,1.05-8.46,6.77-8.46s6.63,4.25,6.63,7.31c0,.88-.14,2.14-1.63,2.14h-8.91ZM294.57,376.43c-2.99,0-4.15,1.84-4.15,4.73,0,.17,0,.31.24.31h7.79c.14,0,.24-.03.24-.2,0-2.72-.99-4.83-4.11-4.83Z"/>
      <path d="M318.64,388.74c2.01,0,3.37-.85,3.37-2.38,0-1.16-.88-1.77-2.52-2.28l-2.48-.78c-2.69-.85-4.32-2.11-4.32-4.55,0-2.82,2.45-4.56,5.95-4.56,2.07,0,3.43.61,4.18,1.05.48.27.78.58.78,1.02,0,.58-.58,1.33-1.12,1.33-.31,0-.48-.1-.71-.2-.51-.31-1.84-.82-3.13-.82-2.01,0-3.37.75-3.37,2.07,0,1.19.95,1.77,2.52,2.28l2.45.78c2.82.88,4.35,2.18,4.35,4.66,0,2.92-2.45,4.76-5.95,4.76-2.72,0-4.45-.95-5.61-2.07-.24-.27-.51-.51-.51-.92,0-.61.58-1.29,1.29-1.29.24,0,.41.03.85.41.85.75,1.8,1.5,3.98,1.5Z"/>
      <path d="M338.43,389.14c-.1,0-.2.14-.34.24-1.12.92-2.58,1.73-5.03,1.73-3.94,0-5.17-2.45-5.17-4.62,0-4.15,3.43-5.17,6.73-5.17h3.3c.24,0,.31-.1.31-.31v-.99c0-2.35-1.16-3.47-3.74-3.47-2.07,0-2.92.51-3.98,1.29-.17.14-.34.17-.48.17-.65,0-1.26-.71-1.26-1.33,0-.37.2-.68.54-.99,1.53-1.22,3.47-1.53,5.24-1.53,5.27,0,6.32,2.72,6.32,6.76v6.9c0,.61.17.92.75.92h.31c.58,0,.88.48.88,1.12,0,.88-.37,1.22-1.77,1.22-1.29,0-2.07-.58-2.45-1.77-.07-.17-.1-.2-.17-.2ZM338.37,383.88c0-.2-.1-.31-.31-.31h-3.2c-2.31,0-4.39.34-4.39,2.55,0,1.73,1.12,2.79,3.03,2.79,3.37,0,4.86-2.14,4.86-4.18v-.85Z"/>
      <path d="M359.27,389.99c0,.82-.61,1.12-1.22,1.12-.65,0-1.29-.31-1.29-1.12v-7.34c0-2.18-.14-3.88-.68-4.66-.85-1.22-2.14-1.43-3.4-1.43-1.39,0-2.58.48-3.3,1.5-.58.78-.68,2.35-.68,3.74v8.19c0,.82-.65,1.12-1.26,1.12-.65,0-1.26-.31-1.26-1.12v-14.69c0-.82.61-1.12,1.26-1.12.54,0,1.29.2,1.29.88v.51c0,.1.07.17.17.17.07,0,.27-.17.27-.17,1.26-1.05,2.69-1.39,3.98-1.39,1.63,0,3.33.41,4.56,1.8.14.14.31.27.48.27s.24-.1.37-.2c1.73-1.53,3.47-1.87,5.1-1.87,4.93,0,6.19,3.06,6.19,7v8.8c0,.82-.65,1.12-1.26,1.12-.65,0-1.26-.31-1.26-1.12v-7.34c0-2.55-.17-3.88-.71-4.69-.75-1.16-1.97-1.39-3.37-1.39-1.05,0-2.38.24-3.2,1.29-.61.75-.82,2.18-.82,3.98l.03,8.16Z"/>
      <path d="M376.86,383.64c-.2,0-.24.1-.24.24.1,3.16.75,4.86,4.52,4.86,1.05,0,2.41-.34,3.33-.85.99-.58,1.16-.75,1.43-.75.78,0,1.22.75,1.22,1.43,0,.34-.17.65-.54.88-1.5,1.02-3.43,1.67-5.68,1.67-5.71,0-6.9-3.3-6.9-8.46,0-4.83,1.05-8.46,6.77-8.46s6.63,4.25,6.63,7.31c0,.88-.14,2.14-1.63,2.14h-8.91ZM380.77,376.43c-2.99,0-4.15,1.84-4.15,4.73,0,.17,0,.31.24.31h7.79c.14,0,.24-.03.24-.2,0-2.72-.99-4.83-4.11-4.83Z"/>
      <path d="M412.83,382.65c0,4.83-1.22,8.46-6.32,8.46-1.29,0-2.72-.31-3.98-1.39,0-.03-.17-.17-.27-.17-.14,0-.2.1-.2.24v7.21c0,.82-.65,1.12-1.26,1.12-.65,0-1.26-.31-1.26-1.12v-21.69c0-.82.61-1.12,1.26-1.12s1.26.31,1.26,1.12v.24c0,.14.07.2.2.2.07,0,.24-.1.31-.17,1.29-1.09,2.65-1.39,3.94-1.39,5.1,0,6.32,3.64,6.32,8.46ZM410.24,382.65c0-3.57-.31-6.08-4.18-6.08s-4.01,2.75-4.01,6.08c0,3.03.07,6.08,4.01,6.08s4.18-2.52,4.18-6.08Z"/>
      <path d="M419.35,383.64c-.2,0-.24.1-.24.24.1,3.16.75,4.86,4.52,4.86,1.05,0,2.41-.34,3.33-.85.99-.58,1.16-.75,1.43-.75.78,0,1.22.75,1.22,1.43,0,.34-.17.65-.54.88-1.5,1.02-3.43,1.67-5.68,1.67-5.71,0-6.9-3.3-6.9-8.46,0-4.83,1.05-8.46,6.77-8.46s6.63,4.25,6.63,7.31c0,.88-.14,2.14-1.63,2.14h-8.91ZM423.26,376.43c-2.99,0-4.15,1.84-4.15,4.73,0,.17,0,.31.24.31h7.79c.14,0,.24-.03.24-.2,0-2.72-.99-4.83-4.11-4.83Z"/>
      <path d="M440.28,374.19c5.71,0,6.76,3.64,6.76,8.46s-1.05,8.46-6.76,8.46-6.77-3.64-6.77-8.46,1.05-8.46,6.77-8.46ZM440.28,388.74c3.88,0,4.18-2.52,4.18-6.08s-.31-6.08-4.18-6.08-4.18,2.52-4.18,6.08.31,6.08,4.18,6.08Z"/>
      <path d="M464.59,382.65c0,4.83-1.22,8.46-6.32,8.46-1.29,0-2.72-.31-3.98-1.39,0-.03-.17-.17-.27-.17-.14,0-.2.1-.2.24v7.21c0,.82-.65,1.12-1.26,1.12-.65,0-1.26-.31-1.26-1.12v-21.69c0-.82.61-1.12,1.26-1.12s1.26.31,1.26,1.12v.24c0,.14.07.2.2.2.07,0,.24-.1.31-.17,1.29-1.09,2.65-1.39,3.94-1.39,5.1,0,6.32,3.64,6.32,8.46ZM462.01,382.65c0-3.57-.31-6.08-4.18-6.08s-4.01,2.75-4.01,6.08c0,3.03.07,6.08,4.01,6.08s4.18-2.52,4.18-6.08Z"/>
      <path d="M468.85,387.21v-18.9c0-.82.61-1.12,1.26-1.12.61,0,1.26.31,1.26,1.12v18.73c0,1.22.51,1.67,1.7,1.67.61,0,1.05.41,1.05,1.12s-.41,1.29-1.63,1.29c-2.38,0-3.64-1.26-3.64-3.91Z"/>
      <path d="M479.41,383.64c-.2,0-.24.1-.24.24.1,3.16.75,4.86,4.52,4.86,1.05,0,2.41-.34,3.33-.85.99-.58,1.16-.75,1.43-.75.78,0,1.22.75,1.22,1.43,0,.34-.17.65-.54.88-1.5,1.02-3.43,1.67-5.68,1.67-5.71,0-6.9-3.3-6.9-8.46,0-4.83,1.05-8.46,6.77-8.46s6.63,4.25,6.63,7.31c0,.88-.14,2.14-1.63,2.14h-8.91ZM483.32,376.43c-2.99,0-4.15,1.84-4.15,4.73,0,.17,0,.31.24.31h7.79c.14,0,.24-.03.24-.2,0-2.72-.99-4.83-4.11-4.83Z"/>
      <path d="M495.3,391.12c-1.02,0-1.73-.75-1.73-1.73s.71-1.73,1.73-1.73,1.73.75,1.73,1.73-.75,1.73-1.73,1.73ZM494.04,368.31c0-.82.61-1.12,1.26-1.12.61,0,1.26.31,1.26,1.12v14.55c0,.82-.65,1.12-1.26,1.12-.65,0-1.26-.31-1.26-1.12v-14.55Z"/>
    </g>
  </g>
</svg>